<svg xmlns="http://www.w3.org/2000/svg" viewBox="0 0 708.66 680.31"><defs><style>.cls-1,.cls-2,.cls-4{fill:#fff;}.cls-1,.cls-3{stroke:#1d1d1b;}.cls-1,.cls-3,.cls-4{stroke-miterlimit:10;stroke-width:3px;}.cls-3{fill:none;}.cls-4{stroke:#020202;}.cls-5{fill:#f6f6f6;}</style></defs><title>Default</title><g id="Default_Artboard_Layer" data-name="Default Artboard/Layer"><path class="cls-1" d="M133.15,550.8q3.65-3.78,7.48-7.52a306.94,306.94,0,0,1,74.45-53.41"/><path class="cls-1" d="M120.09,538.67A135.24,135.24,0,0,0,136.58,526c7.18-6.44,12.22-12.31,19.51-20.81,5.49-6.39,8.25-9.61,11.58-14.11a167.94,167.94,0,0,0,17.65-30.25"/><circle class="cls-1" cx="132.56" cy="566.24" r="12.75" transform="translate(-370.84 275.06) rotate(-46.78)"/><path class="cls-1" d="M116.33,533.49a12.73,12.73,0,0,0-20.41,4.2c-.17-.18-.34-.37-.52-.54a12.81,12.81,0,1,0,2.94,14.38c.18.18.34.37.53.54a12.75,12.75,0,0,0,17.46-18.58Z"/><circle class="cls-1" cx="98.96" cy="571.5" r="14.13"/><circle class="cls-1" cx="121.68" cy="557.55" r="13.87"/><circle class="cls-1" cx="96.48" cy="555.62" r="12.68"/><circle class="cls-1" cx="121.68" cy="557.55" r="13.87"/><circle class="cls-1" cx="96.48" cy="555.62" r="12.68"/><path class="cls-1" d="M255.58,613.33q2.11-4.8,4.45-9.63a307.3,307.3,0,0,1,51.69-75.65"/><path class="cls-1" d="M239.16,606.4a134.07,134.07,0,0,0,11.16-17.54c4.54-8.5,7.27-15.75,11.22-26.22,3-7.89,4.46-11.86,6-17.22A168,168,0,0,0,273.83,511"/><circle class="cls-1" cx="215.31" cy="638.18" r="12.75" transform="translate(-427.71 838.58) rotate(-88.67)"/><path class="cls-1" d="M249.25,651.72a12.75,12.75,0,0,0,13-12.45,12.49,12.49,0,0,0-.65-4.3c.25,0,.5,0,.75,0a12.81,12.81,0,1,0-11.79-8.74c-.25,0-.5,0-.76,0a12.75,12.75,0,1,0-.59,25.49Z"/><circle class="cls-1" cx="237.76" cy="627.46" r="14.13"/><circle class="cls-1" cx="215.31" cy="638.18" r="12.75" transform="translate(-427.71 838.58) rotate(-88.67)"/><path class="cls-1" d="M249.25,651.72a12.75,12.75,0,0,0,13-12.45,12.49,12.49,0,0,0-.65-4.3c.25,0,.5,0,.75,0a12.81,12.81,0,1,0-11.79-8.74c-.25,0-.5,0-.76,0a12.75,12.75,0,1,0-.59,25.49Z"/><circle class="cls-1" cx="237.76" cy="627.46" r="14.13"/><circle class="cls-1" cx="228.03" cy="614.39" r="14.13"/><path class="cls-1" d="M411,641.62q-1.14-5.11-2.13-10.39a307.06,307.06,0,0,1-3.28-91.56"/><path class="cls-1" d="M393.64,645.77a142.34,142.34,0,0,0-1.34-21.46c-1.38-9.86-3.5-17.57-6.57-28.7-2.31-8.38-3.47-12.6-5.4-18a171.93,171.93,0,0,0-15.71-32.46"/><circle class="cls-1" cx="435.85" cy="642.69" r="12.75" transform="translate(-331.59 761.25) rotate(-64.64)"/><path class="cls-1" d="M410.36,616.5a12.74,12.74,0,0,0-17,6.06,12.57,12.57,0,0,0-1.16,4.19c-.22-.12-.43-.24-.66-.35a12.81,12.81,0,1,0,7.21,12.78c.22.12.44.25.67.36a12.75,12.75,0,0,0,10.92-23Z"/><circle class="cls-1" cx="405.49" cy="658" r="14.13"/><circle class="cls-1" cx="422.83" cy="637.76" r="13.87"/><circle class="cls-1" cx="398.25" cy="643.65" r="12.68"/><circle class="cls-1" cx="422.83" cy="637.76" r="13.87"/><circle class="cls-1" cx="398.25" cy="643.65" r="12.68"/><path class="cls-1" d="M55,441q4.5-2.7,9.18-5.32a307.39,307.39,0,0,1,85.79-32.17"/><path class="cls-1" d="M49.32,423.69A128.72,128.72,0,0,0,67.65,416c8.22-4.19,14.33-8.38,23.16-14.45,6.65-4.57,10-6.86,14.17-10.21a161.21,161.21,0,0,0,23.81-23.67"/><circle class="cls-1" cx="42.28" cy="435.49" r="14.13"/><circle class="cls-1" cx="30.86" cy="416.31" r="12.75" transform="translate(-62.62 9.46) rotate(-8.7)"/><path class="cls-1" d="M23.43,452.1A12.75,12.75,0,0,0,38,462.77a12.39,12.39,0,0,0,4.12-1.39c0,.25,0,.5.08.75A12.78,12.78,0,1,0,48.72,449c0-.25,0-.5-.08-.75a12.75,12.75,0,0,0-25.21,3.86Z"/><circle class="cls-1" cx="19.8" cy="437.62" r="14.13"/><path class="cls-1" d="M45.3,302.88c3.38.37,6.8.79,10.25,1.28a296.48,296.48,0,0,1,85.17,25.57"/><path class="cls-1" d="M51.47,285.77A128.79,128.79,0,0,0,70.63,291c9.06,1.74,16.46,2.18,27.15,2.81,8,.48,12.11.73,17.46.65a160.39,160.39,0,0,0,33.32-4.06"/><circle class="cls-1" cx="23.91" cy="283.01" r="12.68"/><circle class="cls-1" cx="45.95" cy="282.81" r="12.68"/><circle class="cls-1" cx="48.39" cy="304.46" r="12.68"/><circle class="cls-1" cx="27.7" cy="297.62" r="12.68"/><circle class="cls-1" cx="34.24" cy="318.22" r="12.68"/><path class="cls-1" d="M538.77,579c-2.23-2.7-4.44-5.45-6.62-8.28a307.29,307.29,0,0,1-44.55-80.07"/><path class="cls-1" d="M522.51,587.18a131.09,131.09,0,0,0-10.28-17c-5.37-7.5-10.42-12.92-17.73-20.75-5.51-5.9-8.27-8.86-12.2-12.5a161.6,161.6,0,0,0-26.95-20"/><circle class="cls-1" cx="546.18" cy="596.41" r="14.13"/><circle class="cls-1" cx="517.96" cy="605.9" r="12.75" transform="translate(-278.86 627.73) rotate(-51.04)"/><path class="cls-1" d="M549.41,587.28a12.74,12.74,0,0,0-1.9-17.93,12.56,12.56,0,0,0-3.81-2.11c.17-.19.35-.36.51-.56a12.82,12.82,0,1,0-14.12,4c-.17.19-.35.37-.51.57a12.75,12.75,0,1,0,19.83,16Z"/><circle class="cls-1" cx="532.05" cy="582.28" r="14.13"/><circle class="cls-1" cx="513.18" cy="587.18" r="14.13"/><path class="cls-1" d="M531.79,103.61q-3.72,3.51-7.64,7a296,296,0,0,1-74.81,48.08"/><path class="cls-1" d="M541.89,117.32a131.64,131.64,0,0,0-16.7,11.5c-7.33,5.92-12.56,11.41-20.12,19.35-5.69,6-8.56,9-12,13.22a166.26,166.26,0,0,0-18.9,28.78"/><circle class="cls-1" cx="529.07" cy="82.51" r="12.75" transform="translate(80.52 374.97) rotate(-41.97)"/><path class="cls-1" d="M542.49,116.5A12.71,12.71,0,0,0,563.18,114c.16.2.31.4.48.59a12.75,12.75,0,1,0,1-18,12.51,12.51,0,0,0-2.68,3.43c-.16-.2-.31-.4-.48-.59a12.75,12.75,0,0,0-19,17Z"/><circle class="cls-1" cx="562.98" cy="80.09" r="14.13"/><circle class="cls-1" cx="539.18" cy="92.08" r="13.87"/><circle class="cls-1" cx="564.13" cy="96.12" r="12.68"/><circle class="cls-1" cx="539.18" cy="92.08" r="13.87"/><circle class="cls-1" cx="564.13" cy="96.12" r="12.68"/><path class="cls-1" d="M413.42,38.64C413,42,412.55,45.43,412,48.87a295.69,295.69,0,0,1-26.56,84.86"/><path class="cls-1" d="M430.46,45A129.14,129.14,0,0,0,425,64.11c-1.84,9-2.37,16.43-3.13,27.11-.58,8-.86,12.1-.86,17.45A162.45,162.45,0,0,0,424.68,142"/><circle class="cls-1" cx="443.14" cy="44.76" r="12.75" transform="translate(103.96 333.43) rotate(-46.17)"/><path class="cls-1" d="M427.27,11.84a12.75,12.75,0,0,0-18,.37,12.57,12.57,0,0,0-2.42,3.61c-.18-.18-.34-.37-.52-.55a12.75,12.75,0,1,0,.36,18,12.58,12.58,0,0,0,2.43-3.62,6.76,6.76,0,0,0,.52.55,12.75,12.75,0,1,0,17.66-18.39Z"/><circle class="cls-1" cx="432.29" cy="32.76" r="13.87"/><circle class="cls-1" cx="407.41" cy="37.22" r="12.68"/><circle class="cls-1" cx="432.29" cy="32.76" r="13.87"/><circle class="cls-1" cx="407.41" cy="37.22" r="12.68"/><polygon class="cls-2" points="330.24 156.37 331.9 162.19 329.25 168.04 330.37 173.93 328.91 179.67 325.58 184.94 327.56 191.42 324.89 196.93 319.46 200.25 314.83 196.65 314.7 190.44 313.19 185.23 311.2 180.03 307.09 175.08 306.05 169.38 304.95 163.66 305.89 157.77 306.87 151.99 307.73 146.3 303.15 140.31 308.53 135.04 307.46 129.14 303.79 122.01 308.88 117.23 314.5 114.06 318.41 118.19 325.55 120.96 326.94 127.03 326.22 133.39 323.79 139.76 328.97 144.74 324.53 151.05 330.24 156.37"/><polygon class="cls-3" points="330.24 156.37 331.9 162.19 329.25 168.04 330.37 173.93 328.91 179.67 325.58 184.94 327.56 191.42 324.89 196.93 319.46 200.25 314.83 196.65 314.7 190.44 313.19 185.23 311.2 180.03 307.09 175.08 306.05 169.38 304.95 163.66 305.89 157.77 306.87 151.99 307.73 146.3 303.15 140.31 308.53 135.04 307.46 129.14 303.79 122.01 308.88 117.23 314.5 114.06 318.41 118.19 325.55 120.96 326.94 127.03 326.22 133.39 323.79 139.76 328.97 144.74 324.53 151.05 330.24 156.37"/><polygon class="cls-2" points="299.23 159.56 303.63 164.89 302.69 170.83 305.24 176.64 301.55 182.43 299.79 188 298.74 193.46 297.33 198.6 295.04 204.78 290.25 200.28 285.87 196.28 285.01 190.28 280.22 185.84 277.19 180.54 281.09 173.58 281.16 167.76 275.59 162.79 276.79 156.79 275.97 151.04 275.8 145.24 275.23 139.41 274.05 133.39 277.98 128.12 280.17 123 283.58 120.89 287.34 122.09 290.25 126.71 292.81 131.74 296.66 136.47 297.98 142.16 298.46 148 302.78 153.11 299.23 159.56"/><polygon class="cls-3" points="299.23 159.56 303.63 164.89 302.69 170.83 305.24 176.64 301.55 182.43 299.79 188 298.74 193.46 297.33 198.6 295.04 204.78 290.25 200.28 285.87 196.28 285.01 190.28 280.22 185.84 277.19 180.54 281.09 173.58 281.16 167.76 275.59 162.79 276.79 156.79 275.97 151.04 275.8 145.24 275.23 139.41 274.05 133.39 277.98 128.12 280.17 123 283.58 120.89 287.34 122.09 290.25 126.71 292.81 131.74 296.66 136.47 297.98 142.16 298.46 148 302.78 153.11 299.23 159.56"/><polygon class="cls-2" points="276.11 164.29 275.11 170.53 273.82 176.62 279.93 181.57 276.77 187.74 279.69 193.46 279.41 199.42 280.14 206.19 272.57 207.31 268.64 206.19 266.51 201.02 259.89 198.49 255.1 194.23 257.7 186.74 255.63 181.41 255.17 175.57 249.43 171.17 246.69 165.78 251 159.03 244.9 154.09 245.88 148.07 246.28 142.21 247.67 136.52 249.11 131.16 251.25 124.68 258.9 126.23 262.93 131.3 266.94 136.03 262.97 144.55 269.99 147.76 273.13 152.87 274.84 158.53 276.11 164.29"/><polygon class="cls-3" points="276.11 164.29 275.11 170.53 273.82 176.62 279.93 181.57 276.77 187.74 279.69 193.46 279.41 199.42 280.14 206.19 272.57 207.31 268.64 206.19 266.51 201.02 259.89 198.49 255.1 194.23 257.7 186.74 255.63 181.41 255.17 175.57 249.43 171.17 246.69 165.78 251 159.03 244.9 154.09 245.88 148.07 246.28 142.21 247.67 136.52 249.11 131.16 251.25 124.68 258.9 126.23 262.93 131.3 266.94 136.03 262.97 144.55 269.99 147.76 273.13 152.87 274.84 158.53 276.11 164.29"/><polygon class="cls-2" points="244.77 175.18 253.47 177.9 249.88 185.43 255.16 189.84 258.63 195.09 257.69 201.38 260.19 207.25 253.06 212.49 252.38 215.53 247.9 216.88 241.4 215.19 242.73 206.36 236.45 203.95 229.85 201.15 232.8 192.79 224.89 190.29 223.94 184.24 221.43 178.92 222.99 172.18 219.16 167.35 214.74 162.41 213.16 156.55 213.49 150.33 215.65 144.28 218.85 138.37 223.09 143.76 227.91 145.93 236.06 146.58 234.74 154.79 239.36 158.64 243.9 162.77 243.24 169.61 244.77 175.18"/><polygon class="cls-3" points="244.77 175.18 253.47 177.9 249.88 185.43 255.16 189.84 258.63 195.09 257.69 201.38 260.19 207.25 253.06 212.49 252.38 215.53 247.9 216.88 241.4 215.19 242.73 206.36 236.45 203.95 229.85 201.15 232.8 192.79 224.89 190.29 223.94 184.24 221.43 178.92 222.99 172.18 219.16 167.35 214.74 162.41 213.16 156.55 213.49 150.33 215.65 144.28 218.85 138.37 223.09 143.76 227.91 145.93 236.06 146.58 234.74 154.79 239.36 158.64 243.9 162.77 243.24 169.61 244.77 175.18"/><polygon class="cls-2" points="223.8 185.22 226.39 190.66 228.53 196.29 230.9 201.63 236.98 204.8 236.61 211.53 237.68 217.12 238.77 222.22 240.21 228.09 234.02 228.06 228.26 226.48 225.19 220.63 221.28 216.52 216.44 213.45 210.75 211.03 205.56 207.87 202.82 202.5 197.91 198.93 195.9 193.15 195.15 186.75 192.63 181.68 189.52 176.97 183.44 173.18 186.91 166.73 186.93 163.42 190.82 161.75 194.91 165.91 200.75 167.16 205.12 170.88 210.92 173.11 212.98 179.27 218.03 182.45 223.8 185.22"/><polygon class="cls-3" points="223.8 185.22 226.39 190.66 228.53 196.29 230.9 201.63 236.98 204.8 236.61 211.53 237.68 217.12 238.77 222.22 240.21 228.09 234.02 228.06 228.26 226.48 225.19 220.63 221.28 216.52 216.44 213.45 210.75 211.03 205.56 207.87 202.82 202.5 197.91 198.93 195.9 193.15 195.15 186.75 192.63 181.68 189.52 176.97 183.44 173.18 186.91 166.73 186.93 163.42 190.82 161.75 194.91 165.91 200.75 167.16 205.12 170.88 210.92 173.11 212.98 179.27 218.03 182.45 223.8 185.22"/><polygon class="cls-2" points="199.71 204.36 204.69 207.66 208.85 211.9 211.88 217.2 213.57 223.45 216.81 228.15 221.69 231.85 224.61 237.13 222.09 242.23 217.73 242.98 211 246.05 206.96 240.21 202.28 236.85 195.36 237.08 192.46 230.97 188.53 226.65 182.62 224.81 175.87 223.64 173.96 217.11 169.7 213.15 165.93 208.72 160.07 205.78 160 198.82 155.8 194.21 157.11 187.94 163.02 185.96 168.56 188.19 174.45 189.26 179.39 192.47 185.51 193.72 189.82 197.9 195.15 200.6 199.71 204.36"/><polygon class="cls-3" points="199.71 204.36 204.69 207.66 208.85 211.9 211.88 217.2 213.57 223.45 216.81 228.15 221.69 231.85 224.61 237.13 222.09 242.23 217.73 242.98 211 246.05 206.96 240.21 202.28 236.85 195.36 237.08 192.46 230.97 188.53 226.65 182.62 224.81 175.87 223.64 173.96 217.11 169.7 213.15 165.93 208.72 160.07 205.78 160 198.82 155.8 194.21 157.11 187.94 163.02 185.96 168.56 188.19 174.45 189.26 179.39 192.47 185.51 193.72 189.82 197.9 195.15 200.6 199.71 204.36"/><polygon class="cls-2" points="185.76 231.97 192.29 232.48 196.84 236.3 201.91 239.39 206.33 243.35 207.02 251.13 214.04 252.45 214.2 259.01 215.54 262.92 211.94 269.04 205.46 268.52 200.53 263.38 194.6 263.02 189.11 261.05 184.09 258.05 179.24 254.82 171.89 256 168.75 249.82 165.38 244.5 160.27 241.83 153.81 240.62 147.85 238.25 149.15 229.25 142.97 226.71 140.52 219.61 147.77 216.72 153.44 220.64 159.95 218.04 165.99 218.81 170.07 224.56 175.96 225.61 182.05 226.58 185.76 231.97"/><polygon class="cls-3" points="185.76 231.97 192.29 232.48 196.84 236.3 201.91 239.39 206.33 243.35 207.02 251.13 214.04 252.45 214.2 259.01 215.54 262.92 211.94 269.04 205.46 268.52 200.53 263.38 194.6 263.02 189.11 261.05 184.09 258.05 179.24 254.82 171.89 256 168.75 249.82 165.38 244.5 160.27 241.83 153.81 240.62 147.85 238.25 149.15 229.25 142.97 226.71 140.52 219.61 147.77 216.72 153.44 220.64 159.95 218.04 165.99 218.81 170.07 224.56 175.96 225.61 182.05 226.58 185.76 231.97"/><polygon class="cls-2" points="176.64 258.73 182 260.88 187.21 263.39 194.02 263.49 197.27 269.17 199.78 275.18 208.74 274.2 208.13 282.14 207.54 285.43 206.08 292.36 199.99 287.74 194.24 288.19 188.78 286.4 181.8 289.29 178.19 282.01 170.65 285.07 167.99 276.85 160.41 279.02 157.24 272.73 152.12 270.09 145.15 269.93 141.07 265.46 139.33 258.89 133.08 256.36 135.25 250.93 138.92 250.68 144.36 244.37 149.55 249.76 155.22 250.48 160.71 252.11 166.41 253.3 172.88 252.91 176.64 258.73"/><polygon class="cls-3" points="176.64 258.73 182 260.88 187.21 263.39 194.02 263.49 197.27 269.17 199.78 275.18 208.74 274.2 208.13 282.14 207.54 285.43 206.08 292.36 199.99 287.74 194.24 288.19 188.78 286.4 181.8 289.29 178.19 282.01 170.65 285.07 167.99 276.85 160.41 279.02 157.24 272.73 152.12 270.09 145.15 269.93 141.07 265.46 139.33 258.89 133.08 256.36 135.25 250.93 138.92 250.68 144.36 244.37 149.55 249.76 155.22 250.48 160.71 252.11 166.41 253.3 172.88 252.91 176.64 258.73"/><polygon class="cls-2" points="159.81 281.38 166.28 278.95 170.37 287.02 177.12 284.38 182.47 286.88 187.14 290.76 191.69 294.22 197.61 295.74 199.7 301.1 197.01 307.75 190.17 306.49 184.36 306.19 178.73 311.35 172.99 305.55 166.81 310.5 161.52 305.25 155.88 304.1 149.5 306.51 144.57 302.08 138.98 300.75 133.99 297.69 128.34 296.54 121.88 296.36 119.77 289.85 116.23 286.68 120.83 285.28 125.25 281.69 131.08 283 136.61 278.55 142.45 279.38 147.84 284.48 153.64 283.57 159.81 281.38"/><polygon class="cls-3" points="159.81 281.38 166.28 278.95 170.37 287.02 177.12 284.38 182.47 286.88 187.14 290.76 191.69 294.22 197.61 295.74 199.7 301.1 197.01 307.75 190.17 306.49 184.36 306.19 178.73 311.35 172.99 305.55 166.81 310.5 161.52 305.25 155.88 304.1 149.5 306.51 144.57 302.08 138.98 300.75 133.99 297.69 128.34 296.54 121.88 296.36 119.77 289.85 116.23 286.68 120.83 285.28 125.25 281.69 131.08 283 136.61 278.55 142.45 279.38 147.84 284.48 153.64 283.57 159.81 281.38"/><polygon class="cls-2" points="150.28 311.57 156.04 314.45 162.13 310.46 167.78 313.19 172.84 318.05 179.81 313.47 184.42 318.51 190.31 319.89 196.07 325.29 191.6 332.55 185.06 333.74 179.07 334.32 173.39 335.5 167.66 336.36 162.18 340.57 156.26 341.61 150.28 335.65 144.56 335.27 138.81 335.41 133.04 335.39 126.6 338.65 120.78 337.05 117.12 329.58 112.34 327.72 107.82 325.29 109.08 318.2 115.53 316.89 122.52 320.14 126.99 314.06 132.64 312.06 138.89 316.24 144.48 313.31 150.28 311.57"/><polygon class="cls-3" points="150.28 311.57 156.04 314.45 162.13 310.46 167.78 313.19 172.84 318.05 179.81 313.47 184.42 318.51 190.31 319.89 196.07 325.29 191.6 332.55 185.06 333.74 179.07 334.32 173.39 335.5 167.66 336.36 162.18 340.57 156.26 341.61 150.28 335.65 144.56 335.27 138.81 335.41 133.04 335.39 126.6 338.65 120.78 337.05 117.12 329.58 112.34 327.72 107.82 325.29 109.08 318.2 115.53 316.89 122.52 320.14 126.99 314.06 132.64 312.06 138.89 316.24 144.48 313.31 150.28 311.57"/><polygon class="cls-2" points="151.19 342.46 157.07 343.4 162.81 346.71 168.7 342.81 174.05 347.32 179.59 347.85 185.95 345.68 189.62 350.91 197.78 352.56 190.32 355.79 187 361.02 182.18 365.03 175.16 361.72 170.25 366.01 165.06 370.69 158.68 367.34 152.79 366.37 147.15 370.31 141.23 371.87 135.73 363.81 129.36 370.3 123.19 370.55 118.08 365.93 111.62 365.14 106.17 358.7 113.26 354.74 119.05 354.32 124.04 352.39 127.48 343.63 134.24 346.95 140.26 348.39 145.71 346.24 151.19 342.46"/><polygon class="cls-3" points="151.19 342.46 157.07 343.4 162.81 346.71 168.7 342.81 174.05 347.32 179.59 347.85 185.95 345.68 189.62 350.91 197.78 352.56 190.32 355.79 187 361.02 182.18 365.03 175.16 361.72 170.25 366.01 165.06 370.69 158.68 367.34 152.79 366.37 147.15 370.31 141.23 371.87 135.73 363.81 129.36 370.3 123.19 370.55 118.08 365.93 111.62 365.14 106.17 358.7 113.26 354.74 119.05 354.32 124.04 352.39 127.48 343.63 134.24 346.95 140.26 348.39 145.71 346.24 151.19 342.46"/><polygon class="cls-2" points="156.5 370.8 162.41 370.93 168.51 375.47 174.05 367.34 179.81 372.81 185.85 370.23 191.99 370.16 198.26 371.87 201.58 378.6 197.88 383.5 193.76 387.77 188.46 390.38 181.36 387.58 176.09 389.42 172.18 397.82 165.64 394.95 159.52 392.86 154.56 400.35 148.52 398.57 142.66 397.41 137.04 393.94 131.25 395.84 125.92 393.96 120.84 392.57 115.51 390.36 121.46 388.32 122.87 381.01 127.75 377.33 135.23 380.94 139.46 375.11 144.66 371.58 150.31 369.5 156.5 370.8"/><polygon class="cls-3" points="156.5 370.8 162.41 370.93 168.51 375.47 174.05 367.34 179.81 372.81 185.85 370.23 191.99 370.16 198.26 371.87 201.58 378.6 197.88 383.5 193.76 387.77 188.46 390.38 181.36 387.58 176.09 389.42 172.18 397.82 165.64 394.95 159.52 392.86 154.56 400.35 148.52 398.57 142.66 397.41 137.04 393.94 131.25 395.84 125.92 393.96 120.84 392.57 115.51 390.36 121.46 388.32 122.87 381.01 127.75 377.33 135.23 380.94 139.46 375.11 144.66 371.58 150.31 369.5 156.5 370.8"/><polygon class="cls-2" points="163.87 398.77 170.15 400.82 175.56 398.01 181.2 395.63 187.12 396.38 193.03 395.4 198.82 397.11 204.19 399.51 209.17 402.94 205.71 407.83 203.23 414.28 198.13 417.76 192.57 420.13 185.52 418.05 180.59 421.63 174.41 420.97 169.1 423.67 163.37 424.56 157.5 424.28 151.8 424.98 146.07 424.96 140.43 424.07 134.86 424.07 128.21 426.23 122.3 421.2 126.59 415.05 132.98 414.04 136.76 409.3 141.62 405.92 147.38 404.7 151.86 399.43 158.96 403.26 163.87 398.77"/><polygon class="cls-3" points="163.87 398.77 170.15 400.82 175.56 398.01 181.2 395.63 187.12 396.38 193.03 395.4 198.82 397.11 204.19 399.51 209.17 402.94 205.71 407.83 203.23 414.28 198.13 417.76 192.57 420.13 185.52 418.05 180.59 421.63 174.41 420.97 169.1 423.67 163.37 424.56 157.5 424.28 151.8 424.98 146.07 424.96 140.43 424.07 134.86 424.07 128.21 426.23 122.3 421.2 126.59 415.05 132.98 414.04 136.76 409.3 141.62 405.92 147.38 404.7 151.86 399.43 158.96 403.26 163.87 398.77"/><polygon class="cls-2" points="169.93 426.09 176.23 426.47 182.19 426.41 187.12 422.8 192.36 419.65 198.47 421.59 204.03 420.09 210.23 418 216.23 422.23 211.31 427.17 211.91 435.63 203 433.94 200.47 440.49 195.51 443.66 188.49 442.59 185.42 449.86 177.71 446.29 174.1 453.26 168.65 455.54 163.19 458.1 156.47 454.76 151.18 458.68 145.21 454.91 139.5 456.49 136.04 453.12 139.31 450.28 142.16 446.21 143.19 438.35 147.94 434.69 153.16 431.83 158.5 429.25 164.14 427.42 169.93 426.09"/><polygon class="cls-3" points="169.93 426.09 176.23 426.47 182.19 426.41 187.12 422.8 192.36 419.65 198.47 421.59 204.03 420.09 210.23 418 216.23 422.23 211.31 427.17 211.91 435.63 203 433.94 200.47 440.49 195.51 443.66 188.49 442.59 185.42 449.86 177.71 446.29 174.1 453.26 168.65 455.54 163.19 458.1 156.47 454.76 151.18 458.68 145.21 454.91 139.5 456.49 136.04 453.12 139.31 450.28 142.16 446.21 143.19 438.35 147.94 434.69 153.16 431.83 158.5 429.25 164.14 427.42 169.93 426.09"/><polygon class="cls-2" points="185.41 454.7 187.76 447.54 192.49 443.92 197.86 441.4 203.11 438.52 210.78 442.43 214.69 434.81 221.06 437.55 225.43 439.75 224.76 444.26 223 449.65 218.65 453.48 213.17 456 213.5 465.02 208.52 468.32 202.62 470.26 197.72 473.44 190.91 473.44 186.74 477.67 183.53 484.19 177.68 485.68 172.09 487.73 166.07 488.29 160.09 489.99 156.49 485.01 154.35 480.13 158.47 475.76 158.94 468.48 167.64 468.8 171.45 464.57 175.78 460.86 181.16 458.55 185.41 454.7"/><polygon class="cls-3" points="185.41 454.7 187.76 447.54 192.49 443.92 197.86 441.4 203.11 438.52 210.78 442.43 214.69 434.81 221.06 437.55 225.43 439.75 224.76 444.26 223 449.65 218.65 453.48 213.17 456 213.5 465.02 208.52 468.32 202.62 470.26 197.72 473.44 190.91 473.44 186.74 477.67 183.53 484.19 177.68 485.68 172.09 487.73 166.07 488.29 160.09 489.99 156.49 485.01 154.35 480.13 158.47 475.76 158.94 468.48 167.64 468.8 171.45 464.57 175.78 460.86 181.16 458.55 185.41 454.7"/><polygon class="cls-2" points="253.97 514.19 256.15 508.92 253.47 501.51 255.9 496.12 263.83 493.82 262.62 486.3 264.35 479.94 271.98 479.1 276.14 479.46 278.77 482.02 279.05 487.4 276.84 492.81 281.54 499.11 275.16 503.75 275.54 509.66 275.29 515.56 273.5 521.05 271.28 526.38 273.33 533.6 268.58 537.89 262.55 541.19 258.59 545.28 256.87 550.86 255.98 558.71 249.84 554.27 242.38 553.85 241.88 547.35 241.91 541.23 244.9 535.61 243.21 529.29 244.38 523.43 247.17 518.05 253.97 514.19"/><polygon class="cls-3" points="253.97 514.19 256.15 508.92 253.47 501.51 255.9 496.12 263.83 493.82 262.62 486.3 264.35 479.94 271.98 479.1 276.14 479.46 278.77 482.02 279.05 487.4 276.84 492.81 281.54 499.11 275.16 503.75 275.54 509.66 275.29 515.56 273.5 521.05 271.28 526.38 273.33 533.6 268.58 537.89 262.55 541.19 258.59 545.28 256.87 550.86 255.98 558.71 249.84 554.27 242.38 553.85 241.88 547.35 241.91 541.23 244.9 535.61 243.21 529.29 244.38 523.43 247.17 518.05 253.97 514.19"/><polygon class="cls-2" points="231.6 499.02 229.63 490.41 237.39 489.1 241.11 484.75 244.06 479.63 247.89 475.23 252.12 471.11 257.69 469.01 262.68 470.05 263.35 474.38 261.58 479.4 261.01 485 258.19 489.94 256.59 495.48 256.44 502.02 254.24 507.57 246.42 509.33 245.66 515.88 240.85 519.44 240.2 526.59 236.59 531.4 232.02 535.37 223.67 533.99 219.57 537.42 213.65 540.54 211.33 533.91 211.76 527.76 213.95 522.19 218.35 517.71 221.96 513.12 225.48 508.58 224.01 500.91 231.6 499.02"/><polygon class="cls-3" points="231.6 499.02 229.63 490.41 237.39 489.1 241.11 484.75 244.06 479.63 247.89 475.23 252.12 471.11 257.69 469.01 262.68 470.05 263.35 474.38 261.58 479.4 261.01 485 258.19 489.94 256.59 495.48 256.44 502.02 254.24 507.57 246.42 509.33 245.66 515.88 240.85 519.44 240.2 526.59 236.59 531.4 232.02 535.37 223.67 533.99 219.57 537.42 213.65 540.54 211.33 533.91 211.76 527.76 213.95 522.19 218.35 517.71 221.96 513.12 225.48 508.58 224.01 500.91 231.6 499.02"/><polygon class="cls-2" points="200.33 477.44 206.07 475.37 210.36 471.48 213.69 465.94 220.29 465.64 224.38 460.88 229.33 456.95 235.88 457.77 240.65 460.69 240.59 465.37 238.2 470.3 237.03 476.38 234.65 482.04 226.93 482.94 222.81 486.84 221.61 494.03 216.96 497.63 213.12 502.24 207.65 504.73 203.83 509.66 197.24 510.13 192.75 514.29 185.75 512.28 180.69 513.45 175.08 514.72 177.58 509.5 179.45 504.67 181.64 499.44 184.45 494.37 186.17 488.06 191.25 484.81 195.33 480.59 200.33 477.44"/><polygon class="cls-3" points="200.33 477.44 206.07 475.37 210.36 471.48 213.69 465.94 220.29 465.64 224.38 460.88 229.33 456.95 235.88 457.77 240.65 460.69 240.59 465.37 238.2 470.3 237.03 476.38 234.65 482.04 226.93 482.94 222.81 486.84 221.61 494.03 216.96 497.63 213.12 502.24 207.65 504.73 203.83 509.66 197.24 510.13 192.75 514.29 185.75 512.28 180.69 513.45 175.08 514.72 177.58 509.5 179.45 504.67 181.64 499.44 184.45 494.37 186.17 488.06 191.25 484.81 195.33 480.59 200.33 477.44"/><polygon class="cls-2" points="273.66 526.61 279.94 521.88 283.47 516.87 280.34 510.04 279.23 503.4 288.4 500.88 289.33 495.17 290.32 488.69 295.9 489.6 297.2 492.63 305.04 496.09 301.16 502.58 300.8 508.26 303.6 514.06 300.35 519.63 304.79 525.98 302.93 531.66 295.87 536.17 295.3 541.84 299.67 549.09 292.31 552.71 293.44 559.36 291.28 564.87 289.82 571.88 282.02 569.99 277.42 567.54 274.34 562.19 279.01 555.77 273.22 550.32 273.73 544.44 278.98 539.02 277.62 533.13 273.66 526.61"/><polygon class="cls-3" points="273.66 526.61 279.94 521.88 283.47 516.87 280.34 510.04 279.23 503.4 288.4 500.88 289.33 495.17 290.32 488.69 295.9 489.6 297.2 492.63 305.04 496.09 301.16 502.58 300.8 508.26 303.6 514.06 300.35 519.63 304.79 525.98 302.93 531.66 295.87 536.17 295.3 541.84 299.67 549.09 292.31 552.71 293.44 559.36 291.28 564.87 289.82 571.88 282.02 569.99 277.42 567.54 274.34 562.19 279.01 555.77 273.22 550.32 273.73 544.44 278.98 539.02 277.62 533.13 273.66 526.61"/><polygon class="cls-2" points="306.55 527.12 309.21 521.78 309.94 515.95 313.94 511.19 314.82 505.36 317.89 500.45 322.79 496.91 323.27 490.18 328.25 490.64 331.59 492.91 333.93 498.13 338.06 503.78 334.4 509.7 334.62 515.54 331.16 520.94 336.47 527.73 327.67 531.87 332.24 538.94 325.27 542.96 328.84 550.27 327.42 556.13 318.51 558.33 322.19 567.25 313.81 567.96 310.66 568.93 304.88 568.07 302.45 562.25 301.22 556.23 308.24 550.47 308.18 544.85 302.89 538.41 306.8 533.11 306.55 527.12"/><polygon class="cls-3" points="306.55 527.12 309.21 521.78 309.94 515.95 313.94 511.19 314.82 505.36 317.89 500.45 322.79 496.91 323.27 490.18 328.25 490.64 331.59 492.91 333.93 498.13 338.06 503.78 334.4 509.7 334.62 515.54 331.16 520.94 336.47 527.73 327.67 531.87 332.24 538.94 325.27 542.96 328.84 550.27 327.42 556.13 318.51 558.33 322.19 567.25 313.81 567.96 310.66 568.93 304.88 568.07 302.45 562.25 301.22 556.23 308.24 550.47 308.18 544.85 302.89 538.41 306.8 533.11 306.55 527.12"/><polygon class="cls-2" points="335.6 532.04 336.8 526.27 341.38 521.11 342.85 515.62 338.39 508.57 346.3 505 341.57 496.71 349.42 494.59 352.72 493.62 355.5 495.31 359.31 499.68 362.4 505.01 364.33 510.77 363.85 516.75 360.02 522.63 357.81 528.25 365.34 534.57 359.84 539.88 356.33 545.13 361.96 552.1 361.16 558.08 358.64 563.63 355.1 568.71 349.64 572.11 345.67 576.67 341.79 571.93 340.4 566.44 340.74 560.64 340.59 555.04 337.86 549.54 337.18 543.78 333.48 537.82 335.6 532.04"/><polygon class="cls-3" points="335.6 532.04 336.8 526.27 341.38 521.11 342.85 515.62 338.39 508.57 346.3 505 341.57 496.71 349.42 494.59 352.72 493.62 355.5 495.31 359.31 499.68 362.4 505.01 364.33 510.77 363.85 516.75 360.02 522.63 357.81 528.25 365.34 534.57 359.84 539.88 356.33 545.13 361.96 552.1 361.16 558.08 358.64 563.63 355.1 568.71 349.64 572.11 345.67 576.67 341.79 571.93 340.4 566.44 340.74 560.64 340.59 555.04 337.86 549.54 337.18 543.78 333.48 537.82 335.6 532.04"/><polygon class="cls-2" points="368.17 534.03 365.23 528.3 367.28 522.41 365.63 516.46 372.7 511.3 370.33 505.24 369.42 498.98 370.29 492.36 377.8 493.42 379.86 495.59 387.72 497.41 386.16 504.35 387.73 509.82 390.34 515.14 393.05 520.6 394.73 526.33 389.31 532.62 390.25 538.27 395.75 544.04 392.35 549.78 389.72 555.29 389.81 561.02 389.83 566.91 389.92 573.62 383.4 576.92 381.17 570.75 378.87 566.37 370.17 563.61 371.43 557.05 369.87 551.42 367.21 545.92 368.5 539.84 368.17 534.03"/><polygon class="cls-3" points="368.17 534.03 365.23 528.3 367.28 522.41 365.63 516.46 372.7 511.3 370.33 505.24 369.42 498.98 370.29 492.36 377.8 493.42 379.86 495.59 387.72 497.41 386.16 504.35 387.73 509.82 390.34 515.14 393.05 520.6 394.73 526.33 389.31 532.62 390.25 538.27 395.75 544.04 392.35 549.78 389.72 555.29 389.81 561.02 389.83 566.91 389.92 573.62 383.4 576.92 381.17 570.75 378.87 566.37 370.17 563.61 371.43 557.05 369.87 551.42 367.21 545.92 368.5 539.84 368.17 534.03"/><polygon class="cls-2" points="397.52 531.6 399.46 524.96 399.88 518.95 395.74 513.88 392.58 508.36 395.75 502.19 397.62 496.59 396.98 490.95 398.9 483.62 405.57 487.39 406.43 494.29 409.52 498.73 418.63 500.24 414.58 508.67 416.57 513.95 420.23 518.66 424.76 523.27 428.94 528.21 423.13 535.58 428.67 540.34 429.54 546.13 430.04 551.97 426.73 557.62 425.31 562.58 424.93 568.7 421.17 563.86 417.13 560.61 411.58 557.53 406.27 553.72 406.51 547.05 402.49 542.39 404.2 535.55 397.52 531.6"/><polygon class="cls-3" points="397.52 531.6 399.46 524.96 399.88 518.95 395.74 513.88 392.58 508.36 395.75 502.19 397.62 496.59 396.98 490.95 398.9 483.62 405.57 487.39 406.43 494.29 409.52 498.73 418.63 500.24 414.58 508.67 416.57 513.95 420.23 518.66 424.76 523.27 428.94 528.21 423.13 535.58 428.67 540.34 429.54 546.13 430.04 551.97 426.73 557.62 425.31 562.58 424.93 568.7 421.17 563.86 417.13 560.61 411.58 557.53 406.27 553.72 406.51 547.05 402.49 542.39 404.2 535.55 397.52 531.6"/><polygon class="cls-2" points="430.25 516.69 427.06 511.97 424.09 507.11 420.77 502.34 419.81 496.61 412.21 492.89 413.44 486.46 411.07 480.3 417.63 477.78 422.37 474.93 427.3 478.42 432.38 481.68 435.76 486.6 438.39 491.96 444.94 494.47 444.07 502.07 451.22 504.59 451.82 510.98 456.46 515.25 458 521.06 460.91 526.32 460.72 532.61 463.69 538.11 464.28 544.56 458.16 547.98 453.8 548 447.26 547.33 445.96 540.14 439.71 538.09 434.88 534.42 433.57 528.15 426.96 525.47 430.25 516.69"/><polygon class="cls-3" points="430.25 516.69 427.06 511.97 424.09 507.11 420.77 502.34 419.81 496.61 412.21 492.89 413.44 486.46 411.07 480.3 417.63 477.78 422.37 474.93 427.3 478.42 432.38 481.68 435.76 486.6 438.39 491.96 444.94 494.47 444.07 502.07 451.22 504.59 451.82 510.98 456.46 515.25 458 521.06 460.91 526.32 460.72 532.61 463.69 538.11 464.28 544.56 458.16 547.98 453.8 548 447.26 547.33 445.96 540.14 439.71 538.09 434.88 534.42 433.57 528.15 426.96 525.47 430.25 516.69"/><polygon class="cls-2" points="448.48 499 443.85 495.28 443.27 488.43 439.36 484.22 435.07 480.13 431.55 475.44 432 469.07 428.68 464.26 429.76 459.09 435.13 458.34 440.03 461.35 446.02 462.64 448.72 468.67 454.38 470.85 458.05 475.37 465.12 476.63 464.68 484.88 470.61 487.41 473.5 492.49 475.38 498.18 482.38 500.62 480.94 507.99 486.33 511.87 488.14 517.63 487.23 524.99 479.51 526.12 475.23 520.66 470.55 517.46 467.09 512.66 459.27 513.01 458.07 505.78 451.43 504.2 448.48 499"/><polygon class="cls-3" points="448.48 499 443.85 495.28 443.27 488.43 439.36 484.22 435.07 480.13 431.55 475.44 432 469.07 428.68 464.26 429.76 459.09 435.13 458.34 440.03 461.35 446.02 462.64 448.72 468.67 454.38 470.85 458.05 475.37 465.12 476.63 464.68 484.88 470.61 487.41 473.5 492.49 475.38 498.18 482.38 500.62 480.94 507.99 486.33 511.87 488.14 517.63 487.23 524.99 479.51 526.12 475.23 520.66 470.55 517.46 467.09 512.66 459.27 513.01 458.07 505.78 451.43 504.2 448.48 499"/><polygon class="cls-2" points="473.28 483.39 468.69 479.87 464.1 476.3 461.23 471.06 456.88 467.25 451.74 463.88 451.55 457.24 449.23 452.52 447.31 447.19 453.15 445.26 459.49 445.04 464.42 448.8 468.28 453.88 474.53 454.67 477.41 460.69 482.36 463.59 487.12 466.82 491.09 470.99 499.19 470.89 499.32 478.9 507.13 479.81 508.31 486.37 513.1 490.35 510.94 497.36 515.32 504.01 507.46 506.9 502.79 500.35 495.34 503.15 492.01 496.77 485.8 495.81 482.91 489.73 477.83 486.93 473.28 483.39"/><polygon class="cls-3" points="473.28 483.39 468.69 479.87 464.1 476.3 461.23 471.06 456.88 467.25 451.74 463.88 451.55 457.24 449.23 452.52 447.31 447.19 453.15 445.26 459.49 445.04 464.42 448.8 468.28 453.88 474.53 454.67 477.41 460.69 482.36 463.59 487.12 466.82 491.09 470.99 499.19 470.89 499.32 478.9 507.13 479.81 508.31 486.37 513.1 490.35 510.94 497.36 515.32 504.01 507.46 506.9 502.79 500.35 495.34 503.15 492.01 496.77 485.8 495.81 482.91 489.73 477.83 486.93 473.28 483.39"/><polygon class="cls-2" points="496.75 463.87 492.99 458.99 490.33 452.97 483.93 451.49 481.68 445.41 477.64 441.35 474.92 436.33 471.92 431.79 469.63 425.93 475.92 422.55 481.51 426.1 486.07 430.28 492.32 429.95 496.82 433.79 502.43 435.5 509.74 434.78 511.41 442.79 516.94 444.96 524.02 445.45 524.3 454.02 532.21 454.12 532.42 461.8 540.17 463.19 542.62 469.07 540.41 475.16 535.45 476.36 530.17 474.69 523.25 477.38 517.83 474.8 513.67 469.95 509.45 465.68 501.89 466.86 496.75 463.87"/><polygon class="cls-3" points="496.75 463.87 492.99 458.99 490.33 452.97 483.93 451.49 481.68 445.41 477.64 441.35 474.92 436.33 471.92 431.79 469.63 425.93 475.92 422.55 481.51 426.1 486.07 430.28 492.32 429.95 496.82 433.79 502.43 435.5 509.74 434.78 511.41 442.79 516.94 444.96 524.02 445.45 524.3 454.02 532.21 454.12 532.42 461.8 540.17 463.19 542.62 469.07 540.41 475.16 535.45 476.36 530.17 474.69 523.25 477.38 517.83 474.8 513.67 469.95 509.45 465.68 501.89 466.86 496.75 463.87"/><polygon class="cls-2" points="514.47 434.82 508.47 434.42 503.65 431 497.27 430.93 491.55 429.11 486.98 425.24 485.06 418.35 482.29 414.17 478.54 411.39 482.98 410.75 487.77 403.6 493.9 404.5 499.18 409.52 505.04 409.42 510.82 410.18 516.37 411.9 520.69 417.13 526.9 416.82 531.55 420.53 537.83 420.67 544.45 420.78 550.22 422.96 552.5 429.89 556.29 434.18 560.72 440.29 554.5 446.04 547.7 440.04 542.26 440.22 536.28 442.36 530.02 443.95 524 443.59 519.18 438.98 514.47 434.82"/><polygon class="cls-3" points="514.47 434.82 508.47 434.42 503.65 431 497.27 430.93 491.55 429.11 486.98 425.24 485.06 418.35 482.29 414.17 478.54 411.39 482.98 410.75 487.77 403.6 493.9 404.5 499.18 409.52 505.04 409.42 510.82 410.18 516.37 411.9 520.69 417.13 526.9 416.82 531.55 420.53 537.83 420.67 544.45 420.78 550.22 422.96 552.5 429.89 556.29 434.18 560.72 440.29 554.5 446.04 547.7 440.04 542.26 440.22 536.28 442.36 530.02 443.95 524 443.59 519.18 438.98 514.47 434.82"/><polygon class="cls-2" points="506.84 233.49 500.19 234.55 495.92 238.56 491.95 243.2 486.19 245.04 480.35 246.4 474.8 247.87 469.33 247.72 464.41 248.53 463.24 243.04 467.39 238.65 470.78 234.18 471.21 227.16 476.38 223.91 482.4 221.77 483.48 214.41 489.63 212.61 494.07 208.89 500.12 207.45 504.02 202.98 509.19 200.47 514.84 199.17 519.75 196.69 524.46 191.28 532.48 192.44 531.48 200.38 530.43 206.69 524.49 209.91 522.86 216.05 518.28 219.85 514.1 223.94 507.75 225.61 506.84 233.49"/><polygon class="cls-3" points="506.84 233.49 500.19 234.55 495.92 238.56 491.95 243.2 486.19 245.04 480.35 246.4 474.8 247.87 469.33 247.72 464.41 248.53 463.24 243.04 467.39 238.65 470.78 234.18 471.21 227.16 476.38 223.91 482.4 221.77 483.48 214.41 489.63 212.61 494.07 208.89 500.12 207.45 504.02 202.98 509.19 200.47 514.84 199.17 519.75 196.69 524.46 191.28 532.48 192.44 531.48 200.38 530.43 206.69 524.49 209.91 522.86 216.05 518.28 219.85 514.1 223.94 507.75 225.61 506.84 233.49"/><polygon class="cls-2" points="482.39 209.01 478.73 213.37 478.15 220.87 471.89 222.74 466.98 225.81 462.08 228.7 457.1 231.09 453.93 239 447.41 235.51 447.82 230.06 446.66 223.96 452.78 220.38 452.13 213.58 455.07 208.54 456.25 202.18 462.79 199.78 468.51 197.06 470.15 190.82 472.42 184.87 479.25 183.62 481.21 176.92 487.73 175.85 491.32 170.44 496.9 167.12 501.44 172.72 506.57 176.27 502.47 181.42 498.04 185.6 497.99 192 497.56 198.65 492.06 201.99 487.1 205.48 482.39 209.01"/><polygon class="cls-3" points="482.39 209.01 478.73 213.37 478.15 220.87 471.89 222.74 466.98 225.81 462.08 228.7 457.1 231.09 453.93 239 447.41 235.51 447.82 230.06 446.66 223.96 452.78 220.38 452.13 213.58 455.07 208.54 456.25 202.18 462.79 199.78 468.51 197.06 470.15 190.82 472.42 184.87 479.25 183.62 481.21 176.92 487.73 175.85 491.32 170.44 496.9 167.12 501.44 172.72 506.57 176.27 502.47 181.42 498.04 185.6 497.99 192 497.56 198.65 492.06 201.99 487.1 205.48 482.39 209.01"/><polygon class="cls-2" points="461.32 189.84 456.61 193.69 454.56 199.17 453.75 205.76 450.71 210.9 446.65 215.29 439.67 216.27 434.58 217.99 430 221.6 430.47 215.86 430.58 210.68 429.32 204.62 434.28 200.22 433.65 193.87 437.11 189.11 440.93 184.63 443.44 179.51 441.81 171.75 446.29 167.66 450.65 163.61 453.58 158.49 458.28 154.89 460.3 148.18 466.82 146.64 472.49 148.01 477.56 152.15 475.56 158.21 474.74 164.06 474.17 170.09 466.89 173.47 470.28 181.33 465.42 185.47 461.32 189.84"/><polygon class="cls-3" points="461.32 189.84 456.61 193.69 454.56 199.17 453.75 205.76 450.71 210.9 446.65 215.29 439.67 216.27 434.58 217.99 430 221.6 430.47 215.86 430.58 210.68 429.32 204.62 434.28 200.22 433.65 193.87 437.11 189.11 440.93 184.63 443.44 179.51 441.81 171.75 446.29 167.66 450.65 163.61 453.58 158.49 458.28 154.89 460.3 148.18 466.82 146.64 472.49 148.01 477.56 152.15 475.56 158.21 474.74 164.06 474.17 170.09 466.89 173.47 470.28 181.33 465.42 185.47 461.32 189.84"/><polygon class="cls-2" points="436.83 175 435.45 180.74 436.19 187.83 431.16 191.68 428.52 197 426.34 202.92 419.19 204.38 413.13 205.06 409.07 209.95 407.2 204.23 402.66 198.25 407.42 192.81 406.9 186.68 408.13 180.88 408.67 174.76 416.61 171.68 418.18 166.1 417.43 159.21 421.65 154.84 425.46 150.35 425.85 143.48 429.47 138.64 433.74 134.16 439.14 130.42 446.95 130.57 450.48 136.81 447.48 142.72 446.63 148.27 449.69 154.96 444.32 159.47 440.99 164.35 441.13 170.62 436.83 175"/><polygon class="cls-3" points="436.83 175 435.45 180.74 436.19 187.83 431.16 191.68 428.52 197 426.34 202.92 419.19 204.38 413.13 205.06 409.07 209.95 407.2 204.23 402.66 198.25 407.42 192.81 406.9 186.68 408.13 180.88 408.67 174.76 416.61 171.68 418.18 166.1 417.43 159.21 421.65 154.84 425.46 150.35 425.85 143.48 429.47 138.64 433.74 134.16 439.14 130.42 446.95 130.57 450.48 136.81 447.48 142.72 446.63 148.27 449.69 154.96 444.32 159.47 440.99 164.35 441.13 170.62 436.83 175"/><polygon class="cls-2" points="382.82 153.01 380.01 158.28 380.51 164.25 379.82 170.03 376.35 174.89 379.86 182.66 370.87 184.5 369.23 189.81 365.78 190.24 361.13 189.4 356.33 184.45 361.25 177.84 354.49 172.31 361.67 166.6 360.68 160.82 362.35 155.26 360.04 149.07 359.34 142.97 363.82 138.03 366.76 132.91 369.82 127.99 370.88 122.39 373.21 117.38 373.45 110.31 379.64 110.04 385.9 112.13 389.42 117.87 385.96 124.43 387.01 130.19 390.15 136.16 389.63 142.12 384.93 147.5 382.82 153.01"/><polygon class="cls-3" points="382.82 153.01 380.01 158.28 380.51 164.25 379.82 170.03 376.35 174.89 379.86 182.66 370.87 184.5 369.23 189.81 365.78 190.24 361.13 189.4 356.33 184.45 361.25 177.84 354.49 172.31 361.67 166.6 360.68 160.82 362.35 155.26 360.04 149.07 359.34 142.97 363.82 138.03 366.76 132.91 369.82 127.99 370.88 122.39 373.21 117.38 373.45 110.31 379.64 110.04 385.9 112.13 389.42 117.87 385.96 124.43 387.01 130.19 390.15 136.16 389.63 142.12 384.93 147.5 382.82 153.01"/><polygon class="cls-2" points="411.88 158.91 409.85 164.49 409.13 170.33 409.37 176.55 403.55 180.78 404.5 187.52 395.89 189.45 396.48 196.72 391.57 194.66 389.64 193.36 386.83 188.79 384.48 183.36 387.46 177.54 382.12 171.68 384.34 165.96 385.18 160.2 387.86 154.76 386.5 148.61 388.73 143.16 391.63 137.98 394.13 132.81 394.5 126.79 396.84 121.49 402.16 118.68 404.8 118.11 410.34 118.01 413.2 123.56 409.7 129.91 414.24 135.49 413.61 141.38 415.29 147.43 414.25 153.3 411.88 158.91"/><polygon class="cls-3" points="411.88 158.91 409.85 164.49 409.13 170.33 409.37 176.55 403.55 180.78 404.5 187.52 395.89 189.45 396.48 196.72 391.57 194.66 389.64 193.36 386.83 188.79 384.48 183.36 387.46 177.54 382.12 171.68 384.34 165.96 385.18 160.2 387.86 154.76 386.5 148.61 388.73 143.16 391.63 137.98 394.13 132.81 394.5 126.79 396.84 121.49 402.16 118.68 404.8 118.11 410.34 118.01 413.2 123.56 409.7 129.91 414.24 135.49 413.61 141.38 415.29 147.43 414.25 153.3 411.88 158.91"/><polygon class="cls-2" points="361.18 153.31 358.05 159.16 360.11 165.19 355.6 170.62 354.18 176.24 353.64 182.01 348.81 186.31 349.31 192.6 344.96 196.6 341.8 191.76 339.12 187.08 334.38 182.51 336.25 176.14 332.13 170.91 335.93 164.7 331.17 159.19 334.26 153.31 334.72 147.58 329.75 141.43 330.9 135.56 334.43 130.15 334.17 124.06 337 118.72 340.57 114 344.96 107.95 346.67 115.88 351.28 119.36 351.36 125.22 352.49 130.7 354 136.2 353.14 141.99 355.36 147.57 361.18 153.31"/><polygon class="cls-3" points="361.18 153.31 358.05 159.16 360.11 165.19 355.6 170.62 354.18 176.24 353.64 182.01 348.81 186.31 349.31 192.6 344.96 196.6 341.8 191.76 339.12 187.08 334.38 182.51 336.25 176.14 332.13 170.91 335.93 164.7 331.17 159.19 334.26 153.31 334.72 147.58 329.75 141.43 330.9 135.56 334.43 130.15 334.17 124.06 337 118.72 340.57 114 344.96 107.95 346.67 115.88 351.28 119.36 351.36 125.22 352.49 130.7 354 136.2 353.14 141.99 355.36 147.57 361.18 153.31"/><circle class="cls-1" cx="269.44" cy="48.9" r="12.75" transform="translate(109.85 271.43) rotate(-64.64)"/><path class="cls-1" d="M244,22.7A12.71,12.71,0,0,0,225.82,33c-.22-.12-.44-.25-.67-.36a12.75,12.75,0,1,0,6.06,17,12.56,12.56,0,0,0,1.16-4.2c.22.12.43.25.66.36A12.76,12.76,0,1,0,244,22.7Z"/><circle class="cls-1" cx="239.08" cy="61.76" r="14.13"/><circle class="cls-1" cx="231.12" cy="46.64" r="12.68"/><circle class="cls-1" cx="256.42" cy="40.81" r="13.87"/><path class="cls-1" d="M245.82,74.58q.88,2.61,1.7,5.31a159.1,159.1,0,0,1,6.74,47.46"/><path class="cls-1" d="M258,55.48a99.93,99.93,0,0,0,1.41,14.62c1.14,6.65,2.71,11.73,5,19.09,1.71,5.53,2.57,8.32,4,11.86a106.64,106.64,0,0,0,11,20.78"/><circle class="cls-1" cx="100.02" cy="94.86" r="13.87"/><circle class="cls-1" cx="111.06" cy="129.55" r="14.13"/><circle class="cls-1" cx="122.55" cy="104.83" r="12.75" transform="translate(-38.62 99.32) rotate(-38.59)"/><path class="cls-1" d="M87.82,116.22A12.73,12.73,0,0,0,89.07,137c-.2.15-.41.28-.61.44a12.75,12.75,0,1,0,17.92,2,12.56,12.56,0,0,0-3.27-2.88c.21-.15.42-.29.62-.45a12.75,12.75,0,0,0-15.91-19.93Z"/><path class="cls-1" d="M114.83,104.65a14.12,14.12,0,0,1-2.23,19.85,15.81,15.81,0,0,1-8.08,3,14.37,14.37,0,0,1-5.7-.83,13.67,13.67,0,0,1-6.08-4.42c-3.69-5-4.52-14.47,2.24-19.85A14.12,14.12,0,0,1,114.83,104.65Z"/><path class="cls-1" d="M109.2,144.16q3.7,3.51,7.38,7.23a296.06,296.06,0,0,1,52.22,72"/><path class="cls-1" d="M124.49,134.29a127.58,127.58,0,0,0,12.07,15.78c6.14,6.87,11.76,11.71,19.88,18.7,6.11,5.26,9.19,7.91,13.49,11.1a161.19,161.19,0,0,0,29,17"/><g id="Inner"><path class="cls-1" d="M372.9,466.55a10.74,10.74,0,0,0-1.1-.15c3.14-.43,5.59-2.13,6.07-4.57.67-3.41-2.75-6.95-7.63-7.91-4.44-.87-8.55.7-9.76,3.56l-.18-.12a11.09,11.09,0,0,1-8.05,1.21c-5.13-1-8.71-4.72-8-8.31,0-.14.07-.28.11-.41l-.09,0a1,1,0,0,0,.12-.26c.45-2.3-7.78-5.85-18.39-7.93s-19.58-1.91-20,.39c-.11.59.35,1.26,1.27,2a65,65,0,0,0-7.17.59,4.78,4.78,0,0,1-.06.53c-.52,2.65-4,4.19-7.81,3.45a9.86,9.86,0,0,1-2.69-1c-.16.09-.3.18-.46.26a13.78,13.78,0,0,0-4.56-1.71c-4.16-.82-7.84.11-8.23,2.08s2.67,4.22,6.83,5c.35.07.7.12,1.05.17,0,.08-.05.15-.06.22a6.47,6.47,0,0,0-.11,1.07c3.53,1,6,3.59,5.78,6.18-2.43-.32-4.47.3-4.71,1.5s1.73,2.8,4.44,3.33a8.81,8.81,0,0,0,2.52.15c1.08.77,2.26,1.53,3.53,2.27,1.16-3.74,6.32-5.86,11.89-4.76,5.86,1.14,9.95,5.39,9.15,9.48a1.52,1.52,0,0,0-.06.2,4,4,0,0,0-2.09,2.58c-.61,3.11,3.75,6.59,9.74,7.77s11.34-.4,12-3.52a.34.34,0,0,1,0-.1c.76.06,1.54.13,2.29.17v0c.66-3.34,5.07-5.29,9.84-4.35a10.5,10.5,0,0,1,6.39,3.71c.52-.08,1-.18,1.52-.27a2.29,2.29,0,0,0-.08.28c-.47,2.4,1.93,4.89,5.37,5.57s6.6-.73,7.07-3.13c.43-2.18-1.52-4.43-4.46-5.33a16.63,16.63,0,0,0,1.77-1.08,10.22,10.22,0,0,0,4.88,2.33c4.4.87,8.45-.92,9.05-4S377.29,467.42,372.9,466.55Zm-3.72-.1-.19,0s0,0,0,0Z"/><path class="cls-1" d="M222.47,297.38a9.43,9.43,0,0,0,.56-.84c-1,2.68-.7,5.21.89,6.38,2.23,1.63,6.2,0,8.87-3.66,2.43-3.32,2.94-7.16,1.34-9.05l.16-.1a11,11,0,0,1,2.36-6.91c2.81-3.84,7-5.56,9.32-3.85l.26.23.06-.07a.51.51,0,0,0,.14.18c1.5,1.1,7.42-4.44,13.23-12.38s9.3-15.25,7.8-16.35c-.38-.28-1.06-.12-1.95.4,1-2.09,1.8-4.1,2.46-6a1.65,1.65,0,0,1-.36-.22c-1.73-1.26-1.45-4.59.62-7.42a9.76,9.76,0,0,1,1.79-1.88v-.45a14.11,14.11,0,0,0,3.09-3.16c2.28-3.11,3.09-6.39,1.8-7.33s-4.16.82-6.44,3.93l-.55.8a.81.81,0,0,0-.14-.12,4.11,4.11,0,0,0-.73-.43c-2.16,2.54-5,3.69-6.86,2.71,1.21-1.86,1.58-3.72.8-4.29s-2.75.51-4.23,2.53a9.9,9.9,0,0,0-1.13,2c-1,.64-2,1.35-3.08,2.14,2.27,2.14,1.74,7-1.32,11.16-3.2,4.38-8,6.34-10.63,4.39a1.27,1.27,0,0,0-.13-.11,3,3,0,0,0-1-2.51c-2-1.49-6.34.93-9.62,5.41s-4.29,9.32-2.26,10.81l.08,0c-.36.6-.72,1.21-1.06,1.8l0,0c2.18,1.59,1.83,5.78-.79,9.36a10.42,10.42,0,0,1-5.29,4c-.15.45-.28.89-.41,1.32l-.18-.16c-1.57-1.14-4.36,0-6.24,2.58s-2.14,5.58-.57,6.72,3.86.19,5.71-1.91a12.8,12.8,0,0,0,.07,1.78,10.55,10.55,0,0,0-3.68,3.22c-2.4,3.28-2.73,7.14-.73,8.61S220.07,300.67,222.47,297.38Zm1.58-3a1,1,0,0,0,0-.16h0Z"/><path class="cls-1" d="M468.63,369.26a10.33,10.33,0,0,0-.54,1c.73-3.08,0-6-2.08-7.3-2.94-1.85-7.48.06-10.12,4.27-2.41,3.83-2.42,8.24-.19,10.39l-.18.12a11.11,11.11,0,0,1-1.75,8c-2.79,4.43-7.55,6.44-10.64,4.49l-.35-.25-.06.07a1,1,0,0,0-.2-.2c-2-1.25-8.25,5.16-14,14.32s-8.82,17.58-6.84,18.82c.51.32,1.3.13,2.29-.47a65.13,65.13,0,0,0-2,6.9,3,3,0,0,1,.47.25c2.29,1.44,2.47,5.25.42,8.52a9.66,9.66,0,0,1-1.86,2.17c0,.18,0,.35.08.52a13.64,13.64,0,0,0-3.24,3.65c-2.26,3.58-2.71,7.35-1,8.42s4.9-1,7.15-4.56c.2-.31.37-.62.54-.92l.18.14a7.17,7.17,0,0,0,1,.48c2.21-2.93,5.49-4.27,7.84-3.17-1.16,2.15-1.32,4.28-.29,4.93s3.24-.61,4.7-2.94a9.33,9.33,0,0,0,1.05-2.3c1.11-.74,2.24-1.56,3.38-2.48-3.07-2.43-3.19-8-.17-12.82,3.18-5,8.61-7.34,12.14-5.12l.17.13a4,4,0,0,0,1.65,2.87c2.69,1.69,7.5-1.13,10.75-6.3s3.71-10.72,1-12.42l-.1,0c.34-.7.68-1.4,1-2.08l0,0c-2.88-1.81-3.11-6.62-.52-10.74a10.5,10.5,0,0,1,5.76-4.63c.1-.51.2-1,.28-1.52l.24.18c2.07,1.3,5.26,0,7.13-3s1.69-6.42-.38-7.72c-1.88-1.18-4.68-.17-6.58,2.25a15.12,15.12,0,0,0-.37-2,10.35,10.35,0,0,0,3.93-3.72c2.39-3.8,2.17-8.22-.48-9.89S471,365.47,468.63,369.26Zm-1.43,3.44c0,.06,0,.12-.05.18h0Z"/><path class="cls-1" d="M437.24,254.91a8.65,8.65,0,0,0,.59.93c-2.36-2.1-5.25-2.85-7.41-1.63-3,1.72-3.49,6.61-1,10.94,2.23,3.94,6.1,6,9.06,5.1,0,.07,0,.14,0,.21a11.13,11.13,0,0,1,6.17,5.31c2.57,4.55,2.08,9.7-1.09,11.5l-.39.18,0,.09a.84.84,0,0,0-.27.08c-2,1.15.64,9.71,6,19.12s11.3,16.1,13.34,14.94c.52-.29.73-1.08.67-2.24A63.86,63.86,0,0,0,468,324.5a3.41,3.41,0,0,1,.44-.3c2.35-1.33,5.79.31,7.7,3.67a9.64,9.64,0,0,1,1,2.67l.5.18a13.94,13.94,0,0,0,1.67,4.58c2.09,3.69,5.2,5.87,6.94,4.89s1.46-4.78-.63-8.46c-.17-.32-.36-.62-.55-.91l.21-.1a5.23,5.23,0,0,0,.87-.61c-1.53-3.33-1.15-6.86.93-8.41,1.34,2,3.14,3.19,4.21,2.59s1-3.13-.36-5.53a9,9,0,0,0-1.53-2c-.12-1.32-.31-2.71-.58-4.16-3.6,1.55-8.56-1-11.36-5.92-2.94-5.19-2.38-11.06,1.24-13.12l.2-.08a4,4,0,0,0,3.3-.1c2.77-1.56,2.57-7.14-.44-12.45s-7.69-8.35-10.45-6.78l-.09.06c-.45-.63-.9-1.26-1.36-1.86l0,0c-3,1.68-7.3-.4-9.7-4.64a10.41,10.41,0,0,1-1.35-7.26c-.4-.33-.8-.66-1.2-1l.27-.13c2.13-1.2,2.46-4.65.73-7.69s-4.85-4.54-7-3.34c-1.94,1.1-2.38,4-1.15,6.86a16.67,16.67,0,0,0-2-.64,10.42,10.42,0,0,0-1.41-5.22c-2.21-3.9-6.21-5.81-8.93-4.27S435,251,437.24,254.91Zm2.34,2.89.14.12,0,0Z"/><path class="cls-1" d="M211.59,351.4q.18.48.39.93c-1.73-2.29-4-3.47-5.93-2.77-2.67,1-3.55,5.25-2,9.53,1.44,3.9,4.41,6.45,6.94,6.15v.19a10.93,10.93,0,0,1,4.53,5.82c1.66,4.5.74,9-2.06,10-.11,0-.23.06-.34.09s0,.06,0,.09a.58.58,0,0,0-.23,0c-1.79.66-.47,8.74,3,18s7.67,16.32,9.46,15.66c.46-.17.71-.83.78-1.87,1.22,2,2.46,3.79,3.7,5.41a2,2,0,0,1,.39-.19c2.07-.76,4.74,1.32,6,4.64a10.22,10.22,0,0,1,.57,2.55l.39.25a14.23,14.23,0,0,0,.91,4.37c1.35,3.65,3.68,6.15,5.21,5.58s1.69-4,.35-7.63c-.12-.31-.24-.61-.37-.9l.19-.05a4.73,4.73,0,0,0,.78-.39c-.92-3.24-.26-6.3,1.62-7.3.89,2.05,2.26,3.39,3.19,3.05s1.14-2.61.27-5a9.68,9.68,0,0,0-1.05-2.06c0-1.2,0-2.46-.06-3.79-3.12.73-6.94-2.4-8.75-7.3-1.89-5.13-.84-10.25,2.36-11.43l.17,0a3.14,3.14,0,0,0,2.73.51c2.43-.9,2.84-5.89.9-11.14s-5.48-8.79-7.91-7.9l-.08,0c-.31-.63-.62-1.28-.94-1.89h0c-2.61,1-6-1.66-7.52-5.85a10.41,10.41,0,0,1-.37-6.7c-.29-.37-.59-.73-.88-1.07l.23-.07c1.87-.69,2.49-3.69,1.38-6.71s-3.53-4.89-5.4-4.2c-1.7.63-2.37,3.17-1.64,5.89a12.93,12.93,0,0,0-1.56-.92,10.29,10.29,0,0,0-.63-4.9c-1.42-3.86-4.52-6.27-6.91-5.39S210.17,347.54,211.59,351.4Zm1.64,3a1.13,1.13,0,0,0,.1.13l0,0A1.09,1.09,0,0,1,213.23,354.39Z"/><path class="cls-1" d="M405.14,223.43c-.37,0-.74,0-1.1,0,3-1,5.07-3.16,5.07-5.65,0-3.47-4-6.29-9-6.29-4.52,0-8.26,2.34-8.89,5.37l-.2-.08a11.12,11.12,0,0,1-7.66,2.74c-5.23,0-9.47-3-9.47-6.61a3.13,3.13,0,0,1,0-.43h-.1a.88.88,0,0,0,.06-.27c0-2.35-8.76-4.24-19.57-4.24s-19.58,1.89-19.58,4.24c0,.6.59,1.16,1.62,1.68a66.53,66.53,0,0,0-6.92,2,3.07,3.07,0,0,1,.05.53c0,2.7-3.13,4.88-7,4.88a9.8,9.8,0,0,1-2.82-.41l-.4.34a13.83,13.83,0,0,0-4.81-.8c-4.24,0-7.67,1.62-7.67,3.62s3.43,3.63,7.67,3.63c.36,0,.71,0,1.06,0a1.79,1.79,0,0,0,0,.23,6.46,6.46,0,0,0,.1,1.07c3.66.3,6.54,2.37,6.86,5-2.44.16-4.33,1.16-4.33,2.38s2.24,2.41,5,2.41a9.23,9.23,0,0,0,2.51-.34c1.21.55,2.51,1.07,3.9,1.55.42-3.9,5.07-7,10.75-7,6,0,10.8,3.38,10.8,7.55a1.49,1.49,0,0,1,0,.21,4,4,0,0,0-1.54,2.92c0,3.18,4.94,5.76,11.05,5.76s11.05-2.58,11.05-5.76c0,0,0-.07,0-.1.77-.09,1.54-.17,2.29-.27,0,0,0,0,0,0,0-3.41,3.95-6.17,8.82-6.17a10.47,10.47,0,0,1,7,2.41c.5-.18,1-.37,1.44-.56,0,.1,0,.2,0,.3,0,2.44,2.84,4.42,6.34,4.42s6.33-2,6.33-4.42c0-2.23-2.35-4.06-5.4-4.38a14.88,14.88,0,0,0,1.53-1.4,10.32,10.32,0,0,0,5.24,1.35c4.48,0,8.11-2.54,8.11-5.67S409.62,223.43,405.14,223.43Zm-3.67.61-.17.06s0,0,0,0Z"/><g id="Inner_molecules" data-name="Inner molecules"><circle class="cls-4" cx="243.8" cy="357.45" r="10.42"/><circle class="cls-4" cx="262.83" cy="297.62" r="10.42"/><circle class="cls-4" cx="303.02" cy="344.55" r="10.42"/><circle class="cls-4" cx="352.8" cy="318.62" r="7.51"/><circle class="cls-4" cx="397.81" cy="440.1" r="7.51"/><circle class="cls-4" cx="390.65" cy="383.58" r="7.51"/><circle class="cls-4" cx="369.8" cy="382.42" r="7.51"/><circle class="cls-4" cx="401.1" cy="413.91" r="7.51"/><circle class="cls-4" cx="483.26" cy="351.32" r="7.51"/><circle class="cls-4" cx="435.85" cy="378.97" r="7.51"/><circle class="cls-4" cx="401.79" cy="462.61" r="9.71"/><circle class="cls-4" cx="389.69" cy="340.42" r="7.51"/><circle class="cls-4" cx="373.06" cy="326.63" r="7.51"/><circle class="cls-4" cx="361.84" cy="345.68" r="7.51"/><circle class="cls-4" cx="289.05" cy="255.08" r="7.51"/><circle class="cls-4" cx="383.21" cy="361.16" r="10.42"/><circle class="cls-4" cx="309.62" cy="376.07" r="10.42"/><circle class="cls-4" cx="465.6" cy="347.03" r="10.42"/><circle class="cls-4" cx="380.47" cy="262.59" r="10.42"/><circle class="cls-4" cx="371.77" cy="403.49" r="10.42"/><circle class="cls-4" cx="287.89" cy="312.6" r="10.42"/><circle class="cls-4" cx="307.49" cy="411.88" r="10.42"/><circle class="cls-4" cx="412.21" cy="388.08" r="10.42"/><circle class="cls-4" cx="334.55" cy="259.71" r="10.42"/><circle class="cls-4" cx="271.49" cy="361.1" r="10.42"/><circle class="cls-4" cx="346.42" cy="370.6" r="10.42"/><circle class="cls-4" cx="410.97" cy="329.73" r="10.42"/><circle class="cls-4" cx="245.17" cy="325.39" r="10.42"/><circle class="cls-4" cx="379.28" cy="429.07" r="10.42"/><circle class="cls-4" cx="339.63" cy="290.96" r="10.42"/><circle class="cls-4" cx="432.29" cy="352.23" r="10.42"/><circle class="cls-4" cx="276.22" cy="399.12" r="10.42"/><circle class="cls-4" cx="288.19" cy="279.94" r="10.42"/><circle class="cls-4" cx="334.55" cy="337.65" r="10.42"/><circle class="cls-4" cx="331.75" cy="403.56" r="10.42"/><circle class="cls-4" cx="403.57" cy="302.88" r="10.42"/><circle class="cls-4" cx="208.41" cy="326.5" r="10.42"/><circle class="cls-4" cx="255.58" cy="448.38" r="10.42"/><circle class="cls-4" cx="295.21" cy="230.21" r="10.42"/><circle class="cls-4" cx="424.36" cy="241.93" r="7.51"/><circle class="cls-4" cx="358.13" cy="273" r="7.51"/><circle class="cls-4" cx="389.69" cy="318.22" r="7.51"/><circle class="cls-4" cx="372.91" cy="300.95" r="7.51"/><circle class="cls-4" cx="387.67" cy="282.85" r="7.51"/><circle class="cls-4" cx="404.67" cy="256.59" r="7.51"/><circle class="cls-4" cx="431.19" cy="300.95" r="7.51"/><circle class="cls-4" cx="410.96" cy="277.78" r="7.51"/><circle class="cls-4" cx="308.72" cy="245.72" r="7.51"/><circle class="cls-4" cx="315" cy="266.91" r="7.51"/><circle class="cls-4" cx="323.55" cy="315.54" r="7.51"/><circle class="cls-4" cx="289.05" cy="429.07" r="7.51"/><circle class="cls-4" cx="264.83" cy="423.69" r="9.71"/><circle class="cls-4" cx="323.55" cy="431.24" r="7.51"/><circle class="cls-4" cx="350.61" cy="391.09" r="7.51"/><circle class="cls-4" cx="324.4" cy="361.1" r="7.51"/><circle class="cls-4" cx="273.25" cy="337.07" r="7.51"/><circle class="cls-4" cx="286.63" cy="377.74" r="7.51"/><circle class="cls-4" cx="357.18" cy="440.98" r="7.51"/><circle class="cls-4" cx="405.9" cy="357.45" r="7.51"/><circle class="cls-4" cx="438.7" cy="324.17" r="7.51"/><circle class="cls-4" cx="346.42" cy="424.03" r="7.51"/><circle class="cls-4" cx="311.72" cy="292.61" r="7.51"/></g></g><polygon class="cls-2" points="519.93 252.33 516.71 258.45 510.28 258.64 506.59 264.66 500.27 264.75 495.34 268.81 489.23 269.43 483.37 263.89 477.11 265.7 480.24 260.42 481.12 254.39 483.41 248.41 491.49 248.57 494.9 243.75 497.51 237.47 502.21 233.87 510.03 235.5 512.44 227.95 517.39 224.61 523.64 224.07 529.94 224.22 534.89 220.78 540.44 218.53 546.19 222.89 552.13 221.58 552.2 228.02 550.76 234.58 543.49 236.08 540.58 241.47 536.16 245.33 532.45 250.25 527.67 253.79 519.93 252.33"/><polygon class="cls-3" points="519.93 252.33 516.71 258.45 510.28 258.64 506.59 264.66 500.27 264.75 495.34 268.81 489.23 269.43 483.37 263.89 477.11 265.7 480.24 260.42 481.12 254.39 483.41 248.41 491.49 248.57 494.9 243.75 497.51 237.47 502.21 233.87 510.03 235.5 512.44 227.95 517.39 224.61 523.64 224.07 529.94 224.22 534.89 220.78 540.44 218.53 546.19 222.89 552.13 221.58 552.2 228.02 550.76 234.58 543.49 236.08 540.58 241.47 536.16 245.33 532.45 250.25 527.67 253.79 519.93 252.33"/><g id="Visible"><path class="cls-1" d="M630.36,476.12q-4.62-2.47-9.26-5.17a307.08,307.08,0,0,1-71.52-57.27"/><path class="cls-1" d="M618.39,489.82A129.8,129.8,0,0,0,602.44,478c-7.8-4.91-14.53-8-24.26-12.5-7.32-3.38-11-5.08-16-7a161,161,0,0,0-32.52-8.35"/><circle class="cls-1" cx="627.98" cy="479.82" r="14.13"/><circle class="cls-1" cx="627.98" cy="479.82" r="14.13"/><circle class="cls-1" cx="642.1" cy="463.39" r="12.75" transform="translate(-119.25 681.04) rotate(-51.77)"/><path class="cls-1" d="M610.89,482.4A12.75,12.75,0,0,0,613,500.31a12.62,12.62,0,0,0,3.83,2.06c-.16.19-.34.37-.49.57a12.78,12.78,0,1,0,14.07-4.19c.16-.18.34-.37.49-.57a12.75,12.75,0,0,0-20-15.78Z"/><circle class="cls-1" cx="627.98" cy="479.82" r="14.13"/><circle class="cls-1" cx="637.19" cy="487.79" r="14.13"/><polygon class="cls-2" points="519.19 408.47 513.09 408.71 506.95 408.56 502.76 403.13 495.58 404.85 492.93 397.25 486.27 396.95 482.65 392.11 479.4 386.4 483.93 379.98 490.34 378.18 496.54 382.15 502.19 383.78 507.76 385.1 514.5 379.8 520.02 382.39 524.85 387.18 530.57 388.17 535.18 392.44 541.85 391.05 546.41 395.04 554.02 393.17 556.63 400.14 563.29 401.8 566.57 409.56 560.13 415.4 553.76 417.32 547.55 412.93 541.9 411.62 536.28 410.75 530.71 409.52 524.97 409.06 519.19 408.47"/><polygon class="cls-3" points="519.19 408.47 513.09 408.71 506.95 408.56 502.76 403.13 495.58 404.85 492.93 397.25 486.27 396.95 482.65 392.11 479.4 386.4 483.93 379.98 490.34 378.18 496.54 382.15 502.19 383.78 507.76 385.1 514.5 379.8 520.02 382.39 524.85 387.18 530.57 388.17 535.18 392.44 541.85 391.05 546.41 395.04 554.02 393.17 556.63 400.14 563.29 401.8 566.57 409.56 560.13 415.4 553.76 417.32 547.55 412.93 541.9 411.62 536.28 410.75 530.71 409.52 524.97 409.06 519.19 408.47"/><polygon class="cls-2" points="538.12 390.39 533.01 385.21 526.61 387.22 520.61 386.62 514.81 384.97 510.2 380.22 503.95 379.25 503.2 370.6 494.12 367.64 500.92 361.91 507.07 360.32 512.92 358.53 518.96 359.41 524.77 364.02 530.5 362.91 536.79 357.87 541.59 366.35 547.56 365.07 554.52 360.28 558.15 369.63 564.8 367.4 570.58 368.64 575.89 371.22 580.61 374.9 585.68 380.83 579.73 386.27 573.87 388.57 568.01 390.62 561.71 384.16 556.12 383.86 550.51 383.51 544.74 384.52 538.12 390.39"/><polygon class="cls-3" points="538.12 390.39 533.01 385.21 526.61 387.22 520.61 386.62 514.81 384.97 510.2 380.22 503.95 379.25 503.2 370.6 494.12 367.64 500.92 361.91 507.07 360.32 512.92 358.53 518.96 359.41 524.77 364.02 530.5 362.91 536.79 357.87 541.59 366.35 547.56 365.07 554.52 360.28 558.15 369.63 564.8 367.4 570.58 368.64 575.89 371.22 580.61 374.9 585.68 380.83 579.73 386.27 573.87 388.57 568.01 390.62 561.71 384.16 556.12 383.86 550.51 383.51 544.74 384.52 538.12 390.39"/><polygon class="cls-2" points="539.46 302.42 535.04 309.09 528.09 303.77 522.86 307.56 517.37 312.14 511.31 307.4 505.88 305.06 500.85 304.29 497.79 302.71 497.56 298.01 501.31 293.35 507.06 291.54 512.5 289.57 516.84 284.99 523.7 286.88 528.15 281.91 533.49 279.27 539.39 278.82 544.53 274.33 550.47 273.54 556.97 280.08 562.55 275.53 568.46 275.98 573.59 279.36 575.68 282.62 576.59 287.47 572.16 291.34 568.44 296.64 560.19 293.16 556.1 297.96 551.48 302.17 546.19 304.93 539.46 302.42"/><polygon class="cls-3" points="539.46 302.42 535.04 309.09 528.09 303.77 522.86 307.56 517.37 312.14 511.31 307.4 505.88 305.06 500.85 304.29 497.79 302.71 497.56 298.01 501.31 293.35 507.06 291.54 512.5 289.57 516.84 284.99 523.7 286.88 528.15 281.91 533.49 279.27 539.39 278.82 544.53 274.33 550.47 273.54 556.97 280.08 562.55 275.53 568.46 275.98 573.59 279.36 575.68 282.62 576.59 287.47 572.16 291.34 568.44 296.64 560.19 293.16 556.1 297.96 551.48 302.17 546.19 304.93 539.46 302.42"/><polygon class="cls-2" points="533.16 277.36 528.42 281.03 522.91 282.89 518.05 286.98 511.84 286.56 506.17 288.04 500.21 286.9 494.97 284.89 487.19 285.6 489.78 278.39 493.07 273.15 499.53 271.62 501.68 264.64 507 261.9 514.02 262.42 519.56 260.66 524.35 257.35 530.59 257.49 534.32 251.03 539.37 247.5 545.74 248.58 551 244.67 557.21 246.94 563.61 244.07 570.47 248.91 565.67 254.98 561.01 258.05 561.09 266.94 555.47 269.48 548.03 268.67 543.08 271.49 538.01 274.14 533.16 277.36"/><polygon class="cls-3" points="533.16 277.36 528.42 281.03 522.91 282.89 518.05 286.98 511.84 286.56 506.17 288.04 500.21 286.9 494.97 284.89 487.19 285.6 489.78 278.39 493.07 273.15 499.53 271.62 501.68 264.64 507 261.9 514.02 262.42 519.56 260.66 524.35 257.35 530.59 257.49 534.32 251.03 539.37 247.5 545.74 248.58 551 244.67 557.21 246.94 563.61 244.07 570.47 248.91 565.67 254.98 561.01 258.05 561.09 266.94 555.47 269.48 548.03 268.67 543.08 271.49 538.01 274.14 533.16 277.36"/><circle class="cls-1" cx="649.02" cy="178.81" r="13.87"/><circle class="cls-1" cx="667.79" cy="225.11" r="12.75" transform="translate(-35.63 267.8) rotate(-22.1)"/><path class="cls-1" d="M666.71,188.58a12.74,12.74,0,0,0-16.61-7,12.54,12.54,0,0,0-3.68,2.31c-.09-.24-.16-.48-.25-.71a12.81,12.81,0,1,0-3.33,14.29c.08.24.15.48.25.72a12.75,12.75,0,0,0,23.62-9.6Z"/><circle class="cls-1" cx="649.02" cy="208.77" r="14.13"/><circle class="cls-1" cx="667.79" cy="225.11" r="12.75" transform="translate(-35.63 267.8) rotate(-22.1)"/><path class="cls-1" d="M666.71,188.58a12.74,12.74,0,0,0-16.61-7,12.54,12.54,0,0,0-3.68,2.31c-.09-.24-.16-.48-.25-.71a12.81,12.81,0,1,0-3.33,14.29c.08.24.15.48.25.72a12.75,12.75,0,0,0,23.62-9.6Z"/><circle class="cls-1" cx="647.05" cy="208.77" r="14.13"/><circle class="cls-1" cx="667.66" cy="203.52" r="14.13"/><path class="cls-1" d="M633.92,203.5q-4,1.84-8.15,3.58a252.48,252.48,0,0,1-74.06,18.66"/><path class="cls-1" d="M639,219.73a108.36,108.36,0,0,0-16.05,4c-7.26,2.42-12.78,5.1-20.75,9-6,2.91-9,4.37-12.84,6.59a130.38,130.38,0,0,0-22.24,16.35"/><circle class="cls-1" cx="688.91" cy="323.05" r="12.68"/><circle class="cls-1" cx="671.31" cy="324.49" r="12.75" transform="translate(340.72 992.81) rotate(-89.48)"/><path class="cls-1" d="M658.25,358.62a12.74,12.74,0,0,0,16.93,12.15c0,.25,0,.5,0,.75a12.78,12.78,0,1,0,8.58-11.92c0-.25,0-.5,0-.75a12.75,12.75,0,1,0-25.5-.23Z"/><circle class="cls-1" cx="690.35" cy="347.03" r="14.13"/><circle class="cls-1" cx="676.23" cy="339.55" r="12.68"/><path class="cls-1" d="M664.59,336.1q-5.08.51-10.3.87a296.2,296.2,0,0,1-88.62-7.37"/><path class="cls-1" d="M659.34,354.87a123.48,123.48,0,0,0-18.85-1.29c-8.75.07-15.71,1-25.75,2.43-7.57,1.05-11.38,1.58-16.33,2.64a151.06,151.06,0,0,0-30.06,10"/></g><g id="HiddenGap"><polygon class="cls-5" points="544.09 356.04 538.29 360.72 532.75 355.49 526.37 361.68 521.68 353.58 516.09 353.27 508.5 358.16 502.27 355.57 504.41 347.61 503.52 341.73 510.7 343.14 515.01 338.32 520.29 335.09 526.15 334.31 532.36 337.31 538.13 337.94 543.79 335.79 549.66 331.67 555.48 333.73 560.83 338.63 566.95 336.28 572.33 338.73 577.22 341.83 583.61 341.48 584.96 346.44 582.03 349.06 576.93 350.24 572.56 354.51 567.54 358.55 561.24 356.1 555.82 359.55 549.92 358.68 544.09 356.04"/><polygon class="cls-3" points="544.09 356.04 538.29 360.72 532.75 355.49 526.37 361.68 521.68 353.58 516.09 353.27 508.5 358.16 502.27 355.57 504.41 347.61 503.52 341.73 510.7 343.14 515.01 338.32 520.29 335.09 526.15 334.31 532.36 337.31 538.13 337.94 543.79 335.79 549.66 331.67 555.48 333.73 560.83 338.63 566.95 336.28 572.33 338.73 577.22 341.83 583.61 341.48 584.96 346.44 582.03 349.06 576.93 350.24 572.56 354.51 567.54 358.55 561.24 356.1 555.82 359.55 549.92 358.68 544.09 356.04"/><polygon class="cls-5" points="537.61 332.11 531.85 331.02 526.1 337.45 520.49 331.65 514.99 329.9 508.42 334.86 503.99 328.85 497.61 329.58 495.74 324.7 495.84 318.24 501.48 315.43 507.53 314.66 512.93 312.28 519.3 314.33 524.08 307.8 530.21 309.21 536.26 312.06 541.92 309.75 547.73 308.48 553.62 308 559.21 310.95 564.87 311.95 570.38 313.37 576.16 314.44 577.54 319.22 575.92 323.05 569.92 323.19 565.12 325.63 561.32 333.16 555.58 334.8 549.07 331.35 543.3 331.47 537.61 332.11"/><polygon class="cls-3" points="537.61 332.11 531.85 331.02 526.1 337.45 520.49 331.65 514.99 329.9 508.42 334.86 503.99 328.85 497.61 329.58 495.74 324.7 495.84 318.24 501.48 315.43 507.53 314.66 512.93 312.28 519.3 314.33 524.08 307.8 530.21 309.21 536.26 312.06 541.92 309.75 547.73 308.48 553.62 308 559.21 310.95 564.87 311.95 570.38 313.37 576.16 314.44 577.54 319.22 575.92 323.05 569.92 323.19 565.12 325.63 561.32 333.16 555.58 334.8 549.07 331.35 543.3 331.47 537.61 332.11"/></g></g></svg>