<svg xmlns="http://www.w3.org/2000/svg" viewBox="0 0 365.67 102.05"><defs><style>.cls-1,.cls-3{fill:#19998b;}.cls-1{stroke:#080809;}.cls-2{isolation:isolate;font-size:12px;fill:#010101;font-family:ArialMT, Arial;}.cls-3,.cls-5,.cls-7{stroke:#19998b;}.cls-3{stroke-miterlimit:10;}.cls-4,.cls-5,.cls-6{fill:none;}.cls-4{stroke:#010101;}.cls-6{stroke:#1d1d1b;}.cls-7{fill:#fff;}</style></defs><title>Visible Ranges Joined</title><g id="Layer_8" data-name="Layer 8"><g id="g1021"><rect id="rect933" class="cls-1" x="4.58" y="2.02" width="40" height="40"/><g id="g937"><text id="text935" class="cls-2" transform="translate(11.75 26.52)">(0,5)</text></g><path id="path945" class="cls-3" d="M4.58,42V75.65"/><path id="path947" class="cls-3" d="M4.58,59.9l-3.5-7,3.5,1.75,3.5-1.75Z"/><rect id="rect953" class="cls-4" x="44.58" y="2.02" width="40" height="40"/><g id="g957"><text id="text955" class="cls-2" transform="translate(61.58 26.08)">..</text></g><path id="path959" class="cls-3" d="M44.58,42,239.44,60.24"/><path id="path961" class="cls-3" d="M244.58,61.27,237,63.33l2.41-3.09-1-3.77Z"/><rect id="rect967" class="cls-5" x="4.58" y="61.02" width="40" height="40"/><g id="g971"><text id="text969" class="cls-2" transform="translate(15.75 85.52)">M0</text></g><rect id="rect973" class="cls-5" x="44.58" y="61.02" width="40" height="40"/><g id="g977"><text id="text975" class="cls-2" transform="translate(55.75 85.52)">M1</text></g><rect id="rect979" class="cls-5" x="84.58" y="61.02" width="40" height="40"/><g id="g983"><text id="text981" class="cls-2" transform="translate(95.75 85.52)">M2</text></g><rect id="rect985" class="cls-5" x="164.58" y="61.02" width="40" height="40"/><g id="g989"><text id="text987" class="cls-2" transform="translate(175.75 85.52)">M4</text></g><rect id="rect991" class="cls-5" x="204.58" y="61.02" width="40" height="40"/><g id="g995"><text id="text993" class="cls-2" transform="translate(215.75 85.52)">M5</text></g><rect id="rect997" class="cls-6" x="244.58" y="61.02" width="40" height="40"/><g id="g1001"><text id="text999" class="cls-2" transform="translate(255.75 85.52)">M6</text></g><rect id="rect1003" class="cls-4" x="284.58" y="61.02" width="40" height="40"/><g id="g1007"><text id="text1005" class="cls-2" transform="translate(299.08 85.52)">...</text></g><rect id="rect1009" class="cls-4" x="324.58" y="61.02" width="40" height="40"/><g id="g1013"><text id="text1011" class="cls-2" transform="translate(334.75 85.52)">MN</text></g><rect id="rect1015" class="cls-7" x="124.58" y="61.02" width="40" height="40"/><g id="g1019"><text id="text1017" class="cls-2" transform="translate(135.75 85.52)">M3</text></g></g></g></svg>