<?xml version="1.0" encoding="UTF-8" standalone="no"?>
<svg
   xmlns:dc="http://purl.org/dc/elements/1.1/"
   xmlns:cc="http://creativecommons.org/ns#"
   xmlns:rdf="http://www.w3.org/1999/02/22-rdf-syntax-ns#"
   xmlns:svg="http://www.w3.org/2000/svg"
   xmlns="http://www.w3.org/2000/svg"
   xmlns:sodipodi="http://sodipodi.sourceforge.net/DTD/sodipodi-0.dtd"
   xmlns:inkscape="http://www.inkscape.org/namespaces/inkscape"
   viewBox="0 0 288.92797 300.78881"
   width="288.92798"
   height="300.78882"
   version="1.1"
   id="svg102"
   sodipodi:docname="hilbert_unit_mapping.svg"
   inkscape:version="1.0 (4035a4fb49, 2020-05-01)">
  <metadata
     id="metadata108">
    <rdf:RDF>
      <cc:Work
         rdf:about="">
        <dc:format>image/svg+xml</dc:format>
        <dc:type
           rdf:resource="http://purl.org/dc/dcmitype/StillImage" />
        <dc:title></dc:title>
      </cc:Work>
    </rdf:RDF>
  </metadata>
  <defs
     id="defs106" />
  <sodipodi:namedview
     inkscape:document-rotation="0"
     pagecolor="#ffffff"
     bordercolor="#666666"
     borderopacity="1"
     objecttolerance="10"
     gridtolerance="10"
     guidetolerance="10"
     inkscape:pageopacity="0"
     inkscape:pageshadow="2"
     inkscape:window-width="2560"
     inkscape:window-height="1377"
     id="namedview104"
     showgrid="false"
     fit-margin-top="0"
     fit-margin-left="0"
     fit-margin-right="0"
     fit-margin-bottom="0"
     inkscape:zoom="1.9780134"
     inkscape:cx="217.42209"
     inkscape:cy="205.05834"
     inkscape:window-x="-8"
     inkscape:window-y="-8"
     inkscape:window-maximized="1"
     inkscape:current-layer="svg102" />
  <g
     transform="matrix(0.8792,0,0,0.8792,-23.246118,-19.212828)"
     id="g100">
    <g
       transform="translate(190.56208,218.04112)"
       id="g14">
      <path
         fill-mode="evenodd"
         fill="#000000"
         d="m 5.439,-145.474 5.257,0.402 10e-4,0.001 h 0.013 l 5.253,0.457 0.005,0.003 0.04,0.002 5.228,0.595 5.213,0.523 0.011,0.005 0.08,0.006 5.206,0.779 0.017,0.01 0.076,0.007 5.156,1.034 0.031,0.019 0.104,0.014 5.036,1.394 5.045,1.268 0.018,0.011 0.047,0.007 5.013,1.495 0.007,0.006 0.016,0.002 4.97,1.597 0.001,10e-4 4.942,1.549 0.018,0.013 0.037,0.006 4.897,1.735 0.048,0.037 0.088,0.018 4.736,2.1 0.013,0.012 0.02,0.004 4.641,2.198 4.68,2.035 0.08,0.068 0.112,0.029 4.466,2.53 0.025,0.024 0.03,0.008 4.334,2.669 4.378,2.549 0.003,0.003 0.004,10e-4 4.364,2.595 0.135,0.138 0.123,0.043 3.871,3.136 4.06,2.88 0.057,0.065 0.053,0.019 3.882,3.185 v 0 l 3.863,3.167 0.002,0.003 0.004,10e-4 3.831,3.177 0.14,0.18 0.091,0.039 3.314,3.594 3.513,3.375 0.038,0.09 0.086,0.038 3.282,3.665 v 0 l 3.279,3.624 0.026,0.067 0.098,0.081 3,3.846 0.007,0.022 0.026,0.022 2.918,3.884 0.038,0.114 0.114,0.111 2.512,4.129 v 0 l 2.569,4.035 0.002,0.01 0.008,0.007 2.564,4.058 0.039,0.135 0.098,0.107 1.655,3.297 0.791,0.883 2.091,4.285 0.001,0.002 2.128,4.219 0.023,0.098 0.052,0.06 1.92,4.328 0.021,0.096 0.041,0.051 1.734,4.391 0.022,0.115 0.039,0.053 1.532,4.453 0.025,0.144 0.038,0.056 1.298,4.518 0.011,0.077 0.016,0.024 1.195,4.536 0.008,0.065 0.012,0.019 1.118,4.543 0.03,0.24 0.032,0.056 0.79,4.612 0.011,0.12 0.014,0.044 0.621,4.636 0.016,0.245 0.013,0.047 0.294,4.672 0.006,0.19 0.001,0.007 0.063,4.684 v 0.05 l -0.001,0.07 -0.091,4.646 0.022,4.646 V 4.69 l -0.013,0.298 -0.402,4.685 v 10e-4 l -0.392,4.67 -0.017,0.062 -0.018,0.208 -0.781,4.609 -0.667,4.615 -0.027,0.049 -0.026,0.224 -1.082,4.549 -0.931,4.572 -0.027,0.045 -0.02,0.146 -1.252,4.583 -0.018,0.026 -0.01,0.064 -1.416,4.546 -0.026,0.035 -0.013,0.076 -1.61,4.492 -0.002,0.003 v 0.001 l -1.652,4.489 -0.033,0.043 -0.016,0.077 -1.852,4.425 -0.032,0.039 -0.014,0.063 -2.023,4.364 -0.064,0.073 -0.026,0.103 -2.284,4.247 -0.011,0.011 -0.003,0.013 -2.347,4.23 -0.069,0.071 -0.025,0.085 -2.578,4.11 -0.083,0.079 -0.027,0.084 -2.803,3.95 -2.747,3.982 -0.14,0.125 -0.041,0.115 -3.094,3.768 -3.062,3.805 -0.145,0.116 -0.123,0.182 -3.417,3.404 -3.256,3.6 -0.078,0.058 -0.058,0.085 -3.529,3.485 -0.064,0.042 -0.042,0.058 -3.678,3.35 -0.094,0.058 -0.055,0.07 -3.865,3.154 -0.014,0.005 -0.014,0.018 -3.907,3.134 -0.094,0.033 -0.099,0.111 -4.12,2.867 -0.01,0.003 -0.009,0.01 -4.147,2.865 -0.074,0.024 -0.065,0.068 -4.294,2.668 -0.021,0.006 -0.015,0.016 -4.335,2.637 -0.071,0.021 -0.055,0.052 -4.457,2.454 -0.002,10e-4 -4.452,2.49 -0.169,0.044 -0.116,0.097 -4.669,2.028 -4.558,2.205 -0.17,0.04 -0.096,0.074 -4.816,1.79 -4.715,1.939 -0.162,0.032 -0.075,0.054 -4.934,1.555 h -10e-4 l -4.843,1.684 -0.108,0.019 -0.043,0.029 -4.989,1.457 -0.2,0.029 -0.056,0.034 -5.106,1.01 -0.029,0.003 -0.006,0.003 -5.128,0.973 -0.02,0.002 -0.004,0.002 -5.143,0.953 -0.008,0.001 v 0 l -5.145,0.968 -0.156,0.015 -0.025,0.013 -5.211,0.607 h -10e-4 l -5.177,0.684 -0.102,0.007 -0.011,0.006 -5.234,0.473 -0.119,0.005 -0.007,0.004 -5.257,0.236 -0.068,0.002 -0.002,0.001 -5.266,0.104 -0.054,0.001 -0.053,-0.001 -5.271,-0.108 -0.006,-0.002 -0.184,-0.009 -5.246,-0.503 -0.006,-0.002 -0.038,-0.003 -5.208,-0.621 -5.215,-0.502 -0.004,-0.002 -0.028,-0.002 -5.232,-0.605 -0.026,-0.014 -0.148,-0.015 -5.098,-1.039 -5.138,-0.772 -0.023,-0.013 -0.102,-0.011 -5.133,-1.112 -0.028,-0.017 -0.089,-0.013 -5.041,-1.421 -5.014,-1.326 -0.031,-0.02 -0.075,-0.012 -4.963,-1.624 -0.001,-0.001 -4.934,-1.594 -0.031,-0.022 -0.062,-0.011 -4.859,-1.848 -0.064,-0.051 -0.107,-0.025 -4.653,-2.262 -10e-4,-0.001 -4.589,-2.235 -4.679,-2.016 -0.097,-0.082 -0.132,-0.036 -4.357,-2.575 -4.5,-2.29 -0.055,-0.051 -0.07,-0.02 -4.366,-2.636 -0.006,-0.006 -0.006,-0.001 -4.32,-2.675 -0.079,-0.083 -0.08,-0.026 -4.028,-3.003 -4.096,-2.875 -0.092,-0.105 -0.08,-0.029 -3.819,-3.257 -0.004,-0.007 -0.009,-0.004 -3.776,-3.28 -0.025,-0.055 -0.062,-0.025 -3.575,-3.464 -0.002,-0.003 -0.003,-10e-4 -3.551,-3.464 v 0 0 l -3.535,-3.449 -0.025,-0.059 -0.057,-0.025 -3.341,-3.611 -0.026,-0.066 -0.101,-0.082 -3.028,-3.847 -0.001,-0.003 -0.004,-0.003 -3.014,-3.837 v 0 l -3.017,-3.796 -0.027,-0.075 -0.086,-0.077 -2.729,-3.997 -0.002,-0.006 -0.005,-0.005 -2.713,-3.982 -0.038,-0.121 -0.102,-0.105 -2.324,-4.201 v -0.002 l -2.354,-4.147 -0.041,-0.154 -0.091,-0.107 -1.929,-4.358 -0.001,-0.002 -1.992,-4.28 -0.004,-0.019 -0.009,-0.01 -1.974,-4.304 -0.051,-0.228 -0.083,-0.116 -1.426,-4.444 -1.684,-4.288 -0.03,-0.157 -0.05,-0.07 -1.401,-4.487 -0.034,-0.221 -0.043,-0.069 -1.006,-4.587 -0.006,-0.053 -0.008,-0.012 -0.936,-4.595 -0.011,-0.105 -0.012,-0.021 -0.774,-4.621 -0.01,-0.12 -0.011,-0.019 -0.59,-4.645 v -0.004 l -0.637,-4.606 -0.023,-0.33 -0.008,-0.035 -0.147,-4.683 -0.001,-0.104 V 4.679 l 0.015,-4.69 v 0 -0.03 l 0.061,-4.662 -0.021,-4.655 v -0.016 l 0.019,-0.355 0.494,-4.683 0.013,-0.024 0.013,-0.158 0.774,-4.65 v 0 l 0.709,-4.597 0.644,-4.623 0.034,-0.062 0.035,-0.286 1.152,-4.6 0.001,-0.002 1.147,-4.582 0.028,-0.042 0.017,-0.112 1.393,-4.555 0.044,-0.061 0.024,-0.132 1.683,-4.467 0.035,-0.045 0.016,-0.079 1.884,-4.396 0.016,-0.019 0.007,-0.029 1.987,-4.365 0.024,-0.028 0.01,-0.042 2.121,-4.316 0.042,-0.046 0.016,-0.063 2.308,-4.232 0.002,-0.003 0.001,-10e-4 2.346,-4.229 0.122,-0.125 0.043,-0.138 2.743,-3.99 0.002,-0.002 0.001,-0.002 2.776,-3.991 0.036,-0.032 0.011,-0.032 2.901,-3.921 0.037,-0.032 0.01,-0.03 3.021,-3.85 0.003,-0.003 v -0.002 l 3.048,-3.85 0.096,-0.076 0.025,-0.066 3.286,-3.67 0.074,-0.054 0.055,-0.081 3.485,-3.455 3.427,-3.541 0.113,-0.078 0.076,-0.102 3.707,-3.249 3.609,-3.374 0.124,-0.078 0.073,-0.091 3.915,-3.123 0.117,-0.041 0.122,-0.133 4.093,-2.711 3.864,-3.038 0.15,-0.052 0.157,-0.163 4.304,-2.649 v 0 l 4.226,-2.722 0.187,-0.055 0.151,-0.135 4.564,-2.223 4.475,-2.333 0.091,-0.023 0.059,-0.05 4.657,-2.114 4.557,-2.239 0.123,-0.029 0.073,-0.059 4.775,-1.928 0.069,-0.013 0.033,-0.025 4.851,-1.768 v 0 l 4.753,-1.892 0.162,-0.031 0.072,-0.051 4.961,-1.511 0.15,-0.023 0.047,-0.03 5.012,-1.157 4.909,-1.461 0.164,-0.024 0.049,-0.03 5.102,-1.103 0.073,-0.008 0.017,-0.01 5.141,-0.956 0.199,-0.019 0.028,-0.014 5.154,-0.52 5.111,-0.814 0.207,-0.017 0.019,-0.009 5.237,-0.358 5.219,-0.429 0.123,-0.006 0.005,-0.002 5.262,-0.153 h 0.051 l 10e-4,-0.001 5.268,-0.034 h 0.008 v 0 l 5.268,-0.018 h 0.008 z m -10.62,4.396 -5.213,0.304 h -0.002 l -5.169,0.329 -5.118,0.701 -0.077,0.005 -0.01,0.005 -5.099,0.536 -4.97,1.115 -0.064,0.007 -0.015,0.009 -5.121,1.017 -5.033,1.158 -0.05,0.006 -0.013,0.007 -4.97,1.054 -4.768,1.635 -0.031,0.005 -0.011,0.008 -4.922,1.638 -0.058,0.009 -0.022,0.016 -4.86,1.492 -4.669,1.905 h -0.001 l -4.668,2.048 -0.032,0.007 -0.016,0.013 -4.64,1.968 -4.401,2.364 h -0.002 l -4.387,2.395 -4.118,2.751 -0.087,0.026 -0.074,0.075 -4.28,2.521 -4.023,2.843 -0.077,0.025 -0.07,0.073 -4.087,2.584 -3.647,3.127 -0.031,0.012 -0.034,0.043 -3.881,3.167 -0.021,0.007 -0.021,0.026 -3.796,3.01 -3.473,3.351 -0.024,0.016 -0.015,0.021 -3.528,3.293 -3.21,3.565 -3.255,3.666 -3.157,3.602 -2.887,3.745 -2.744,3.871 -2.557,3.924 -2.33,4.128 -0.027,0.027 -0.009,0.034 -2.426,4.046 -2.142,4.141 -2.026,4.199 -1.831,4.237 -1.632,4.344 -1.531,4.437 -0.001,10e-4 -1.488,4.438 -1.352,4.324 -1.052,4.484 -0.016,0.024 -0.009,0.068 -1.195,4.408 -0.779,4.358 -0.417,4.529 -0.366,4.654 -0.006,0.021 -0.005,0.089 -0.521,4.515 -0.105,4.447 0.182,4.527 0.364,4.601 0.004,0.106 0.003,0.013 0.212,4.555 0.59,4.487 0.753,4.533 0.917,4.466 1.183,4.44 0.007,0.051 0.01,0.015 1.146,4.561 0.002,0.016 0.003,0.003 1.11,4.406 1.693,4.204 0.02,0.103 0.036,0.049 1.536,4.415 1.778,4.202 2.184,4.097 0.014,0.052 0.031,0.035 2.089,4.208 2.417,4.017 0.011,0.039 0.029,0.028 2.352,4.125 2.626,3.954 0.003,0.01 0.008,0.007 2.63,3.993 2.88,3.743 3.188,3.616 0.007,0.019 0.016,0.007 3.196,3.721 3.216,3.627 3.429,3.391 3.693,3.223 3.741,3.196 3.943,3.007 0.026,0.032 0.025,0.008 3.828,3.106 4.121,2.755 0.018,0.02 0.019,0.006 4.104,2.883 4.267,2.681 0.004,0.005 0.005,0.001 4.191,2.693 4.52,2.162 0.047,0.042 0.065,0.017 4.388,2.465 4.593,1.965 4.811,1.724 0.016,0.013 0.029,0.005 4.841,1.894 0.001,0.001 4.762,1.812 4.918,1.522 10e-4,0.001 4.897,1.508 5.03,1.138 10e-4,0.001 5.109,1.171 10e-4,0.001 4.995,1.172 5.11,0.616 0.007,0.004 0.041,0.003 5.166,0.766 5.104,0.553 5.133,0.138 5.219,-0.042 h 0.022 0.022 l 5.246,0.045 5.203,-0.048 5.208,-0.221 5.219,-0.29 5.137,-0.375 5.102,-0.754 0.035,-0.002 0.005,-0.003 5.137,-0.699 5.017,-1 4.951,-1.272 4.894,-1.528 0.071,-0.011 0.025,-0.017 5.006,-1.403 0.004,-0.001 4.886,-1.417 4.707,-1.833 0.056,-0.01 0.026,-0.02 4.761,-1.72 4.533,-2.141 0.068,-0.016 0.038,-0.032 4.608,-1.987 4.339,-2.423 0.07,-0.018 0.048,-0.044 4.484,-2.28 4.276,-2.557 h 0.001 l 4.219,-2.632 4.071,-2.852 v 0 l 3.993,-2.884 3.811,-3.118 0.008,-0.003 0.009,-0.01 3.822,-3.101 3.612,-3.283 3.6,-3.344 3.504,-3.421 3.343,-3.329 2.927,-3.701 0.052,-0.042 0.044,-0.073 3.111,-3.606 2.817,-3.829 0.022,-0.019 0.006,-0.018 2.855,-3.756 2.533,-3.969 2.519,-4.055 2.396,-3.998 2.189,-4.17 v -0.001 l 2.129,-4.169 1.984,-4.226 1.834,-4.203 1.573,-4.328 1.445,-4.386 1.297,-4.483 10e-4,-0.001 1.224,-4.338 0.769,-4.489 0.004,-0.008 0.003,-0.028 0.844,-4.472 0.404,-4.528 0.002,-0.003 0.001,-0.021 0.456,-4.548 0.112,-4.563 0.001,-0.004 0.001,-0.051 0.188,-4.52 -0.251,-4.444 -0.444,-4.557 -0.557,-4.584 -0.001,-0.007 v 0 l -0.574,-4.602 -0.736,-4.54 -0.002,-0.014 -0.001,-0.003 -0.745,-4.551 -0.983,-4.419 -1.224,-4.432 v -0.004 l -1.332,-4.464 v -0.001 l -1.451,-4.42 v 0 l -1.584,-4.381 -0.001,-0.002 -1.66,-4.295 -2.028,-4.171 -0.251,-1.075 -1.749,-3.114 -0.013,-0.048 -0.031,-0.033 -2.202,-4.194 -2.421,-3.953 -2.816,-3.791 -0.012,-0.037 -0.039,-0.034 -2.752,-3.94 -2.947,-3.801 -0.003,-0.008 -0.01,-0.009 -2.929,-3.821 -3.207,-3.612 -0.005,-0.013 -0.011,-0.005 -3.155,-3.615 -3.601,-3.203 -0.035,-0.077 -0.082,-0.034 -3.437,-3.504 -3.608,-3.265 -3.882,-3.078 -0.002,-0.004 -0.004,-0.001 -3.828,-3.075 -4.206,-2.573 -0.07,-0.073 -0.073,-0.024 -4.05,-2.955 -4.15,-2.7 -4.417,-2.357 -4.555,-2.283 -0.03,-0.028 -0.042,-0.011 -4.407,-2.456 -4.609,-2.031 -4.769,-1.902 -0.007,-0.005 -0.011,-0.003 -4.776,-1.996 -4.747,-1.854 -4.881,-1.54 -5,-1.368 -4.954,-1.273 -5.089,-0.866 -0.003,-0.002 -0.012,-0.001 -5.172,-0.95 v -10e-4 l -5.153,-0.897 v -0.001 l -5.088,-0.834 -5.14,-0.467 -5.173,-0.305 -5.216,-0.058 -0.001,-0.001 H 5.196 l -5.207,-0.17 z"
         id="path10" />
      <path
         fill-mode="evenodd"
         fill="#000000"
         d="m 147.612,-60.636 0.639,0.71 2.196,4.468 0.011,0.05 0.026,0.03 1.995,4.544 0.007,0.033 0.014,0.017 1.878,4.578 0.012,0.061 0.023,0.03 1.656,4.649 0.006,0.035 0.011,0.014 1.551,4.673 0.01,0.062 0.016,0.023 1.351,4.724 0.01,0.065 0.013,0.021 1.154,4.767 0.007,0.06 0.009,0.016 0.982,4.798 0.008,0.078 0.009,0.015 0.763,4.833 0.004,0.053 0.004,0.008 0.624,4.848 0.003,0.059 0.004,0.007 0.469,4.863 0.004,0.078 0.002,0.006 0.263,4.879 0.002,0.066 v 0.002 l 0.09,4.887 v 0.034 0 0.032 l -0.086,4.89 -0.001,0.002 -0.002,0.063 -0.266,4.888 -0.001,0.003 -0.002,0.045 -0.411,4.883 -0.004,0.008 -0.004,0.066 -0.626,4.867 -0.005,0.009 -0.004,0.049 -0.807,4.848 -0.624,1.092 -1.196,0.439 -1.306,-0.54 -0.541,-1.306 0.026,-0.304 0.801,-4.81 0.623,-4.796 0.48,-4.799 0.269,-4.809 0.092,-4.82 -0.088,-4.821 -0.274,-4.822 -0.422,-4.81 -0.622,-4.782 -0.837,-4.771 -0.972,-4.751 -1.149,-4.72 -1.3,-4.695 -1.439,-4.642 -1.678,-4.586 -0.001,-10e-4 -1.794,-4.556 -2.013,-4.482 v 0 l -2.149,-4.45 -0.179,-0.772 0.514,-1.239 1.238,-0.513 z"
         id="path12" />
    </g>
    <g
       style="fill:#7cc6fe"
       transform="translate(273.39048,185.02562)"
       id="g42">
      <path
         style="fill:#7cc6fe"
         fill-mode="evenodd"
         fill="#e71224"
         d="m -1.506,-19.563 0.403,0.158 h 0.265 l 0.001,0.001 0.31,0.043 0.849,0.243 0.033,0.022 0.07,0.014 0.504,0.201 1.105,0.221 0.02,0.012 0.066,0.009 0.687,0.199 1.041,0.003 v 0 h 0.001 l 0.969,0.004 1.084,-0.213 0.091,-0.009 0.014,-0.007 1.052,-0.113 1.403,-0.23 0.026,-0.002 0.005,-0.002 0.835,-0.118 0.033,-0.003 0.005,-0.002 1.065,-0.12 0.812,-0.119 0.163,-0.012 10e-4,-0.001 0.839,-0.004 0.477,-0.005 h 0.011 l 0.349,0.055 0.731,0.237 h 10e-4 l 0.725,0.239 0.094,0.129 0.348,0.144 0.422,0.421 0.419,0.31 0.178,0.356 0.199,0.135 0.45,1.115 0.311,0.514 0.069,0.246 0.077,0.129 0.233,1.165 0.302,1.1 0.614,0.922 0.032,0.103 0.044,0.028 0.459,0.925 0.691,1.157 v 0 l 0.347,0.555 1,0.251 h 10e-4 l 0.815,0.204 1.179,-0.002 h 10e-4 v 0 l 1.028,-10e-4 1.387,-0.43 0.186,-0.029 0.035,-0.018 0.926,-0.104 0.983,-0.393 0.764,-0.438 0.213,-0.057 0.113,-0.07 0.911,-0.205 0.683,-0.391 0.58,-0.156 h 0.535 l 0.537,-0.178 0.37,-0.06 h 0.002 l 0.84,10e-4 h 0.6 l 0.424,0.081 0.398,0.157 0.262,0.001 0.007,0.003 0.631,0.191 0.53,0.355 0.384,0.076 0.125,0.076 0.234,0.065 0.568,0.34 0.447,0.227 0.045,0.073 0.148,0.052 0.586,0.471 0.44,0.33 0.698,0.465 0.049,0.092 0.126,0.052 0.478,0.483 0.041,0.102 0.078,0.039 0.506,0.711 0.478,0.38 0.048,0.099 0.105,0.048 0.593,0.688 0.675,0.384 0.064,0.111 0.176,0.073 0.6,0.6 0.052,0.124 0.09,0.048 0.48,0.715 0.012,0.038 0.02,0.012 0.286,0.471 0.258,0.25 0.002,0.004 0.004,0.002 0.35,0.81 0.014,0.714 0.018,0.591 10e-4,0.039 -0.087,0.448 -0.325,0.808 -0.216,0.686 -10e-4,0.001 v 10e-4 l -0.33,1.014 -0.224,1.135 v 0 l -0.241,1.205 -0.002,0.004 -0.002,0.012 -0.209,0.95 v 1.425 0.006 l -0.005,0.985 0.22,1.46 0.015,0.192 v 0.014 l -0.012,1.004 0.4,1.25 10e-4,0.005 10e-4,0.002 0.3,0.93 0.623,0.943 0.062,0.207 0.096,0.144 0.262,0.975 0.565,0.49 0.145,0.32 0.166,0.11 0.293,0.697 0.376,0.476 0.013,0.037 0.024,0.013 0.597,0.838 0.064,0.199 0.108,0.159 0.235,0.825 0.226,0.685 v 0.004 l 0.001,10e-4 0.237,0.713 0.06,0.367 10e-4,0.002 0.002,0.84 v 0.003 l -0.057,0.36 -0.318,0.969 -0.104,0.964 -0.024,0.046 -0.038,0.219 -0.48,1.331 -0.015,0.01 -0.011,0.053 -0.477,1.092 h -10e-4 l -0.708,1.672 -0.048,0.031 -0.037,0.13 -0.794,1.259 -0.685,1.499 -0.02,0.012 -0.014,0.053 -0.722,1.329 -0.032,0.019 -0.02,0.067 -0.724,1.086 v 0 l -0.724,1.081 -0.214,0.114 -0.113,0.212 -1.078,0.717 -0.025,0.008 -0.008,0.013 -0.956,0.598 -0.231,0.067 -0.138,0.087 -1.553,0.358 -0.141,0.017 -0.02,0.01 -1.197,0.116 -0.12,0.006 -0.07,-0.002 L 34.525,37.226 34.524,37.225 34.506,37.224 32.94,37.102 32.937,37.1 32.905,37.098 30.808,36.863 h -1.49 l -1.551,0.333 -0.062,0.007 -0.013,0.007 -1.235,0.192 -1.173,0.98 -0.944,0.842 -0.959,1.492 -0.573,1.149 -0.025,0.016 -0.016,0.059 -0.724,1.206 h -10e-4 l -0.64,1.069 -0.32,1.066 -0.006,0.009 -0.003,0.017 -0.347,1.041 -0.102,0.411 -0.088,0.442 v 10e-4 0 l 10e-4,0.12 v 0.011 l -0.35,0.845 -0.845,0.35 v 0 l -0.535,-0.126 -0.247,-0.123 -0.061,-0.1 -0.002,-0.001 -0.004,-0.009 -0.011,-0.017 -0.226,-0.094 -0.164,-0.398 -0.059,-0.036 -0.19,-0.382 -0.171,-0.226 -0.556,-0.365 -0.023,-0.043 -0.068,-0.024 -0.356,-0.288 -1.141,-0.197 -0.007,-0.005 -0.03,-0.003 -0.881,-0.187 -1.707,0.23 -0.156,0.01 -0.002,0.001 -1.125,0.01 -1.966,0.664 -0.061,0.01 -0.022,0.016 -1.667,0.447 -1.909,1.015 -0.074,0.018 -0.017,0.026 -1.807,0.792 -1.935,1.366 -0.062,0.019 -0.018,0.033 -1.796,1.079 -0.072,0.02 -0.018,0.03 -1.831,0.916 -1.234,0.897 -0.285,0.093 -0.205,0.123 -1.728,0.348 -1.359,0.452 -0.402,0.066 -0.19,-0.014 -1.569,-0.243 -0.009,-0.005 -0.04,-0.004 -1.209,-0.244 -0.169,-0.102 -0.267,-0.081 -1.358,-0.908 -1.236,-0.564 -0.064,-0.099 -0.215,-0.079 -1.562,-1.325 -0.01,-0.02 -0.023,-0.009 -1.069,-0.976 -0.048,-0.11 -0.096,-0.047 -1.257,-1.64 -1.139,-1.159 -0.057,-0.14 -0.096,-0.052 -1.072,-1.682 -0.017,-0.058 -0.027,-0.016 -0.716,-1.317 -0.017,-0.065 -0.023,-0.015 -0.566,-1.245 -0.565,-0.875 -0.191,-0.645 0.003,-0.086 0.096,-1.327 0.005,-0.009 0.006,-0.082 0.111,-0.729 0.373,-0.669 0.024,-0.052 0.892,-0.788 0.554,-0.649 0.165,-0.076 0.073,-0.137 1.207,-0.824 0.195,-0.061 0.046,-0.067 1.182,-0.464 1.251,-0.564 1.033,-0.57 0.009,-0.002 0.002,-0.003 1.316,-0.717 h 0.001 l 1.056,-0.601 h 10e-4 l 1.064,-0.614 h 0.001 l 0.634,-0.371 0.334,-0.426 0.002,-10e-4 0.001,-0.003 0.153,-0.192 -0.031,-0.049 -0.143,-0.048 -0.264,-0.197 -1.426,-0.302 -0.001,-0.001 h -10e-4 l -1.09,-0.241 h -10e-4 l -2.162,-0.477 v 0 l -1.603,-0.342 -2.22,-0.234 -0.028,-0.014 -0.157,-0.02 -1.689,-0.45 -1.567,-0.111 -0.009,-0.005 -0.09,-0.007 -1.569,-0.244 -0.004,-0.003 -0.02,-0.002 -1.329,-0.242 -0.003,-0.002 -0.01,-0.001 -1.21,-0.242 -0.122,-0.074 -0.243,-0.064 -0.847,-0.484 -0.004,-0.006 -0.013,-0.004 -0.606,-0.364 -0.03,-0.053 -0.093,-0.032 -0.438,-0.677 -0.239,-0.952 -0.039,-0.31 v -0.005 l 0.004,-0.839 10e-4,-1.32 v 0 l 0.017,-0.203 0.241,-1.449 0.003,-0.006 0.003,-0.026 0.358,-1.791 0.24,-1.423 0.02,-0.034 0.018,-0.122 0.601,-1.918 0.475,-1.664 0.008,-0.013 0.005,-0.028 0.473,-1.428 0.353,-1.214 0.14,-0.885 0.014,-0.026 0.014,-0.1 0.14,-0.502 -0.155,-0.487 -0.005,-0.033 -0.008,-0.012 -0.019,-0.067 -0.124,-0.09 -0.028,-0.019 h -0.104 -0.72 -0.033 L -27.426,8.8 -27.995,8.55 -28.262,8.44 -28.265,8.432 -28.274,8.428 -28.623,7.569 V 7.557 l 0.003,-0.361 0.001,-0.002 0.011,-0.153 0.017,-0.124 0.402,-0.742 0.226,-0.085 0.068,-0.105 0.481,-0.22 0.166,-0.037 0.071,-0.044 0.449,-0.103 1.099,-0.328 0.747,-0.321 1.397,-0.702 0.058,-0.014 0.013,-0.019 0.833,-0.358 0.092,-0.02 0.043,-0.03 1.192,-0.358 0.906,-0.303 0.584,-0.389 0.307,-0.094 0.166,-0.093 0.497,-0.081 0.402,-0.24 0.208,-0.058 0.122,-0.079 0.358,-0.087 0.119,-0.059 0.277,-0.065 0.014,-0.019 0.074,-0.184 0.135,-0.142 V 1.442 l 0.017,-0.202 0.121,-0.728 0.097,-0.17 0.092,-0.302 0.149,-0.223 0.07,-0.214 0.01,-0.012 0.004,-0.025 0.065,-0.171 0.01,-0.274 0.009,-0.352 0.24,-0.55 0.106,-0.258 0.007,-0.003 0.003,-0.007 0.828,-0.337 h 0.014 l 0.348,0.005 0.107,-0.001 h 0.003 v 0 l 0.48,-0.004 h 10e-4 l 0.6,-0.004 h 0.002 v 0 l 0.841,-0.004 h 0.007 10e-4 l 0.721,0.001 h 0.002 l 0.439,0.085 0.388,0.155 h 3.254 0.005 l 0.49,0.002 0.379,-0.151 0.447,-0.087 h 0.121 l 0.057,-0.038 0.067,-0.02 0.009,-0.015 v -0.301 l 0.003,-0.075 0.015,-0.243 0.001,-10e-4 v -0.012 l 0.019,-0.243 0.015,-0.03 0.032,-0.217 0.07,-0.227 0.122,-0.089 0.145,-0.35 0.766,-0.317 0.029,0.014 0.211,-0.075 0.277,0.051 0.635,0.239 0.014,0.021 0.064,0.017 0.004,0.003 v -0.027 -0.001 -4.084 l 0.006,-0.104 0.232,-2.35 -0.005,-1.627 -0.008,-1.678 -0.013,-1.195 -0.018,-1.198 v -0.003 0 l -0.013,-0.96 v -0.016 0 l 0.166,-0.584 0.231,-0.372 0.004,-0.003 0.003,-0.007 0.236,-0.369 0.086,-0.047 0.051,-0.125 0.236,-0.244 0.097,-0.041 0.667,-0.303 0.118,-0.005 0.054,-0.002 z m -0.154,2.385 -0.008,0.615 v 0 10e-4 l -0.019,1.199 -0.013,1.195 -0.007,1.678 -0.006,1.681 v 10e-4 l -0.005,0.101 -0.237,2.351 v 4.031 0.001 l -10e-4,1.322 v 0 0 l -0.002,1.363 0.161,0.411 0.019,0.099 0.019,0.015 0.162,0.595 0.056,0.059 0.002,0.005 0.005,0.002 0.005,0.006 0.354,0.057 0.006,0.008 0.02,0.002 v -0.001 l 0.604,-0.055 0.064,-0.003 0.009,0.009 0.349,-0.081 L 0,-0.526 0.526,0 0.338,0.402 -0.061,0.738 -0.205,0.79 -0.277,0.888 -0.451,0.943 -0.5,1.062 -0.805,1.188 -0.873,1.275 -1.091,1.333 -1.173,1.344 -1.18,1.352 -1.526,1.408 -1.535,1.409 -1.537,1.41 -1.727,1.439 -1.789,1.455 -2.042,1.487 -2.726,1.219 -2.976,0.988 -2.978,0.984 -2.983,0.982 -3.23,0.748 -3.386,0.387 -3.509,0.295 -3.746,-0.497 -3.968,-1.04 -4.048,-1.439 V -1.44 l -0.003,-1.562 v -0.001 0 -0.389 l -0.003,0.002 -0.069,0.019 -0.015,0.021 -0.005,0.002 0.007,0.015 0.019,0.235 v 0.019 l 0.001,0.001 0.015,0.236 0.003,0.079 v 0.721 l -0.312,0.751 -0.008,0.028 -0.008,0.012 -0.02,0.048 -0.037,0.037 -0.178,0.267 -0.309,0.165 -0.145,0.234 -0.175,0.088 -0.294,0.196 -0.663,0.202 h -0.251 l -0.379,0.153 -0.441,0.087 -0.005,0.002 -0.72,0.003 h -0.006 -3.484 l -0.443,-0.085 -0.387,-0.155 -0.49,10e-4 h -10e-4 -0.007 l -0.841,-0.005 v 0 h -0.002 l -0.392,-0.003 -0.105,0.366 -0.008,0.011 -0.004,0.027 -0.123,0.369 -0.093,0.125 -0.048,0.159 -0.094,0.141 -0.06,0.362 v 0.258 l -0.062,0.385 -0.122,0.369 -0.225,0.307 -0.07,0.168 -0.12,0.12 -0.014,0.006 -0.006,0.013 -0.038,0.037 -0.035,0.097 -0.346,0.45 -0.038,0.078 -0.13,0.103 -0.742,0.259 h -0.029 l -0.214,-0.005 -0.102,0.024 -0.084,0.055 -0.311,0.08 -0.446,0.268 -0.282,0.079 -0.134,0.076 -0.472,0.081 -0.506,0.338 -0.163,0.05 -0.126,0.092 -1.073,0.357 -0.03,0.005 -0.012,0.008 -1.139,0.342 -0.751,0.321 -1.401,0.697 -0.056,0.013 -0.012,0.018 -0.48,0.206 0.375,0.609 0.102,0.469 0.207,0.812 0.039,0.302 -0.048,0.333 -0.214,0.731 -0.078,0.854 -0.012,0.024 -0.02,0.16 -0.34,1.335 -0.015,0.023 -0.009,0.056 -0.476,1.421 -0.473,1.658 -0.004,0.006 -0.002,0.014 -0.575,1.842 -0.223,1.362 -0.004,0.007 -0.003,0.028 -0.358,1.789 -0.219,1.314 10e-4,1.216 0.003,0.688 0.079,0.315 0.154,0.092 0.648,0.37 1.003,0.201 1.288,0.233 1.491,0.226 1.635,0.116 0.025,0.012 0.204,0.027 1.709,0.457 2.19,0.23 0.017,0.009 0.109,0.012 1.69,0.363 h 10e-4 0.001 l 2.17,0.486 v 0 l 1.08,0.241 v 0 l 1.673,0.362 0.215,0.133 0.262,0.088 0.391,0.295 0.627,0.318 0.08,0.13 0.228,0.094 0.361,0.872 v 0.006 l -0.004,0.601 v 0 0.002 l -0.003,0.481 -0.019,0.045 -0.252,0.714 -0.484,0.602 -0.002,10e-4 -0.001,0.003 -0.489,0.598 -0.245,0.116 -0.102,0.175 -0.84,0.469 -0.02,0.005 -0.005,0.008 -1.084,0.581 h -10e-4 l -1.08,0.586 -0.002,10e-4 -10e-4,0.001 -1.315,0.719 h -0.001 l -1.067,0.598 -0.074,0.02 -0.017,0.026 -1.313,0.602 -0.044,0.01 -0.009,0.013 -1.068,0.436 -0.945,0.678 -0.492,0.605 -0.098,0.046 -0.047,0.103 -0.641,0.556 -0.047,0.259 -0.095,0.876 0.376,0.622 0.029,0.102 0.038,0.025 0.584,1.285 0.681,1.243 0.993,1.531 1.119,1.1 0.031,0.073 0.062,0.03 1.273,1.58 1.006,0.871 1.425,1.203 1.174,0.531 0.034,0.054 0.133,0.04 1.238,0.823 0.939,0.186 1.232,0.188 1.147,-0.383 0.123,-0.021 0.038,-0.022 1.535,-0.305 1.096,-0.798 0.14,-0.046 0.039,-0.063 1.882,-0.941 1.721,-1.032 1.999,-1.411 0.178,-0.057 0.045,-0.069 1.884,-0.824 1.994,-1.052 0.175,-0.043 0.092,-0.062 1.772,-0.469 2.118,-0.697 0.392,-0.064 h 0.011 l 1.246,0.011 1.844,-0.213 0.142,-0.008 0.27,0.031 1.043,0.241 1.407,0.226 0.24,0.135 0.305,0.106 0.568,0.45 0.228,0.154 0.092,-0.275 0.354,-1.184 0.074,-0.104 0.044,-0.158 0.724,-1.207 v 0 l 0.695,-1.159 0.584,-1.165 0.035,-0.022 0.024,-0.082 1.084,-1.686 0.133,-0.072 0.076,-0.171 1.082,-0.958 0.022,-0.009 0.008,-0.017 1.442,-1.198 0.313,-0.113 0.268,-0.148 1.529,-0.233 1.637,-0.351 0.256,-0.028 h 1.682 l 0.129,0.007 2.145,0.236 1.532,0.116 1.934,0.112 1.032,-0.106 1.295,-0.299 0.78,-0.487 0.863,-0.577 0.59,-0.887 v 0 l 0.69,-1.036 0.68,-1.243 0.711,-1.528 0.043,-0.028 0.032,-0.106 0.794,-1.238 0.693,-1.598 0.002,-0.001 0.002,-0.007 0.47,-1.043 0.42,-1.148 0.108,-0.947 0.022,-0.041 0.032,-0.195 0.305,-0.901 L 46.18,21.09 46.001,20.557 46,20.553 V 20.552 L 45.759,19.841 45.752,19.798 45.74,19.781 45.554,19.133 45.088,18.483 44.627,17.914 44.553,17.704 44.464,17.646 44.206,17.056 43.567,16.515 43.52,16.414 43.195,15.933 42.879,14.797 42.264,13.883 42.216,13.727 42.124,13.603 41.755,12.534 41.754,12.529 41.753,12.528 41.257,11.1 41.191,10.716 41.187,10.706 41.174,9.594 40.944,8.128 40.929,7.937 V 7.935 L 40.923,6.854 V 6.848 5.286 l 0.03,-0.271 0.24,-1.078 0.237,-1.185 10e-4,-10e-4 0.243,-1.203 0.023,-0.037 0.018,-0.109 0.37,-1.087 10e-4,-0.002 v 0 l 0.254,-0.726 0.025,-0.033 0.013,-0.06 0.28,-0.613 0.011,-0.353 0.004,-0.228 -0.017,-0.018 -0.063,-0.157 -0.1,-0.057 -0.345,-0.58 -0.397,-0.601 -0.41,-0.409 -0.713,-0.41 -0.087,-0.151 -0.21,-0.097 -0.648,-0.761 -0.518,-0.416 -0.072,-0.153 -0.138,-0.071 -0.546,-0.762 -0.335,-0.331 -0.632,-0.422 -0.012,-0.022 -0.036,-0.012 -0.484,-0.363 -0.006,-0.012 -0.018,-0.007 -0.504,-0.402 -0.377,-0.185 -0.016,-0.026 -0.061,-0.017 -0.43,-0.257 -0.412,-0.083 -0.155,-0.094 -0.25,-0.075 -0.43,-0.286 -0.13,10e-4 H 34.118 L 33.686,-9.02 33.293,-9.179 h -0.375 l -0.652,10e-4 -0.534,0.18 -0.377,0.063 h -0.414 l -0.57,0.325 -0.217,0.058 -0.112,0.069 -0.911,0.201 -0.684,0.39 -0.121,0.032 -0.027,0.039 -1.194,0.478 -0.253,0.05 -0.056,0.028 -0.975,0.108 -1.451,0.443 -0.343,0.053 h -0.001 l -1.201,-0.002 v 0 h -10e-4 l -1.322,-0.002 h -10e-4 l -0.274,-0.034 -0.969,-0.242 h -10e-4 l -1.44,-0.359 -0.616,-0.402 -0.026,-0.075 -0.044,-0.025 -0.599,-0.955 -0.005,-0.017 -0.008,-0.005 -0.72,-1.194 -0.019,-0.065 -0.027,-0.017 -0.452,-0.898 -0.679,-1.018 -0.061,-0.199 -0.095,-0.142 -0.357,-1.313 -0.009,-0.067 -0.011,-0.018 -0.202,-1.008 -0.254,-0.426 -0.039,-0.139 -0.045,-0.03 -0.36,-0.906 -0.226,-0.172 -0.033,-0.067 -0.083,-0.035 -0.29,-0.291 -0.475,-0.16 v 0 l -0.542,-0.186 -0.295,-0.003 -0.757,-0.004 -0.756,0.105 -0.033,0.003 -0.005,0.002 -1.065,0.117 -0.811,0.117 -1.415,0.241 -0.058,0.005 -0.008,0.004 -1.034,0.119 -1.144,0.234 -0.227,0.023 -0.002,0.001 -1.081,0.004 H 3.847 v 0 l -1.201,0.003 H 2.643 l -0.309,-0.042 -0.803,-0.226 -1.162,-0.232 -0.052,-0.031 -0.141,-0.028 -0.549,-0.219 -0.628,-0.179 -0.318,0.001 h -0.002 l -0.336,-0.066 z"
         id="path16" />
      <g
         style="fill:#7cc6fe"
         transform="translate(12,14.875)"
         id="g20">
        <path
           style="fill:#7cc6fe"
           fill-mode="evenodd"
           fill="#e71224"
           d="m 0.67,-7.518 0.328,0.79 v 0.701 l 0.203,-0.048 0.811,0.334 0.106,0.106 0.078,0.038 0.076,0.123 0.224,0.093 0.01,0.023 0.029,0.01 0.599,0.487 0.093,0.195 0.156,0.087 0.227,0.362 0.178,0.613 v 0.021 L 3.779,-3.109 3.775,-2.395 3.772,-2.389 3.692,-1.977 3.646,-1.863 3.644,-1.671 3.638,-1.658 3.524,-1.176 3.4,-0.93 H 3.399 L 3.155,-0.449 2.716,-0.181 2.513,0.099 2.3,0.17 1.94,0.804 1.885,0.835 1.851,0.935 1.242,1.334 0.922,1.416 0.469,1.689 -0.12,1.854 -0.786,1.582 -1.224,1.769 -1.393,1.805 -1.456,1.842 -2.049,1.962 -2.283,1.986 -2.786,1.869 -2.789,1.868 H -2.883 L -3.695,1.532 -4.031,0.721 V 0.719 l 0.002,-0.601 v 0 -10e-4 l 0.002,-0.841 0.001,-0.004 0.12,-0.506 0.347,-0.692 0.349,-0.814 0.231,-0.151 0.145,-0.271 0.045,-0.271 0.03,-0.054 0.033,-0.172 0.242,-0.609 0.176,-0.118 0.158,-0.331 0.595,-0.484 0.058,-0.02 0.02,-0.038 0.24,-0.164 -10e-4,-0.215 v -0.008 -1.082 l 0.327,-0.79 0.791,-0.327 z"
           id="path18" />
      </g>
      <g
         style="fill:#7cc6fe"
         transform="translate(-33.375,25.5)"
         id="g24">
        <path
           style="fill:#7cc6fe"
           fill-mode="evenodd"
           fill="#e71224"
           d="m 16.241,-5.889 0.003,0.6 v 0.003 l -0.131,0.383 -0.4,0.519 -0.16,0.078 -0.073,0.131 -0.811,0.5 -1.114,0.857 -0.218,0.074 -0.195,0.128 -1.431,0.372 -1.324,0.66 -0.111,0.026 -0.021,0.031 -1.314,0.476 H 8.94 L 7.4,-0.46 7.389,-0.458 7.388,-0.455 5.831,0.135 5.83,0.136 4.398,0.706 4.287,0.727 4.243,0.756 2.922,1.086 2.911,1.088 2.908,1.089 1.656,1.394 0.646,1.809 0.24,1.89 0.171,1.888 -0.293,1.857 -0.999,1.832 v 0 L -1.009,1.831 -1.371,1.814 -1.378,1.811 -1.476,1.803 -1.716,1.764 -2.055,1.573 -2.224,1.503 -2.237,1.47 -2.273,1.449 -2.498,0.841 l 0.225,-0.608 0.035,-0.02 0.014,-0.034 0.176,-0.073 0.338,-0.189 0.222,-0.036 0.058,-0.039 0.349,-0.106 0.065,0.003 0.121,0.013 0.757,-0.218 0.138,-0.02 0.189,0.188 0.658,-0.316 0.138,-0.031 0.023,-0.031 1.302,-0.395 0.011,-0.002 0.004,-0.002 1.247,-0.369 1.357,-0.592 0.042,-0.009 0.008,-0.011 1.551,-0.605 0.011,-0.002 10e-4,-0.003 1.554,-0.599 0.023,-0.004 0.004,-0.006 1.259,-0.46 1.371,-0.688 0.213,-0.051 0.091,-0.055 1.363,-0.276 1.052,-0.669 0.27,-0.079 0.137,-0.077 0.988,-0.165 h 0.002 v 0 l 0.305,-0.051 0.101,-0.24 0.463,-0.304 z"
           id="path22" />
      </g>
      <g
         style="fill:#7cc6fe"
         transform="translate(-5.625,19.875)"
         id="g28">
        <path
           style="fill:#7cc6fe"
           fill-mode="evenodd"
           fill="#e71224"
           d="m 21.53,-9.805 0.172,0.084 0.239,0.101 0.059,0.09 0.187,0.077 0.233,0.563 -0.107,0.399 -0.146,0.251 -0.291,0.167 -0.152,0.244 -0.141,0.069 -0.903,0.566 -0.081,0.023 -0.02,0.034 -1.675,0.837 -1.535,0.824 -0.112,0.028 -0.023,0.034 -2.118,0.819 -2.111,1.045 -0.118,0.028 -0.022,0.031 -2.398,0.829 -0.046,0.008 -0.018,0.012 L 8.37,-2.056 6.304,-1.378 4.456,-0.464 4.343,-0.437 4.322,-0.408 3.047,0.034 2.136,0.465 1.855,0.528 1.787,0.562 0.977,0.644 0.532,0.721 0.36,0.736 0.204,0.723 0.14,0.713 -0.12,0.821 -0.7,0.58 -0.734,0.499 -0.795,0.467 -0.944,0.252 -1.099,-0.24 l 0.251,-0.608 0.323,-0.133 0.071,-0.091 0.219,-0.056 0.071,-0.01 0.017,-0.009 0.275,-0.045 0.387,-0.128 0.11,-0.018 0.032,-0.019 0.677,-0.125 0.802,-0.424 0.104,-0.026 0.021,-0.031 1.263,-0.482 1.858,-0.94 0.127,-0.03 0.024,-0.033 2.151,-0.729 0.032,-0.005 0.013,-0.009 2.017,-0.606 2.302,-0.816 2.085,-1.053 0.088,-0.022 0.018,-0.026 2.097,-0.82 1.49,-0.806 0.031,-0.008 0.008,-0.012 1.635,-0.818 0.909,-0.567 0.615,-0.178 z"
           id="path26" />
      </g>
      <g
         style="fill:#7cc6fe"
         transform="translate(23.375,9.375)"
         id="g32">
        <path
           style="fill:#7cc6fe"
           fill-mode="evenodd"
           fill="#e71224"
           d="m 17.87,-5.977 0.336,0.811 -0.336,0.811 -0.007,0.004 -0.003,0.007 -0.121,0.118 -0.221,0.09 -0.073,0.118 -0.475,0.234 -0.076,0.018 -0.015,0.022 -0.594,0.236 -0.109,0.021 -0.043,0.028 -0.951,0.237 -0.766,0.217 -1.145,0.447 -0.111,0.021 -0.043,0.027 -1.437,0.345 -0.002,10e-4 -1.31,0.334 -0.036,0.004 -0.01,0.007 -1.56,0.337 -0.074,0.009 -0.014,0.007 -1.519,0.208 -1.392,0.324 -0.058,0.007 -0.013,0.007 -1.32,0.218 H 4.371 l -1.07,0.188 -0.826,0.178 H 2.474 l -0.723,0.167 -0.085,0.01 -0.006,0.006 -0.484,0.059 -0.095,0.006 v 0 L 0.928,-0.104 0.825,-0.125 0.821,-0.115 0.727,-0.052 0.645,0.123 0.327,0.389 0,0.508 -0.508,0 l 0.023,-0.151 0.12,-0.384 0.09,-0.353 0.212,-0.164 0.204,-0.289 0.46,-0.162 0.087,-0.015 0.009,-0.012 0.171,-0.036 0.386,-0.149 0.665,-0.294 0.054,-0.012 0.01,-0.014 0.815,-0.293 0.07,-0.012 0.009,-0.013 1.062,-0.287 0.057,-0.007 0.015,-0.01 1.287,-0.255 1.393,-0.374 0.082,-0.011 0.02,-0.011 1.522,-0.26 1.5,-0.368 1.28,-0.373 0.029,-0.004 0.009,-0.006 1.366,-0.356 1.118,-0.458 0.086,-0.017 0.038,-0.027 0.832,-0.24 0.035,-0.005 0.011,-0.007 0.886,-0.223 0.321,-0.13 0.059,-0.149 0.017,-0.008 0.007,-0.017 0.239,-0.099 0.48,-0.225 0.219,-0.014 0.093,-0.01 0.11,-0.005 0.009,-0.004 z"
           id="path30" />
      </g>
      <g
         style="fill:#7cc6fe"
         transform="translate(55.375,1.25)"
         id="g36">
        <path
           style="fill:#7cc6fe"
           fill-mode="evenodd"
           fill="#e71224"
           d="m 22.263,-9.705 0.301,0.614 0.018,0.199 0.012,0.074 0.12,0.288 -0.103,0.464 -0.186,0.394 v 0 l -0.22,0.48 -0.19,0.121 -0.148,0.304 -0.47,0.369 -0.164,0.056 -0.047,0.077 -0.717,0.352 -0.103,0.024 -0.056,0.041 -1.033,0.339 -1.023,0.448 -0.05,0.01 -0.009,0.014 -1.514,0.577 -1.627,0.805 -0.163,0.039 -0.078,0.05 -1.884,0.466 -2.103,0.692 -1.527,0.58 L 9.283,-1.825 9.28,-1.822 7.428,-1.14 6.419,-0.593 6.218,-0.542 6.121,-0.482 4.57,-0.145 3.756,0.065 3.701,0.072 3.687,0.081 2.715,0.27 2.339,0.438 1.922,0.527 H 1.901 L 1.06,0.51 1.057,0.509 0.973,0.504 0.613,0.465 0.607,0.462 0.57,0.459 0.39,0.43 0,0.592 -0.503,0.383 -0.712,-0.12 -0.7,-0.25 l 0.029,-0.156 -0.031,-0.075 0.241,-0.581 0.206,-0.085 0.062,-0.093 0.097,-0.041 0.154,-0.03 0.017,-0.021 0.226,-0.044 0.029,-0.003 0.006,-0.003 0.228,-0.037 0.047,-0.004 0.006,-0.003 0.352,-0.039 0.089,-0.005 0.003,-0.001 0.589,-0.012 0.245,-0.137 0.167,-0.043 0.09,-0.059 1.047,-0.262 0.793,-0.25 0.056,-0.008 0.019,-0.013 1.408,-0.344 0.934,-0.532 0.132,-0.035 0.028,-0.041 1.909,-0.73 H 8.48 l 1.55,-0.605 0.049,-0.009 0.009,-0.012 2.151,-0.726 0.069,-0.012 0.025,-0.016 1.798,-0.455 1.558,-0.787 0.091,-0.022 0.018,-0.027 1.535,-0.596 1.037,-0.47 0.076,-0.016 0.039,-0.029 1,-0.339 0.562,-0.286 0.195,-0.139 0.13,-0.241 0.094,-0.056 0.064,-0.165 0.176,-0.194 0.28,-0.566 0.638,-0.249 z"
           id="path34" />
      </g>
      <g
         style="fill:#7cc6fe"
         transform="translate(10.375,15.75)"
         id="g40">
        <path
           style="fill:#7cc6fe"
           fill-mode="evenodd"
           fill="#e71224"
           d="m 5.655,-6.993 0.368,0.123 0.158,0.116 0.167,0.056 0.482,0.364 0.143,0.286 0.089,0.055 0.009,0.004 0.001,0.002 0.097,0.06 0.117,0.234 0.126,0.527 v 0 l -0.036,0.285 -0.123,0.489 -0.228,0.348 -0.075,0.182 -0.061,0.025 -0.044,0.068 -0.349,0.12 -0.023,0.023 -0.357,0.361 -0.018,0.008 0.023,0.057 0.085,0.437 v 0.48 0.003 l -0.001,0.481 -0.003,0.007 -0.195,0.638 -0.2,0.297 -0.21,0.42 L 5.366,-0.295 5.207,0.002 4.851,0.239 4.556,0.329 4.395,0.421 3.681,0.54 3.484,0.556 3.289,0.533 3.047,0.771 2.688,1.129 2.684,1.131 2.682,1.135 2.44,1.373 2.228,1.459 2.158,1.572 1.923,1.688 1.85,1.705 1.836,1.726 1.241,1.96 0.841,2.037 0.08,1.722 0.078,1.715 0.071,1.712 -0.091,1.546 -0.364,1.36 -0.512,1.078 -0.718,0.95 -0.951,0.474 -1.062,0 v -0.01 l 0.003,-0.36 0.004,-0.599 0.003,-0.007 0.029,-0.145 h -0.053 -0.005 l -0.52,-0.123 -0.487,-0.243 -0.076,-0.125 -0.221,-0.091 -0.359,-0.361 -0.079,-0.191 -0.225,-0.347 -0.118,-0.472 -0.037,-0.29 0.127,-0.527 0.125,-0.246 0.063,-0.038 0.043,-0.129 0.365,-0.481 0.288,-0.143 0.12,-0.193 0.475,-0.234 0.216,-0.051 0.086,-0.051 0.595,-0.112 0.219,-0.021 0.195,0.017 0.727,0.125 0.058,0.033 0.13,0.026 L 0.634,-5.392 0.745,-5.614 1.222,-5.973 1.266,-5.987 1.28,-6.014 1.637,-6.25 1.932,-6.34 2.005,-6.382 2.04,-6.406 2.062,-6.414 2.092,-6.431 2.138,-6.438 2.754,-6.638 2.82,-6.649 2.843,-6.663 3.797,-6.899 3.805,-6.9 3.806,-6.901 4.279,-7.017 4.565,-7.052 H 5.286 Z M 1.059,-0.326 1.06,-0.31 1.112,-0.364 Z M 1.256,-0.516 1.249,-0.502 1.268,-0.52 1.267,-0.521 Z m 2.565,-1.553 -0.063,0.026 v 0.001 L 3.757,-2.02 3.756,-1.93 3.773,-1.966 3.813,-1.99 3.839,-2.079 3.857,-2.105 Z"
           id="path38" />
      </g>
    </g>
    <g
       style="fill:#7cc6fe"
       transform="translate(291.26548,72.650625)"
       id="g58">
      <path
         style="fill:#7cc6fe"
         fill-mode="evenodd"
         fill="#e71224"
         d="m 37.597,-50.452 0.346,0.836 -0.063,0.384 -0.108,0.315 -0.232,0.919 -0.051,0.078 -0.037,0.155 -0.304,0.604 -0.053,0.213 v 0.814 l 10e-4,0.294 0.452,0.808 0.028,0.109 0.036,0.024 0.089,0.215 0.49,0.274 0.098,0.168 0.234,0.11 0.408,0.491 0.925,0.376 0.734,0.283 0.868,0.008 0.002,10e-4 0.135,0.009 0.967,0.124 0.041,0.021 0.176,0.029 0.539,0.181 0.528,-10e-4 h 0.003 l 0.823,0.341 0.09,0.216 0.123,0.076 0.101,0.197 0.104,0.067 0.052,0.095 0.135,0.055 0.35,0.823 0.008,0.72 v 0.015 0.002 l -10e-4,0.601 v 10e-4 l -0.028,0.256 -0.233,1.04 -0.113,0.778 -0.12,1.063 v 0 l -0.12,1.08 -0.007,0.014 -0.008,0.082 -0.227,1.136 -0.093,1.136 0.104,0.908 0.267,0.623 0.436,0.782 0.034,0.127 0.039,0.027 0.054,0.138 0.16,0.069 0.238,0.001 v 0 l 0.573,0.002 0.809,-0.201 0.083,-0.011 0.019,-0.01 0.652,-0.108 0.762,-0.222 0.305,-0.045 0.011,-0.005 0.479,-0.009 0.026,-0.001 0.016,0.001 0.241,0.003 0.056,0.024 0.636,0.208 0.064,0.09 0.077,0.033 0.072,0.176 0.216,0.301 0.02,0.063 0.02,0.018 0.009,0.022 0.023,0.01 0.352,0.849 -0.112,0.507 -0.306,0.66 -0.207,0.656 -0.044,0.06 -0.024,0.107 -0.718,1.452 -0.014,0.009 -0.009,0.034 -0.547,0.993 -0.686,1.952 -0.025,0.034 -0.013,0.06 -0.59,1.301 -0.677,1.693 -0.34,1.366 -10e-4,10e-4 -0.339,1.356 -0.1,0.867 0.102,1.061 0.073,0.62 0.159,0.217 0.056,0.17 0.072,0.046 0.144,0.311 0.245,0.262 0.187,0.131 0.412,0.211 0.186,0.305 0.31,0.187 0.097,0.182 0.093,0.055 0.003,0.006 0.009,0.003 0.373,0.232 0.014,0.025 0.045,0.015 0.443,0.591 0.248,0.708 0.011,0.069 0.018,0.027 0.126,0.469 0.045,0.331 -0.011,0.163 -0.112,0.849 -0.016,0.03 -0.019,0.137 -0.238,0.851 -0.009,0.013 -0.006,0.033 -0.318,0.965 -0.103,0.843 -0.016,0.029 -0.019,0.143 -0.359,1.32 -0.232,0.93 -0.222,1 -0.113,0.906 -0.003,0.006 -0.003,0.035 -0.119,0.729 -0.024,0.043 -0.025,0.152 -0.181,0.531 V 0.138 0.139 L 48.108,0.16 48.101,0.396 48.095,0.63 48.093,0.637 v 0.324 l -0.127,0.546 -0.121,0.248 -0.109,0.067 -0.003,0.006 -0.011,0.05 -0.365,0.727 -0.042,0.026 -0.028,0.094 -0.241,0.366 v 0 l -0.469,0.709 -0.59,0.949 -0.067,0.037 -0.04,0.108 -0.594,0.697 -0.285,0.673 -0.059,0.039 -0.046,0.154 -0.48,0.728 -0.042,0.022 -0.024,0.068 -0.447,0.557 -0.452,0.679 -0.099,0.052 -0.055,0.135 -0.361,0.36 -0.243,0.101 -0.083,0.135 -0.714,0.357 -0.11,0.026 -0.062,0.045 -0.352,0.118 -0.098,0.016 -0.033,0.021 -0.967,0.217 -0.724,0.311 -0.5,0.105 -0.003,10e-4 -1.321,0.003 h -0.002 v 0 l -1.037,0.001 -1.559,0.112 -1.117,0.221 -0.253,0.026 -0.159,-0.01 -1.898,-0.241 -1.361,-0.114 -1.628,-0.001 H 27.31 l -1.82,0.113 -1.355,0.223 -1.605,0.341 -1.102,0.327 -1.14,0.452 -0.138,0.027 -0.052,0.032 -0.931,0.213 -0.679,0.201 h -0.002 l -0.63,0.198 -0.397,0.193 -0.191,0.044 -0.082,0.051 -0.476,0.102 -0.252,0.028 L 15.87,12.892 15.634,12.753 15.439,12.41 15.178,12.242 15.101,12.071 14.973,11.871 14.816,11.709 14.702,11.427 14.581,11.345 14.359,10.788 14.121,10.317 13.448,9.747 13.431,9.712 13.391,9.695 12.996,9.31 12.132,8.782 12.098,8.72 11.996,8.682 11.323,8.114 10.445,7.829 V 7.828 L 9.906,7.651 9.014,7.654 H 9.012 v 0 L 7.997,7.656 6.986,7.772 6.849,7.78 v 0 L 5.888,7.781 H 5.887 4.926 4.923 L 3.962,7.779 3.243,7.778 h -0.6 L 2.273,7.718 1.634,7.505 0.994,7.393 0.83,7.298 0.55,7.213 -0.071,6.794 -0.568,6.589 -0.658,6.453 -0.943,6.334 -1.407,5.861 -1.965,5.576 -1.99,5.536 -2.078,5.509 -2.8,5.023 -2.928,4.782 -3.14,4.661 -3.481,4.081 -3.94,3.392 -3.942,3.384 -3.946,3.382 -4.419,2.661 -4.426,2.639 -4.437,2.633 -5.031,1.674 -5.12,1.366 -5.191,1.233 -5.29,0.513 -5.586,-0.28 -5.915,-0.941 -5.916,-0.945 -5.918,-0.946 -6.275,-1.66 -6.276,-1.665 -6.278,-1.666 -6.636,-2.381 -6.653,-2.453 -6.675,-2.468 -6.874,-2.962 -6.991,-3.135 -7.274,-3.418 -7.29,-3.457 l -0.035,-0.016 -0.002,-0.002 -0.274,-0.071 -0.31,-0.206 -0.163,-0.067 -0.023,-0.056 -0.064,-0.043 -0.222,-0.647 0.225,-0.651 0.061,-0.04 0.023,-0.055 0.066,-0.027 0.062,-0.079 0.04,-0.019 0.02,-0.047 0.558,-0.232 0.137,0.014 -0.262,-0.766 -0.012,-0.07 -0.017,-0.025 -0.367,-1.431 -0.008,-0.068 -0.01,-0.017 -0.244,-1.314 -0.02,-0.215 v -0.001 l -0.004,-1.321 v -10e-4 0 l -0.002,-1.201 v -0.003 l 0.019,-0.209 0.241,-1.328 0.002,-0.003 0.001,-0.009 0.24,-1.209 0.032,-0.053 0.028,-0.146 0.484,-1.209 0.021,-0.015 0.016,-0.066 0.338,-0.678 0.209,-0.527 0.232,-0.694 0.214,-0.29 0.066,-0.158 0.075,-0.031 0.066,-0.089 0.687,-0.223 h 0.003 l 0.479,0.001 h 0.119 l 0.827,0.342 0.068,0.165 0.108,0.061 0.358,0.595 0.018,0.067 0.028,0.017 0.005,0.011 0.306,0.244 v -0.294 l -0.115,-0.226 -0.127,-0.529 -10e-4,-0.002 -0.001,-0.234 -0.137,-0.136 -10e-4,-0.002 -0.002,-0.001 -0.601,-0.6 v -0.001 h -0.001 l -0.652,-0.652 -0.708,-0.504 -1.029,-0.57 -0.043,-0.073 -0.134,-0.048 -0.723,-0.602 -0.039,-0.082 -0.086,-0.039 -0.897,-1.009 -0.525,-0.425 -0.031,-0.066 -0.359,-0.528 -0.231,-0.824 -0.224,-0.684 -0.06,-0.37 0.06,-0.371 0.365,-1.088 0.04,-0.055 0.022,-0.092 0.367,-0.725 0.097,-0.06 0.07,-0.184 0.953,-1.066 0.58,-0.689 0.833,-1.065 0.16,-0.077 0.076,-0.147 0.838,-0.597 0.121,-0.039 0.034,-0.055 1.177,-0.59 0.806,-0.459 0.19,-0.051 0.106,-0.069 0.949,-0.236 0.807,-0.231 0.322,-0.046 h 4.709 l 0.565,-0.096 0.358,-0.102 -0.55,-0.222 -0.09,-0.133 -0.291,-0.121 -0.341,-0.825 0.053,-0.129 0.194,-0.573 0.061,-0.041 0.033,-0.082 0.224,-0.093 0.291,-0.196 0.834,-0.234 0.317,-0.044 h 0.007 l 0.064,10e-4 1.056,-0.576 0.106,-0.027 0.023,-0.033 1.194,-0.478 v 0 l 1.654,-0.711 0.144,-0.031 0.058,-0.036 1.414,-0.328 1.661,-0.886 0.028,-0.007 0.007,-0.011 1.673,-0.834 1.52,-0.818 1.716,-1.029 1.021,-0.797 0.054,-0.019 0.017,-0.033 1.077,-0.719 0.036,-0.011 0.01,-0.018 0.594,-0.361 0.061,-0.017 0.016,-0.026 0.472,-0.242 0.393,-0.096 0.069,-0.032 0.116,-0.008 h 0.014 v -0.001 l 0.117,-0.006 0.067,-0.002 0.821,0.335 0.003,0.006 0.006,0.003 0.11,0.265 0.234,0.539 0.006,0.239 v 0.028 0.003 l -0.001,0.359 v 0.389 l 0.371,-0.121 1.196,-0.756 0.023,-0.007 0.007,-0.012 1.8,-1.073 0.002,-10e-4 10e-4,-10e-4 1.774,-1.063 1.886,-1.298 0.087,-0.028 0.025,-0.041 1.785,-0.956 1.35,-0.792 1.012,-0.795 0.24,-0.084 0.061,-0.088 0.818,-0.316 0.219,-0.157 0.002,-0.002 0.003,-0.002 0.003,-0.001 0.336,-0.109 0.356,-0.117 z m -4.1,4.107 -0.034,0.009 -0.009,0.014 -1.747,0.929 -1.865,1.28 -0.048,0.015 -0.014,0.025 -1.796,1.08 h -0.003 v 0.001 l -1.791,1.081 -1.297,0.831 -0.209,0.061 -0.043,0.061 -0.711,0.244 -0.366,0.062 -0.007,0.003 -0.84,0.008 h -0.011 v 0 l -0.825,-0.342 -0.07,-0.17 -0.233,-0.152 -0.051,-0.094 -0.133,-0.055 -0.28,-0.671 -0.621,0.413 -1.046,0.811 -0.087,0.03 -0.028,0.049 -1.797,1.078 -0.04,0.011 -0.011,0.018 -1.555,0.839 -0.029,0.007 -0.007,0.012 -1.675,0.84 v 0 l -1.777,0.947 -0.194,0.049 -0.095,0.061 -1.464,0.336 -1.58,0.676 -0.027,0.005 -0.005,0.008 -1.139,0.456 -0.241,0.131 0.049,0.122 0.201,0.282 0.112,0.354 0.055,0.352 -0.127,0.524 -0.126,0.245 -0.121,0.073 -0.086,0.208 -0.241,0.239 -0.188,0.077 -0.337,0.22 -0.172,0.043 -0.134,0.136 -0.171,0.072 -0.328,0.224 -0.832,0.24 -0.112,0.016 -0.027,0.015 -0.715,0.117 -0.191,0.016 H -0.44 l -0.679,0.194 -0.033,0.005 -0.011,0.007 -0.808,0.203 -0.697,0.4 -0.051,0.013 -0.013,0.021 -1.121,0.56 -0.629,0.45 -0.736,0.953 -0.015,0.007 -0.007,0.019 -0.598,0.726 -0.016,0.007 -0.008,0.02 -0.856,0.969 -0.253,0.513 -0.21,0.632 0.116,0.341 0.007,0.042 0.011,0.016 0.14,0.48 0.312,0.246 0.045,0.094 0.102,0.046 0.903,1.015 0.568,0.475 0.99,0.552 0.024,0.041 0.082,0.027 0.843,0.603 0.041,0.08 0.103,0.042 0.72,0.721 10e-4,0.001 v 0 l 0.6,0.602 10e-4,0.002 0.002,0.001 0.478,0.482 0.339,0.823 v 0 0.002 l -0.001,0.446 0.114,0.23 0.124,0.524 v 0.001 l -0.001,0.72 v 0.48 l -0.197,0.648 -0.046,0.068 v 0.008 l -0.341,0.82 -0.125,0.052 -0.049,0.09 -0.356,0.239 -0.596,0.183 -0.04,0.017 -0.239,0.003 h -0.009 v 0 l -0.48,0.003 h -0.008 l -0.828,-0.343 -0.053,-0.128 -0.093,-0.05 -0.176,-0.264 -0.113,-0.112 -0.363,-0.291 -0.31,0.62 -0.422,1.056 -0.22,1.096 -0.218,1.198 -0.002,1.096 v 0 10e-4 l -0.003,1.217 0.212,1.186 0.333,1.367 0.336,1.032 0.011,0.066 0.014,0.023 0.325,1.326 0.26,0.533 0.541,0.766 0.064,0.2 0.069,0.048 0.219,0.567 0.17,0.358 0.396,0.209 0.033,0.055 0.11,0.037 0.171,0.131 0.391,0.097 0.095,0.062 0.163,0.043 0.469,0.272 0.081,0.14 0.187,0.089 0.073,0.091 0.148,0.069 0.137,0.215 0.263,0.152 0.034,0.058 0.103,0.046 0.081,0.126 0.034,0.013 0.028,0.005 L -0.21,-0.355 0,-0.412 0.412,0 0.356,0.208 0.337,0.241 0.436,0.36 -0.115,1.024 -0.281,1.056 -0.319,1.071 -0.601,1.124 -1.046,0.971 -1.269,0.92 -1.296,0.886 -1.48,0.839 -1.627,0.757 -1.629,0.753 -1.638,0.751 -1.654,0.742 -1.887,0.692 -1.944,0.621 -2.284,0.5 -2.438,0.375 -2.685,0.27 l -0.4,-0.061 0.071,0.476 0.471,0.747 0.471,0.695 0.002,0.007 0.004,0.002 0.479,0.717 0.01,0.033 0.018,0.01 0.233,0.381 0.451,0.298 0.665,0.325 0.073,0.119 0.219,0.09 0.435,0.428 0.39,0.15 0.04,0.059 0.172,0.052 0.514,0.338 0.48,0.076 0.038,0.022 0.141,0.023 0.542,0.18 H 3.243 L 3.962,5.436 4.923,5.434 H 4.926 5.887 5.888 L 6.785,5.435 7.798,5.325 7.929,5.318 H 7.931 L 9.013,5.32 v 0 h 10e-4 l 1.081,0.004 0.002,0.001 0.367,0.06 0.728,0.246 v 0 l 1.082,0.37 0.075,0.106 0.3,0.112 0.772,0.671 0.889,0.567 0.055,0.102 0.142,0.06 0.441,0.452 0.803,0.696 0.115,0.253 0.153,0.095 0.354,0.716 0.017,0.07 0.021,0.015 0.154,0.38 0.073,0.071 0.05,0.118 0.09,0.047 0.001,10e-4 0.093,-0.048 0.13,-0.032 0.025,-0.035 0.708,-0.25 h 0.001 L 18.427,9.911 18.508,9.896 18.54,9.874 19.427,9.632 20.549,9.179 20.626,9.164 20.661,9.139 21.853,8.777 21.935,8.764 21.961,8.749 23.633,8.387 23.686,8.381 23.698,8.374 25.132,8.132 25.259,8.121 25.27,8.116 27.189,7.996 27.271,7.993 h 1.441 l 1.681,-0.001 h 10e-4 l 0.104,0.004 1.446,0.12 0.005,0.002 0.041,0.003 1.719,0.211 0.992,-0.2 0.152,-0.016 0.016,-0.007 1.678,-0.12 0.094,-0.004 h 0.001 l 1.082,0.002 v 0 h 0.002 l 1.061,0.002 0.595,-0.254 0.167,-0.035 0.065,-0.04 1.019,-0.225 0.212,-0.071 0.458,-0.229 0.128,-0.127 0.414,-0.622 0.039,-0.021 0.021,-0.061 0.449,-0.562 0.391,-0.58 0.32,-0.741 0.108,-0.07 0.089,-0.242 0.662,-0.768 0.555,-0.885 0.012,-0.006 0.007,-0.021 0.486,-0.723 V 1.705 L 45.179,1.416 45.505,0.761 45.612,0.695 45.613,0.692 V 0.636 L 45.61,0.629 45.605,0.394 45.597,0.162 V 0.138 0.137 L 45.593,-0.102 V -0.12 l 0.063,-0.392 0.207,-0.634 0.102,-0.604 0.117,-0.936 0.009,-0.017 0.011,-0.094 0.241,-1.089 0.005,-0.007 0.002,-0.018 0.243,-0.97 0.003,-0.005 0.002,-0.011 0.337,-1.238 0.112,-0.878 0.023,-0.044 0.032,-0.192 0.357,-1.062 0.212,-0.731 0.08,-0.521 -0.047,-0.205 -0.091,-0.285 -0.023,-0.016 -0.004,-0.007 -0.01,-0.003 -0.351,-0.26 -0.159,-0.316 -0.208,-0.132 -0.052,-0.111 -0.117,-0.057 -0.023,-0.036 -0.086,-0.025 -0.37,-0.235 -0.046,-0.084 -0.125,-0.049 -0.496,-0.464 -0.099,-0.227 -0.14,-0.084 -0.209,-0.387 -0.303,-0.396 -0.123,-0.362 -0.122,-0.228 -0.127,-0.954 -0.003,-0.038 -0.002,-0.004 -0.124,-1.196 -0.007,-0.134 0.007,-0.131 0.115,-1.088 0.012,-0.024 0.018,-0.142 0.362,-1.45 10e-4,-10e-4 0.361,-1.441 0.029,-0.046 0.021,-0.106 0.724,-1.811 0.012,-0.008 0.008,-0.037 0.58,-1.275 0.707,-1.996 0.056,-0.072 0.029,-0.111 0.593,-1.061 0.677,-1.34 0.058,-0.165 -0.017,0.002 -0.026,0.015 -0.676,0.114 -0.905,0.227 -0.29,0.037 -0.002,0.001 -0.721,0.003 v 0 0 l -0.48,0.002 h -0.006 l -0.468,-0.095 -0.849,-0.363 -0.257,-0.393 -0.37,-0.248 -0.214,-0.522 -0.443,-0.756 -0.03,-0.113 -0.04,-0.026 -0.358,-0.832 -0.067,-0.322 -0.03,-0.061 -0.102,-1.198 -0.005,-0.106 0.006,-0.118 0.132,-1.326 0.008,-0.014 0.009,-0.095 0.23,-1.153 0.115,-1.034 v 0 l 0.119,-1.08 0.002,-0.004 0.002,-0.025 0.119,-0.848 0.008,-0.014 0.007,-0.069 0.21,-0.956 v -0.47 -0.002 -0.014 l 0.003,-0.266 h -0.143 l -0.003,-0.001 -0.358,-0.058 -0.613,-0.202 -0.771,-0.093 -1.003,0.009 h -0.012 l -0.402,-0.071 -0.973,-0.354 -0.003,-0.005 -0.017,-0.003 -1.212,-0.476 -0.121,-0.179 -0.35,-0.163 -0.468,-0.56 -0.662,-0.387 -0.232,-0.407 -0.27,-0.185 -0.206,-0.531 -0.556,-1.005 -0.149,-0.575 v -0.004 l 0.002,-0.599 v -0.936 z"
         id="path44" />
      <g
         style="fill:#7cc6fe"
         transform="translate(20.875,-19.125)"
         id="g48">
        <path
           style="fill:#7cc6fe"
           fill-mode="evenodd"
           fill="#e71224"
           d="m -0.571,-1.351 0.311,0.75 -0.001,0.048 -0.001,0.012 0.149,-0.015 0.019,-0.019 v 0 l 0.815,-0.337 h 0.003 l 0.359,0.001 h 0.238 l 0.815,0.337 10e-4,0.002 10e-4,0.001 0.159,0.159 0.196,0.081 0.003,0.008 0.008,0.003 0.325,0.801 V 0.483 L 2.828,0.964 v 0 0.001 L 2.826,1.566 2.825,1.569 2.766,1.927 2.702,2.118 2.699,2.414 2.363,3.211 2.36,3.212 2.358,3.215 2.344,3.228 2.3,3.406 1.902,4.016 1.749,4.069 1.704,4.14 1.555,4.214 1.159,4.509 0.896,4.597 0.838,4.677 0.486,4.795 0.379,4.812 0.355,4.827 0.245,5.011 0.393,5.166 0.199,5.504 -0.129,5.698 -0.324,5.934 -0.383,5.962 -0.46,6.147 -1.201,6.454 -1.372,6.44 -1.573,6.407 -1.987,6.515 -2.264,6.551 -2.27,6.553 -2.749,6.559 H -2.763 -3.124 L -3.199,6.528 -3.939,6.221 -4.177,5.983 -4.241,5.92 H -4.442 -4.445 L -5.232,5.595 V 5.594 H -5.233 L -5.34,5.336 -5.56,4.809 V 4.707 L -5.68,4.462 -5.798,3.964 -5.608,3.343 -5.551,3.259 -5.55,3.11 l 0.028,-0.066 0.219,-0.617 0.362,-0.446 0.187,-0.542 0.05,-0.036 0.048,-0.17 0.368,-0.602 0.059,-0.033 0.036,-0.098 0.606,-0.718 0.126,-0.058 0.056,-0.112 0.481,-0.355 0.002,-0.001 v -0.001 l 0.284,-0.209 0.013,-0.025 0.11,-0.066 0.074,-0.055 0.037,-0.012 0.21,-0.127 0.189,-0.258 0.355,-0.113 0.329,-0.052 z"
           id="path46" />
      </g>
      <g
         style="fill:#7cc6fe"
         transform="translate(11.75,-3.875)"
         id="g52">
        <path
           style="fill:#7cc6fe"
           fill-mode="evenodd"
           fill="#e71224"
           d="m 0.609,-1.727 0.037,0.001 0.122,0.004 0.565,0.253 0.266,0.11 0.005,0.011 0.01,0.005 0.349,0.862 -0.06,0.148 v 0.004 l -0.004,0.03 0.004,0.151 v 0.02 L 1.906,-0.12 1.57,0.707 1.451,0.829 1.444,0.832 1.44,0.84 0.601,1.188 0.194,1.019 0.076,1.08 -0.298,1.364 -0.825,1.789 -1.611,2.584 -1.652,2.601 -1.669,2.638 -2.672,3.534 -3.641,4.724 -4.925,6.712 -4.96,6.731 -4.98,6.79 l -1.546,2.026 -1.424,2.021 -1.303,1.9 -1.27,1.965 -0.812,1.624 -0.093,0.057 -0.067,0.186 -1.089,1.308 -0.531,1.17 -0.112,0.072 -0.09,0.238 -0.433,0.495 -0.078,0.269 -0.28,0.439 -0.047,0.276 -0.099,0.173 -0.082,0.248 -0.361,0.487 -0.028,0.192 -0.423,0.766 -0.034,0.013 -0.013,0.026 -0.337,0.264 -0.197,0.069 -0.198,0.145 -0.351,0.117 -0.421,0.07 -0.92,-0.381 -0.381,-0.92 v -0.361 0 0 l 0.381,-0.919 0.122,-0.051 0.019,-0.075 0.085,-0.13 0.059,-0.215 0.364,-0.606 0.045,-0.025 0.027,-0.081 0.723,-0.964 0.039,-0.019 0.02,-0.054 0.715,-0.817 0.525,-1.155 0.101,-0.065 0.081,-0.222 1.105,-1.325 0.777,-1.554 0.041,-0.025 0.027,-0.093 1.325,-2.046 0.012,-0.007 0.006,-0.02 1.327,-1.924 0.004,-0.002 0.002,-0.006 1.445,-2.046 0.018,-0.009 0.009,-0.027 1.534,-2.001 1.298,-2.003 0.053,-0.028 0.03,-0.084 1.085,-1.321 0.095,-0.045 0.045,-0.1 1.057,-0.935 0.82,-0.811 0.074,-0.031 0.03,-0.062 0.601,-0.476 0.026,-0.009 0.009,-0.018 0.479,-0.355 0.157,-0.052 0.044,-0.071 0.234,-0.115 0.006,-0.001 0.001,-0.002 0.475,-0.233 0.563,-0.132 h 0.015 l 0.182,0.002 0.284,-0.109 z"
           id="path50" />
      </g>
      <g
         style="fill:#7cc6fe"
         transform="translate(20.875,-17.875)"
         id="g56">
        <path
           style="fill:#7cc6fe"
           fill-mode="evenodd"
           fill="#e71224"
           d="m 0.075,-0.567 0.002,0.004 0.003,0.002 0.055,0.131 0.05,0.023 L 0.447,0 0.317,0.2 0.323,0.463 V 0.481 L 0.322,0.484 0.439,0.601 0.343,0.829 0.214,0.954 0.213,0.957 0.216,1.11 0.245,1.183 0.348,1.25 0.457,1.488 0.552,1.922 0.55,1.997 0.542,2.102 0.528,2.447 0.527,2.45 0.525,2.485 0.505,2.727 0.503,2.733 0.5,2.777 0.485,2.883 0.462,3.106 0.267,3.488 0.19,3.674 0.167,3.683 0.155,3.707 -0.481,3.951 v 0 0 L -1.116,3.707 -1.128,3.683 -1.151,3.674 -1.231,3.482 -1.423,3.102 -1.445,2.893 -1.509,2.745 -1.54,2.594 -1.74,2.48 -1.923,2.404 -1.939,2.367 -1.979,2.344 -2.222,1.682 -1.979,1.02 l 0.04,-0.023 0.016,-0.037 0.14,-0.058 0.023,-0.027 0.037,-0.017 0.017,-0.041 0.321,-0.133 0.02,-0.117 0.084,-0.235 0.007,-0.349 0.161,-0.371 0.071,-0.173 0.004,-0.002 0.002,-0.004 0.555,-0.226 z"
           id="path54" />
      </g>
    </g>
    <g
       style="fill:#7cc6fe"
       transform="translate(273.39048,108.65062)"
       id="g62">
      <path
         style="fill:#7cc6fe"
         fill-mode="evenodd"
         fill="#e71224"
         d="m 5.402,-3.774 0.009,0.019 0.019,0.007 0.108,0.262 0.247,0.525 0.015,0.236 0.003,0.082 -0.03,0.271 L 5.663,-1.88 5.517,-1.649 5.429,-1.391 4.986,-0.827 4.297,0.22 4.122,0.313 4.024,0.515 2.986,1.329 1.644,2.566 0.374,4.07 0.347,4.082 0.335,4.114 -1.308,5.879 -2.585,7.51 l -1.422,1.903 -1.143,1.598 -1.043,1.972 -0.027,0.016 -0.016,0.057 -1.205,1.928 -0.003,0.002 -0.002,0.006 -1.085,1.687 -0.006,0.004 -0.004,0.011 -0.966,1.445 -0.069,0.036 -0.038,0.1 -0.964,1.08 -0.102,0.046 -0.044,0.094 -0.78,0.634 -0.444,0.5 -0.129,0.058 -0.495,0.316 -0.502,0.12 -0.261,0.031 -0.722,-0.273 -0.136,-0.12 -0.096,-0.212 -0.009,-0.004 -0.052,-0.127 -0.119,-0.088 -0.041,-0.137 -0.038,-0.251 0.012,-0.142 0.041,-0.239 0.161,-0.135 0.036,-0.086 0.132,-0.055 0.471,-0.395 0.01,0.009 0.297,-0.413 0.114,-0.058 0.061,-0.137 0.768,-0.693 0.852,-0.963 0.909,-1.368 1.072,-1.669 1.168,-1.869 L -7.382,9.722 -7.33,9.691 -7.295,9.584 -6.092,7.897 -6.081,7.892 -6.075,7.875 -4.628,5.952 -4.618,5.947 -4.613,5.932 -3.287,4.25 -3.241,4.228 -3.218,4.17 -1.555,2.393 -0.251,0.855 -0.174,0.82 -0.139,0.739 0.059,0.559 0,0.587 -0.453,0.372 -0.57,0.23 l -0.118,-0.329 -0.044,-0.037 -0.033,-0.232 -0.008,-0.113 0.227,-0.546 0.082,-0.034 0.032,-0.06 0.438,-0.296 0.168,-0.052 0.035,-0.049 0.11,-0.038 0.288,-0.185 0.385,-0.346 0.118,-0.046 0.041,-0.072 0.374,-0.225 0.498,-0.442 0.158,-0.061 0.053,-0.088 0.381,-0.206 0.383,-0.31 0.195,-0.069 0.201,-0.14 0.328,-0.099 0.093,-0.057 0.244,-0.069 0.136,-0.083 0.107,-0.023 0.263,-0.029 z"
         id="path60" />
    </g>
    <g
       style="fill:#7cc6fe"
       transform="translate(248.01548,144.65062)"
       id="g66">
      <path
         style="fill:#7cc6fe"
         fill-mode="evenodd"
         fill="#e71224"
         d="m -0.316,-1.404 0.231,0.062 0.042,0.057 0.237,0.07 0.088,0.057 0.042,0.078 0.11,0.045 0.279,0.675 -0.029,0.07 0.024,0.204 L 0.713,0 0.504,0.504 0.147,0.652 0.112,0.742 -0.166,1.055 -0.58,1.7 -1.147,2.633 -1.732,3.698 -1.735,3.699 -1.736,3.704 -2.216,4.553 v 0 l -0.955,1.681 -0.675,1.235 -0.575,1.495 -0.035,0.024 -0.028,0.112 -0.726,1.326 -0.032,0.019 -0.02,0.065 -0.91,1.362 -0.569,1.241 -0.01,0.006 -0.006,0.026 -0.488,0.966 -0.084,0.051 -0.061,0.167 -0.64,0.764 -0.552,0.749 -0.045,0.023 -0.023,0.059 -0.522,0.564 -0.289,0.126 -0.084,0.118 -0.604,0.212 -0.303,0.052 -0.635,-0.263 -0.263,-0.635 0.529,-0.818 0.353,-0.16 0.233,-0.339 0.341,-0.801 0.038,-0.025 0.03,-0.104 0.508,-0.842 0.447,-0.903 0.587,-1.306 0.052,-0.033 0.039,-0.129 0.93,-1.4 0.657,-1.209 0.575,-1.496 0.034,-0.023 0.028,-0.11 0.723,-1.328 0.007,-0.004 0.004,-0.014 0.967,-1.685 h 10e-4 l 0.485,-0.841 v 0 l 0.598,-1.066 0.021,-0.012 0.012,-0.043 0.616,-0.958 0.012,-0.006 0.007,-0.022 0.496,-0.716 0.114,-0.06 0.063,-0.14 0.197,-0.175 0.056,-0.129 0.122,-0.08 0.102,-0.246 0.765,-0.317 z"
         id="path64" />
    </g>
    <g
       style="fill:#7cc6fe"
       transform="translate(225.39048,176.02562)"
       id="g70">
      <path
         style="fill:#7cc6fe"
         fill-mode="evenodd"
         fill="#e71224"
         d="m 0.499,-0.74 0.028,0.066 0.019,0.008 0.121,0.293 0.094,0.07 0.031,0.102 L 0.823,0.004 0.871,0.12 0.674,0.753 0.33,1.25 0.3,1.265 0.284,1.311 0.177,1.444 0.173,1.446 0.172,1.451 l -0.537,0.656 -0.311,0.531 -0.048,0.028 -0.029,0.087 -0.835,1.09 -0.029,0.015 -0.015,0.039 -0.787,0.906 -0.677,1.023 -0.013,0.007 -0.007,0.022 -0.578,0.813 -0.58,0.935 v 0 l -0.496,0.817 -0.083,0.047 -0.051,0.131 -0.748,0.818 -0.01,0.004 -0.005,0.011 -0.589,0.619 -0.032,0.013 -0.014,0.032 -0.383,0.352 -0.109,0.229 -0.034,0.156 -0.62,0.496 -0.621,-0.501 -0.049,-0.224 -0.017,-0.151 10e-4,-0.03 0.021,-0.487 0.005,-0.011 0.019,-0.15 0.17,-0.657 0.025,-0.019 0.026,-0.124 0.347,-0.788 0.083,-0.054 0.067,-0.191 0.626,-0.78 0.41,-0.765 0.024,-0.014 0.014,-0.05 0.607,-0.964 0.024,-0.013 0.013,-0.042 0.593,-0.827 0.716,-1.066 0.059,-0.031 0.033,-0.087 0.823,-0.935 0.787,-0.996 0.334,-0.543 0.063,-0.035 0.038,-0.103 0.609,-0.717 0.102,-0.047 0.014,-0.04 0.021,-0.025 0.019,-0.039 0.037,-0.03 0.303,-0.374 0.051,-0.024 0.025,-0.06 0.019,-0.008 0.027,-0.066 0.74,-0.306 z"
         id="path68" />
    </g>
    <g
       style="fill:#7fb285"
       transform="translate(282.39048,100.02562)"
       id="g82">
      <path
         style="fill:#7fb285"
         fill-mode="evenodd"
         fill="#02a556"
         d="m 3.352,-5.877 0.722,0.72 0.052,0.125 0.092,0.049 0.482,0.714 0.058,0.187 0.099,0.142 0.246,0.83 0.012,0.079 0.014,0.023 0.25,1.191 0.027,0.255 -0.014,0.145 0.042,0.216 -0.112,0.512 -0.11,0.239 -0.064,0.329 v 0 L 4.897,1.193 4.854,1.264 4.815,1.451 4.356,2.474 4.02,3.503 3.902,3.665 3.844,3.84 3.124,4.806 3.082,4.827 3.061,4.883 2.211,5.839 1.868,5.993 1.757,6.155 1.272,6.345 0.663,6.752 0,6.954 v 0 L -0.149,6.945 -0.71,6.874 -1.575,7.134 -1.922,7.186 v 0 L -2.451,7.06 -2.588,6.992 -3.1,7.159 -3.441,7.214 -3.456,7.22 -4.416,7.242 h -0.026 v 0 l -0.841,0.002 h -0.003 v 0 L -5.771,7.146 -6.621,6.784 -6.686,6.684 -6.92,6.6 -7.643,5.998 -7.698,5.88 -7.813,5.825 -8.295,5.229 -8.357,5.054 -8.441,5.001 -8.918,4.047 -9.053,3.484 v 0 -0.961 l 0.037,-0.302 0.242,-0.97 0.174,-0.266 0.086,-0.232 0.671,-0.785 0.081,-0.122 0.309,-1.237 0.149,-0.229 0.083,-0.237 0.96,-1.206 0.091,-0.043 0.044,-0.1 1.321,-1.201 0.248,-0.096 0.076,-0.118 1.314,-0.597 0.026,-0.006 0.006,-0.008 1.673,-0.719 0.501,-0.104 0.243,0.024 0.442,0.087 0.003,-0.002 0.754,-0.274 h 2.042 z m -8.556,6.378 -0.3,0.45 -0.246,0.613 0.271,0.681 0.267,-0.668 0.275,-1.281 z"
         id="path72" />
      <g
         style="fill:#7fb285"
         transform="translate(3,-3.5)"
         id="g76">
        <path
           style="fill:#7fb285"
           fill-mode="evenodd"
           fill="#02a556"
           d="m -7.688,-4.158 1.442,0.001 v 0 0 l 1.322,0.001 0.004,0.002 0.761,0.255 0.493,0.372 0.811,0.091 0.015,0.007 0.088,0.009 1.21,0.242 0.281,0.17 0.281,0.102 0.021,0.017 0.325,0.133 0.036,0.053 0.148,0.044 0.229,0.147 0.05,0.094 0.132,0.054 0.161,0.388 0.079,0.069 0.053,0.021 0.036,0.055 0.038,0.033 0.185,0.061 0.455,0.64 0.11,0.354 0.002,0.015 0.004,0.004 0.107,0.355 0.037,0.243 0.12,0.213 0.168,0.634 V 0.727 L 1.512,1.569 1.51,1.572 1.473,1.873 1.229,2.842 1.188,2.904 1.159,3.039 0.675,4.128 0.63,4.157 0.597,4.273 -0.004,5.241 -0.153,5.323 -0.242,5.52 l -0.896,0.788 -0.787,0.9 -0.038,0.017 -0.131,0.283 -0.108,0.069 -0.086,0.227 -0.842,0.963 -0.039,0.017 -0.017,0.043 -1.322,1.322 -0.216,0.089 -0.406,0.252 -1.002,0.223 -1.234,0.449 -0.443,0.08 v 0 l -0.308,-0.038 -0.97,-0.243 -0.006,-0.004 -0.552,0.203 -0.446,0.08 -0.807,-0.289 -0.613,-0.505 -1.08,-0.539 -0.062,-0.102 -0.197,-0.073 -0.425,-0.782 -0.111,-0.776 -0.344,-1.368 -0.04,-0.319 0.038,-0.306 0.33,-1.338 0.017,-0.238 -0.02,-0.312 -0.003,-0.088 0.012,-0.098 -0.247,0.73 -0.066,0.09 -0.036,0.131 -0.466,0.784 -0.077,0.044 -0.073,0.176 -0.228,0.094 -0.129,0.128 -0.063,0.022 0.117,-0.119 -0.353,0.146 -0.036,-0.015 -0.084,0.048 -0.764,-0.317 -0.316,-0.763 0.04,-0.292 0.24,-0.854 0.194,-0.829 0.048,-0.074 0.037,-0.163 0.577,-1.222 0.016,-0.01 0.01,-0.041 0.844,-1.569 0.101,-0.06 0.069,-0.18 1.079,-1.204 0.06,-0.027 0.027,-0.061 1.441,-1.321 0.178,-0.069 0.249,-0.19 1.274,-0.464 1.502,-0.693 0.542,-0.121 v 0 z m -3.051,10.165 v 0.004 l -10e-4,0.456 0.094,0.236 0.571,0.629 0.186,0.116 v 0 L -9.31,7.81 -9.273,7.806 -9.92,7.168 -9.969,7.05 -10.061,7.003 -10.662,6.167 -10.742,5.92 Z m 4.061,-2.286 -0.405,0.811 -0.168,0.672 v 0.159 h 0.001 l 0.59,0.369 0.305,0.033 0.84,-1.367 L -5.338,4.094 -5.805,3.813 -5.83,3.77 -5.907,3.744 -6.226,3.502 -6.406,3.442 -6.491,3.379 Z m 2.754,-3.152 -0.685,0.343 -0.413,0.471 0.108,0.036 0.433,0.321 0.205,0.123 0.107,-0.279 0.002,-0.002 V 1.58 l 0.34,-0.856 -0.037,-0.179 z"
           id="path74" />
      </g>
      <g
         style="fill:#7fb285"
         transform="translate(0.125,-5.25)"
         id="g80">
        <path
           style="fill:#7fb285"
           fill-mode="evenodd"
           fill="#02a556"
           d="m 0.617,-2.872 0.241,0.004 v 0 l 0.599,0.007 0.102,0.044 0.552,0.173 0.36,0.25 0.043,0.084 0.111,0.046 0.341,0.822 -0.341,0.823 -0.362,0.15 -0.005,0.009 0.118,0.059 0.047,0.078 1.195,0.119 0.092,0.047 0.353,0.083 0.728,0.365 0.123,0.2 0.299,0.144 0.478,0.598 0.285,0.809 v 0.003 l -0.001,0.6 v 0 0.004 L 5.972,3.37 5.969,3.376 5.867,3.872 5.503,4.721 5.5,4.723 5.498,4.73 5.011,5.818 4.868,5.91 4.794,6.089 4.895,7.339 4.899,7.448 4.86,7.764 4.628,8.689 4.392,9.973 l -0.181,0.308 -0.108,0.291 -0.717,0.835 -0.598,0.714 -0.119,0.056 -0.416,0.322 -0.097,0.036 -0.462,0.464 -0.866,1.44 -0.211,0.119 -0.118,0.208 -0.948,0.57 -0.21,0.059 -0.125,0.081 -1.546,0.389 -0.313,0.04 v 0 L -3.183,15.782 -4.288,15.252 -5.983,14.801 -6.479,14.468 -6.602,14.412 -7.369,13.536 -8.485,12.645 -8.49,12.634 -8.504,12.629 -8.882,11.982 -9.386,11.533 -9.389,11.528 -9.395,11.526 -9.811,10.7 -9.928,9.532 -10.163,8.013 -10.179,7.809 -10.088,7.333 -9.633,6.188 -9.169,4.561 -8.967,4.269 -8.885,4.056 -7.757,2.815 -6.733,1.218 -6.349,1.01 -6.174,0.74 -5.102,0.261 h 0.001 l 0.002,-0.001 0.903,-0.762 0.16,-0.059 0.491,-0.574 0.167,-0.076 0.072,-0.136 0.715,-0.481 0.07,-0.021 0.02,-0.034 1.075,-0.597 0.585,-0.154 h 0.002 l 0.527,10e-4 0.53,-0.176 0.383,-0.063 z m -1.591,15.934 0.035,-0.004 -0.025,-0.003 z m 0.264,-8.92 -0.005,10e-4 v 0 l -0.781,0.078 -0.12,0.16 -0.077,0.038 -0.039,0.096 -0.67,0.669 -0.173,1.042 -0.011,0.019 -0.01,0.077 -0.026,0.104 0.01,0.049 0.002,0.023 0.538,-0.18 L -1.453,6.087 -0.815,5.272 -0.696,5.213 -0.637,5.089 -0.106,4.65 0.095,4.253 -0.156,4.087 Z"
           id="path78" />
      </g>
    </g>
    <g
       transform="translate(348.34808,178.61812)"
       id="g90">
      <g
         transform="translate(-5.376,4.586)"
         id="g88">
        <path
           style="fill:#7fb285"
           fill-mode="evenodd"
           fill="#02a556"
           d="m 2.598,-11.411 0.421,0.263 0.651,0.27 0.059,0.142 0.102,0.055 0.002,0.003 0.829,0.417 0.146,0.238 0.225,0.118 0.349,-0.078 0.112,-0.049 0.513,-0.11 v 0 l 0.019,0.008 1.057,-0.314 0.365,-0.054 0.495,0.102 0.848,0.364 0.04,0.06 0.156,0.048 0.723,0.486 0.203,0.382 0.245,0.162 0.355,0.834 0.015,0.072 0.026,0.035 0.234,0.713 0.065,0.396 v 0.005 l -0.003,0.961 -0.002,0.004 -0.105,0.494 -0.093,0.209 0.035,0.064 0.797,1.145 0.228,0.722 v 0.007 l -0.004,0.841 -10e-4,0.002 -0.017,0.201 -0.246,1.449 -0.164,0.286 -0.109,0.3 -0.548,0.653 -0.56,0.892 L 9.73,1.569 9.567,1.834 8.613,2.311 8.528,2.331 8.511,2.357 7.318,2.834 6.848,2.926 v 0 L 6.604,2.902 5.768,2.735 5.147,3.047 3.858,3.752 3.66,3.802 3.555,3.871 2.604,4.113 2.283,4.154 h -0.91 l -1,0.3 L 0,4.51 v 0 L -0.499,4.407 -1.248,4.087 -2.118,3.869 -2.663,3.513 -2.763,3.467 -3.483,2.628 -3.542,2.469 -3.63,2.417 -4.227,1.342 -4.275,1.158 -4.345,1.054 -4.703,-0.259 -4.718,-0.366 -4.733,-0.393 -4.972,-1.827 -4.99,-2.042 v -1.442 l 0.003,-0.096 0.12,-1.566 0.025,-0.053 0.06,-0.314 0.481,-1.211 0.014,-0.018 0.007,-0.031 0.604,-1.329 0.141,-0.09 0.114,-0.275 1.081,-1.081 1.08,-1.081 0.193,-0.08 0.354,-0.244 0.832,-0.24 0.04,-0.005 0.013,-0.009 1.432,-0.358 0.318,-0.04 v 0 z m 6.434,9.154 -0.038,0.019 -0.049,0.202 0.14,0.218 0.107,-0.65 z m -7.342,-6.432 -0.698,0.854 -0.019,0.009 -0.009,0.024 -0.753,0.856 -0.538,0.967 -0.057,0.033 -0.036,0.108 -0.553,0.735 -0.286,1.324 -0.105,1.368 0.004,0.042 0.118,-0.366 0.027,-0.019 0.024,-0.105 0.119,-0.248 -0.004,-0.096 -10e-4,-0.041 0.292,-0.736 0.003,-0.003 -0.001,-0.46 v -0.002 l 0.251,-0.756 0.722,-0.966 v 0 l 0.16,-0.215 0.152,-0.421 0.068,-0.088 0.034,-0.123 0.724,-1.207 0.291,-0.164 0.16,-0.275 0.05,-0.029 z"
           id="path86" />
      </g>
    </g>
    <g
       transform="translate(195.76548,216.77562)"
       id="g94">
      <path
         fill-mode="evenodd"
         fill="#000000"
         d="m 2.844,-11.995 0.97,0.361 0.072,0.056 0.105,0.028 0.847,0.484 0.113,0.196 0.253,0.124 0.838,1.08 0.02,0.059 0.037,0.02 0.714,1.079 0.066,0.218 0.102,0.153 0.114,0.421 0.593,0.53 0.015,0.033 0.037,0.015 0.84,0.842 0.095,0.23 0.253,0.437 0.237,1.314 0.021,0.23 v 1.082 L 9.096,-2.536 8.853,-1.927 8.709,-1.831 8.578,-1.514 8.011,-0.947 7.32,-0.141 7.228,-0.099 7.185,-0.006 6.346,0.713 6.104,0.803 5.831,0.979 4.412,1.334 3.905,1.487 3.775,1.702 3.667,1.762 3.601,1.921 2.76,2.761 2.759,2.762 2.758,2.763 2.156,3.362 1.991,3.43 1.93,3.537 1.335,3.895 0.825,4.037 0.794,4.081 0.511,4.712 0.351,4.815 0.221,5.108 -0.722,5.967 -0.931,6.048 -1.215,6.243 -2.046,6.484 -2.403,6.536 -2.955,6.407 -3.444,6.166 -3.527,6.032 -3.769,5.932 -4.37,5.331 -4.449,5.139 -4.689,4.789 -4.927,3.957 -4.935,3.896 -4.947,3.877 -5.086,3.255 -5.526,2.728 -5.808,1.952 -5.819,1.926 -5.822,0.845 V 0.841 -0.36 l 0.019,-0.219 0.361,-2.05 0.041,-0.07 0.041,-0.199 0.724,-1.69 0.025,-0.016 0.018,-0.072 0.964,-1.809 0.099,-0.059 0.067,-0.178 0.963,-1.082 0.116,-0.052 0.05,-0.104 0.799,-0.622 0.132,-0.319 0.045,-0.029 0.036,-0.129 0.724,-1.206 0.217,-0.122 0.128,-0.25 0.837,-0.599 0.096,-0.03 0.028,-0.048 1.074,-0.598 0.621,-0.163 z m -0.37,2.587 0.062,-0.004 -0.032,-0.012 z"
         id="path92" />
    </g>
    <g
       style="fill:#7cc6fe"
       transform="translate(226.64048,212.52562)"
       id="g98">
      <path
         style="fill:#7cc6fe"
         fill-mode="evenodd"
         fill="#e71224"
         d="m -3.113,-0.903 0.241,0.003 v 0 l 0.36,0.003 0.331,0.139 0.579,-0.092 0.16,-0.013 h 0.009 l 0.722,0.007 v 0 h 0.01 l 0.481,0.01 0.03,0.013 0.028,0.001 0.242,0.019 0.393,0.193 0.189,0.078 0.007,0.018 0.019,0.009 L 0.936,0.12 0.688,0.755 0.669,0.764 0.662,0.782 0.466,0.863 0.076,1.053 -0.159,1.072 -0.191,1.074 -0.221,1.086 -0.7,1.096 h -0.012 v 0 l -0.64,0.006 -0.56,0.098 -0.17,0.068 -0.004,0.01 -0.007,0.003 -0.068,0.106 -0.236,0.111 -0.486,0.11 h -0.008 l -0.262,-0.002 -0.391,0.156 -0.42,0.081 h -1.277 l -0.131,0.054 -0.129,0.026 -0.049,0.03 -0.591,0.13 h -0.005 v 10e-4 l -0.026,0.005 -0.098,0.042 -0.189,0.04 -0.065,0.037 -0.421,0.076 -0.28,0.167 -0.451,0.09 -0.338,0.167 -0.239,0.057 -0.088,0.05 -0.714,0.119 -0.195,0.016 h -0.222 l -0.467,0.232 -0.239,0.056 -0.088,0.05 -0.629,0.104 -0.263,0.089 -0.362,0.061 -0.005,0.003 -0.48,0.003 -0.238,0.002 h -0.002 l -0.009,0.001 -0.812,-0.336 -0.336,-0.812 0.245,-0.71 0.066,-0.043 0.025,-0.059 0.187,-0.078 0.347,-0.224 0.44,-0.111 0.308,-0.103 0.144,-0.023 0.038,-0.022 0.658,-0.11 0.498,-0.143 0.05,-0.12 0.332,-0.138 0.09,-0.127 0.351,-0.121 0.071,-0.013 0.027,-0.017 0.472,-0.12 0.076,-0.01 0.019,-0.01 0.713,-0.123 0.194,-0.017 h 10e-4 l 0.868,-0.001 0.265,-0.044 0.57,-0.245 0.154,-0.032 0.06,-0.038 1.074,-0.236 0.078,-0.009 0.015,-0.008 0.835,-0.119 h 0.005 v 0 l 0.835,-0.119 0.167,-0.013 v 0 z"
         id="path96" />
    </g>
  </g>
</svg>
