<svg xmlns="http://www.w3.org/2000/svg" viewBox="0 0 453.54 481.89"><defs><style>.cls-1,.cls-2{fill:#fff;}.cls-1{stroke:#020202;}.cls-1,.cls-2,.cls-3,.cls-4,.cls-5,.cls-6{stroke-miterlimit:10;stroke-width:3px;}.cls-2,.cls-3{stroke:#1d1d1b;}.cls-3{fill:#1d1d1b;}.cls-4{fill:#84c1eb;stroke:#84c1eb;}.cls-5{fill:none;stroke-dasharray:12;}.cls-5,.cls-6{stroke:#7fb184;}.cls-6{fill:#7fb184;}</style></defs><title>Camera snap</title><g id="Camera_snap" data-name="Camera snap"><circle class="cls-1" cx="219.52" cy="271.64" r="207.6"/><path class="cls-2" d="M393.94,39.86q-3.68,3.47-7.55,6.88a292.9,292.9,0,0,1-74,47.53"/><path class="cls-2" d="M403.93,53.42a130.06,130.06,0,0,0-16.52,11.36c-7.24,5.85-12.41,11.28-19.89,19.13-5.62,5.91-8.46,8.89-11.9,13.08a165.12,165.12,0,0,0-18.69,28.45"/><circle class="cls-2" cx="391.25" cy="19.01" r="12.6" transform="translate(87.64 266.51) rotate(-41.97)"/><path class="cls-2" d="M404.52,52.61a12.6,12.6,0,0,0,17.8.94A12.42,12.42,0,0,0,425,50.16c.16.2.3.4.47.58a12.63,12.63,0,1,0-1.71-14.41c-.15-.19-.3-.39-.47-.58a12.6,12.6,0,1,0-18.74,16.86Z"/><circle class="cls-2" cx="424.78" cy="16.61" r="13.97"/><circle class="cls-2" cx="401.25" cy="28.46" r="13.72"/><circle class="cls-2" cx="425.91" cy="32.46" r="12.54"/><circle class="cls-2" cx="401.25" cy="28.46" r="13.72"/><circle class="cls-2" cx="425.91" cy="32.46" r="12.54"/><path class="cls-2" d="M302.53,199c.25.43.51.84.79,1.24-3.15-2.81-7-3.8-9.86-2.17-4,2.28-4.64,8.79-1.38,14.55,3,5.23,8.11,8,12.05,6.77l0,.28a14.79,14.79,0,0,1,8.2,7.07c3.42,6.05,2.78,12.9-1.45,15.29-.17.1-.35.17-.52.25a1.17,1.17,0,0,0,.05.11,1.5,1.5,0,0,0-.36.11c-2.71,1.53.84,12.92,7.93,25.43s15,21.41,17.73,19.88c.7-.4,1-1.44.89-3a91,91,0,0,0,6.81,6.72,4.7,4.7,0,0,1,.59-.4c3.12-1.77,7.71.42,10.24,4.89a12.81,12.81,0,0,1,1.37,3.54l.66.24a18.4,18.4,0,0,0,2.22,6.1c2.78,4.9,6.91,7.81,9.22,6.5s1.95-6.35-.83-11.26c-.23-.41-.48-.81-.74-1.2l.28-.13a8.76,8.76,0,0,0,1.17-.82c-2-4.43-1.54-9.12,1.23-11.18,1.79,2.72,4.18,4.25,5.59,3.45s1.33-4.17-.47-7.36a12.55,12.55,0,0,0-2-2.68c-.17-1.76-.42-3.6-.78-5.52-4.78,2.06-11.38-1.31-15.11-7.88-3.91-6.91-3.17-14.72,1.66-17.45.08,0,.17-.07.25-.12a5.26,5.26,0,0,0,4.4-.12c3.68-2.08,3.42-9.5-.58-16.56s-10.23-11.1-13.91-9l-.11.08c-.61-.83-1.21-1.67-1.82-2.47l0,0c-3.94,2.23-9.72-.53-12.91-6.17a13.9,13.9,0,0,1-1.79-9.66q-.79-.68-1.59-1.29l.36-.17c2.83-1.61,3.26-6.19,1-10.24s-6.45-6-9.28-4.43c-2.58,1.46-3.16,5.38-1.52,9.12a21.62,21.62,0,0,0-2.63-.85,13.59,13.59,0,0,0-1.88-6.95c-2.93-5.19-8.25-7.73-11.87-5.67S299.59,193.83,302.53,199Zm3.12,3.84.18.16s0,0,0,0Z"/><rect class="cls-3" x="207.82" y="267.44" width="8.41" height="8.41" rx="4.2"/><rect class="cls-4" x="328.53" y="237.73" width="8.41" height="8.41" rx="4.2"/><rect class="cls-4" x="369.04" y="57.93" width="8.41" height="8.41" rx="4.2"/><line class="cls-5" x1="371.77" y1="64.04" x2="212.03" y2="271.64"/><line class="cls-5" x1="421.33" y1="222.71" x2="212.03" y2="271.64"/><rect class="cls-6" x="337.25" y="99.24" width="8.41" height="8.41" rx="4.2"/><rect class="cls-6" x="415.95" y="218.5" width="8.41" height="8.41" rx="4.2"/></g></svg>