<svg xmlns="http://www.w3.org/2000/svg" viewBox="0 0 425.2 170.08"><defs><style>.cls-1{fill:#908d8e;}.cls-1,.cls-2,.cls-3,.cls-4,.cls-5{stroke:#1d1d1b;stroke-miterlimit:10;stroke-width:3px;}.cls-2{fill:#afacac;}.cls-3{fill:#dbd9d9;}.cls-4{fill:#a0a09f;}.cls-5{fill:#fff;}</style></defs><title>microtubule</title><g id="Default_Artboard_Layer" data-name="Default Artboard/Layer"><circle class="cls-1" cx="82.04" cy="61.86" r="6.75"/><circle class="cls-1" cx="84.64" cy="49.04" r="8.24"/><circle class="cls-1" cx="84.64" cy="36.07" r="8.24"/><circle class="cls-2" cx="84.93" cy="33.85" r="6.59"/><circle class="cls-3" cx="80.91" cy="26.93" r="6.59"/><circle class="cls-4" cx="75.52" cy="65.92" r="8.04"/><circle class="cls-3" cx="67.48" cy="73.97" r="8.04"/><circle class="cls-3" cx="61.41" cy="75.35" r="6.75"/><circle class="cls-3" cx="54.66" cy="75.35" r="6.75"/><circle class="cls-3" cx="47.91" cy="68.6" r="6.75"/><circle class="cls-5" cx="41.16" cy="61.85" r="6.75"/><circle class="cls-5" cx="41.16" cy="51.22" r="6.75"/><circle class="cls-5" cx="41.91" cy="44.47" r="6.75"/><circle class="cls-5" cx="48.66" cy="33.85" r="6.75"/><circle class="cls-5" cx="51.29" cy="27.1" r="6.75"/><circle class="cls-3" cx="58.04" cy="20.35" r="6.75"/><circle class="cls-3" cx="68.16" cy="20.35" r="6.75"/><circle class="cls-3" cx="74.91" cy="20.35" r="6.75"/><circle class="cls-1" cx="99.4" cy="65.62" r="6.75"/><circle class="cls-1" cx="101.99" cy="52.81" r="8.24"/><circle class="cls-1" cx="101.99" cy="39.84" r="8.24"/><circle class="cls-2" cx="102.29" cy="37.62" r="6.59"/><circle class="cls-3" cx="98.27" cy="30.7" r="6.59"/><circle class="cls-4" cx="92.88" cy="69.69" r="8.04"/><circle class="cls-3" cx="84.83" cy="77.73" r="8.04"/><circle class="cls-3" cx="78.77" cy="79.12" r="6.75"/><circle class="cls-3" cx="72.02" cy="79.12" r="6.75"/><circle class="cls-3" cx="65.27" cy="72.37" r="6.75"/><circle class="cls-5" cx="58.52" cy="65.62" r="6.75"/><circle class="cls-5" cx="58.52" cy="54.99" r="6.75"/><circle class="cls-5" cx="59.27" cy="48.24" r="6.75"/><circle class="cls-5" cx="66.02" cy="37.62" r="6.75"/><circle class="cls-5" cx="68.65" cy="30.87" r="6.75"/><circle class="cls-3" cx="75.4" cy="24.12" r="6.75"/><circle class="cls-3" cx="85.52" cy="24.12" r="6.75"/><circle class="cls-3" cx="92.27" cy="24.12" r="6.75"/><circle class="cls-1" cx="115.88" cy="69.11" r="6.75"/><circle class="cls-1" cx="118.47" cy="56.29" r="8.24"/><circle class="cls-1" cx="118.47" cy="43.32" r="8.24"/><circle class="cls-2" cx="118.77" cy="41.11" r="6.59"/><circle class="cls-3" cx="114.75" cy="34.19" r="6.59"/><circle class="cls-4" cx="109.36" cy="73.17" r="8.04"/><circle class="cls-3" cx="101.31" cy="81.22" r="8.04"/><circle class="cls-3" cx="95.25" cy="82.61" r="6.75"/><circle class="cls-3" cx="88.5" cy="82.61" r="6.75"/><circle class="cls-3" cx="81.75" cy="75.86" r="6.75"/><circle class="cls-5" cx="75" cy="69.11" r="6.75"/><circle class="cls-5" cx="75" cy="58.48" r="6.75"/><circle class="cls-5" cx="75.75" cy="51.73" r="6.75"/><circle class="cls-5" cx="82.5" cy="41.11" r="6.75"/><circle class="cls-5" cx="85.13" cy="34.36" r="6.75"/><circle class="cls-3" cx="91.88" cy="27.61" r="6.75"/><circle class="cls-3" cx="102" cy="27.61" r="6.75"/><circle class="cls-3" cx="108.75" cy="27.61" r="6.75"/><circle class="cls-1" cx="133.9" cy="72.88" r="6.75"/><circle class="cls-1" cx="136.49" cy="60.06" r="8.24"/><circle class="cls-1" cx="136.49" cy="47.09" r="8.24"/><circle class="cls-2" cx="136.79" cy="44.87" r="6.59"/><circle class="cls-3" cx="132.77" cy="37.96" r="6.59"/><circle class="cls-4" cx="127.38" cy="76.94" r="8.04"/><circle class="cls-3" cx="119.33" cy="84.99" r="8.04"/><circle class="cls-3" cx="113.27" cy="86.37" r="6.75"/><circle class="cls-3" cx="106.52" cy="86.37" r="6.75"/><circle class="cls-3" cx="99.77" cy="79.62" r="6.75"/><circle class="cls-5" cx="93.02" cy="72.87" r="6.75"/><circle class="cls-5" cx="93.02" cy="62.25" r="6.75"/><circle class="cls-5" cx="93.77" cy="55.5" r="6.75"/><circle class="cls-5" cx="100.52" cy="44.87" r="6.75"/><circle class="cls-5" cx="103.15" cy="38.12" r="6.75"/><circle class="cls-3" cx="109.9" cy="31.37" r="6.75"/><circle class="cls-3" cx="120.02" cy="31.37" r="6.75"/><circle class="cls-3" cx="126.77" cy="31.37" r="6.75"/><circle class="cls-1" cx="148.6" cy="76.37" r="6.75"/><circle class="cls-1" cx="151.19" cy="63.55" r="8.24"/><circle class="cls-1" cx="151.19" cy="50.58" r="8.24"/><circle class="cls-2" cx="151.48" cy="48.36" r="6.59"/><circle class="cls-3" cx="147.47" cy="41.45" r="6.59"/><circle class="cls-4" cx="142.08" cy="80.43" r="8.04"/><circle class="cls-3" cx="134.03" cy="88.48" r="8.04"/><circle class="cls-3" cx="127.97" cy="89.86" r="6.75"/><circle class="cls-3" cx="121.22" cy="89.86" r="6.75"/><circle class="cls-3" cx="114.47" cy="83.11" r="6.75"/><circle class="cls-5" cx="107.72" cy="76.36" r="6.75"/><circle class="cls-5" cx="107.72" cy="65.74" r="6.75"/><circle class="cls-5" cx="108.47" cy="58.99" r="6.75"/><circle class="cls-5" cx="115.22" cy="48.36" r="6.75"/><circle class="cls-5" cx="117.84" cy="41.61" r="6.75"/><circle class="cls-3" cx="124.59" cy="34.86" r="6.75"/><circle class="cls-3" cx="134.72" cy="34.86" r="6.75"/><circle class="cls-3" cx="141.47" cy="34.86" r="6.75"/><circle class="cls-1" cx="163.13" cy="80.14" r="6.75"/><circle class="cls-1" cx="165.72" cy="67.32" r="8.24"/><circle class="cls-1" cx="165.72" cy="54.35" r="8.24"/><circle class="cls-2" cx="166.02" cy="52.13" r="6.59"/><circle class="cls-3" cx="162" cy="45.22" r="6.59"/><circle class="cls-4" cx="156.61" cy="84.2" r="8.04"/><circle class="cls-3" cx="148.56" cy="92.25" r="8.04"/><circle class="cls-3" cx="142.5" cy="93.63" r="6.75"/><circle class="cls-3" cx="135.75" cy="93.63" r="6.75"/><circle class="cls-3" cx="129" cy="86.88" r="6.75"/><circle class="cls-5" cx="122.25" cy="80.13" r="6.75"/><circle class="cls-5" cx="122.25" cy="69.51" r="6.75"/><circle class="cls-5" cx="123" cy="62.76" r="6.75"/><circle class="cls-5" cx="129.75" cy="52.13" r="6.75"/><circle class="cls-5" cx="132.38" cy="45.38" r="6.75"/><circle class="cls-3" cx="139.13" cy="38.63" r="6.75"/><circle class="cls-3" cx="149.25" cy="38.63" r="6.75"/><circle class="cls-3" cx="156" cy="38.63" r="6.75"/><circle class="cls-1" cx="179.17" cy="82.9" r="6.75"/><circle class="cls-1" cx="181.76" cy="70.09" r="8.24"/><circle class="cls-1" cx="181.76" cy="57.12" r="8.24"/><circle class="cls-2" cx="182.06" cy="54.9" r="6.59"/><circle class="cls-3" cx="178.04" cy="47.98" r="6.59"/><circle class="cls-4" cx="172.65" cy="86.97" r="8.04"/><circle class="cls-3" cx="164.6" cy="95.01" r="8.04"/><circle class="cls-3" cx="158.54" cy="96.4" r="6.75"/><circle class="cls-3" cx="151.79" cy="96.4" r="6.75"/><circle class="cls-3" cx="145.04" cy="89.65" r="6.75"/><circle class="cls-5" cx="138.29" cy="82.9" r="6.75"/><circle class="cls-5" cx="138.29" cy="72.27" r="6.75"/><circle class="cls-5" cx="139.04" cy="65.52" r="6.75"/><circle class="cls-5" cx="145.79" cy="54.9" r="6.75"/><circle class="cls-5" cx="148.41" cy="48.15" r="6.75"/><circle class="cls-3" cx="155.16" cy="41.4" r="6.75"/><circle class="cls-3" cx="165.29" cy="41.4" r="6.75"/><circle class="cls-3" cx="172.04" cy="41.4" r="6.75"/><circle class="cls-1" cx="196.44" cy="90.95" r="6.75"/><circle class="cls-1" cx="199.03" cy="78.13" r="8.24"/><circle class="cls-1" cx="199.03" cy="65.16" r="8.24"/><circle class="cls-2" cx="199.32" cy="62.94" r="6.59"/><circle class="cls-3" cx="195.31" cy="56.03" r="6.59"/><circle class="cls-4" cx="189.92" cy="95.01" r="8.04"/><circle class="cls-3" cx="181.87" cy="103.06" r="8.04"/><circle class="cls-3" cx="175.81" cy="104.44" r="6.75"/><circle class="cls-3" cx="169.06" cy="104.44" r="6.75"/><circle class="cls-3" cx="162.31" cy="97.69" r="6.75"/><circle class="cls-5" cx="155.56" cy="90.94" r="6.75"/><circle class="cls-5" cx="155.56" cy="80.32" r="6.75"/><circle class="cls-5" cx="156.31" cy="73.57" r="6.75"/><circle class="cls-5" cx="163.06" cy="62.94" r="6.75"/><circle class="cls-5" cx="165.68" cy="56.19" r="6.75"/><circle class="cls-3" cx="172.43" cy="49.44" r="6.75"/><circle class="cls-3" cx="182.56" cy="49.44" r="6.75"/><circle class="cls-3" cx="189.31" cy="49.44" r="6.75"/><circle class="cls-1" cx="213.71" cy="96.01" r="6.75"/><circle class="cls-1" cx="216.3" cy="83.19" r="8.24"/><circle class="cls-1" cx="216.3" cy="70.22" r="8.24"/><circle class="cls-2" cx="216.59" cy="68.01" r="6.59"/><circle class="cls-3" cx="212.58" cy="61.09" r="6.59"/><circle class="cls-4" cx="207.19" cy="100.07" r="8.04"/><circle class="cls-3" cx="199.14" cy="108.12" r="8.04"/><circle class="cls-3" cx="193.08" cy="109.51" r="6.75"/><circle class="cls-3" cx="186.33" cy="109.51" r="6.75"/><circle class="cls-3" cx="179.58" cy="102.76" r="6.75"/><circle class="cls-5" cx="172.83" cy="96.01" r="6.75"/><circle class="cls-5" cx="172.83" cy="85.38" r="6.75"/><circle class="cls-5" cx="173.58" cy="78.63" r="6.75"/><circle class="cls-5" cx="180.33" cy="68.01" r="6.75"/><circle class="cls-5" cx="182.95" cy="61.26" r="6.75"/><circle class="cls-3" cx="189.7" cy="54.51" r="6.75"/><circle class="cls-3" cx="199.83" cy="54.51" r="6.75"/><circle class="cls-3" cx="206.58" cy="54.51" r="6.75"/><circle class="cls-1" cx="231.72" cy="100.89" r="6.75"/><circle class="cls-1" cx="234.32" cy="88.07" r="8.24"/><circle class="cls-1" cx="234.32" cy="75.1" r="8.24"/><circle class="cls-2" cx="234.61" cy="72.88" r="6.59"/><circle class="cls-3" cx="230.59" cy="65.97" r="6.59"/><circle class="cls-4" cx="225.2" cy="104.95" r="8.04"/><circle class="cls-3" cx="217.16" cy="113" r="8.04"/><circle class="cls-3" cx="211.09" cy="114.38" r="6.75"/><circle class="cls-3" cx="204.34" cy="114.38" r="6.75"/><circle class="cls-3" cx="197.59" cy="107.63" r="6.75"/><circle class="cls-5" cx="190.84" cy="100.88" r="6.75"/><circle class="cls-5" cx="190.84" cy="90.26" r="6.75"/><circle class="cls-5" cx="191.59" cy="83.51" r="6.75"/><circle class="cls-5" cx="198.34" cy="72.88" r="6.75"/><circle class="cls-5" cx="200.97" cy="66.13" r="6.75"/><circle class="cls-3" cx="207.72" cy="59.38" r="6.75"/><circle class="cls-3" cx="217.84" cy="59.38" r="6.75"/><circle class="cls-3" cx="224.59" cy="59.38" r="6.75"/><circle class="cls-1" cx="247.46" cy="107.04" r="6.75"/><circle class="cls-1" cx="250.05" cy="94.22" r="8.24"/><circle class="cls-1" cx="250.05" cy="81.25" r="8.24"/><circle class="cls-2" cx="250.34" cy="79.03" r="6.59"/><circle class="cls-3" cx="246.33" cy="72.12" r="6.59"/><circle class="cls-4" cx="240.94" cy="111.1" r="8.04"/><circle class="cls-3" cx="232.89" cy="119.15" r="8.04"/><circle class="cls-3" cx="226.83" cy="120.53" r="6.75"/><circle class="cls-3" cx="220.08" cy="120.53" r="6.75"/><circle class="cls-3" cx="213.33" cy="113.78" r="6.75"/><circle class="cls-5" cx="206.58" cy="107.03" r="6.75"/><circle class="cls-5" cx="206.58" cy="96.41" r="6.75"/><circle class="cls-5" cx="207.33" cy="89.66" r="6.75"/><circle class="cls-5" cx="214.08" cy="79.03" r="6.75"/><circle class="cls-5" cx="216.7" cy="72.28" r="6.75"/><circle class="cls-3" cx="223.45" cy="65.53" r="6.75"/><circle class="cls-3" cx="233.58" cy="65.53" r="6.75"/><circle class="cls-3" cx="240.33" cy="65.53" r="6.75"/><circle class="cls-1" cx="268.74" cy="111.7" r="6.75"/><circle class="cls-1" cx="271.33" cy="98.89" r="8.24"/><circle class="cls-1" cx="271.33" cy="85.92" r="8.24"/><circle class="cls-2" cx="271.63" cy="83.7" r="6.59"/><circle class="cls-3" cx="267.61" cy="76.78" r="6.59"/><circle class="cls-4" cx="262.22" cy="115.77" r="8.04"/><circle class="cls-3" cx="254.17" cy="123.81" r="8.04"/><circle class="cls-3" cx="248.11" cy="125.2" r="6.75"/><circle class="cls-3" cx="241.36" cy="125.2" r="6.75"/><circle class="cls-3" cx="234.61" cy="118.45" r="6.75"/><circle class="cls-5" cx="227.86" cy="111.7" r="6.75"/><circle class="cls-5" cx="227.86" cy="101.07" r="6.75"/><circle class="cls-5" cx="228.61" cy="94.32" r="6.75"/><circle class="cls-5" cx="235.36" cy="83.7" r="6.75"/><circle class="cls-5" cx="237.99" cy="76.95" r="6.75"/><circle class="cls-3" cx="244.74" cy="70.2" r="6.75"/><circle class="cls-3" cx="254.86" cy="70.2" r="6.75"/><circle class="cls-3" cx="261.61" cy="70.2" r="6.75"/><circle class="cls-1" cx="287.14" cy="117.16" r="6.75"/><circle class="cls-1" cx="289.73" cy="104.34" r="8.24"/><circle class="cls-1" cx="289.73" cy="91.37" r="8.24"/><circle class="cls-2" cx="290.03" cy="89.16" r="6.59"/><circle class="cls-3" cx="286.01" cy="82.24" r="6.59"/><circle class="cls-4" cx="280.62" cy="121.22" r="8.04"/><circle class="cls-3" cx="272.57" cy="129.27" r="8.04"/><circle class="cls-3" cx="266.51" cy="130.66" r="6.75"/><circle class="cls-3" cx="259.76" cy="130.66" r="6.75"/><circle class="cls-3" cx="253.01" cy="123.91" r="6.75"/><circle class="cls-5" cx="246.26" cy="117.16" r="6.75"/><circle class="cls-5" cx="246.26" cy="106.53" r="6.75"/><circle class="cls-5" cx="247.01" cy="99.78" r="6.75"/><circle class="cls-5" cx="253.76" cy="89.16" r="6.75"/><circle class="cls-5" cx="256.39" cy="82.41" r="6.75"/><circle class="cls-3" cx="263.14" cy="75.66" r="6.75"/><circle class="cls-3" cx="273.26" cy="75.66" r="6.75"/><circle class="cls-3" cx="280.01" cy="75.66" r="6.75"/><circle class="cls-1" cx="302.93" cy="122.12" r="6.75"/><circle class="cls-1" cx="305.52" cy="109.31" r="8.24"/><circle class="cls-1" cx="305.52" cy="96.34" r="8.24"/><circle class="cls-2" cx="305.81" cy="94.12" r="6.59"/><circle class="cls-3" cx="301.79" cy="87.2" r="6.59"/><circle class="cls-4" cx="296.4" cy="126.19" r="8.04"/><circle class="cls-3" cx="288.36" cy="134.23" r="8.04"/><circle class="cls-3" cx="282.29" cy="135.62" r="6.75"/><circle class="cls-3" cx="275.54" cy="135.62" r="6.75"/><circle class="cls-3" cx="268.79" cy="128.87" r="6.75"/><circle class="cls-5" cx="262.04" cy="122.12" r="6.75"/><circle class="cls-5" cx="262.04" cy="111.49" r="6.75"/><circle class="cls-5" cx="262.79" cy="104.74" r="6.75"/><circle class="cls-5" cx="269.54" cy="94.12" r="6.75"/><circle class="cls-5" cx="272.17" cy="87.37" r="6.75"/><circle class="cls-3" cx="278.92" cy="80.62" r="6.75"/><circle class="cls-3" cx="289.04" cy="80.62" r="6.75"/><circle class="cls-3" cx="295.79" cy="80.62" r="6.75"/><circle class="cls-1" cx="317.62" cy="127.79" r="6.75"/><circle class="cls-1" cx="320.21" cy="114.97" r="8.24"/><circle class="cls-1" cx="320.21" cy="102" r="8.24"/><circle class="cls-2" cx="320.51" cy="99.78" r="6.59"/><circle class="cls-3" cx="316.49" cy="92.87" r="6.59"/><circle class="cls-4" cx="311.1" cy="131.85" r="8.04"/><circle class="cls-3" cx="303.05" cy="139.9" r="8.04"/><circle class="cls-3" cx="296.99" cy="141.28" r="6.75"/><circle class="cls-3" cx="290.24" cy="141.28" r="6.75"/><circle class="cls-3" cx="283.49" cy="134.53" r="6.75"/><circle class="cls-5" cx="276.74" cy="127.78" r="6.75"/><circle class="cls-5" cx="276.74" cy="117.16" r="6.75"/><circle class="cls-5" cx="277.49" cy="110.41" r="6.75"/><circle class="cls-5" cx="284.24" cy="99.78" r="6.75"/><circle class="cls-5" cx="286.87" cy="93.03" r="6.75"/><circle class="cls-3" cx="293.62" cy="86.28" r="6.75"/><circle class="cls-3" cx="303.74" cy="86.28" r="6.75"/><circle class="cls-3" cx="310.49" cy="86.28" r="6.75"/><circle class="cls-1" cx="333.07" cy="128.39" r="6.75"/><circle class="cls-1" cx="335.66" cy="115.57" r="8.24"/><circle class="cls-1" cx="335.66" cy="102.6" r="8.24"/><circle class="cls-2" cx="335.95" cy="100.38" r="6.59"/><circle class="cls-3" cx="331.94" cy="93.47" r="6.59"/><circle class="cls-4" cx="326.55" cy="132.45" r="8.04"/><circle class="cls-3" cx="318.5" cy="140.5" r="8.04"/><circle class="cls-3" cx="312.44" cy="141.88" r="6.75"/><circle class="cls-3" cx="305.69" cy="141.88" r="6.75"/><circle class="cls-3" cx="298.94" cy="135.13" r="6.75"/><circle class="cls-5" cx="292.19" cy="128.38" r="6.75"/><circle class="cls-5" cx="292.19" cy="117.76" r="6.75"/><circle class="cls-5" cx="292.94" cy="111.01" r="6.75"/><circle class="cls-5" cx="299.69" cy="100.38" r="6.75"/><circle class="cls-5" cx="302.31" cy="93.63" r="6.75"/><circle class="cls-3" cx="309.06" cy="86.88" r="6.75"/><circle class="cls-3" cx="319.19" cy="86.88" r="6.75"/><circle class="cls-3" cx="325.94" cy="86.88" r="6.75"/><circle class="cls-1" cx="349.19" cy="132.46" r="6.75"/><circle class="cls-1" cx="351.78" cy="119.64" r="8.24"/><circle class="cls-1" cx="351.78" cy="106.67" r="8.24"/><circle class="cls-2" cx="352.08" cy="104.45" r="6.59"/><circle class="cls-3" cx="348.06" cy="97.54" r="6.59"/><circle class="cls-4" cx="342.67" cy="136.52" r="8.04"/><circle class="cls-3" cx="334.62" cy="144.57" r="8.04"/><circle class="cls-3" cx="328.56" cy="145.95" r="6.75"/><circle class="cls-3" cx="321.81" cy="145.95" r="6.75"/><circle class="cls-3" cx="315.06" cy="139.2" r="6.75"/><circle class="cls-5" cx="308.31" cy="132.45" r="6.75"/><circle class="cls-5" cx="308.31" cy="121.83" r="6.75"/><circle class="cls-5" cx="309.06" cy="115.08" r="6.75"/><circle class="cls-5" cx="315.81" cy="104.45" r="6.75"/><circle class="cls-5" cx="318.44" cy="97.7" r="6.75"/><circle class="cls-3" cx="325.19" cy="90.95" r="6.75"/><circle class="cls-3" cx="335.31" cy="90.95" r="6.75"/><circle class="cls-3" cx="342.06" cy="90.95" r="6.75"/><circle class="cls-1" cx="366.07" cy="135.84" r="6.75"/><circle class="cls-1" cx="368.66" cy="123.02" r="8.24"/><circle class="cls-1" cx="368.66" cy="110.05" r="8.24"/><circle class="cls-2" cx="368.95" cy="107.83" r="6.59"/><circle class="cls-3" cx="364.94" cy="100.91" r="6.59"/><circle class="cls-4" cx="359.55" cy="139.9" r="8.04"/><circle class="cls-3" cx="351.5" cy="147.95" r="8.04"/><circle class="cls-3" cx="345.44" cy="149.33" r="6.75"/><circle class="cls-3" cx="338.69" cy="149.33" r="6.75"/><circle class="cls-3" cx="331.94" cy="142.58" r="6.75"/><circle class="cls-5" cx="325.19" cy="135.83" r="6.75"/><circle class="cls-5" cx="325.19" cy="125.2" r="6.75"/><circle class="cls-5" cx="325.94" cy="118.45" r="6.75"/><circle class="cls-5" cx="332.69" cy="107.83" r="6.75"/><circle class="cls-5" cx="335.31" cy="101.08" r="6.75"/><circle class="cls-3" cx="342.06" cy="94.33" r="6.75"/><circle class="cls-3" cx="352.19" cy="94.33" r="6.75"/><circle class="cls-3" cx="358.94" cy="94.33" r="6.75"/><circle class="cls-1" cx="380.76" cy="142.39" r="6.75"/><circle class="cls-1" cx="383.35" cy="129.57" r="8.24"/><circle class="cls-1" cx="383.35" cy="116.6" r="8.24"/><circle class="cls-2" cx="383.65" cy="114.38" r="6.59"/><circle class="cls-3" cx="379.63" cy="107.47" r="6.59"/><circle class="cls-4" cx="374.24" cy="146.45" r="8.04"/><circle class="cls-3" cx="366.19" cy="154.5" r="8.04"/><circle class="cls-3" cx="360.13" cy="155.88" r="6.75"/><circle class="cls-3" cx="353.38" cy="155.88" r="6.75"/><circle class="cls-3" cx="346.63" cy="149.13" r="6.75"/><circle class="cls-5" cx="339.88" cy="142.38" r="6.75"/><circle class="cls-5" cx="339.88" cy="131.76" r="6.75"/><circle class="cls-5" cx="340.63" cy="125.01" r="6.75"/><circle class="cls-5" cx="347.38" cy="114.38" r="6.75"/><circle class="cls-5" cx="350.01" cy="107.63" r="6.75"/><circle class="cls-3" cx="356.76" cy="100.88" r="6.75"/><circle class="cls-3" cx="366.88" cy="100.88" r="6.75"/><circle class="cls-3" cx="373.63" cy="100.88" r="6.75"/></g></svg>