<svg xmlns="http://www.w3.org/2000/svg" viewBox="0 0 822.05 680.31"><defs><style>.cls-1,.cls-2,.cls-5,.cls-7{fill:#fff;}.cls-1,.cls-3{stroke:#878787;}.cls-1,.cls-10,.cls-12,.cls-3,.cls-4,.cls-5,.cls-7,.cls-8{stroke-miterlimit:10;}.cls-1,.cls-10,.cls-12,.cls-3,.cls-4,.cls-5,.cls-8{stroke-width:3px;}.cls-10,.cls-12,.cls-3,.cls-4,.cls-8{fill:none;}.cls-4,.cls-5{stroke:#84c1eb;}.cls-6{fill:#f6f6f6;}.cls-10,.cls-7{stroke:#1d1d1b;}.cls-7{stroke-width:4px;}.cls-12,.cls-8{stroke:#f3a540;}.cls-9{fill:#f3a540;}.cls-11{fill:#1d1d1b;}.cls-12{stroke-dasharray:12.36 12.36;}</style></defs><title>Unit Projection</title><g id="Layer_1" data-name="Layer 1"><path class="cls-1" d="M130.54,550.42q3.63-3.78,7.47-7.52a307.21,307.21,0,0,1,74.45-53.41"/><path class="cls-1" d="M117.47,538.29A133.25,133.25,0,0,0,134,525.63c7.18-6.43,12.22-12.31,19.51-20.8,5.49-6.4,8.25-9.61,11.58-14.11a168.09,168.09,0,0,0,17.65-30.26"/><circle class="cls-1" cx="129.94" cy="565.86" r="12.75" transform="translate(-371.39 273.03) rotate(-46.78)"/><path class="cls-1" d="M113.71,533.11a12.73,12.73,0,0,0-20.41,4.2c-.17-.18-.33-.37-.52-.54a12.77,12.77,0,1,0,3,14.38c.17.18.33.37.52.55a12.75,12.75,0,0,0,17.46-18.59Z"/><circle class="cls-1" cx="96.35" cy="571.12" r="14.13"/><circle class="cls-1" cx="119.06" cy="557.18" r="13.87"/><circle class="cls-1" cx="93.86" cy="555.24" r="12.68"/><circle class="cls-1" cx="119.06" cy="557.18" r="13.87"/><circle class="cls-1" cx="93.86" cy="555.24" r="12.68"/><path class="cls-1" d="M253,613q2.13-4.8,4.45-9.62a307.45,307.45,0,0,1,51.69-75.66"/><path class="cls-1" d="M236.54,606a134.74,134.74,0,0,0,11.16-17.53c4.54-8.51,7.27-15.75,11.22-26.23,3-7.89,4.47-11.85,6.05-17.22a168,168,0,0,0,6.24-34.46"/><circle class="cls-1" cx="212.69" cy="637.8" r="12.75" transform="translate(-429.89 835.59) rotate(-88.67)"/><path class="cls-1" d="M246.63,651.34A12.71,12.71,0,0,0,259,634.59l.75.06A12.81,12.81,0,1,0,248,625.91l-.75-.06a12.75,12.75,0,1,0-.6,25.49Z"/><circle class="cls-1" cx="235.14" cy="627.08" r="14.13"/><circle class="cls-1" cx="212.69" cy="637.8" r="12.75" transform="translate(-429.89 835.59) rotate(-88.67)"/><path class="cls-1" d="M246.63,651.34A12.71,12.71,0,0,0,259,634.59l.75.06A12.81,12.81,0,1,0,248,625.91l-.75-.06a12.75,12.75,0,1,0-.6,25.49Z"/><circle class="cls-1" cx="235.14" cy="627.08" r="14.13"/><circle class="cls-1" cx="225.41" cy="614.01" r="14.13"/><path class="cls-1" d="M408.35,641.24q-1.14-5.12-2.13-10.38a307.12,307.12,0,0,1-3.28-91.57"/><path class="cls-1" d="M391,645.4a140.85,140.85,0,0,0-1.34-21.46c-1.38-9.87-3.5-17.57-6.57-28.71-2.31-8.38-3.47-12.6-5.4-18A171.93,171.93,0,0,0,362,544.74"/><circle class="cls-1" cx="433.23" cy="642.31" r="12.75" transform="translate(-332.74 758.67) rotate(-64.64)"/><path class="cls-1" d="M407.74,616.12a12.73,12.73,0,0,0-18.14,10.26c-.22-.12-.43-.25-.66-.36a12.81,12.81,0,1,0,7.21,12.78c.22.12.44.25.67.36a12.75,12.75,0,0,0,10.92-23Z"/><circle class="cls-1" cx="402.87" cy="657.62" r="14.13"/><circle class="cls-1" cx="420.21" cy="637.38" r="13.87"/><circle class="cls-1" cx="395.63" cy="643.27" r="12.68"/><circle class="cls-1" cx="420.21" cy="637.38" r="13.87"/><circle class="cls-1" cx="395.63" cy="643.27" r="12.68"/><path class="cls-1" d="M52.36,440.61q4.48-2.72,9.17-5.32a307.23,307.23,0,0,1,85.79-32.18"/><path class="cls-1" d="M46.7,423.31A129.55,129.55,0,0,0,65,415.67c8.21-4.19,14.32-8.39,23.15-14.46,6.65-4.56,10-6.86,14.18-10.21a161.73,161.73,0,0,0,23.8-23.67"/><circle class="cls-1" cx="39.66" cy="435.11" r="14.13"/><circle class="cls-1" cx="28.24" cy="415.94" r="12.75" transform="translate(-62.59 9.06) rotate(-8.7)"/><path class="cls-1" d="M20.82,451.72A12.7,12.7,0,0,0,39.47,461c0,.25,0,.5.08.75a12.81,12.81,0,1,0,6.55-13.13c0-.25,0-.5-.08-.76a12.75,12.75,0,1,0-25.2,3.86Z"/><circle class="cls-1" cx="17.18" cy="437.25" r="14.13"/><path class="cls-1" d="M42.68,302.51c3.39.36,6.8.79,10.25,1.28a295.66,295.66,0,0,1,85.17,25.57"/><path class="cls-1" d="M48.85,285.39A129.19,129.19,0,0,0,68,290.62c9,1.74,16.45,2.18,27.14,2.82,8.06.48,12.11.72,17.46.65A161.94,161.94,0,0,0,146,290"/><circle class="cls-1" cx="21.29" cy="282.63" r="12.68"/><circle class="cls-1" cx="43.33" cy="282.43" r="12.68"/><circle class="cls-1" cx="45.77" cy="304.08" r="12.68"/><circle class="cls-1" cx="25.08" cy="297.24" r="12.68"/><circle class="cls-1" cx="31.62" cy="317.84" r="12.68"/><path class="cls-1" d="M536.15,578.64q-3.35-4-6.62-8.28A307.4,307.4,0,0,1,485,490.3"/><path class="cls-1" d="M519.89,586.8a128.88,128.88,0,0,0-10.28-17c-5.36-7.49-10.42-12.91-17.73-20.75-5.5-5.89-8.27-8.86-12.2-12.5a161.73,161.73,0,0,0-26.95-20"/><circle class="cls-1" cx="543.56" cy="596.03" r="14.13"/><circle class="cls-1" cx="515.34" cy="605.52" r="12.75" transform="translate(-279.54 625.55) rotate(-51.04)"/><path class="cls-1" d="M546.79,586.9a12.73,12.73,0,0,0-5.7-20c.16-.18.34-.36.5-.56a12.75,12.75,0,1,0-17.93,1.9,12.56,12.56,0,0,0,3.81,2.11c-.17.18-.35.36-.51.56a12.75,12.75,0,1,0,19.83,16Z"/><circle class="cls-1" cx="529.43" cy="581.9" r="14.13"/><circle class="cls-1" cx="510.57" cy="586.8" r="14.13"/><path class="cls-1" d="M529.17,103.23q-3.72,3.51-7.64,7a296.21,296.21,0,0,1-74.8,48.07"/><path class="cls-1" d="M539.27,116.94a132.37,132.37,0,0,0-16.7,11.5c-7.32,5.92-12.56,11.41-20.12,19.35-5.69,6-8.56,9-12,13.22a166.6,166.6,0,0,0-18.9,28.79"/><circle class="cls-1" cx="526.45" cy="82.14" r="12.75" transform="translate(80.1 373.12) rotate(-41.97)"/><path class="cls-1" d="M539.87,116.13a12.76,12.76,0,0,0,18,1,12.51,12.51,0,0,0,2.68-3.43c.16.2.31.4.48.59a12.8,12.8,0,1,0-1.73-14.58c-.16-.2-.31-.4-.48-.59a12.75,12.75,0,0,0-19,17.06Z"/><circle class="cls-1" cx="560.37" cy="79.71" r="14.13"/><circle class="cls-1" cx="536.56" cy="91.7" r="13.87"/><circle class="cls-1" cx="561.51" cy="95.74" r="12.68"/><circle class="cls-1" cx="536.56" cy="91.7" r="13.87"/><circle class="cls-1" cx="561.51" cy="95.74" r="12.68"/><path class="cls-1" d="M410.8,38.26c-.41,3.38-.87,6.79-1.4,10.23a296.17,296.17,0,0,1-26.57,84.87"/><path class="cls-1" d="M427.84,44.63a130.39,130.39,0,0,0-5.46,19.1c-1.84,9-2.37,16.43-3.13,27.12-.57,8-.86,12.09-.85,17.45a161.74,161.74,0,0,0,3.66,33.37"/><circle class="cls-1" cx="440.53" cy="44.38" r="12.75" transform="translate(103.43 331.43) rotate(-46.17)"/><path class="cls-1" d="M424.65,11.46a12.71,12.71,0,0,0-20.45,4c-.17-.19-.34-.38-.52-.55a12.75,12.75,0,1,0,.37,18,12.57,12.57,0,0,0,2.42-3.61c.17.18.34.37.52.55a12.75,12.75,0,0,0,17.66-18.4Z"/><circle class="cls-1" cx="429.67" cy="32.39" r="13.87"/><circle class="cls-1" cx="404.79" cy="36.84" r="12.68"/><circle class="cls-1" cx="429.67" cy="32.39" r="13.87"/><circle class="cls-1" cx="404.79" cy="36.84" r="12.68"/><polygon class="cls-2" points="324.25 156.19 328.52 161.83 325.24 167.63 328.62 173.62 324.4 179.05 321.57 184.29 319.74 189.36 319.4 194.77 316.95 201.81 311.32 196.97 311.73 190.23 307.35 185.9 306.22 180.24 301.93 175.18 305.79 168.68 298.5 163.65 301.08 157.52 304.88 151.6 302.09 145.85 304.39 140.2 300.41 133.97 300.62 127.92 308.88 124.12 307.18 117.43 311.93 114.56 314.61 118.74 318.99 122.38 325.39 126.31 319.96 133.9 327.63 138.18 325.77 144.45 322.97 150.57 324.25 156.19"/><polygon class="cls-3" points="324.25 156.19 328.52 161.83 325.24 167.63 328.62 173.62 324.4 179.05 321.57 184.29 319.74 189.36 319.4 194.77 316.95 201.81 311.32 196.97 311.73 190.23 307.35 185.9 306.22 180.24 301.93 175.18 305.79 168.68 298.5 163.65 301.08 157.52 304.88 151.6 302.09 145.85 304.39 140.2 300.41 133.97 300.62 127.92 308.88 124.12 307.18 117.43 311.93 114.56 314.61 118.74 318.99 122.38 325.39 126.31 319.96 133.9 327.63 138.18 325.77 144.45 322.97 150.57 324.25 156.19"/><polygon class="cls-2" points="299.01 158.86 301.59 164.46 299.22 170.5 302.09 176.26 300.71 182.13 298.69 187.81 294.38 192.67 298.39 200.11 292.34 203.83 284.67 202.65 286.3 194.22 283.63 189.39 279.29 184.9 281.43 178.31 280.48 172.76 272.01 168.54 278.33 161.68 276.21 156.21 272 150.74 271.66 144.88 275.42 139.17 271.57 133.03 275.04 127.66 273.44 120.51 281.07 121.32 285.14 121.33 291.12 124.41 291.48 130.83 291.25 137.01 292.16 142.64 298.7 147 297.32 153.24 299.01 158.86"/><polygon class="cls-3" points="299.01 158.86 301.59 164.46 299.22 170.5 302.09 176.26 300.71 182.13 298.69 187.81 294.38 192.67 298.39 200.11 292.34 203.83 284.67 202.65 286.3 194.22 283.63 189.39 279.29 184.9 281.43 178.31 280.48 172.76 272.01 168.54 278.33 161.68 276.21 156.21 272 150.74 271.66 144.88 275.42 139.17 271.57 133.03 275.04 127.66 273.44 120.51 281.07 121.32 285.14 121.33 291.12 124.41 291.48 130.83 291.25 137.01 292.16 142.64 298.7 147 297.32 153.24 299.01 158.86"/><polygon class="cls-2" points="274.9 163.55 272.41 170.17 274.46 175.68 274.48 181.55 276.48 187.21 278.12 193.09 274.94 198.82 277.77 205.9 271.14 211.54 262.62 209.78 259.34 203.9 256.62 198.47 256.87 191.81 251.93 187.62 251.4 181.59 249 176.25 249.71 170.05 244.51 165.31 247.38 158.83 241.94 153.75 245.02 147.57 242.4 141.83 246.67 136.34 248.65 131.59 249.01 125.76 254.75 127.64 258.39 132.29 259.59 138.29 262.86 143 266.86 147.58 265.78 154.13 267.21 159.65 274.9 163.55"/><polygon class="cls-3" points="274.9 163.55 272.41 170.17 274.46 175.68 274.48 181.55 276.48 187.21 278.12 193.09 274.94 198.82 277.77 205.9 271.14 211.54 262.62 209.78 259.34 203.9 256.62 198.47 256.87 191.81 251.93 187.62 251.4 181.59 249 176.25 249.71 170.05 244.51 165.31 247.38 158.83 241.94 153.75 245.02 147.57 242.4 141.83 246.67 136.34 248.65 131.59 249.01 125.76 254.75 127.64 258.39 132.29 259.59 138.29 262.86 143 266.86 147.58 265.78 154.13 267.21 159.65 274.9 163.55"/><polygon class="cls-2" points="244.56 173.76 247.09 178.99 246.52 185.31 249.28 190.41 248.72 196.4 251.05 201.63 256.61 206.91 254.66 212.98 250.47 216.76 243.6 219.25 239.49 214.12 237.28 208.22 232.38 204.55 228.11 200.24 225.78 194.76 224.04 189.06 220.2 184.35 223.93 176.56 221.84 171.3 213.19 167.94 211.55 162.16 211.88 155.96 211.66 149.92 215.26 144.36 217.15 140.11 222.86 139.5 224.1 146.72 233.38 146.26 236.48 151.47 233.78 160.03 238.76 163.74 244.6 167.31 244.56 173.76"/><polygon class="cls-3" points="244.56 173.76 247.09 178.99 246.52 185.31 249.28 190.41 248.72 196.4 251.05 201.63 256.61 206.91 254.66 212.98 250.47 216.76 243.6 219.25 239.49 214.12 237.28 208.22 232.38 204.55 228.11 200.24 225.78 194.76 224.04 189.06 220.2 184.35 223.93 176.56 221.84 171.3 213.19 167.94 211.55 162.16 211.88 155.96 211.66 149.92 215.26 144.36 217.15 140.11 222.86 139.5 224.1 146.72 233.38 146.26 236.48 151.47 233.78 160.03 238.76 163.74 244.6 167.31 244.56 173.76"/><polygon class="cls-2" points="220.26 185.6 220.39 192.85 225.7 196.06 228.25 201.28 231.89 205.79 234.39 210.97 239.28 215.35 238.46 221.66 237.32 227.38 232.09 225.21 226.49 224.58 221.56 221.66 217.46 217.58 212.2 214.8 210.07 208.76 202.89 207.53 200.35 202 197.21 197.09 194.59 191.86 188.54 188.88 186.51 183.24 181.87 178.92 181.48 172.58 178.72 166.79 181.6 159.75 189.05 158.3 193.12 164.05 199.75 164.54 201.27 171.98 209.72 171.22 213.46 175.89 213.16 184.08 220.26 185.6"/><polygon class="cls-3" points="220.26 185.6 220.39 192.85 225.7 196.06 228.25 201.28 231.89 205.79 234.39 210.97 239.28 215.35 238.46 221.66 237.32 227.38 232.09 225.21 226.49 224.58 221.56 221.66 217.46 217.58 212.2 214.8 210.07 208.76 202.89 207.53 200.35 202 197.21 197.09 194.59 191.86 188.54 188.88 186.51 183.24 181.87 178.92 181.48 172.58 178.72 166.79 181.6 159.75 189.05 158.3 193.12 164.05 199.75 164.54 201.27 171.98 209.72 171.22 213.46 175.89 213.16 184.08 220.26 185.6"/><polygon class="cls-2" points="195.84 205.49 199.63 209.98 202.22 215.6 210.44 215.73 210.62 223.34 217.93 225.11 217.2 232.51 220.27 237.22 218.33 240.9 215.07 243.14 208.71 244.69 204.92 238.61 197.56 240.21 193.96 234.8 187.26 234.24 183.71 229.13 179.35 225.22 174.26 222.15 173.38 214.66 166.49 213.32 161.23 210.07 157.76 205.18 155.3 199.6 157.19 192.75 156.29 189.07 160.52 184.2 165.22 189.93 171.59 189.4 175.25 194.78 182.81 193.48 187.04 197.74 191.12 202.05 195.84 205.49"/><polygon class="cls-3" points="195.84 205.49 199.63 209.98 202.22 215.6 210.44 215.73 210.62 223.34 217.93 225.11 217.2 232.51 220.27 237.22 218.33 240.9 215.07 243.14 208.71 244.69 204.92 238.61 197.56 240.21 193.96 234.8 187.26 234.24 183.71 229.13 179.35 225.22 174.26 222.15 173.38 214.66 166.49 213.32 161.23 210.07 157.76 205.18 155.3 199.6 157.19 192.75 156.29 189.07 160.52 184.2 165.22 189.93 171.59 189.4 175.25 194.78 182.81 193.48 187.04 197.74 191.12 202.05 195.84 205.49"/><polygon class="cls-2" points="183.33 231.28 187.91 234.91 194.32 235.78 197.56 241.28 204.58 241.96 205.18 249.96 208.56 254.38 211.81 258.53 211.7 261.84 209.06 265.68 203.13 266.26 197.13 265.87 191.05 265.25 187.58 258.07 180.21 260.34 177.87 252.07 170.19 254.03 168.06 246.39 159.46 248.91 157.57 241.56 153.29 237.78 145.19 237.92 141.67 232.79 142.46 225.35 139 219.87 145.42 219.37 151.51 215.84 156.98 218.95 161.39 224.04 168.57 221.51 173.86 224.14 176.59 231.61 183.33 231.28"/><polygon class="cls-3" points="183.33 231.28 187.91 234.91 194.32 235.78 197.56 241.28 204.58 241.96 205.18 249.96 208.56 254.38 211.81 258.53 211.7 261.84 209.06 265.68 203.13 266.26 197.13 265.87 191.05 265.25 187.58 258.07 180.21 260.34 177.87 252.07 170.19 254.03 168.06 246.39 159.46 248.91 157.57 241.56 153.29 237.78 145.19 237.92 141.67 232.79 142.46 225.35 139 219.87 145.42 219.37 151.51 215.84 156.98 218.95 161.39 224.04 168.57 221.51 173.86 224.14 176.59 231.61 183.33 231.28"/><polygon class="cls-2" points="173.71 259 181.13 257.19 185.16 262.04 189.07 266.73 196.32 266.48 198.55 273.16 204.44 275.41 209.25 279.65 205.61 285.38 203.45 291.92 197.37 287.38 191.09 290.59 185.08 290.05 179.08 289.22 174.6 284.18 169.14 282.12 162.54 282.41 158.96 276.43 154.8 272.05 150.73 267.8 141.84 270.49 139.31 264.07 137.28 257.97 130.07 256.21 131 249.78 135.73 246.86 141.51 247.04 147.57 246.03 152.13 251.82 158.94 249.16 163.26 254.3 168.56 256.48 173.71 259"/><polygon class="cls-3" points="173.71 259 181.13 257.19 185.16 262.04 189.07 266.73 196.32 266.48 198.55 273.16 204.44 275.41 209.25 279.65 205.61 285.38 203.45 291.92 197.37 287.38 191.09 290.59 185.08 290.05 179.08 289.22 174.6 284.18 169.14 282.12 162.54 282.41 158.96 276.43 154.8 272.05 150.73 267.8 141.84 270.49 139.31 264.07 137.28 257.97 130.07 256.21 131 249.78 135.73 246.86 141.51 247.04 147.57 246.03 152.13 251.82 158.94 249.16 163.26 254.3 168.56 256.48 173.71 259"/><polygon class="cls-2" points="157.69 278.11 161.99 286.43 167.93 285.98 174.58 283.75 178.59 289.91 184.11 291.3 188.32 295.1 192.65 297.72 194.61 300.29 194.64 307.9 187.85 307.62 181.75 305.92 176.03 304.22 170.1 311.31 164.12 310.92 159.08 303.55 152.57 307.78 146.76 306.71 140.57 307.11 135.12 304.39 130.75 298.99 124.96 297.84 118.77 296.8 118.31 288.31 114.29 286.42 116.13 280.48 122.21 279.22 128.4 281.92 133.96 275.64 139.71 281.72 145.57 280.22 151.86 276.88 157.69 278.11"/><polygon class="cls-3" points="157.69 278.11 161.99 286.43 167.93 285.98 174.58 283.75 178.59 289.91 184.11 291.3 188.32 295.1 192.65 297.72 194.61 300.29 194.64 307.9 187.85 307.62 181.75 305.92 176.03 304.22 170.1 311.31 164.12 310.92 159.08 303.55 152.57 307.78 146.76 306.71 140.57 307.11 135.12 304.39 130.75 298.99 124.96 297.84 118.77 296.8 118.31 288.31 114.29 286.42 116.13 280.48 122.21 279.22 128.4 281.92 133.96 275.64 139.71 281.72 145.57 280.22 151.86 276.88 157.69 278.11"/><polygon class="cls-2" points="147.66 316.02 153.44 313.58 159.1 315.26 164.83 315.43 171.53 310.6 176.69 315 183.15 314.63 185.26 322.99 190.74 324.92 187.24 329.69 181.96 332.13 175.7 331.09 171.42 338.61 165.58 340.24 159 333.31 153.49 337.49 147.66 333.1 141.77 339.2 135.88 339 130.74 332.54 124.26 336.74 118.19 336.58 114.39 329.49 108.54 329.03 105.6 324.92 107.41 319.18 112.58 315.68 119.76 319.24 124.59 314.88 129.82 310.15 135.8 310.01 141.72 309.28 147.66 316.02"/><polygon class="cls-3" points="147.66 316.02 153.44 313.58 159.1 315.26 164.83 315.43 171.53 310.6 176.69 315 183.15 314.63 185.26 322.99 190.74 324.92 187.24 329.69 181.96 332.13 175.7 331.09 171.42 338.61 165.58 340.24 159 333.31 153.49 337.49 147.66 333.1 141.77 339.2 135.88 339 130.74 332.54 124.26 336.74 118.19 336.58 114.39 329.49 108.54 329.03 105.6 324.92 107.41 319.18 112.58 315.68 119.76 319.24 124.59 314.88 129.82 310.15 135.8 310.01 141.72 309.28 147.66 316.02"/><polygon class="cls-2" points="148.44 340.17 154.37 340.18 160.27 340.91 165.94 344.71 171.68 344.8 178.19 341.14 183.61 344.42 189.46 346.47 196.03 352.12 190.51 358.92 182.79 357.21 178.49 361.44 173.08 363.45 167.91 367.07 161.44 363.58 156.16 367.89 149.99 363.24 144.49 368.24 138.62 370.85 132.78 368.9 126.71 370.16 120.65 369.76 114.87 367.45 110.42 362.42 108.68 357.98 110.99 354.8 113.84 348.39 119.54 346.41 125.9 347.34 132.16 349.29 137.58 347.63 143.3 347.77 148.44 340.17"/><polygon class="cls-3" points="148.44 340.17 154.37 340.18 160.27 340.91 165.94 344.71 171.68 344.8 178.19 341.14 183.61 344.42 189.46 346.47 196.03 352.12 190.51 358.92 182.79 357.21 178.49 361.44 173.08 363.45 167.91 367.07 161.44 363.58 156.16 367.89 149.99 363.24 144.49 368.24 138.62 370.85 132.78 368.9 126.71 370.16 120.65 369.76 114.87 367.45 110.42 362.42 108.68 357.98 110.99 354.8 113.84 348.39 119.54 346.41 125.9 347.34 132.16 349.29 137.58 347.63 143.3 347.77 148.44 340.17"/><polygon class="cls-2" points="154.13 372.2 160.05 373.19 165.71 371.86 171.47 371.43 177.14 373.58 182.88 372.72 188.19 374.75 195.96 370.87 199.19 378.19 198.34 386.44 190.62 386.46 186.39 391.32 180.81 393.45 174.68 393.53 168.99 394.84 162.72 392.91 157.29 395.36 151.75 397.98 145.71 394.83 140.02 393.82 134.06 401.2 128.72 394.78 122.79 395.76 116.56 395.42 110.28 390.34 114.38 383.11 121.62 383.11 127.43 382.51 131.81 378.13 136.9 374.96 141.86 370.4 149.01 376.57 154.13 372.2"/><polygon class="cls-3" points="154.13 372.2 160.05 373.19 165.71 371.86 171.47 371.43 177.14 373.58 182.88 372.72 188.19 374.75 195.96 370.87 199.19 378.19 198.34 386.44 190.62 386.46 186.39 391.32 180.81 393.45 174.68 393.53 168.99 394.84 162.72 392.91 157.29 395.36 151.75 397.98 145.71 394.83 140.02 393.82 134.06 401.2 128.72 394.78 122.79 395.76 116.56 395.42 110.28 390.34 114.38 383.11 121.62 383.11 127.43 382.51 131.81 378.13 136.9 374.96 141.86 370.4 149.01 376.57 154.13 372.2"/><polygon class="cls-2" points="160.94 396.93 167.64 401.04 172.74 396.05 178.43 393.42 184.55 398.23 190.53 392.67 196.01 397.88 202.86 396.13 202.62 403.39 206.01 410.19 197.71 409.44 194.26 414.89 190.1 420.11 184.13 421.2 178.46 422.93 171.68 420.16 166.16 421.77 161.04 425.89 154.94 424.38 149.15 424.18 143.56 428.86 137.52 429.57 131.3 429.43 126.22 424.37 121.63 420.41 123.05 413.8 128.09 410.16 133.56 407.75 137.99 403.11 145.08 405.25 150.65 403.81 154.84 396.93 160.94 396.93"/><polygon class="cls-3" points="160.94 396.93 167.64 401.04 172.74 396.05 178.43 393.42 184.55 398.23 190.53 392.67 196.01 397.88 202.86 396.13 202.62 403.39 206.01 410.19 197.71 409.44 194.26 414.89 190.1 420.11 184.13 421.2 178.46 422.93 171.68 420.16 166.16 421.77 161.04 425.89 154.94 424.38 149.15 424.18 143.56 428.86 137.52 429.57 131.3 429.43 126.22 424.37 121.63 420.41 123.05 413.8 128.09 410.16 133.56 407.75 137.99 403.11 145.08 405.25 150.65 403.81 154.84 396.93 160.94 396.93"/><polygon class="cls-2" points="168.85 429.71 173.95 427.08 178.16 421.24 183.95 420.17 189.85 419.83 195.46 417.69 201.41 419.18 207.22 419.22 210.91 422.89 209.81 427.55 207.06 432.81 202.29 436.21 198.37 440.96 191.68 441.02 187.02 444.61 182.35 448.45 175.5 446.99 171.35 452.49 165.71 454.07 160.46 457.29 153.73 453.69 148.67 459.25 142.59 455.22 136.65 457.07 134.85 452.19 130.94 446.03 135.31 441.18 142.38 440.49 146.97 437 153.51 436.94 157.49 432.23 161.6 427.23 168.85 429.71"/><polygon class="cls-3" points="168.85 429.71 173.95 427.08 178.16 421.24 183.95 420.17 189.85 419.83 195.46 417.69 201.41 419.18 207.22 419.22 210.91 422.89 209.81 427.55 207.06 432.81 202.29 436.21 198.37 440.96 191.68 441.02 187.02 444.61 182.35 448.45 175.5 446.99 171.35 452.49 165.71 454.07 160.46 457.29 153.73 453.69 148.67 459.25 142.59 455.22 136.65 457.07 134.85 452.19 130.94 446.03 135.31 441.18 142.38 440.49 146.97 437 153.51 436.94 157.49 432.23 161.6 427.23 168.85 429.71"/><polygon class="cls-2" points="179.97 450.02 187.67 451.37 192.5 448.35 195.27 441.06 201.87 441.42 205.96 435.5 212.71 437.43 218.35 440.04 225.53 437.58 224.95 445 221.02 449.73 214.45 451.67 210.91 456 206.44 459.45 204.22 465.78 199.38 469 192.72 469.43 191.26 478 186.08 480.87 180.65 483.28 175.53 486.42 169.43 487.2 163.45 487.9 157.54 487.38 150.75 486.69 153.52 480.46 155.33 475.01 156.5 468.26 163.85 467.2 165.06 459.8 172.95 460.22 177.96 457.36 179.97 450.02"/><polygon class="cls-3" points="179.97 450.02 187.67 451.37 192.5 448.35 195.27 441.06 201.87 441.42 205.96 435.5 212.71 437.43 218.35 440.04 225.53 437.58 224.95 445 221.02 449.73 214.45 451.67 210.91 456 206.44 459.45 204.22 465.78 199.38 469 192.72 469.43 191.26 478 186.08 480.87 180.65 483.28 175.53 486.42 169.43 487.2 163.45 487.9 157.54 487.38 150.75 486.69 153.52 480.46 155.33 475.01 156.5 468.26 163.85 467.2 165.06 459.8 172.95 460.22 177.96 457.36 179.97 450.02"/><polygon class="cls-2" points="251.58 513.89 252.76 508.24 253.7 502.4 255.85 497.03 257.43 491.27 262.51 487.62 262 479.79 268.72 477.82 273.55 478.98 276.46 481.56 280.36 486.9 281.25 493 278.53 498.67 275.65 504.04 277.89 510.59 274.49 515.75 268.18 519.72 272.87 527.67 268.77 532.36 267.27 538.17 262.31 542.18 256.59 545.33 254.24 550.48 252.53 557.17 247.36 553.48 243.11 552.53 239.53 546.97 243.03 541.16 240.16 534.91 245.1 529.87 245.65 524.08 248.13 518.78 251.58 513.89"/><polygon class="cls-3" points="251.58 513.89 252.76 508.24 253.7 502.4 255.85 497.03 257.43 491.27 262.51 487.62 262 479.79 268.72 477.82 273.55 478.98 276.46 481.56 280.36 486.9 281.25 493 278.53 498.67 275.65 504.04 277.89 510.59 274.49 515.75 268.18 519.72 272.87 527.67 268.77 532.36 267.27 538.17 262.31 542.18 256.59 545.33 254.24 550.48 252.53 557.17 247.36 553.48 243.11 552.53 239.53 546.97 243.03 541.16 240.16 534.91 245.1 529.87 245.65 524.08 248.13 518.78 251.58 513.89"/><polygon class="cls-2" points="227.14 497.36 232.58 494.24 233.15 487.39 235.55 481.72 241.04 478.84 244.02 473.38 250.45 472.14 255.8 470.64 261.66 467.38 259.65 474.01 260.95 479.51 259.86 485.16 260.95 491.99 257.13 496.75 253.44 501.42 247.56 504.6 243.45 508.71 243.37 515.75 237.91 518.8 237.83 526.44 231.42 528.45 226.05 531.06 223.62 537.43 216.54 535.92 210.38 541.1 207.41 533.54 209.23 527.41 213.82 522.73 217.28 518.04 219.82 513 219.99 506.53 224.49 502.51 227.14 497.36"/><polygon class="cls-3" points="227.14 497.36 232.58 494.24 233.15 487.39 235.55 481.72 241.04 478.84 244.02 473.38 250.45 472.14 255.8 470.64 261.66 467.38 259.65 474.01 260.95 479.51 259.86 485.16 260.95 491.99 257.13 496.75 253.44 501.42 247.56 504.6 243.45 508.71 243.37 515.75 237.91 518.8 237.83 526.44 231.42 528.45 226.05 531.06 223.62 537.43 216.54 535.92 210.38 541.1 207.41 533.54 209.23 527.41 213.82 522.73 217.28 518.04 219.82 513 219.99 506.53 224.49 502.51 227.14 497.36"/><polygon class="cls-2" points="198.56 478.1 203.9 475.58 208.32 471.93 210.94 465.35 217.03 464.11 222.61 462.33 227.64 459.39 233.47 460.03 236.21 461.81 242.22 466.18 236.01 470.15 234.74 476.25 230.79 480.62 225.26 483.44 220.63 486.92 216.43 490.78 211.54 493.85 210.9 502.4 204.03 502.92 200.59 508.31 193.59 507.9 188.25 509.84 184.2 515.13 178.09 513.27 171.31 515.29 172.44 508.42 172.66 501.94 175.96 496.85 182.96 494.94 183.07 487.24 190.99 486.86 191.39 478.73 198.56 478.1"/><polygon class="cls-3" points="198.56 478.1 203.9 475.58 208.32 471.93 210.94 465.35 217.03 464.11 222.61 462.33 227.64 459.39 233.47 460.03 236.21 461.81 242.22 466.18 236.01 470.15 234.74 476.25 230.79 480.62 225.26 483.44 220.63 486.92 216.43 490.78 211.54 493.85 210.9 502.4 204.03 502.92 200.59 508.31 193.59 507.9 188.25 509.84 184.2 515.13 178.09 513.27 171.31 515.29 172.44 508.42 172.66 501.94 175.96 496.85 182.96 494.94 183.07 487.24 190.99 486.86 191.39 478.73 198.56 478.1"/><polygon class="cls-2" points="275.22 526.95 273.02 520.58 273.99 514.73 274.48 508.66 277.05 503.18 280.16 497.95 287.33 495.17 286.65 487.27 293.07 490.47 296.63 491.29 297.5 496.7 296.09 502.42 296.63 507.9 303.32 513.79 303.27 519.75 301.05 525.45 299.74 531.19 297.35 536.67 298.33 542.91 295.76 548.31 289.58 552.3 291.54 559.3 289.62 565.07 285.58 569.89 279.12 571.2 274.83 567.15 274.23 561.31 271.05 555.86 275.7 549.88 273.14 544.15 274.98 538.52 272.71 532.45 275.22 526.95"/><polygon class="cls-3" points="275.22 526.95 273.02 520.58 273.99 514.73 274.48 508.66 277.05 503.18 280.16 497.95 287.33 495.17 286.65 487.27 293.07 490.47 296.63 491.29 297.5 496.7 296.09 502.42 296.63 507.9 303.32 513.79 303.27 519.75 301.05 525.45 299.74 531.19 297.35 536.67 298.33 542.91 295.76 548.31 289.58 552.3 291.54 559.3 289.62 565.07 285.58 569.89 279.12 571.2 274.83 567.15 274.23 561.31 271.05 555.86 275.7 549.88 273.14 544.15 274.98 538.52 272.71 532.45 275.22 526.95"/><polygon class="cls-2" points="308.34 527.74 308.75 521.98 308.63 515.98 311.58 510.91 309.18 503.69 313.96 499.4 317.52 494.76 322.26 491.56 325.73 489.84 332.87 490.93 330.01 497.95 331.05 503.56 332.23 509.34 328.46 514.84 330.23 520.8 333.39 527.27 331.17 532.86 330.16 538.71 325.57 543.49 321.44 548.16 320.61 553.96 318.51 559.3 313.34 562.69 312.55 569.07 307.8 569.64 303.64 567.13 303.87 561.27 305.42 555.61 300.15 549.88 299.56 543.91 300.06 538 306.29 533.13 308.34 527.74"/><polygon class="cls-3" points="308.34 527.74 308.75 521.98 308.63 515.98 311.58 510.91 309.18 503.69 313.96 499.4 317.52 494.76 322.26 491.56 325.73 489.84 332.87 490.93 330.01 497.95 331.05 503.56 332.23 509.34 328.46 514.84 330.23 520.8 333.39 527.27 331.17 532.86 330.16 538.71 325.57 543.49 321.44 548.16 320.61 553.96 318.51 559.3 313.34 562.69 312.55 569.07 307.8 569.64 303.64 567.13 303.87 561.27 305.42 555.61 300.15 549.88 299.56 543.91 300.06 538 306.29 533.13 308.34 527.74"/><polygon class="cls-2" points="335.07 531.84 331.42 525.56 335.49 520.19 339.91 515.18 339 509.08 336.92 502.23 342.53 498.08 343.32 491.31 350.33 490.53 354.2 494.17 356.31 499.42 357.02 505.11 357.79 510.77 360.29 516.41 359.84 522.26 363.47 528.26 361.65 534.1 362.42 540.15 356.39 545.21 357.63 551.36 351.59 555.79 355.48 563.05 352.19 568.19 346.24 571.09 342.97 577.24 341.56 570.17 340.1 565.38 333.94 560.99 332.6 555.19 336.92 549.09 337.6 543.42 330.79 537.44 335.07 531.84"/><polygon class="cls-3" points="335.07 531.84 331.42 525.56 335.49 520.19 339.91 515.18 339 509.08 336.92 502.23 342.53 498.08 343.32 491.31 350.33 490.53 354.2 494.17 356.31 499.42 357.02 505.11 357.79 510.77 360.29 516.41 359.84 522.26 363.47 528.26 361.65 534.1 362.42 540.15 356.39 545.21 357.63 551.36 351.59 555.79 355.48 563.05 352.19 568.19 346.24 571.09 342.97 577.24 341.56 570.17 340.1 565.38 333.94 560.99 332.6 555.19 336.92 549.09 337.6 543.42 330.79 537.44 335.07 531.84"/><polygon class="cls-2" points="361.81 533.91 361.56 527.95 364.08 522.02 363.58 516.12 364.68 510.29 363.13 503.99 367.43 498.8 368.05 492.21 374.77 486.95 377.9 494.68 379.69 499.56 388.47 502.32 387.81 508.75 388.05 514.7 385.98 520.88 385.99 526.6 389.72 532.03 387.31 537.9 394.12 543.67 392.82 549.59 388.29 555.05 392.55 561.67 389.53 567.26 387.01 573.07 380.88 578.13 376.09 572.35 369.52 569.13 368.33 562.97 365.6 557.49 368.85 550.73 368.12 545.02 362.62 539.81 361.81 533.91"/><polygon class="cls-3" points="361.81 533.91 361.56 527.95 364.08 522.02 363.58 516.12 364.68 510.29 363.13 503.99 367.43 498.8 368.05 492.21 374.77 486.95 377.9 494.68 379.69 499.56 388.47 502.32 387.81 508.75 388.05 514.7 385.98 520.88 385.99 526.6 389.72 532.03 387.31 537.9 394.12 543.67 392.82 549.59 388.29 555.05 392.55 561.67 389.53 567.26 387.01 573.07 380.88 578.13 376.09 572.35 369.52 569.13 368.33 562.97 365.6 557.49 368.85 550.73 368.12 545.02 362.62 539.81 361.81 533.91"/><polygon class="cls-2" points="398.13 530.24 397.37 524.44 393.79 519.33 393.44 513.45 393.53 507.57 392.31 501.85 394.05 496.14 392.25 489.89 397.95 488.68 403.35 486.5 406.63 491.69 411.14 495.74 412.31 501.79 418.19 505.48 416.36 512.62 418.8 517.87 424.22 522.26 425.64 528.01 423.05 534.65 421.3 540.78 422.74 546.23 429.81 551.49 429.27 557.62 428.83 564.2 420.93 563.79 414.93 568.12 411 563 411 555.9 403.77 553.28 407.2 545.17 404.43 540.21 400.15 535.67 398.13 530.24"/><polygon class="cls-3" points="398.13 530.24 397.37 524.44 393.79 519.33 393.44 513.45 393.53 507.57 392.31 501.85 394.05 496.14 392.25 489.89 397.95 488.68 403.35 486.5 406.63 491.69 411.14 495.74 412.31 501.79 418.19 505.48 416.36 512.62 418.8 517.87 424.22 522.26 425.64 528.01 423.05 534.65 421.3 540.78 422.74 546.23 429.81 551.49 429.27 557.62 428.83 564.2 420.93 563.79 414.93 568.12 411 563 411 555.9 403.77 553.28 407.2 545.17 404.43 540.21 400.15 535.67 398.13 530.24"/><polygon class="cls-2" points="426.01 517.25 420.68 513.58 421.13 506.89 415.13 503.22 414.16 497.31 414.53 491.16 413.2 485.71 409.84 480.05 414.46 476.45 419.54 475.01 424.4 478.39 429.62 481.44 433.63 485.81 436.3 491.18 438.57 496.69 440.98 501.99 446.42 505.47 451.09 509.61 450.38 516.51 450.19 522.85 452.98 527.82 455.93 532.83 457.87 538.24 459.3 543.98 455.08 546.81 449.49 551.25 447.94 542.85 442.15 540.94 440.05 535.19 433.13 533.38 433.01 526.35 426.1 523.98 426.01 517.25"/><polygon class="cls-3" points="426.01 517.25 420.68 513.58 421.13 506.89 415.13 503.22 414.16 497.31 414.53 491.16 413.2 485.71 409.84 480.05 414.46 476.45 419.54 475.01 424.4 478.39 429.62 481.44 433.63 485.81 436.3 491.18 438.57 496.69 440.98 501.99 446.42 505.47 451.09 509.61 450.38 516.51 450.19 522.85 452.98 527.82 455.93 532.83 457.87 538.24 459.3 543.98 455.08 546.81 449.49 551.25 447.94 542.85 442.15 540.94 440.05 535.19 433.13 533.38 433.01 526.35 426.1 523.98 426.01 517.25"/><polygon class="cls-2" points="443.38 500.79 442.04 494.25 438.12 489.93 433.05 486.31 430.69 480.8 428.9 475.07 428.34 469.07 426.79 463.81 425.82 457.2 433.27 454.93 438.53 458.86 443.48 462.15 446.83 467.38 450.06 472.38 456.59 473.8 462.02 476.7 465.1 481.84 467.41 487.5 471.89 491.37 473.81 497.1 476.86 501.96 482.32 505.63 481.51 512.29 485.21 517.29 482.96 522.71 477.48 523.35 473.57 518.45 468.8 515.81 460.61 517.16 458.77 510.24 455.75 505.1 447.34 505.21 443.38 500.79"/><polygon class="cls-3" points="443.38 500.79 442.04 494.25 438.12 489.93 433.05 486.31 430.69 480.8 428.9 475.07 428.34 469.07 426.79 463.81 425.82 457.2 433.27 454.93 438.53 458.86 443.48 462.15 446.83 467.38 450.06 472.38 456.59 473.8 462.02 476.7 465.1 481.84 467.41 487.5 471.89 491.37 473.81 497.1 476.86 501.96 482.32 505.63 481.51 512.29 485.21 517.29 482.96 522.71 477.48 523.35 473.57 518.45 468.8 515.81 460.61 517.16 458.77 510.24 455.75 505.1 447.34 505.21 443.38 500.79"/><polygon class="cls-2" points="468.99 485.01 463.51 482.32 460.17 477.26 458.72 470.57 452.89 468.01 449.23 463.42 448.04 457.35 441.35 453.56 445.53 447.51 450.25 448.19 455.29 449.34 461.98 448.06 465.08 454.53 472.72 453.03 476.6 457.76 481.36 461.12 485.24 465.57 490.88 467.94 496.5 470.59 499.39 476.03 500.75 482.55 505.86 485.87 507.17 491.8 514.25 495.38 511.19 502.38 504.95 505.28 499.57 501.76 493.74 500.62 487.99 498.89 485.51 491.79 477.26 493.63 474.18 487.89 468.99 485.01"/><polygon class="cls-3" points="468.99 485.01 463.51 482.32 460.17 477.26 458.72 470.57 452.89 468.01 449.23 463.42 448.04 457.35 441.35 453.56 445.53 447.51 450.25 448.19 455.29 449.34 461.98 448.06 465.08 454.53 472.72 453.03 476.6 457.76 481.36 461.12 485.24 465.57 490.88 467.94 496.5 470.59 499.39 476.03 500.75 482.55 505.86 485.87 507.17 491.8 514.25 495.38 511.19 502.38 504.95 505.28 499.57 501.76 493.74 500.62 487.99 498.89 485.51 491.79 477.26 493.63 474.18 487.89 468.99 485.01"/><polygon class="cls-2" points="494.2 463.39 492.28 456.08 487.63 452.69 482.9 449.35 477.26 446.82 474.73 441.22 471.2 436.69 470.04 431.14 468.1 426.3 473.31 423.22 479.26 424.21 484.45 427.18 489.98 428.97 496.6 428.81 501.93 431.48 506.03 436.11 510.44 440.04 514.5 444.35 518.83 448.19 524.7 450.31 527.89 455.43 532.94 458.74 534.61 464.8 539.15 469 539 475.62 532.83 475.29 526.48 478.75 522.65 471.48 515.2 474.44 510.43 470.76 504.13 469.94 499.77 465.7 494.2 463.39"/><polygon class="cls-3" points="494.2 463.39 492.28 456.08 487.63 452.69 482.9 449.35 477.26 446.82 474.73 441.22 471.2 436.69 470.04 431.14 468.1 426.3 473.31 423.22 479.26 424.21 484.45 427.18 489.98 428.97 496.6 428.81 501.93 431.48 506.03 436.11 510.44 440.04 514.5 444.35 518.83 448.19 524.7 450.31 527.89 455.43 532.94 458.74 534.61 464.8 539.15 469 539 475.62 532.83 475.29 526.48 478.75 522.65 471.48 515.2 474.44 510.43 470.76 504.13 469.94 499.77 465.7 494.2 463.39"/><polygon class="cls-2" points="510.92 437.1 506.98 431.17 500.19 432.52 494.45 430.96 490.36 426.25 484.18 425.13 478.03 423.12 476.79 415.86 473.67 410.23 479.66 407.88 485.21 405 490.87 409.18 496.62 408.78 502.32 409.51 508.6 408.3 514.18 410.13 519.08 413.86 524.92 414.83 529.27 419.4 534.33 422.06 540.71 422.36 543.67 428.39 551.99 427.06 554.65 433.11 551.82 437.7 551.24 443.39 545.17 442.29 539.2 445.22 534 439.83 527.71 442.15 522.57 438.69 517.82 434.54 510.92 437.1"/><polygon class="cls-3" points="510.92 437.1 506.98 431.17 500.19 432.52 494.45 430.96 490.36 426.25 484.18 425.13 478.03 423.12 476.79 415.86 473.67 410.23 479.66 407.88 485.21 405 490.87 409.18 496.62 408.78 502.32 409.51 508.6 408.3 514.18 410.13 519.08 413.86 524.92 414.83 529.27 419.4 534.33 422.06 540.71 422.36 543.67 428.39 551.99 427.06 554.65 433.11 551.82 437.7 551.24 443.39 545.17 442.29 539.2 445.22 534 439.83 527.71 442.15 522.57 438.69 517.82 434.54 510.92 437.1"/><polygon class="cls-2" points="503.98 232.82 496.3 232.5 492.46 236.98 489.32 242.81 481.87 241.6 476.54 243.44 472.2 247.54 466.8 248.43 464.04 246.3 460.2 242.55 463.56 237.59 465.38 231.79 472.6 230.15 472.19 222.05 476.72 218.23 480.62 213.76 486.7 211.86 492.1 209.36 495.33 203.95 499.76 200 504.66 196.65 511.06 196.27 517.15 196.36 521.79 190.23 527.85 193.73 530.7 200.51 527.66 206.22 524.16 211.19 521.06 216.36 513.94 217.86 511.04 223.11 507.28 227.63 503.98 232.82"/><polygon class="cls-3" points="503.98 232.82 496.3 232.5 492.46 236.98 489.32 242.81 481.87 241.6 476.54 243.44 472.2 247.54 466.8 248.43 464.04 246.3 460.2 242.55 463.56 237.59 465.38 231.79 472.6 230.15 472.19 222.05 476.72 218.23 480.62 213.76 486.7 211.86 492.1 209.36 495.33 203.95 499.76 200 504.66 196.65 511.06 196.27 517.15 196.36 521.79 190.23 527.85 193.73 530.7 200.51 527.66 206.22 524.16 211.19 521.06 216.36 513.94 217.86 511.04 223.11 507.28 227.63 503.98 232.82"/><polygon class="cls-2" points="482.6 211.06 479.1 215.77 473.35 218.29 468.25 221.22 463.57 224.45 461.35 231.05 454.65 231.03 450.14 234.02 447.11 232.44 442.43 229.4 443.58 223.42 448.75 219.31 447.49 212.02 450.98 207.19 457.1 204.32 458.67 198.21 462.04 193.37 469.39 192.17 472.21 186.93 476.11 182.66 479.69 177.91 486.18 177.02 489.46 171.49 495.08 169.9 501.22 169.56 501.69 175.67 501.88 181.76 499.45 187.19 498.3 193.33 494.07 197.7 487.15 199.94 483.55 204.35 482.6 211.06"/><polygon class="cls-3" points="482.6 211.06 479.1 215.77 473.35 218.29 468.25 221.22 463.57 224.45 461.35 231.05 454.65 231.03 450.14 234.02 447.11 232.44 442.43 229.4 443.58 223.42 448.75 219.31 447.49 212.02 450.98 207.19 457.1 204.32 458.67 198.21 462.04 193.37 469.39 192.17 472.21 186.93 476.11 182.66 479.69 177.91 486.18 177.02 489.46 171.49 495.08 169.9 501.22 169.56 501.69 175.67 501.88 181.76 499.45 187.19 498.3 193.33 494.07 197.7 487.15 199.94 483.55 204.35 482.6 211.06"/><polygon class="cls-2" points="461.54 191.1 453.79 193.18 454.49 200.56 449.38 204.04 445.43 208.25 443.48 214.36 435.96 214.54 431.67 216.98 427.59 220.88 426.97 215.56 422.74 209.5 425.92 204.03 429.46 199.06 429.44 192.82 431.22 187.18 434.21 182.1 436.87 176.85 439.81 171.76 443.33 167.05 447.15 162.57 454.25 160.92 456.55 155.38 457.89 148.07 464.61 147.13 471.61 144.63 474.61 151.8 468.89 157.21 470.49 163.24 466.89 168.06 470.35 175.63 467.2 180.73 464.23 185.85 461.54 191.1"/><polygon class="cls-3" points="461.54 191.1 453.79 193.18 454.49 200.56 449.38 204.04 445.43 208.25 443.48 214.36 435.96 214.54 431.67 216.98 427.59 220.88 426.97 215.56 422.74 209.5 425.92 204.03 429.46 199.06 429.44 192.82 431.22 187.18 434.21 182.1 436.87 176.85 439.81 171.76 443.33 167.05 447.15 162.57 454.25 160.92 456.55 155.38 457.89 148.07 464.61 147.13 471.61 144.63 474.61 151.8 468.89 157.21 470.49 163.24 466.89 168.06 470.35 175.63 467.2 180.73 464.23 185.85 461.54 191.1"/><polygon class="cls-2" points="432.79 173.94 436.91 182.5 429.51 185.1 424.63 188.78 421.89 193.71 418.49 198.12 414.53 201.84 410.97 205.49 405.69 211.17 404.56 203.86 407.24 198.41 406.98 192.85 405.56 186.65 408.77 181.57 409.64 175.75 412.96 170.86 416.78 166.3 417.99 160.51 417.43 153.54 421.93 149.39 427.26 146.04 432.19 142.76 430.84 133.49 439.28 134.93 442.88 133.23 447.98 136.41 447.41 142.54 446.4 148.35 442.3 153.31 442.5 159.35 441.61 165.21 436.79 169.5 432.79 173.94"/><polygon class="cls-3" points="432.79 173.94 436.91 182.5 429.51 185.1 424.63 188.78 421.89 193.71 418.49 198.12 414.53 201.84 410.97 205.49 405.69 211.17 404.56 203.86 407.24 198.41 406.98 192.85 405.56 186.65 408.77 181.57 409.64 175.75 412.96 170.86 416.78 166.3 417.99 160.51 417.43 153.54 421.93 149.39 427.26 146.04 432.19 142.76 430.84 133.49 439.28 134.93 442.88 133.23 447.98 136.41 447.41 142.54 446.4 148.35 442.3 153.31 442.5 159.35 441.61 165.21 436.79 169.5 432.79 173.94"/><polygon class="cls-2" points="379.01 152.43 380.16 158.49 381.51 164.8 380.81 170.76 373.89 174.57 373.47 180.56 368.75 184.43 366.72 189.53 362.41 194.24 359.12 188.73 360.83 182.64 353.18 177.93 355.06 171.9 354.08 166 359.01 160.53 360.1 154.93 360.46 149.22 361.93 143.7 361.14 137.64 358.63 130.83 365.13 126.85 369.3 122.49 366.85 114.76 371.91 111 377.13 109 380.89 112.88 386.18 117.62 382.38 124.14 386.94 129.78 386.45 135.74 383.58 141.43 386.81 147.72 379.01 152.43"/><polygon class="cls-3" points="379.01 152.43 380.16 158.49 381.51 164.8 380.81 170.76 373.89 174.57 373.47 180.56 368.75 184.43 366.72 189.53 362.41 194.24 359.12 188.73 360.83 182.64 353.18 177.93 355.06 171.9 354.08 166 359.01 160.53 360.1 154.93 360.46 149.22 361.93 143.7 361.14 137.64 358.63 130.83 365.13 126.85 369.3 122.49 366.85 114.76 371.91 111 377.13 109 380.89 112.88 386.18 117.62 382.38 124.14 386.94 129.78 386.45 135.74 383.58 141.43 386.81 147.72 379.01 152.43"/><polygon class="cls-2" points="407.88 158.3 407.56 164.18 402.69 168.97 402.28 174.79 402.71 181.06 397.34 185.08 397.55 191.64 392.03 194.52 388.86 194.84 381.62 195.52 385.26 188.2 377.6 183.35 381.45 177.2 382.22 171.43 380.89 165.51 381.34 159.66 383.18 154.03 381.96 147.82 383.44 142.09 385.92 136.66 392.66 132.86 388.32 124.79 395.49 121.87 395.99 114.77 402.5 115.89 406.26 118.32 412.27 122.84 407.78 129.47 410.55 135.12 406.89 140.82 411.24 146.92 408.75 152.54 407.88 158.3"/><polygon class="cls-3" points="407.88 158.3 407.56 164.18 402.69 168.97 402.28 174.79 402.71 181.06 397.34 185.08 397.55 191.64 392.03 194.52 388.86 194.84 381.62 195.52 385.26 188.2 377.6 183.35 381.45 177.2 382.22 171.43 380.89 165.51 381.34 159.66 383.18 154.03 381.96 147.82 383.44 142.09 385.92 136.66 392.66 132.86 388.32 124.79 395.49 121.87 395.99 114.77 402.5 115.89 406.26 118.32 412.27 122.84 407.78 129.47 410.55 135.12 406.89 140.82 411.24 146.92 408.75 152.54 407.88 158.3"/><polygon class="cls-2" points="358.11 152.93 351.57 158.63 354.3 164.55 352.8 170.22 349.03 175.39 352.36 181.98 351.43 187.96 348.38 193.41 342.34 196.77 337.66 192.45 334.53 187.46 332.71 181.88 334.5 175.6 328.21 170.7 328.12 164.74 330.14 158.75 332.57 152.93 332.24 147.21 334.17 141.62 329.76 135.37 333.04 130 329.49 123.14 338.86 120.08 340.08 115.1 342.34 114.27 345.64 114.39 349.76 118.56 352.87 123.75 356.55 129.09 354.55 135.42 355.9 141.18 354.41 147.13 358.11 152.93"/><polygon class="cls-3" points="358.11 152.93 351.57 158.63 354.3 164.55 352.8 170.22 349.03 175.39 352.36 181.98 351.43 187.96 348.38 193.41 342.34 196.77 337.66 192.45 334.53 187.46 332.71 181.88 334.5 175.6 328.21 170.7 328.12 164.74 330.14 158.75 332.57 152.93 332.24 147.21 334.17 141.62 329.76 135.37 333.04 130 329.49 123.14 338.86 120.08 340.08 115.1 342.34 114.27 345.64 114.39 349.76 118.56 352.87 123.75 356.55 129.09 354.55 135.42 355.9 141.18 354.41 147.13 358.11 152.93"/><circle class="cls-1" cx="266.82" cy="48.52" r="12.75" transform="translate(108.69 268.85) rotate(-64.64)"/><path class="cls-1" d="M241.34,22.33A12.71,12.71,0,0,0,223.2,32.59c-.22-.13-.44-.25-.67-.36a12.75,12.75,0,1,0,6.06,17,12.56,12.56,0,0,0,1.16-4.2c.22.12.43.25.66.36a12.75,12.75,0,1,0,10.93-23Z"/><circle class="cls-1" cx="236.46" cy="61.38" r="14.13"/><circle class="cls-1" cx="228.5" cy="46.26" r="12.68"/><circle class="cls-1" cx="253.81" cy="40.43" r="13.87"/><path class="cls-1" d="M243.21,74.2c.58,1.74,1.15,3.51,1.69,5.31A159.46,159.46,0,0,1,251.65,127"/><path class="cls-1" d="M255.36,55.1a99.78,99.78,0,0,0,1.41,14.62c1.14,6.65,2.71,11.74,5,19.09,1.71,5.54,2.57,8.32,4,11.87a106.61,106.61,0,0,0,11,20.77"/><circle class="cls-1" cx="97.4" cy="94.49" r="13.87"/><circle class="cls-1" cx="108.44" cy="129.17" r="14.13"/><circle class="cls-1" cx="119.93" cy="104.45" r="12.75" transform="translate(-38.96 97.6) rotate(-38.59)"/><path class="cls-1" d="M85.21,115.84a12.75,12.75,0,0,0-2,17.92,12.56,12.56,0,0,0,3.27,2.88c-.21.15-.42.29-.62.45a12.78,12.78,0,1,0,14.66-.87c.2-.15.41-.28.61-.44a12.75,12.75,0,0,0-15.9-19.94Z"/><path class="cls-1" d="M112.21,104.27A14.13,14.13,0,0,1,110,124.13a15.86,15.86,0,0,1-8.08,3,14.19,14.19,0,0,1-5.7-.83,13.67,13.67,0,0,1-6.08-4.42c-3.69-5-4.51-14.46,2.24-19.85A14.12,14.12,0,0,1,112.21,104.27Z"/><path class="cls-1" d="M106.58,143.78q3.72,3.53,7.38,7.24a295.93,295.93,0,0,1,52.23,72"/><path class="cls-1" d="M121.87,133.91a129.58,129.58,0,0,0,12.07,15.78c6.14,6.87,11.76,11.71,19.88,18.7,6.11,5.26,9.19,7.91,13.49,11.1a161.12,161.12,0,0,0,29,17"/><g id="Inner"><path class="cls-1" d="M370.28,466.18a10.41,10.41,0,0,0-1.1-.16c3.14-.42,5.59-2.12,6.07-4.57.67-3.41-2.74-6.95-7.62-7.91-4.45-.87-8.56.7-9.77,3.56l-.18-.12a11.07,11.07,0,0,1-8,1.22c-5.13-1-8.72-4.73-8-8.31,0-.15.08-.28.12-.42l-.1,0a.88.88,0,0,0,.12-.26c.45-2.29-7.78-5.84-18.39-7.93s-19.58-1.91-20,.39c-.11.59.35,1.26,1.27,2a67.51,67.51,0,0,0-7.17.59,4.52,4.52,0,0,1-.06.53c-.52,2.65-4,4.19-7.8,3.45a9.62,9.62,0,0,1-2.69-.95c-.17.08-.31.17-.47.26a13.56,13.56,0,0,0-4.56-1.72c-4.16-.82-7.84.12-8.23,2.08s2.67,4.22,6.83,5c.36.06.7.12,1.05.16a2,2,0,0,0-.06.23,6.25,6.25,0,0,0-.11,1.06c3.53,1,6,3.59,5.78,6.18-2.42-.31-4.47.31-4.7,1.5s1.72,2.8,4.43,3.33a9.22,9.22,0,0,0,2.52.16c1.08.76,2.26,1.52,3.53,2.26,1.17-3.74,6.32-5.86,11.9-4.76,5.85,1.15,9.94,5.39,9.14,9.48l-.06.21a3.91,3.91,0,0,0-2.08,2.57c-.62,3.12,3.74,6.6,9.73,7.77s11.35-.4,12-3.51a.41.41,0,0,1,0-.11c.77.06,1.54.13,2.29.17a0,0,0,0,1,0,0c.65-3.34,5.06-5.28,9.84-4.34a10.41,10.41,0,0,1,6.38,3.71l1.52-.28a2.45,2.45,0,0,0-.08.29c-.47,2.4,1.93,4.89,5.37,5.56s6.6-.72,7.07-3.12c.43-2.18-1.52-4.44-4.46-5.34a15.13,15.13,0,0,0,1.77-1.08,10.36,10.36,0,0,0,4.89,2.34c4.39.86,8.44-.93,9-4S374.67,467,370.28,466.18Zm-3.72-.1-.18,0s0,0,0,0Z"/><path class="cls-1" d="M219.85,297c.21-.28.39-.56.56-.84-1,2.68-.7,5.2.89,6.37,2.23,1.63,6.2,0,8.87-3.66,2.43-3.32,3-7.15,1.34-9.05l.16-.1a11,11,0,0,1,2.36-6.91c2.81-3.84,7-5.56,9.32-3.84a1.78,1.78,0,0,1,.26.22l.06-.06a.58.58,0,0,0,.14.17c1.5,1.1,7.42-4.44,13.23-12.37s9.3-15.26,7.8-16.36c-.38-.28-1.06-.12-1.95.4a64.11,64.11,0,0,0,2.46-6,1.93,1.93,0,0,1-.36-.22c-1.73-1.26-1.45-4.59.63-7.42a9.37,9.37,0,0,1,1.78-1.87V235a14.29,14.29,0,0,0,3.1-3.15c2.27-3.11,3.08-6.39,1.79-7.33s-4.16.82-6.44,3.92c-.19.27-.37.54-.54.8l-.14-.12a4.93,4.93,0,0,0-.74-.43c-2.16,2.54-5,3.69-6.86,2.71,1.21-1.86,1.58-3.71.8-4.29s-2.75.51-4.23,2.53a10.24,10.24,0,0,0-1.13,2c-1,.63-2,1.34-3.08,2.14,2.27,2.13,1.74,7-1.32,11.16-3.2,4.37-8,6.34-10.63,4.38,0,0-.08-.08-.13-.11a3,3,0,0,0-1-2.51c-2-1.49-6.34.93-9.62,5.41s-4.29,9.32-2.26,10.81l.08,0c-.36.61-.72,1.21-1.06,1.81h0c2.18,1.6,1.82,5.79-.79,9.36a10.38,10.38,0,0,1-5.3,4c-.15.45-.28.89-.41,1.32a1.3,1.3,0,0,0-.18-.15c-1.57-1.15-4.36,0-6.24,2.57s-2.13,5.58-.57,6.73,3.86.18,5.71-1.92a14.55,14.55,0,0,0,.07,1.78,10.66,10.66,0,0,0-3.68,3.22c-2.4,3.29-2.73,7.14-.72,8.61S217.45,300.29,219.85,297Zm1.58-3,.06-.15h0Z"/><path class="cls-1" d="M466,368.88c-.2.32-.38.65-.54,1,.74-3.08,0-6-2.08-7.3-2.94-1.85-7.47.06-10.12,4.27-2.41,3.83-2.42,8.24-.19,10.4l-.18.12a11.09,11.09,0,0,1-1.75,7.94c-2.79,4.43-7.55,6.44-10.64,4.5l-.35-.26-.06.07a1,1,0,0,0-.2-.2c-2-1.24-8.25,5.17-14,14.32s-8.82,17.58-6.84,18.83c.51.31,1.3.12,2.29-.48a69.58,69.58,0,0,0-2,6.91l.48.24c2.28,1.44,2.46,5.25.41,8.52a9.66,9.66,0,0,1-1.86,2.17c0,.18.05.35.08.53a13.59,13.59,0,0,0-3.24,3.64c-2.26,3.59-2.71,7.36-1,8.42s4.9-1,7.16-4.56c.19-.31.36-.61.53-.92.06,0,.12.1.19.14a6.5,6.5,0,0,0,.95.48c2.21-2.93,5.49-4.27,7.84-3.17-1.16,2.15-1.32,4.28-.28,4.93s3.23-.61,4.69-2.94a9,9,0,0,0,1.05-2.3c1.11-.73,2.24-1.56,3.39-2.48-3.08-2.43-3.2-8-.18-12.81,3.18-5.05,8.61-7.34,12.14-5.13l.17.13a4,4,0,0,0,1.65,2.87c2.69,1.69,7.51-1.13,10.75-6.29s3.71-10.73,1-12.42l-.1,0c.34-.7.68-1.39,1-2.08h0c-2.88-1.82-3.11-6.63-.52-10.75a10.5,10.5,0,0,1,5.76-4.63c.1-.51.2-1,.29-1.51a1.46,1.46,0,0,0,.24.17c2.07,1.31,5.25,0,7.12-3s1.69-6.42-.38-7.73c-1.88-1.18-4.68-.17-6.58,2.25a15.42,15.42,0,0,0-.37-2,10.35,10.35,0,0,0,3.93-3.72c2.39-3.79,2.17-8.22-.48-9.88S468.39,365.09,466,368.88Zm-1.43,3.44c0,.06,0,.12,0,.18h0Z"/><path class="cls-1" d="M434.62,254.53a9.93,9.93,0,0,0,.59.94c-2.36-2.11-5.25-2.86-7.41-1.63-3,1.71-3.49,6.61-1,10.93,2.23,3.94,6.1,6,9.06,5.1a1.49,1.49,0,0,1,0,.21A11.12,11.12,0,0,1,442,275.4c2.57,4.54,2.09,9.69-1.09,11.49l-.39.18a.36.36,0,0,0,0,.09,1.07,1.07,0,0,0-.27.08c-2,1.16.63,9.72,6,19.12s11.29,16.1,13.33,14.95c.52-.3.73-1.09.67-2.24a67.17,67.17,0,0,0,5.12,5.05,3.41,3.41,0,0,1,.44-.3c2.35-1.33,5.8.32,7.7,3.68a9.94,9.94,0,0,1,1,2.66c.16.07.33.12.49.18a13.9,13.9,0,0,0,1.68,4.58c2.08,3.69,5.19,5.88,6.93,4.89s1.46-4.77-.63-8.46c-.17-.31-.36-.61-.55-.9l.21-.1a6.65,6.65,0,0,0,.88-.62c-1.54-3.33-1.16-6.86.92-8.41,1.34,2.05,3.14,3.2,4.21,2.59s1-3.13-.36-5.53a9.24,9.24,0,0,0-1.53-2c-.12-1.32-.31-2.71-.58-4.15-3.6,1.55-8.56-1-11.36-5.93-2.94-5.19-2.38-11.06,1.24-13.11l.2-.09a4,4,0,0,0,3.31-.1c2.76-1.56,2.56-7.14-.45-12.45s-7.69-8.35-10.45-6.78l-.09.06c-.45-.62-.9-1.25-1.36-1.85h0c-3,1.68-7.3-.39-9.7-4.63a10.45,10.45,0,0,1-1.35-7.27c-.4-.33-.8-.66-1.2-1a2.21,2.21,0,0,0,.27-.12c2.13-1.21,2.46-4.66.73-7.7s-4.85-4.54-7-3.33c-1.94,1.09-2.38,4-1.15,6.86a15,15,0,0,0-2-.64,10.33,10.33,0,0,0-1.41-5.23c-2.21-3.9-6.21-5.81-8.93-4.27S432.41,250.64,434.62,254.53Zm2.35,2.89.13.13,0,0A.91.91,0,0,1,437,257.42Z"/><path class="cls-1" d="M209,351c.12.32.25.63.4.94-1.74-2.3-4-3.48-5.94-2.78-2.67,1-3.54,5.25-2,9.53,1.44,3.9,4.41,6.46,6.94,6.15v.19a11,11,0,0,1,4.53,5.82c1.66,4.51.74,9-2.06,10l-.34.1s0,.05,0,.08a.86.86,0,0,0-.23,0c-1.79.66-.47,8.75,3,18.06s7.67,16.32,9.46,15.66c.46-.17.71-.84.78-1.88a65.14,65.14,0,0,0,3.7,5.41,3.49,3.49,0,0,1,.39-.19c2.07-.76,4.74,1.32,6,4.64a9.8,9.8,0,0,1,.57,2.55l.39.25a14.47,14.47,0,0,0,.91,4.37c1.35,3.65,3.68,6.15,5.22,5.58s1.68-4,.34-7.63c-.12-.31-.24-.61-.37-.9l.19-.05a4.73,4.73,0,0,0,.78-.39c-.92-3.23-.26-6.3,1.62-7.3.89,2.05,2.26,3.4,3.2,3.05s1.14-2.6.26-5a9.92,9.92,0,0,0-1.05-2.06c0-1.19,0-2.46-.06-3.79-3.12.73-6.94-2.4-8.75-7.3-1.89-5.13-.83-10.25,2.36-11.42l.17,0a3.14,3.14,0,0,0,2.73.51c2.43-.9,2.84-5.89.9-11.14s-5.48-8.79-7.91-7.9l-.08,0-.93-1.89h0c-2.61,1-6-1.66-7.52-5.85a10.45,10.45,0,0,1-.37-6.69c-.29-.37-.59-.73-.88-1.08l.23-.07c1.88-.69,2.49-3.69,1.38-6.7s-3.53-4.9-5.4-4.21c-1.7.63-2.36,3.17-1.64,5.89a14.39,14.39,0,0,0-1.56-.92,10.29,10.29,0,0,0-.63-4.9c-1.42-3.86-4.51-6.27-6.91-5.38S207.55,347.16,209,351Zm1.64,3a1.13,1.13,0,0,0,.1.13l0,0C210.66,354.11,210.63,354.06,210.61,354Z"/><path class="cls-1" d="M402.52,223.05a10,10,0,0,0-1.1.06c3-1,5.07-3.16,5.07-5.65,0-3.48-4-6.3-9-6.3-4.53,0-8.26,2.34-8.9,5.38l-.2-.09a11.11,11.11,0,0,1-7.66,2.75c-5.23,0-9.46-3-9.46-6.62a3.22,3.22,0,0,1,0-.43h-.1a.9.9,0,0,0,.07-.27c0-2.34-8.77-4.24-19.58-4.24s-19.57,1.9-19.57,4.24c0,.6.58,1.17,1.62,1.69a63.74,63.74,0,0,0-6.93,2,3.07,3.07,0,0,1,.05.53c0,2.7-3.13,4.89-7,4.89a9.52,9.52,0,0,1-2.82-.42l-.4.34a13.83,13.83,0,0,0-4.81-.8c-4.24,0-7.67,1.62-7.67,3.62s3.43,3.63,7.67,3.63c.36,0,.71,0,1.06,0,0,.08,0,.16,0,.23a6.36,6.36,0,0,0,.1,1.07c3.66.31,6.54,2.37,6.86,5-2.44.16-4.32,1.16-4.32,2.38s2.23,2.41,5,2.41A9.23,9.23,0,0,0,323,238c1.21.54,2.51,1.06,3.9,1.54.42-3.89,5.07-7,10.76-7,6,0,10.79,3.37,10.79,7.54,0,.07,0,.14,0,.21a4,4,0,0,0-1.55,2.93c0,3.17,4.95,5.75,11.05,5.75S369,246.41,369,243.24c0,0,0-.07,0-.11.77-.09,1.54-.17,2.29-.27v0c0-3.4,3.94-6.16,8.81-6.16a10.47,10.47,0,0,1,7,2.41l1.43-.57c0,.1,0,.2,0,.3,0,2.45,2.84,4.43,6.34,4.43s6.33-2,6.33-4.43c0-2.22-2.34-4.06-5.4-4.38a14.88,14.88,0,0,0,1.53-1.4,10.32,10.32,0,0,0,5.24,1.35c4.48,0,8.11-2.54,8.11-5.66S407,223.05,402.52,223.05Zm-3.67.62a.85.85,0,0,0-.17.06l0,0Z"/><g id="Inner_molecules" data-name="Inner molecules"><circle class="cls-1" cx="241.18" cy="357.07" r="10.42"/><circle class="cls-1" cx="260.21" cy="297.24" r="10.42"/><circle class="cls-1" cx="300.4" cy="344.18" r="10.42"/><circle class="cls-1" cx="350.18" cy="318.25" r="7.51"/><circle class="cls-1" cx="395.19" cy="439.72" r="7.51"/><circle class="cls-1" cx="388.03" cy="383.2" r="7.51"/><circle class="cls-1" cx="367.18" cy="382.04" r="7.51"/><circle class="cls-1" cx="398.48" cy="413.53" r="7.51"/><circle class="cls-1" cx="480.64" cy="350.95" r="7.51"/><circle class="cls-1" cx="433.23" cy="378.6" r="7.51"/><circle class="cls-1" cx="399.17" cy="462.23" r="9.71"/><circle class="cls-1" cx="387.07" cy="340.05" r="7.51"/><circle class="cls-1" cx="370.44" cy="326.25" r="7.51"/><circle class="cls-1" cx="359.23" cy="345.3" r="7.51"/><circle class="cls-1" cx="286.43" cy="254.7" r="7.51"/><circle class="cls-1" cx="380.59" cy="360.78" r="10.42"/><circle class="cls-1" cx="307" cy="375.69" r="10.42"/><circle class="cls-1" cx="462.98" cy="346.66" r="10.42"/><circle class="cls-1" cx="377.85" cy="262.21" r="10.42"/><circle class="cls-1" cx="369.15" cy="403.11" r="10.42"/><circle class="cls-1" cx="285.27" cy="312.23" r="10.42"/><circle class="cls-1" cx="304.88" cy="411.51" r="10.42"/><circle class="cls-1" cx="409.59" cy="387.7" r="10.42"/><circle class="cls-1" cx="331.93" cy="259.33" r="10.42"/><circle class="cls-1" cx="268.87" cy="360.72" r="10.42"/><circle class="cls-1" cx="343.8" cy="370.23" r="10.42"/><circle class="cls-1" cx="408.35" cy="329.36" r="10.42"/><circle class="cls-1" cx="242.55" cy="325.01" r="10.42"/><circle class="cls-1" cx="376.66" cy="428.69" r="10.42"/><circle class="cls-1" cx="337.01" cy="290.58" r="10.42"/><circle class="cls-1" cx="429.67" cy="351.85" r="10.42"/><circle class="cls-1" cx="273.6" cy="398.75" r="10.42"/><circle class="cls-1" cx="285.57" cy="279.57" r="10.42"/><circle class="cls-1" cx="331.93" cy="337.27" r="10.42"/><circle class="cls-1" cx="329.13" cy="403.19" r="10.42"/><circle class="cls-1" cx="400.95" cy="302.51" r="10.42"/><circle class="cls-1" cx="205.79" cy="326.13" r="10.42"/><circle class="cls-1" cx="252.96" cy="448" r="10.42"/><circle class="cls-1" cx="292.59" cy="229.83" r="10.42"/><circle class="cls-1" cx="421.74" cy="241.55" r="7.51"/><circle class="cls-1" cx="355.51" cy="272.63" r="7.51"/><circle class="cls-1" cx="387.07" cy="317.84" r="7.51"/><circle class="cls-1" cx="370.29" cy="300.58" r="7.51"/><circle class="cls-1" cx="385.05" cy="282.47" r="7.51"/><circle class="cls-1" cx="402.06" cy="256.21" r="7.51"/><circle class="cls-1" cx="428.57" cy="300.58" r="7.51"/><circle class="cls-1" cx="408.34" cy="277.4" r="7.51"/><circle class="cls-1" cx="306.1" cy="245.34" r="7.51"/><circle class="cls-1" cx="312.39" cy="266.53" r="7.51"/><circle class="cls-1" cx="320.93" cy="315.17" r="7.51"/><circle class="cls-1" cx="286.43" cy="428.69" r="7.51"/><circle class="cls-1" cx="262.21" cy="423.31" r="9.71"/><circle class="cls-1" cx="320.93" cy="430.86" r="7.51"/><circle class="cls-1" cx="347.99" cy="390.71" r="7.51"/><circle class="cls-1" cx="321.78" cy="360.72" r="7.51"/><circle class="cls-1" cx="270.63" cy="336.7" r="7.51"/><circle class="cls-1" cx="284.02" cy="377.36" r="7.51"/><circle class="cls-1" cx="354.56" cy="440.61" r="7.51"/><circle class="cls-1" cx="403.28" cy="357.07" r="7.51"/><circle class="cls-1" cx="436.08" cy="323.79" r="7.51"/><circle class="cls-1" cx="343.8" cy="423.66" r="7.51"/><circle class="cls-1" cx="309.1" cy="292.24" r="7.51"/></g></g><polygon class="cls-2" points="518.06 253.23 514.44 258.72 507.24 257.39 503.04 262.1 496.78 261.97 492.24 266.74 485.75 263.75 480.54 266.23 477.27 263.69 475.48 259.07 476.3 252.26 485.09 252.31 486.8 245.8 492.93 244.21 495.01 237.26 501.72 236.8 505.4 231.72 510.49 228.81 514.9 224.5 522.83 227.93 525.7 219.39 532.8 222.26 538.31 221.11 544.07 216.24 548.38 221.87 545.76 225.89 548.29 234.32 539.7 234.54 536.29 239.17 534.63 246.36 529.9 249.97 523.16 250.47 518.06 253.23"/><polygon class="cls-3" points="518.06 253.23 514.44 258.72 507.24 257.39 503.04 262.1 496.78 261.97 492.24 266.74 485.75 263.75 480.54 266.23 477.27 263.69 475.48 259.07 476.3 252.26 485.09 252.31 486.8 245.8 492.93 244.21 495.01 237.26 501.72 236.8 505.4 231.72 510.49 228.81 514.9 224.5 522.83 227.93 525.7 219.39 532.8 222.26 538.31 221.11 544.07 216.24 548.38 221.87 545.76 225.89 548.29 234.32 539.7 234.54 536.29 239.17 534.63 246.36 529.9 249.97 523.16 250.47 518.06 253.23"/><g id="Visible"><polygon class="cls-2" points="517.04 406.33 510.91 406.9 504.52 407.64 498.66 406.4 495.44 399.26 489.52 398.28 486.06 393.27 481.17 390.77 476.9 386.05 482.65 383.25 488.56 385.43 493.94 378.35 499.78 380.72 505.74 380.28 510.76 385.6 516.25 387.17 521.9 388.05 527.27 389.99 533.37 389.78 540.35 387.94 543.77 394.7 547.76 399.2 555.63 397.54 558.94 402.88 560.49 408.26 556.28 411.67 551.09 416.44 544.93 412.17 538.91 416.13 533.03 415.13 527.61 411.81 521.07 414.4 517.04 406.33"/><polygon class="cls-4" points="517.04 406.33 510.91 406.9 504.52 407.64 498.66 406.4 495.44 399.26 489.52 398.28 486.06 393.27 481.17 390.77 476.9 386.05 482.65 383.25 488.56 385.43 493.94 378.35 499.78 380.72 505.74 380.28 510.76 385.6 516.25 387.17 521.9 388.05 527.27 389.99 533.37 389.78 540.35 387.94 543.77 394.7 547.76 399.2 555.63 397.54 558.94 402.88 560.49 408.26 556.28 411.67 551.09 416.44 544.93 412.17 538.91 416.13 533.03 415.13 527.61 411.81 521.07 414.4 517.04 406.33"/><polygon class="cls-2" points="536.03 386.34 530.15 386.18 525.23 381.44 519.39 381.19 513.13 381.81 508.98 376.54 502.42 376.95 499.39 371.5 498.99 368.35 498.08 361.12 505.51 364.57 510.14 356.75 516.4 360.44 522.2 361.06 528.07 359.55 533.93 359.83 539.61 361.52 545.78 360.12 551.55 361.43 557.05 363.77 561.03 370.42 568.99 365.82 572.1 372.93 579.22 373.22 578.27 379.76 575.95 383.6 571.61 389.74 564.85 385.42 559.28 388.36 553.48 384.84 547.5 389.38 541.81 387.05 536.03 386.34"/><polygon class="cls-4" points="536.03 386.34 530.15 386.18 525.23 381.44 519.39 381.19 513.13 381.81 508.98 376.54 502.42 376.95 499.39 371.5 498.99 368.35 498.08 361.12 505.51 364.57 510.14 356.75 516.4 360.44 522.2 361.06 528.07 359.55 533.93 359.83 539.61 361.52 545.78 360.12 551.55 361.43 557.05 363.77 561.03 370.42 568.99 365.82 572.1 372.93 579.22 373.22 578.27 379.76 575.95 383.6 571.61 389.74 564.85 385.42 559.28 388.36 553.48 384.84 547.5 389.38 541.81 387.05 536.03 386.34"/><polygon class="cls-2" points="538.22 307.4 531.12 302.67 526.04 306.7 520.18 306.7 514.24 304.43 508.68 309.16 502.67 309.73 496.64 308.14 491.9 303.18 494.88 297.57 498.93 293.31 503.88 290.15 510.37 290.24 513.61 283.07 519.34 281.48 525.63 281.88 531.85 282.71 537.32 280.96 543.2 281.39 548.17 275.71 554.19 277.47 559.94 272.46 565.26 280.54 570.4 280.51 571.85 282.55 572.49 285.83 569.44 290.82 565.17 295.1 560.9 299.93 554.31 299.65 549.06 302.38 542.95 302.47 538.22 307.4"/><polygon class="cls-4" points="538.22 307.4 531.12 302.67 526.04 306.7 520.18 306.7 514.24 304.43 508.68 309.16 502.67 309.73 496.64 308.14 491.9 303.18 494.88 297.57 498.93 293.31 503.88 290.15 510.37 290.24 513.61 283.07 519.34 281.48 525.63 281.88 531.85 282.71 537.32 280.96 543.2 281.39 548.17 275.71 554.19 277.47 559.94 272.46 565.26 280.54 570.4 280.51 571.85 282.55 572.49 285.83 569.44 290.82 565.17 295.1 560.9 299.93 554.31 299.65 549.06 302.38 542.95 302.47 538.22 307.4"/><polygon class="cls-2" points="530.8 277.56 526.63 282.74 519.54 280.36 514.87 284.68 508.64 283.69 503.61 288.07 497.48 284.11 492.04 286.09 489.19 283.18 487.83 278.42 489.31 271.64 498.28 272.98 500.62 266.55 506.97 265.81 509.72 258.95 516.52 259.43 520.72 254.69 526.11 252.4 530.97 248.54 538.55 253.2 542.29 244.68 549.07 248.62 554.66 248.13 560.98 243.71 564.54 249.99 561.37 253.58 563.18 262.47 554.39 261.43 550.51 265.68 548.15 272.84 543.03 275.88 536.2 275.43 530.8 277.56"/><polygon class="cls-4" points="530.8 277.56 526.63 282.74 519.54 280.36 514.87 284.68 508.64 283.69 503.61 288.07 497.48 284.11 492.04 286.09 489.19 283.18 487.83 278.42 489.31 271.64 498.28 272.98 500.62 266.55 506.97 265.81 509.72 258.95 516.52 259.43 520.72 254.69 526.11 252.4 530.97 248.54 538.55 253.2 542.29 244.68 549.07 248.62 554.66 248.13 560.98 243.71 564.54 249.99 561.37 253.58 563.18 262.47 554.39 261.43 550.51 265.68 548.15 272.84 543.03 275.88 536.2 275.43 530.8 277.56"/><circle class="cls-5" cx="646.4" cy="178.43" r="13.87"/><circle class="cls-5" cx="665.17" cy="224.74" r="12.75" transform="translate(-35.68 266.79) rotate(-22.1)"/><path class="cls-5" d="M664.1,188.21a12.73,12.73,0,0,0-20.3-4.71c-.08-.23-.16-.47-.25-.71a12.79,12.79,0,1,0-3.33,14.3c.08.24.15.48.25.71a12.75,12.75,0,1,0,23.63-9.59Z"/><circle class="cls-5" cx="646.4" cy="208.4" r="14.13"/><circle class="cls-5" cx="665.17" cy="224.74" r="12.75" transform="translate(-35.68 266.79) rotate(-22.1)"/><path class="cls-5" d="M664.1,188.21a12.73,12.73,0,0,0-20.3-4.71c-.08-.23-.16-.47-.25-.71a12.79,12.79,0,1,0-3.33,14.3c.08.24.15.48.25.71a12.75,12.75,0,1,0,23.63-9.59Z"/><circle class="cls-5" cx="644.43" cy="208.4" r="14.13"/><circle class="cls-5" cx="665.04" cy="203.14" r="14.13"/><path class="cls-5" d="M631.3,203.12q-4,1.84-8.15,3.59a252.46,252.46,0,0,1-74,18.65"/><path class="cls-5" d="M636.34,219.35a106.47,106.47,0,0,0-16,4c-7.27,2.41-12.78,5.09-20.76,8.95-6,2.91-9,4.38-12.84,6.59a131.33,131.33,0,0,0-22.24,16.35"/><circle class="cls-5" cx="686.29" cy="322.68" r="12.68"/><circle class="cls-5" cx="668.7" cy="324.11" r="12.75" transform="translate(338.5 989.82) rotate(-89.48)"/><path class="cls-5" d="M655.63,358.24a12.71,12.71,0,0,0,16.93,12.15c0,.25,0,.5,0,.75a12.8,12.8,0,1,0,8.57-11.91c0-.25,0-.5,0-.76a12.75,12.75,0,0,0-25.5-.23Z"/><circle class="cls-5" cx="687.74" cy="346.66" r="14.13"/><circle class="cls-5" cx="673.61" cy="339.17" r="12.68"/><path class="cls-5" d="M662,335.72q-5.09.51-10.3.87a296.12,296.12,0,0,1-88.61-7.36"/><path class="cls-5" d="M656.73,354.5a123.88,123.88,0,0,0-18.86-1.3c-8.75.07-15.71,1-25.75,2.43-7.57,1.05-11.38,1.58-16.33,2.64a151,151,0,0,0-30,10"/><polygon class="cls-6" points="535.3 336.37 529.22 330.32 523.5 335.65 517.76 333.06 512.08 332.06 505.86 334.2 501.7 327.41 497.4 325.21 491.62 324.43 495.86 321.13 498.23 313.71 504.67 313.54 510.83 313.95 515.94 310.16 521.61 308.4 527.51 308.11 533.36 307.38 539.23 306.97 545.12 307.32 550.97 308.05 556.23 313.65 562.13 312.19 569.12 308.64 573.53 314.08 579.84 318.51 575.36 325.22 567.32 322.84 563.38 327.87 557.31 327.3 553.12 335.19 547.09 335.31 541.17 335.65 535.3 336.37"/><polygon class="cls-4" points="535.3 336.37 529.22 330.32 523.5 335.65 517.76 333.06 512.08 332.06 505.86 334.2 501.7 327.41 497.4 325.21 491.62 324.43 495.86 321.13 498.23 313.71 504.67 313.54 510.83 313.95 515.94 310.16 521.61 308.4 527.51 308.11 533.36 307.38 539.23 306.97 545.12 307.32 550.97 308.05 556.23 313.65 562.13 312.19 569.12 308.64 573.53 314.08 579.84 318.51 575.36 325.22 567.32 322.84 563.38 327.87 557.31 327.3 553.12 335.19 547.09 335.31 541.17 335.65 535.3 336.37"/></g><path class="cls-1" d="M627.74,475.74q-4.62-2.48-9.26-5.16A307.6,307.6,0,0,1,547,413.31"/><path class="cls-1" d="M615.77,489.44a128.53,128.53,0,0,0-15.95-11.84c-7.79-4.92-14.53-8-24.25-12.51-7.33-3.38-11-5.08-16-7A161.76,161.76,0,0,0,527,449.78"/><circle class="cls-1" cx="625.36" cy="479.44" r="14.13"/><circle class="cls-1" cx="625.36" cy="479.44" r="14.13"/><circle class="cls-1" cx="639.48" cy="463.01" r="12.75" transform="translate(-119.95 678.84) rotate(-51.77)"/><path class="cls-1" d="M608.27,482a12.75,12.75,0,0,0,2.13,17.9,12.4,12.4,0,0,0,3.83,2.06c-.16.19-.33.37-.49.57a12.75,12.75,0,1,0,17.9-2.12,12.4,12.4,0,0,0-3.83-2.06c.16-.19.34-.37.49-.57a12.75,12.75,0,1,0-20-15.78Z"/><circle class="cls-1" cx="625.36" cy="479.44" r="14.13"/><circle class="cls-1" cx="634.58" cy="487.41" r="14.13"/><g id="HiddenGap"><polygon class="cls-6" points="541.57 362.38 535.77 356.02 529.98 357.48 523.8 360.87 518.92 354.02 513.71 351.94 507.65 353 502.99 350.29 502.79 347.21 501.15 341.71 507.03 340.17 511.96 336.37 518.89 340.8 523.37 332.75 529.34 332.73 535.19 331.52 541.16 334.49 546.92 336.28 552.85 333.43 558.82 332.88 564.78 333.24 569.9 337.6 574.38 342.05 582.42 339 584.79 346.03 583.06 353.74 576.9 356.26 570.99 357.92 565.33 360.21 558.63 355.84 553.14 358.54 547.39 359.92 541.57 362.38"/><polygon class="cls-3" points="541.57 362.38 535.77 356.02 529.98 357.48 523.8 360.87 518.92 354.02 513.71 351.94 507.65 353 502.99 350.29 502.79 347.21 501.15 341.71 507.03 340.17 511.96 336.37 518.89 340.8 523.37 332.75 529.34 332.73 535.19 331.52 541.16 334.49 546.92 336.28 552.85 333.43 558.82 332.88 564.78 333.24 569.9 337.6 574.38 342.05 582.42 339 584.79 346.03 583.06 353.74 576.9 356.26 570.99 357.92 565.33 360.21 558.63 355.84 553.14 358.54 547.39 359.92 541.57 362.38"/></g><g id="Camera"><rect x="760.38" y="266.08" width="49.71" height="30.29" rx="5.25" transform="translate(-29.99 104.9) rotate(-7.5)"/><polygon points="740.87 298.09 738.22 277.25 758.53 280.06 759.8 289.7 740.87 298.09"/><circle class="cls-7" cx="770.7" cy="256.63" r="7.29"/><circle class="cls-7" cx="793.04" cy="253.69" r="7.29"/></g></g><g id="Camera_Snap_Artboard_Layer" data-name="Camera Snap Artboard/Layer"><line class="cls-8" x1="330.38" y1="341.68" x2="700.73" y2="342.29"/><path class="cls-9" d="M718.84,342.32c-8.53,3.15-19.11,8.52-25.67,14.22l5.19-14.25L693.22,328C699.76,333.74,710.32,339.15,718.84,342.32Z"/><line class="cls-10" x1="330.26" y1="341.66" x2="688.15" y2="246.4"/><path class="cls-11" d="M705.64,241.74c-7.42,5.25-16.24,13.18-21.1,20.39L685.85,247l-8.65-12.45C685,238.39,696.6,240.88,705.64,241.74Z"/><line class="cls-10" x1="330.62" y1="341.06" x2="651.66" y2="156.42"/><path class="cls-11" d="M667.36,147.39c-5.81,7-12.29,16.94-15.12,25.16l-2.64-14.94L638,147.81C646.54,149.5,658.4,148.9,667.36,147.39Z"/><line class="cls-8" x1="331" y1="341.2" x2="336.95" y2="340.42"/><line class="cls-12" x1="349.2" y1="338.83" x2="686.18" y2="295.03"/><line class="cls-8" x1="692.31" y1="294.24" x2="698.26" y2="293.46"/><path class="cls-9" d="M716.21,291.13c-8,4.23-17.83,10.94-23.59,17.45l3.28-14.81-7-13.48C696.18,285.11,707.35,289.1,716.21,291.13Z"/><path class="cls-8" d="M620.11,342.94c0-22.35-1.69-40.43-3.78-40.43"/></g></svg>