<svg xmlns="http://www.w3.org/2000/svg" viewBox="0 0 822.05 680.31"><defs><style>.cls-1,.cls-2,.cls-4,.cls-7{fill:#fff;}.cls-1,.cls-3{stroke:#878787;}.cls-1,.cls-3,.cls-4,.cls-5,.cls-6,.cls-7{stroke-miterlimit:10;}.cls-1,.cls-3,.cls-4,.cls-5,.cls-6{stroke-width:3px;}.cls-3,.cls-5,.cls-6{fill:none;}.cls-4{stroke:#84c1eb;}.cls-5{stroke:#7fb184;}.cls-6{stroke:#f3a540;}.cls-7{stroke:#1d1d1b;stroke-width:4px;}</style></defs><title>Visible Parts</title><g id="Visible_Parts_Artboard_Layer" data-name="Visible Parts Artboard/Layer"><path class="cls-1" d="M130.54,550.42q3.63-3.78,7.47-7.52a307.21,307.21,0,0,1,74.45-53.41"/><path class="cls-1" d="M117.47,538.29A133.25,133.25,0,0,0,134,525.63c7.18-6.43,12.22-12.31,19.51-20.8,5.49-6.4,8.25-9.61,11.58-14.11a168.09,168.09,0,0,0,17.65-30.26"/><circle class="cls-1" cx="129.94" cy="565.86" r="12.75" transform="translate(-371.39 273.03) rotate(-46.78)"/><path class="cls-1" d="M113.71,533.11a12.73,12.73,0,0,0-20.41,4.2c-.17-.18-.33-.37-.52-.54a12.77,12.77,0,1,0,3,14.38c.17.18.33.37.52.55a12.75,12.75,0,0,0,17.46-18.59Z"/><circle class="cls-1" cx="96.35" cy="571.12" r="14.13"/><circle class="cls-1" cx="119.06" cy="557.18" r="13.87"/><circle class="cls-1" cx="93.86" cy="555.24" r="12.68"/><circle class="cls-1" cx="119.06" cy="557.18" r="13.87"/><circle class="cls-1" cx="93.86" cy="555.24" r="12.68"/><path class="cls-1" d="M253,613q2.13-4.8,4.45-9.62a307.45,307.45,0,0,1,51.69-75.66"/><path class="cls-1" d="M236.54,606a134.74,134.74,0,0,0,11.16-17.53c4.54-8.51,7.27-15.75,11.22-26.23,3-7.89,4.47-11.85,6.05-17.22a168,168,0,0,0,6.24-34.46"/><circle class="cls-1" cx="212.69" cy="637.8" r="12.75" transform="translate(-429.89 835.59) rotate(-88.67)"/><path class="cls-1" d="M246.63,651.34A12.71,12.71,0,0,0,259,634.59l.75.06A12.81,12.81,0,1,0,248,625.91l-.75-.06a12.75,12.75,0,1,0-.6,25.49Z"/><circle class="cls-1" cx="235.14" cy="627.08" r="14.13"/><circle class="cls-1" cx="212.69" cy="637.8" r="12.75" transform="translate(-429.89 835.59) rotate(-88.67)"/><path class="cls-1" d="M246.63,651.34A12.71,12.71,0,0,0,259,634.59l.75.06A12.81,12.81,0,1,0,248,625.91l-.75-.06a12.75,12.75,0,1,0-.6,25.49Z"/><circle class="cls-1" cx="235.14" cy="627.08" r="14.13"/><circle class="cls-1" cx="225.41" cy="614.01" r="14.13"/><path class="cls-1" d="M408.35,641.24q-1.14-5.12-2.13-10.38a307.12,307.12,0,0,1-3.28-91.57"/><path class="cls-1" d="M391,645.4a140.85,140.85,0,0,0-1.34-21.46c-1.38-9.87-3.5-17.57-6.57-28.71-2.31-8.38-3.47-12.6-5.4-18A171.93,171.93,0,0,0,362,544.74"/><circle class="cls-1" cx="433.23" cy="642.31" r="12.75" transform="translate(-332.74 758.67) rotate(-64.64)"/><path class="cls-1" d="M407.74,616.12a12.73,12.73,0,0,0-18.14,10.26c-.22-.12-.43-.25-.66-.36a12.81,12.81,0,1,0,7.21,12.78c.22.12.44.25.67.36a12.75,12.75,0,0,0,10.92-23Z"/><circle class="cls-1" cx="402.87" cy="657.62" r="14.13"/><circle class="cls-1" cx="420.21" cy="637.38" r="13.87"/><circle class="cls-1" cx="395.63" cy="643.27" r="12.68"/><circle class="cls-1" cx="420.21" cy="637.38" r="13.87"/><circle class="cls-1" cx="395.63" cy="643.27" r="12.68"/><path class="cls-1" d="M52.36,440.61q4.48-2.72,9.17-5.32a307.23,307.23,0,0,1,85.79-32.18"/><path class="cls-1" d="M46.7,423.31A129.55,129.55,0,0,0,65,415.67c8.21-4.19,14.32-8.39,23.15-14.46,6.65-4.56,10-6.86,14.18-10.21a161.73,161.73,0,0,0,23.8-23.67"/><circle class="cls-1" cx="39.66" cy="435.11" r="14.13"/><circle class="cls-1" cx="28.24" cy="415.94" r="12.75" transform="translate(-62.59 9.06) rotate(-8.7)"/><path class="cls-1" d="M20.82,451.72A12.7,12.7,0,0,0,39.47,461c0,.25,0,.5.08.75a12.81,12.81,0,1,0,6.55-13.13c0-.25,0-.5-.08-.76a12.75,12.75,0,1,0-25.2,3.86Z"/><circle class="cls-1" cx="17.18" cy="437.25" r="14.13"/><path class="cls-1" d="M42.68,302.51c3.39.36,6.8.79,10.25,1.28a295.66,295.66,0,0,1,85.17,25.57"/><path class="cls-1" d="M48.85,285.39A129.19,129.19,0,0,0,68,290.62c9,1.74,16.45,2.18,27.14,2.82,8.06.48,12.11.72,17.46.65A161.94,161.94,0,0,0,146,290"/><circle class="cls-1" cx="21.29" cy="282.63" r="12.68"/><circle class="cls-1" cx="43.33" cy="282.43" r="12.68"/><circle class="cls-1" cx="45.77" cy="304.08" r="12.68"/><circle class="cls-1" cx="25.08" cy="297.24" r="12.68"/><circle class="cls-1" cx="31.62" cy="317.84" r="12.68"/><path class="cls-1" d="M536.15,578.64q-3.35-4-6.62-8.28A307.4,307.4,0,0,1,485,490.3"/><path class="cls-1" d="M519.89,586.8a128.88,128.88,0,0,0-10.28-17c-5.36-7.49-10.42-12.91-17.73-20.75-5.5-5.89-8.27-8.86-12.2-12.5a161.73,161.73,0,0,0-26.95-20"/><circle class="cls-1" cx="543.56" cy="596.03" r="14.13"/><circle class="cls-1" cx="515.34" cy="605.52" r="12.75" transform="translate(-279.54 625.55) rotate(-51.04)"/><path class="cls-1" d="M546.79,586.9a12.73,12.73,0,0,0-5.7-20c.16-.18.34-.36.5-.56a12.75,12.75,0,1,0-17.93,1.9,12.56,12.56,0,0,0,3.81,2.11c-.17.18-.35.36-.51.56a12.75,12.75,0,1,0,19.83,16Z"/><circle class="cls-1" cx="529.43" cy="581.9" r="14.13"/><circle class="cls-1" cx="510.57" cy="586.8" r="14.13"/><path class="cls-1" d="M529.17,103.23q-3.72,3.51-7.64,7a296.21,296.21,0,0,1-74.8,48.07"/><path class="cls-1" d="M539.27,116.94a132.37,132.37,0,0,0-16.7,11.5c-7.32,5.92-12.56,11.41-20.12,19.35-5.69,6-8.56,9-12,13.22a166.6,166.6,0,0,0-18.9,28.79"/><circle class="cls-1" cx="526.45" cy="82.14" r="12.75" transform="translate(80.1 373.12) rotate(-41.97)"/><path class="cls-1" d="M539.87,116.13a12.76,12.76,0,0,0,18,1,12.51,12.51,0,0,0,2.68-3.43c.16.2.31.4.48.59a12.8,12.8,0,1,0-1.73-14.58c-.16-.2-.31-.4-.48-.59a12.75,12.75,0,0,0-19,17.06Z"/><circle class="cls-1" cx="560.37" cy="79.71" r="14.13"/><circle class="cls-1" cx="536.56" cy="91.7" r="13.87"/><circle class="cls-1" cx="561.51" cy="95.74" r="12.68"/><circle class="cls-1" cx="536.56" cy="91.7" r="13.87"/><circle class="cls-1" cx="561.51" cy="95.74" r="12.68"/><path class="cls-1" d="M410.8,38.26c-.41,3.38-.87,6.79-1.4,10.23a296.17,296.17,0,0,1-26.57,84.87"/><path class="cls-1" d="M427.84,44.63a130.39,130.39,0,0,0-5.46,19.1c-1.84,9-2.37,16.43-3.13,27.12-.57,8-.86,12.09-.85,17.45a161.74,161.74,0,0,0,3.66,33.37"/><circle class="cls-1" cx="440.53" cy="44.38" r="12.75" transform="translate(103.43 331.43) rotate(-46.17)"/><path class="cls-1" d="M424.65,11.46a12.71,12.71,0,0,0-20.45,4c-.17-.19-.34-.38-.52-.55a12.75,12.75,0,1,0,.37,18,12.57,12.57,0,0,0,2.42-3.61c.17.18.34.37.52.55a12.75,12.75,0,0,0,17.66-18.4Z"/><circle class="cls-1" cx="429.67" cy="32.39" r="13.87"/><circle class="cls-1" cx="404.79" cy="36.84" r="12.68"/><circle class="cls-1" cx="429.67" cy="32.39" r="13.87"/><circle class="cls-1" cx="404.79" cy="36.84" r="12.68"/><polygon class="cls-2" points="325.07 156.14 324.21 161.91 322.95 167.58 330.57 173.75 322.71 178.84 324.93 184.96 323.91 190.71 321.56 196.11 316.67 196.88 309.72 198.24 310.61 190.74 304.38 186.87 304.81 180.58 308.04 174.04 302.38 169.15 306.64 162.86 301.87 157.48 298.13 151.73 305.96 145.94 302.42 140.06 301.14 134.06 306.35 129.07 306.27 123.28 310.29 119.35 311.85 113.11 315.82 117.78 323.02 120.55 319.73 128.15 321.25 133.59 325.65 138.55 325.71 144.46 328.85 150 325.07 156.14"/><polygon class="cls-3" points="325.07 156.14 324.21 161.91 322.95 167.58 330.57 173.75 322.71 178.84 324.93 184.96 323.91 190.71 321.56 196.11 316.67 196.88 309.72 198.24 310.61 190.74 304.38 186.87 304.81 180.58 308.04 174.04 302.38 169.15 306.64 162.86 301.87 157.48 298.13 151.73 305.96 145.94 302.42 140.06 301.14 134.06 306.35 129.07 306.27 123.28 310.29 119.35 311.85 113.11 315.82 117.78 323.02 120.55 319.73 128.15 321.25 133.59 325.65 138.55 325.71 144.46 328.85 150 325.07 156.14"/><polygon class="cls-2" points="299.87 158.74 301.4 164.48 297.6 170.59 303.91 176.25 299.67 182.09 303.2 188.35 300.67 194.17 294.01 197.86 292.62 205.84 286.81 200.67 282.49 196.33 283.26 189.54 276.17 185.93 274.18 180.26 278.85 173.12 272.93 168.38 270.67 162.73 271.25 156.69 270.51 150.82 273.54 144.86 270.5 138.94 271.13 132.97 274.54 127.54 273.37 120.47 280.37 116.2 286.27 120.28 285.57 127.48 293.45 130.01 294.93 135.8 297.35 141.25 298.33 147.08 296.92 153.31 299.87 158.74"/><polygon class="cls-3" points="299.87 158.74 301.4 164.48 297.6 170.59 303.91 176.25 299.67 182.09 303.2 188.35 300.67 194.17 294.01 197.86 292.62 205.84 286.81 200.67 282.49 196.33 283.26 189.54 276.17 185.93 274.18 180.26 278.85 173.12 272.93 168.38 270.67 162.73 271.25 156.69 270.51 150.82 273.54 144.86 270.5 138.94 271.13 132.97 274.54 127.54 273.37 120.47 280.37 116.2 286.27 120.28 285.57 127.48 293.45 130.01 294.93 135.8 297.35 141.25 298.33 147.08 296.92 153.31 299.87 158.74"/><polygon class="cls-2" points="275.37 163.43 270.23 170.64 273.26 175.89 271.19 181.97 276.27 187.22 274.85 193.07 277.96 199.18 275.12 204.91 269.64 205.74 266.43 205.33 261.05 202.68 255.14 199.3 255.8 192.31 254.67 186.53 247.6 182.91 247.48 176.71 250.49 169.85 244.03 165.41 246.92 158.91 247.06 153.11 246.65 147.46 245.45 141.84 247.22 136.4 243 129.47 248.39 123.37 253.73 128.84 259.21 131.71 262.02 136.93 261.57 143.6 263.4 148.96 267.27 153.62 273.69 157.71 275.37 163.43"/><polygon class="cls-3" points="275.37 163.43 270.23 170.64 273.26 175.89 271.19 181.97 276.27 187.22 274.85 193.07 277.96 199.18 275.12 204.91 269.64 205.74 266.43 205.33 261.05 202.68 255.14 199.3 255.8 192.31 254.67 186.53 247.6 182.91 247.48 176.71 250.49 169.85 244.03 165.41 246.92 158.91 247.06 153.11 246.65 147.46 245.45 141.84 247.22 136.4 243 129.47 248.39 123.37 253.73 128.84 259.21 131.71 262.02 136.93 261.57 143.6 263.4 148.96 267.27 153.62 273.69 157.71 275.37 163.43"/><polygon class="cls-2" points="243.84 174.07 246.63 179.16 248.79 184.53 249.78 190.27 248.95 196.34 257.23 200.67 254.72 206.99 252.42 212.52 251.93 220.12 246.33 214.8 243.56 210.1 234.02 210.77 236.48 201.79 230 199.12 227.85 193.66 226.63 187.81 221.58 183.75 221.06 177.67 217.18 172.89 215.33 167.32 215.3 161.29 217.83 155.04 216.56 149.73 212.06 143.7 216.63 138.9 223.9 137.81 227.3 143.56 228.67 149.96 231.26 154.99 238.47 157.23 239.72 163.23 244.45 167.38 243.84 174.07"/><polygon class="cls-3" points="243.84 174.07 246.63 179.16 248.79 184.53 249.78 190.27 248.95 196.34 257.23 200.67 254.72 206.99 252.42 212.52 251.93 220.12 246.33 214.8 243.56 210.1 234.02 210.77 236.48 201.79 230 199.12 227.85 193.66 226.63 187.81 221.58 183.75 221.06 177.67 217.18 172.89 215.33 167.32 215.3 161.29 217.83 155.04 216.56 149.73 212.06 143.7 216.63 138.9 223.9 137.81 227.3 143.56 228.67 149.96 231.26 154.99 238.47 157.23 239.72 163.23 244.45 167.38 243.84 174.07"/><polygon class="cls-2" points="218 187.46 224.63 189.63 229.03 193.74 230 200.17 231.77 205.86 236.16 210.15 235.31 216.66 240.22 221.52 236.22 226.05 232.13 225.07 224.71 227.75 222.76 219.99 217.41 217.63 210.77 216.32 208.69 210.11 203.38 207.1 202.58 200.16 198.44 196.15 192.82 193.09 191.48 187.03 188.59 182.09 187.68 176.24 182.59 172.22 180.37 166.66 180.91 158.92 188.5 160.28 193.24 163.84 198.36 166.47 203.52 169.3 206.25 174.91 209.74 179.5 213.78 183.53 218 187.46"/><polygon class="cls-3" points="218 187.46 224.63 189.63 229.03 193.74 230 200.17 231.77 205.86 236.16 210.15 235.31 216.66 240.22 221.52 236.22 226.05 232.13 225.07 224.71 227.75 222.76 219.99 217.41 217.63 210.77 216.32 208.69 210.11 203.38 207.1 202.58 200.16 198.44 196.15 192.82 193.09 191.48 187.03 188.59 182.09 187.68 176.24 182.59 172.22 180.37 166.66 180.91 158.92 188.5 160.28 193.24 163.84 198.36 166.47 203.52 169.3 206.25 174.91 209.74 179.5 213.78 183.53 218 187.46"/><polygon class="cls-2" points="195.82 205.51 201.75 207.64 203.06 214.75 210.47 215.71 209.39 224.36 213.97 227.93 221.11 230.34 220.26 237.22 218.59 241.12 214.84 245.84 208.77 244.51 203.77 241.06 197.57 240.19 195.43 232.5 188.51 232.46 185 227.45 178.8 225.88 177.01 219.1 170.66 217.42 169.61 210.43 165.65 206.41 161.75 202.34 156.92 198.7 154.35 193.52 155.21 188.16 160.14 188.68 165.13 190.22 172.31 187.87 177.61 190.6 180.69 196.79 186.71 198.21 190.86 202.39 195.82 205.51"/><polygon class="cls-3" points="195.82 205.51 201.75 207.64 203.06 214.75 210.47 215.71 209.39 224.36 213.97 227.93 221.11 230.34 220.26 237.22 218.59 241.12 214.84 245.84 208.77 244.51 203.77 241.06 197.57 240.19 195.43 232.5 188.51 232.46 185 227.45 178.8 225.88 177.01 219.1 170.66 217.42 169.61 210.43 165.65 206.41 161.75 202.34 156.92 198.7 154.35 193.52 155.21 188.16 160.14 188.68 165.13 190.22 172.31 187.87 177.61 190.6 180.69 196.79 186.71 198.21 190.86 202.39 195.82 205.51"/><polygon class="cls-2" points="183.79 230.47 188.58 233.84 192.09 239.01 196.89 242.16 201.25 245.85 204.91 250.23 208.86 254.14 215.94 256.6 213.8 263.05 208.93 264.18 203.12 266.38 198.44 261.07 192.88 260.1 185.37 263.36 182.43 255.66 175.54 256.5 172.38 250.24 166.34 249.12 160.16 247.89 157.32 241.88 153.54 237.48 150.04 233.01 144.55 230.47 141.43 225.83 137.33 218.9 145.2 216.81 151.24 217.57 156.46 220.86 163.2 218.92 166.75 225.86 172.65 226.7 176.97 230.89 183.79 230.47"/><polygon class="cls-3" points="183.79 230.47 188.58 233.84 192.09 239.01 196.89 242.16 201.25 245.85 204.91 250.23 208.86 254.14 215.94 256.6 213.8 263.05 208.93 264.18 203.12 266.38 198.44 261.07 192.88 260.1 185.37 263.36 182.43 255.66 175.54 256.5 172.38 250.24 166.34 249.12 160.16 247.89 157.32 241.88 153.54 237.48 150.04 233.01 144.55 230.47 141.43 225.83 137.33 218.9 145.2 216.81 151.24 217.57 156.46 220.86 163.2 218.92 166.75 225.86 172.65 226.7 176.97 230.89 183.79 230.47"/><polygon class="cls-2" points="173.35 259.76 181.4 256.68 184.88 262.51 191.31 263.25 194.39 269.15 201.01 270.25 204.31 275.53 207.77 280.48 209.11 287.05 202.62 286.98 197.3 288.23 190.82 291.97 185.55 288.28 179.06 289.28 175.65 281.43 170.55 278.86 164.65 277.99 158.65 277.01 152.73 275.61 149.75 269.32 141.9 270.4 141 262.06 133.85 261.21 132.9 254.61 129.32 248.98 135.83 247.47 141.45 247.78 147.26 247.64 153.13 248.13 159.68 246.92 162.68 255.83 169.56 254.15 173.35 259.76"/><polygon class="cls-3" points="173.35 259.76 181.4 256.68 184.88 262.51 191.31 263.25 194.39 269.15 201.01 270.25 204.31 275.53 207.77 280.48 209.11 287.05 202.62 286.98 197.3 288.23 190.82 291.97 185.55 288.28 179.06 289.28 175.65 281.43 170.55 278.86 164.65 277.99 158.65 277.01 152.73 275.61 149.75 269.32 141.9 270.4 141 262.06 133.85 261.21 132.9 254.61 129.32 248.98 135.83 247.47 141.45 247.78 147.26 247.64 153.13 248.13 159.68 246.92 162.68 255.83 169.56 254.15 173.35 259.76"/><polygon class="cls-2" points="156.59 284.47 162.64 283.36 167.88 286.17 173.93 285.87 180 286.11 184.42 290.63 192.13 288.75 193.84 296.52 198.87 301.03 191.97 302.23 187.33 305.03 182.2 311.16 176.07 307.75 170.28 307.22 164.84 302.97 159.09 303.49 152.66 307.21 147.57 302.91 142.45 299.79 136.14 301.08 130.16 300.58 124.23 299.43 121.08 292.95 115.83 290.8 113.52 286.28 115.24 278.58 122.53 280.79 128.33 281.11 133.97 276.05 139.86 278.32 145.46 281.43 151.06 282.9 156.59 284.47"/><polygon class="cls-3" points="156.59 284.47 162.64 283.36 167.88 286.17 173.93 285.87 180 286.11 184.42 290.63 192.13 288.75 193.84 296.52 198.87 301.03 191.97 302.23 187.33 305.03 182.2 311.16 176.07 307.75 170.28 307.22 164.84 302.97 159.09 303.49 152.66 307.21 147.57 302.91 142.45 299.79 136.14 301.08 130.16 300.58 124.23 299.43 121.08 292.95 115.83 290.8 113.52 286.28 115.24 278.58 122.53 280.79 128.33 281.11 133.97 276.05 139.86 278.32 145.46 281.43 151.06 282.9 156.59 284.47"/><polygon class="cls-2" points="147.66 315.29 153.53 311.43 159.14 314.78 164.99 314.18 171.48 310.86 176.54 315.56 180.68 321.01 187.99 319.1 193.36 324.92 185.73 327.52 182.53 333.6 176.48 334.05 170.14 331.69 165 335.71 159.03 333.62 153.4 334.99 147.66 333.41 141.78 339.02 135.88 338.88 129.86 339.39 124.99 332.81 118.39 335.8 112.78 333.64 106.86 331.43 107.69 324.92 109.76 322.53 112.84 316.33 119 316.34 124.53 314.55 129.97 311.35 136.31 316.3 141.84 312.27 147.66 315.29"/><polygon class="cls-3" points="147.66 315.29 153.53 311.43 159.14 314.78 164.99 314.18 171.48 310.86 176.54 315.56 180.68 321.01 187.99 319.1 193.36 324.92 185.73 327.52 182.53 333.6 176.48 334.05 170.14 331.69 165 335.71 159.03 333.62 153.4 334.99 147.66 333.41 141.78 339.02 135.88 338.88 129.86 339.39 124.99 332.81 118.39 335.8 112.78 333.64 106.86 331.43 107.69 324.92 109.76 322.53 112.84 316.33 119 316.34 124.53 314.55 129.97 311.35 136.31 316.3 141.84 312.27 147.66 315.29"/><polygon class="cls-2" points="148.79 345.36 154.39 341.04 160.22 344.27 166.18 340.82 171.65 345 176.91 347.77 182.01 349.55 187.42 349.84 194.48 352.23 189.7 357.9 182.95 357.56 178.67 361.98 173.01 363.17 168 367.5 161.45 363.7 156.5 371.03 150.34 368.51 144.39 364.78 138.67 367.62 132.99 365.37 126.8 369.41 120.74 369.26 116.87 361.04 110.19 362.8 107.29 358.07 111.44 355.35 115.03 350.95 118.91 344.51 126.55 349.86 130.75 342.16 137.04 343.96 143.18 346.7 148.79 345.36"/><polygon class="cls-3" points="148.79 345.36 154.39 341.04 160.22 344.27 166.18 340.82 171.65 345 176.91 347.77 182.01 349.55 187.42 349.84 194.48 352.23 189.7 357.9 182.95 357.56 178.67 361.98 173.01 363.17 168 367.5 161.45 363.7 156.5 371.03 150.34 368.51 144.39 364.78 138.67 367.62 132.99 365.37 126.8 369.41 120.74 369.26 116.87 361.04 110.19 362.8 107.29 358.07 111.44 355.35 115.03 350.95 118.91 344.51 126.55 349.86 130.75 342.16 137.04 343.96 143.18 346.7 148.79 345.36"/><polygon class="cls-2" points="154.04 371.55 159.64 368.97 165.68 371.34 171.45 368.47 177.32 369.85 182.99 371.87 187.85 376.18 195.29 372.17 199.01 378.21 197.83 385.89 189.4 384.25 184.57 386.92 180.09 391.27 173.49 389.13 167.94 390.07 163.72 398.54 156.86 392.23 151.39 394.35 145.92 398.56 140.06 398.89 134.35 395.14 128.21 398.99 122.84 395.52 115.69 397.11 116.5 389.49 116.51 385.42 119.59 379.44 126.02 379.08 132.19 379.31 137.82 378.4 142.18 371.85 148.42 373.23 154.04 371.55"/><polygon class="cls-3" points="154.04 371.55 159.64 368.97 165.68 371.34 171.45 368.47 177.32 369.85 182.99 371.87 187.85 376.18 195.29 372.17 199.01 378.21 197.83 385.89 189.4 384.25 184.57 386.92 180.09 391.27 173.49 389.13 167.94 390.07 163.72 398.54 156.86 392.23 151.39 394.35 145.92 398.56 140.06 398.89 134.35 395.14 128.21 398.99 122.84 395.52 115.69 397.11 116.5 389.49 116.51 385.42 119.59 379.44 126.02 379.08 132.19 379.31 137.82 378.4 142.18 371.85 148.42 373.23 154.04 371.55"/><polygon class="cls-2" points="160.78 396.17 167.29 399 172.89 397.19 178.75 397.45 184.49 395.7 190.44 394.31 196.03 397.78 203.25 395.23 208.59 402.14 206.45 410.6 200.41 413.6 194.85 416.07 188.2 415.49 183.8 420.26 177.75 420.51 172.31 422.66 166.14 421.65 161.17 426.67 154.82 423.47 149.51 428.72 143.47 425.33 137.62 427.71 132.33 423.15 127.68 420.95 121.86 420.36 124 414.7 128.81 411.28 134.87 410.38 139.72 407.32 144.47 403.51 150.97 404.92 156.56 403.75 160.78 396.17"/><polygon class="cls-3" points="160.78 396.17 167.29 399 172.89 397.19 178.75 397.45 184.49 395.7 190.44 394.31 196.03 397.78 203.25 395.23 208.59 402.14 206.45 410.6 200.41 413.6 194.85 416.07 188.2 415.49 183.8 420.26 177.75 420.51 172.31 422.66 166.14 421.65 161.17 426.67 154.82 423.47 149.51 428.72 143.47 425.33 137.62 427.71 132.33 423.15 127.68 420.95 121.86 420.36 124 414.7 128.81 411.28 134.87 410.38 139.72 407.32 144.47 403.51 150.97 404.92 156.56 403.75 160.78 396.17"/><polygon class="cls-2" points="167.78 426.94 173.11 424.64 179.42 425.52 184.63 422.96 190.59 423.8 195.91 421.68 201.42 416.27 207.4 418.5 210.99 422.86 213.24 429.86 207.91 433.74 201.9 435.67 198.05 440.44 193.57 444.53 187.99 446.63 182.21 448.11 177.35 451.77 169.69 447.62 164.35 449.48 160.66 458.09 154.81 459.49 148.62 458.87 142.58 458.84 137.17 454.95 133.01 452.9 132.62 447.16 139.94 446.28 139.8 436.9 145.15 434.03 153.64 437.18 157.54 432.33 161.33 426.59 167.78 426.94"/><polygon class="cls-3" points="167.78 426.94 173.11 424.64 179.42 425.52 184.63 422.96 190.59 423.8 195.91 421.68 201.42 416.27 207.4 418.5 210.99 422.86 213.24 429.86 207.91 433.74 201.9 435.67 198.05 440.44 193.57 444.53 187.99 446.63 182.21 448.11 177.35 451.77 169.69 447.62 164.35 449.48 160.66 458.09 154.81 459.49 148.62 458.87 142.58 458.84 137.17 454.95 133.01 452.9 132.62 447.16 139.94 446.28 139.8 436.9 145.15 434.03 153.64 437.18 157.54 432.33 161.33 426.59 167.78 426.94"/><polygon class="cls-2" points="180.58 450.96 187.98 451.88 191.65 446.8 197.13 444.88 201.99 441.7 207.4 439.78 212.23 435.19 218.45 436.83 224.05 438.56 221.13 443.48 220.02 449.01 216.6 453.61 212.07 457.21 208.8 462.21 202.45 463.51 200.65 470.78 194.8 472.61 189.55 475.16 184.04 477.14 180.54 483.06 174.68 484.39 169.93 488.69 163.53 488.25 157.44 490.48 150.65 486.75 149.96 479.04 156.35 475.73 157.38 469.05 165.19 468.6 165.05 459.78 170.13 456.59 178.5 458.12 180.58 450.96"/><polygon class="cls-3" points="180.58 450.96 187.98 451.88 191.65 446.8 197.13 444.88 201.99 441.7 207.4 439.78 212.23 435.19 218.45 436.83 224.05 438.56 221.13 443.48 220.02 449.01 216.6 453.61 212.07 457.21 208.8 462.21 202.45 463.51 200.65 470.78 194.8 472.61 189.55 475.16 184.04 477.14 180.54 483.06 174.68 484.39 169.93 488.69 163.53 488.25 157.44 490.48 150.65 486.75 149.96 479.04 156.35 475.73 157.38 469.05 165.19 468.6 165.05 459.78 170.13 456.59 178.5 458.12 180.58 450.96"/><polygon class="cls-2" points="248.07 512.66 251.13 507.59 255.91 503.38 252.09 495.14 260.03 492.76 258.32 484.79 266.25 483.43 269.42 478.8 273.29 479.72 276.52 481.54 280.78 486.89 275.57 492.54 280.62 499 276.25 504.17 278.72 510.81 274.79 515.84 272.58 521.27 271.68 527.2 264.07 530.26 265.97 537.52 265.09 543.78 261.65 548.75 257.11 552.93 249.46 552.88 246.77 555.15 240.19 553.35 244.81 546.8 241.49 541.03 245.87 535.8 241 529 243.75 523.58 246.56 518.29 248.07 512.66"/><polygon class="cls-3" points="248.07 512.66 251.13 507.59 255.91 503.38 252.09 495.14 260.03 492.76 258.32 484.79 266.25 483.43 269.42 478.8 273.29 479.72 276.52 481.54 280.78 486.89 275.57 492.54 280.62 499 276.25 504.17 278.72 510.81 274.79 515.84 272.58 521.27 271.68 527.2 264.07 530.26 265.97 537.52 265.09 543.78 261.65 548.75 257.11 552.93 249.46 552.88 246.77 555.15 240.19 553.35 244.81 546.8 241.49 541.03 245.87 535.8 241 529 243.75 523.58 246.56 518.29 248.07 512.66"/><polygon class="cls-2" points="226.27 496.76 230.25 492.48 231.75 486.24 237.41 483.4 238.81 476.59 246.66 476.47 251.34 473.45 255.78 470.57 259.18 470.94 262.7 474 262.74 479.94 261.81 485.88 260.64 491.85 253.42 494.82 254.85 502.24 246.66 504.03 247.77 511.71 240.18 513.34 241.71 521.92 234.4 523.33 230.28 527.29 229.56 535.18 224.19 538.28 216.95 537.06 211.21 539.9 211.16 533.53 208.33 527.19 211.8 521.99 217.1 517.96 215.38 510.68 218.44 505.63 225.89 503.41 226.27 496.76"/><polygon class="cls-3" points="226.27 496.76 230.25 492.48 231.75 486.24 237.41 483.4 238.81 476.59 246.66 476.47 251.34 473.45 255.78 470.57 259.18 470.94 262.7 474 262.74 479.94 261.81 485.88 260.64 491.85 253.42 494.82 254.85 502.24 246.66 504.03 247.77 511.71 240.18 513.34 241.71 521.92 234.4 523.33 230.28 527.29 229.56 535.18 224.19 538.28 216.95 537.06 211.21 539.9 211.16 533.53 208.33 527.19 211.8 521.99 217.1 517.96 215.38 510.68 218.44 505.63 225.89 503.41 226.27 496.76"/><polygon class="cls-2" points="199.21 478.88 201.11 471.9 207.02 470.06 212.79 468.29 215.91 462.09 222.66 462.45 227.3 458.35 233.15 455.95 237.03 461.13 241.46 465.97 235.34 469.78 235.15 476.55 232.05 481.68 228.69 486.67 222.54 488.88 218.35 492.94 215.58 498.75 208.96 499.84 203.36 501.95 197.89 504.01 196.09 512.4 189.42 512.38 183.17 512.02 178.39 517.22 172.97 513.91 172.35 508.39 174.91 503.21 176.75 497.43 183.47 495.36 184.37 488.45 190.54 486.4 194.76 482.51 199.21 478.88"/><polygon class="cls-3" points="199.21 478.88 201.11 471.9 207.02 470.06 212.79 468.29 215.91 462.09 222.66 462.45 227.3 458.35 233.15 455.95 237.03 461.13 241.46 465.97 235.34 469.78 235.15 476.55 232.05 481.68 228.69 486.67 222.54 488.88 218.35 492.94 215.58 498.75 208.96 499.84 203.36 501.95 197.89 504.01 196.09 512.4 189.42 512.38 183.17 512.02 178.39 517.22 172.97 513.91 172.35 508.39 174.91 503.21 176.75 497.43 183.47 495.36 184.37 488.45 190.54 486.4 194.76 482.51 199.21 478.88"/><polygon class="cls-2" points="271.08 526.24 279.4 521.94 278.95 516 276.72 509.35 282.88 505.34 284.27 499.82 288.07 495.61 290.69 491.28 293.27 489.32 300.87 489.29 300.59 496.08 298.89 502.18 297.19 507.9 304.29 513.83 303.89 519.81 296.53 524.85 300.75 531.36 299.68 537.17 300.08 543.36 297.37 548.81 291.96 553.18 290.81 558.97 289.77 565.16 281.29 565.62 279.39 569.64 273.46 567.8 272.19 561.72 274.9 555.53 268.62 549.97 274.69 544.22 273.2 538.36 269.85 532.07 271.08 526.24"/><polygon class="cls-3" points="271.08 526.24 279.4 521.94 278.95 516 276.72 509.35 282.88 505.34 284.27 499.82 288.07 495.61 290.69 491.28 293.27 489.32 300.87 489.29 300.59 496.08 298.89 502.18 297.19 507.9 304.29 513.83 303.89 519.81 296.53 524.85 300.75 531.36 299.68 537.17 300.08 543.36 297.37 548.81 291.96 553.18 290.81 558.97 289.77 565.16 281.29 565.62 279.39 569.64 273.46 567.8 272.19 561.72 274.9 555.53 268.62 549.97 274.69 544.22 273.2 538.36 269.85 532.07 271.08 526.24"/><polygon class="cls-2" points="308.03 527.67 306.97 521.51 309.83 516.35 311.26 510.8 308.14 503.25 313.49 499.15 314.59 492.79 323.09 492.48 326.22 487.62 330.11 492.07 331.34 497.75 329.02 503.63 335.27 509.46 335.57 515.5 327.54 520.42 330.32 526.7 324.86 531.45 329.38 538.5 327.89 544.21 320.59 547.85 323.16 555.05 321.65 560.92 314 563.14 312.23 568.72 307.56 570.68 302.39 567.64 300.13 561.83 305.05 555.62 301.93 549.95 298.55 543.81 299.71 537.95 300.3 532.02 308.03 527.67"/><polygon class="cls-3" points="308.03 527.67 306.97 521.51 309.83 516.35 311.26 510.8 308.14 503.25 313.49 499.15 314.59 492.79 323.09 492.48 326.22 487.62 330.11 492.07 331.34 497.75 329.02 503.63 335.27 509.46 335.57 515.5 327.54 520.42 330.32 526.7 324.86 531.45 329.38 538.5 327.89 544.21 320.59 547.85 323.16 555.05 321.65 560.92 314 563.14 312.23 568.72 307.56 570.68 302.39 567.64 300.13 561.83 305.05 555.62 301.93 549.95 298.55 543.81 299.71 537.95 300.3 532.02 308.03 527.67"/><polygon class="cls-2" points="331.69 531.55 332.59 525.7 334.21 519.98 338.81 514.94 339.77 509.29 337.13 502.3 341.19 497.43 344.11 491.96 350.69 486.32 356.56 492.8 353.72 500.18 357.25 505.07 358.42 510.71 361.21 516.37 356.79 522.25 360.25 528.11 354.72 533.51 358.83 539.71 360.52 545.89 357.71 551.38 358.04 557.56 356.73 563.5 353.57 568.86 347.94 572.5 343.28 573.55 340.49 570.79 334.58 567 333.49 561.07 335.37 554.92 338.23 549.03 337.41 543.42 338.42 537.79 331.69 531.55"/><polygon class="cls-3" points="331.69 531.55 332.59 525.7 334.21 519.98 338.81 514.94 339.77 509.29 337.13 502.3 341.19 497.43 344.11 491.96 350.69 486.32 356.56 492.8 353.72 500.18 357.25 505.07 358.42 510.71 361.21 516.37 356.79 522.25 360.25 528.11 354.72 533.51 358.83 539.71 360.52 545.89 357.71 551.38 358.04 557.56 356.73 563.5 353.57 568.86 347.94 572.5 343.28 573.55 340.49 570.79 334.58 567 333.49 561.07 335.37 554.92 338.23 549.03 337.41 543.42 338.42 537.79 331.69 531.55"/><polygon class="cls-2" points="365.84 533.64 367.24 527.79 366.3 522.05 366.27 516.28 368.82 510.77 368.34 504.98 370.74 499.84 367.37 491.8 374.92 489.08 383.11 490.49 382.57 498.21 387.15 502.76 388.89 508.48 388.54 514.6 389.45 520.37 387.08 526.49 389.16 532.07 391.4 537.78 387.82 543.59 386.41 549.2 393.42 555.65 386.6 560.53 387.19 566.52 386.42 572.72 380.92 578.65 373.98 574.05 374.5 566.81 374.31 560.97 370.23 556.31 367.41 551.01 363.18 545.75 369.87 539.04 365.84 533.64"/><polygon class="cls-3" points="365.84 533.64 367.24 527.79 366.3 522.05 366.27 516.28 368.82 510.77 368.34 504.98 370.74 499.84 367.37 491.8 374.92 489.08 383.11 490.49 382.57 498.21 387.15 502.76 388.89 508.48 388.54 514.6 389.45 520.37 387.08 526.49 389.16 532.07 391.4 537.78 387.82 543.59 386.41 549.2 393.42 555.65 386.6 560.53 387.19 566.52 386.42 572.72 380.92 578.65 373.98 574.05 374.5 566.81 374.31 560.97 370.23 556.31 367.41 551.01 363.18 545.75 369.87 539.04 365.84 533.64"/><polygon class="cls-2" points="395.4 531.07 398.79 524.07 393.44 519.41 390.36 513.97 394.49 507.46 388.53 502 393.14 496.08 390.85 489.43 398.03 488.93 404.47 485.07 404.56 493.32 410.23 496.3 415.75 500 417.4 505.84 419.62 511.32 417.56 518.3 419.65 523.65 424.15 528.4 423.24 534.6 423.58 540.39 428.66 545.55 429.89 551.49 430.29 557.7 425.79 563.21 422.25 568.13 415.58 567.29 411.5 562.6 408.6 557.38 403.62 553.36 405.03 546.15 403.09 540.74 395.97 537.13 395.4 531.07"/><polygon class="cls-3" points="395.4 531.07 398.79 524.07 393.44 519.41 390.36 513.97 394.49 507.46 388.53 502 393.14 496.08 390.85 489.43 398.03 488.93 404.47 485.07 404.56 493.32 410.23 496.3 415.75 500 417.4 505.84 419.62 511.32 417.56 518.3 419.65 523.65 424.15 528.4 423.24 534.6 423.58 540.39 428.66 545.55 429.89 551.49 430.29 557.7 425.79 563.21 422.25 568.13 415.58 567.29 411.5 562.6 408.6 557.38 403.62 553.36 405.03 546.15 403.09 540.74 395.97 537.13 395.4 531.07"/><polygon class="cls-2" points="427.24 516.54 423.89 511.88 417.71 508.51 415.73 502.97 414.43 497.22 411.52 491.99 411.94 485.9 411.12 480.16 414.13 475.89 418.96 476.26 424.53 478.23 428.65 482.4 433.85 485.61 435.12 492.08 439.33 496.16 443.76 500.23 443.61 507.09 449.47 510.47 451.92 515.78 455.8 520.5 453.6 527.6 459.59 531.83 456.82 538.4 459.42 543.99 455.01 546.69 449.53 551.16 444.1 547.62 442.15 540.94 438.01 536.92 436.77 530.61 431.62 527.31 426.19 523.92 427.24 516.54"/><polygon class="cls-3" points="427.24 516.54 423.89 511.88 417.71 508.51 415.73 502.97 414.43 497.22 411.52 491.99 411.94 485.9 411.12 480.16 414.13 475.89 418.96 476.26 424.53 478.23 428.65 482.4 433.85 485.61 435.12 492.08 439.33 496.16 443.76 500.23 443.61 507.09 449.47 510.47 451.92 515.78 455.8 520.5 453.6 527.6 459.59 531.83 456.82 538.4 459.42 543.99 455.01 546.69 449.53 551.16 444.1 547.62 442.15 540.94 438.01 536.92 436.77 530.61 431.62 527.31 426.19 523.92 427.24 516.54"/><polygon class="cls-2" points="444.15 500.12 444.09 492.6 440.45 488.2 433.22 486.19 432.46 479.75 426.36 476.34 427.06 469.53 428.6 463.62 425.61 456.96 432.88 456.5 438.1 459.67 441.11 465.63 445.87 468.6 449.93 472.54 456.3 474.1 460.17 478.44 461.72 484.79 469.98 485.43 473.53 490.16 476.67 495.19 480.41 499.86 482.12 505.72 483.7 511.5 484.08 517.41 484.17 524.1 477.71 522.42 472.09 521.27 465.41 520.79 463.13 513.98 455.9 513.47 454.93 505.94 451.37 501.4 444.15 500.12"/><polygon class="cls-3" points="444.15 500.12 444.09 492.6 440.45 488.2 433.22 486.19 432.46 479.75 426.36 476.34 427.06 469.53 428.6 463.62 425.61 456.96 432.88 456.5 438.1 459.67 441.11 465.63 445.87 468.6 449.93 472.54 456.3 474.1 460.17 478.44 461.72 484.79 469.98 485.43 473.53 490.16 476.67 495.19 480.41 499.86 482.12 505.72 483.7 511.5 484.08 517.41 484.17 524.1 477.71 522.42 472.09 521.27 465.41 520.79 463.13 513.98 455.9 513.47 454.93 505.94 451.37 501.4 444.15 500.12"/><polygon class="cls-2" points="471.6 481.88 466.8 478.68 461.82 475.57 457.58 471.63 452.91 467.99 450.95 462.2 444.18 459.49 444.22 452.79 446.62 448.43 450.38 446.65 456.63 445.39 462.55 446.85 467.03 451.07 471.21 455.38 477.78 456.09 481.59 460.82 483.61 467.51 491.91 466.81 495.07 472.04 499.85 475.6 502.17 481.37 503.55 487.52 507.4 491.67 512.5 495.85 508.02 499.73 505.15 503.03 498.82 503.98 494.41 499.19 487.84 499.15 484.52 493.33 479.35 490.67 475.16 486.61 471.6 481.88"/><polygon class="cls-3" points="471.6 481.88 466.8 478.68 461.82 475.57 457.58 471.63 452.91 467.99 450.95 462.2 444.18 459.49 444.22 452.79 446.62 448.43 450.38 446.65 456.63 445.39 462.55 446.85 467.03 451.07 471.21 455.38 477.78 456.09 481.59 460.82 483.61 467.51 491.91 466.81 495.07 472.04 499.85 475.6 502.17 481.37 503.55 487.52 507.4 491.67 512.5 495.85 508.02 499.73 505.15 503.03 498.82 503.98 494.41 499.19 487.84 499.15 484.52 493.33 479.35 490.67 475.16 486.61 471.6 481.88"/><polygon class="cls-2" points="496.67 459.84 493.55 454.4 486.7 453.83 481.02 451.43 478.15 445.94 472.69 442.96 471.45 436.53 469.95 431.18 466.69 425.32 473.32 427.33 478.82 426.03 484.47 427.12 491.3 426.03 496.06 429.84 500.73 433.54 503.91 439.42 508.02 443.53 515.05 443.61 518.11 449.06 525.75 449.15 527.76 455.56 530.37 460.93 536.74 463.36 535.23 470.44 540.41 476.6 532.85 479.57 526.72 477.75 522.03 473.16 517.35 469.7 512.3 467.16 505.84 467 501.82 462.49 496.67 459.84"/><polygon class="cls-3" points="496.67 459.84 493.55 454.4 486.7 453.83 481.02 451.43 478.15 445.94 472.69 442.96 471.45 436.53 469.95 431.18 466.69 425.32 473.32 427.33 478.82 426.03 484.47 427.12 491.3 426.03 496.06 429.84 500.73 433.54 503.91 439.42 508.02 443.53 515.05 443.61 518.11 449.06 525.75 449.15 527.76 455.56 530.37 460.93 536.74 463.36 535.23 470.44 540.41 476.6 532.85 479.57 526.72 477.75 522.03 473.16 517.35 469.7 512.3 467.16 505.84 467 501.82 462.49 496.67 459.84"/><polygon class="cls-2" points="511.51 435.41 506.69 431.9 501.27 430.07 493.95 431.95 489.92 427.02 485.61 423.01 480.39 420.36 478.23 414.83 478.64 411.97 478.51 403.76 485.3 407.82 491.18 405.31 496.98 406.5 502.17 410.22 507.48 412.54 512.94 414.14 518.02 416.89 526.1 411.86 529.83 418.13 536.45 417.83 539.36 424.71 543.69 428.37 550.7 428.57 551.8 435.15 557.76 439.79 550.92 442.24 545.28 445.86 539.16 445.67 534 439.83 527.16 444.68 522.99 437.07 515.51 442 511.51 435.41"/><polygon class="cls-3" points="511.51 435.41 506.69 431.9 501.27 430.07 493.95 431.95 489.92 427.02 485.61 423.01 480.39 420.36 478.23 414.83 478.64 411.97 478.51 403.76 485.3 407.82 491.18 405.31 496.98 406.5 502.17 410.22 507.48 412.54 512.94 414.14 518.02 416.89 526.1 411.86 529.83 418.13 536.45 417.83 539.36 424.71 543.69 428.37 550.7 428.57 551.8 435.15 557.76 439.79 550.92 442.24 545.28 445.86 539.16 445.67 534 439.83 527.16 444.68 522.99 437.07 515.51 442 511.51 435.41"/><polygon class="cls-2" points="501.78 230.15 498.88 235.9 494.31 239.63 489.88 243.69 484.46 246.27 478.81 248.34 471.92 246.7 467.08 252.12 463.81 246.5 461.97 243.04 464.73 238.25 469.2 234.55 472.45 230.03 472.22 222.08 476.17 217.67 481.35 214.58 486.02 211.03 491.24 208.23 494.84 203.24 500.18 200.67 507.02 200.91 510.51 195.09 515.76 192.16 521.86 191.09 527.53 193.99 528.12 199.8 524.97 204.71 523.44 210.66 516.77 212.76 514.56 218.44 509.69 221.72 507.06 227.38 501.78 230.15"/><polygon class="cls-3" points="501.78 230.15 498.88 235.9 494.31 239.63 489.88 243.69 484.46 246.27 478.81 248.34 471.92 246.7 467.08 252.12 463.81 246.5 461.97 243.04 464.73 238.25 469.2 234.55 472.45 230.03 472.22 222.08 476.17 217.67 481.35 214.58 486.02 211.03 491.24 208.23 494.84 203.24 500.18 200.67 507.02 200.91 510.51 195.09 515.76 192.16 521.86 191.09 527.53 193.99 528.12 199.8 524.97 204.71 523.44 210.66 516.77 212.76 514.56 218.44 509.69 221.72 507.06 227.38 501.78 230.15"/><polygon class="cls-2" points="479.88 208.72 476.64 213.49 473.66 218.61 468.83 221.87 466.93 228.62 461 230.56 455.76 233.1 450.14 234.01 445.93 233.81 441.02 229.26 445.95 224.26 447.77 218.84 449.67 213.29 455.01 209.84 456.67 204.01 457.58 197.34 462 193.33 465.68 188.72 471.52 186.23 477.03 183.69 480.69 179.15 485.11 175.48 491.02 174.42 495.05 169.77 499.74 171.28 502.01 175.7 499.37 180.88 495.7 185.36 496.71 192.4 494.26 197.83 491.02 202.76 484.09 204.79 479.88 208.72"/><polygon class="cls-3" points="479.88 208.72 476.64 213.49 473.66 218.61 468.83 221.87 466.93 228.62 461 230.56 455.76 233.1 450.14 234.01 445.93 233.81 441.02 229.26 445.95 224.26 447.77 218.84 449.67 213.29 455.01 209.84 456.67 204.01 457.58 197.34 462 193.33 465.68 188.72 471.52 186.23 477.03 183.69 480.69 179.15 485.11 175.48 491.02 174.42 495.05 169.77 499.74 171.28 502.01 175.7 499.37 180.88 495.7 185.36 496.71 192.4 494.26 197.83 491.02 202.76 484.09 204.79 479.88 208.72"/><polygon class="cls-2" points="459.16 189.73 459.36 196.69 453.73 200.03 447.92 202.93 445.93 208.68 444.56 215.43 438.02 217.09 434.27 222.58 427.73 220.63 425.72 215.67 426.04 210.01 427.75 204.53 429.47 199.06 429.84 192.99 432.67 187.87 432.33 181.11 436.3 176.53 438.31 170.82 445.39 168.47 447.11 162.53 454.02 160.72 454.1 152.97 459.15 149.64 465.56 149.18 471.14 145.45 469.9 152.21 469.24 157.26 472.35 163.75 471.05 169.53 465.07 173.42 462.13 178.32 465 186.26 459.16 189.73"/><polygon class="cls-3" points="459.16 189.73 459.36 196.69 453.73 200.03 447.92 202.93 445.93 208.68 444.56 215.43 438.02 217.09 434.27 222.58 427.73 220.63 425.72 215.67 426.04 210.01 427.75 204.53 429.47 199.06 429.84 192.99 432.67 187.87 432.33 181.11 436.3 176.53 438.31 170.82 445.39 168.47 447.11 162.53 454.02 160.72 454.1 152.97 459.15 149.64 465.56 149.18 471.14 145.45 469.9 152.21 469.24 157.26 472.35 163.75 471.05 169.53 465.07 173.42 462.13 178.32 465 186.26 459.16 189.73"/><polygon class="cls-2" points="439.39 177.09 436.69 182.39 431.8 186.43 429.28 191.78 425.52 196.35 423.62 202.45 417.53 205.02 413.69 210.3 405.51 211.55 406.24 203.58 406.98 198.4 401.3 191.77 404.82 186.45 407.43 181.13 412.02 176.66 414.76 171.63 414.42 165.18 419.2 161.14 416.6 153.06 420.55 148.5 426.88 145.76 426.77 138.19 432.01 134.73 437.02 130.93 444.63 129.56 446.11 136.72 449.91 142.73 448.03 148.66 447.64 154.74 441.88 159.15 439.74 164.5 441.6 171.57 439.39 177.09"/><polygon class="cls-3" points="439.39 177.09 436.69 182.39 431.8 186.43 429.28 191.78 425.52 196.35 423.62 202.45 417.53 205.02 413.69 210.3 405.51 211.55 406.24 203.58 406.98 198.4 401.3 191.77 404.82 186.45 407.43 181.13 412.02 176.66 414.76 171.63 414.42 165.18 419.2 161.14 416.6 153.06 420.55 148.5 426.88 145.76 426.77 138.19 432.01 134.73 437.02 130.93 444.63 129.56 446.11 136.72 449.91 142.73 448.03 148.66 447.64 154.74 441.88 159.15 439.74 164.5 441.6 171.57 439.39 177.09"/><polygon class="cls-2" points="381.71 152.89 379.75 158.41 380.7 164.59 378.34 170 375.58 175.19 374.11 180.86 369.94 185.14 368.79 191.59 363.14 189.99 357.29 189.59 356.73 183.47 354.5 177.82 356.23 171.88 352.55 165.93 357.53 160.4 357.7 154.61 354.74 148.23 356.08 142.46 361.5 137.73 365.9 133.07 367.05 127.56 362.94 119.6 366.2 114.37 369.56 108.67 376.48 112.77 383.88 111.47 385.06 117.84 381.76 124.19 387.16 129.78 380.25 135.47 380.51 141.15 382.35 147.13 381.71 152.89"/><polygon class="cls-3" points="381.71 152.89 379.75 158.41 380.7 164.59 378.34 170 375.58 175.19 374.11 180.86 369.94 185.14 368.79 191.59 363.14 189.99 357.29 189.59 356.73 183.47 354.5 177.82 356.23 171.88 352.55 165.93 357.53 160.4 357.7 154.61 354.74 148.23 356.08 142.46 361.5 137.73 365.9 133.07 367.05 127.56 362.94 119.6 366.2 114.37 369.56 108.67 376.48 112.77 383.88 111.47 385.06 117.84 381.76 124.19 387.16 129.78 380.25 135.47 380.51 141.15 382.35 147.13 381.71 152.89"/><polygon class="cls-2" points="405.57 157.9 407.67 164.2 402.63 168.95 405.36 175.74 402.18 180.86 397.71 185.24 395.26 190.27 394.52 197 388.57 196.49 383.65 194.57 382.1 188.84 379.88 183.16 379.6 177.22 381.14 171.38 383.1 165.71 384.75 160.11 382.45 153.91 381.26 147.67 386.67 142.93 391.2 138.28 392.13 132.67 392.92 126.89 394.81 121.46 397.27 116.05 402.32 116.92 409.85 116.63 404.93 124.31 408.46 129.41 406.1 135.18 410.78 141 405.88 146.44 410.22 152.74 405.57 157.9"/><polygon class="cls-3" points="405.57 157.9 407.67 164.2 402.63 168.95 405.36 175.74 402.18 180.86 397.71 185.24 395.26 190.27 394.52 197 388.57 196.49 383.65 194.57 382.1 188.84 379.88 183.16 379.6 177.22 381.14 171.38 383.1 165.71 384.75 160.11 382.45 153.91 381.26 147.67 386.67 142.93 391.2 138.28 392.13 132.67 392.92 126.89 394.81 121.46 397.27 116.05 402.32 116.92 409.85 116.63 404.93 124.31 408.46 129.41 406.1 135.18 410.78 141 405.88 146.44 410.22 152.74 405.57 157.9"/><polygon class="cls-2" points="358.68 152.93 354.5 158.74 354.74 164.59 356.77 170.73 354.65 176.43 351.9 181.86 347.87 186.58 345.68 191.51 342.34 197.84 334.53 194.64 333.5 187.86 331.99 182.07 333.52 175.78 334.87 169.84 329.91 164.6 327.19 158.86 328.59 152.93 331.1 147.16 329.93 141.28 332.75 135.76 333.65 130.11 331.09 123.56 337.01 119.36 336.89 112.87 342.34 110.42 346.87 113.53 345.76 120.11 347.66 125.12 356.38 129.12 352.06 135.74 350.48 141.62 358.62 146.96 358.68 152.93"/><polygon class="cls-3" points="358.68 152.93 354.5 158.74 354.74 164.59 356.77 170.73 354.65 176.43 351.9 181.86 347.87 186.58 345.68 191.51 342.34 197.84 334.53 194.64 333.5 187.86 331.99 182.07 333.52 175.78 334.87 169.84 329.91 164.6 327.19 158.86 328.59 152.93 331.1 147.16 329.93 141.28 332.75 135.76 333.65 130.11 331.09 123.56 337.01 119.36 336.89 112.87 342.34 110.42 346.87 113.53 345.76 120.11 347.66 125.12 356.38 129.12 352.06 135.74 350.48 141.62 358.62 146.96 358.68 152.93"/><circle class="cls-1" cx="266.82" cy="48.52" r="12.75" transform="translate(108.69 268.85) rotate(-64.64)"/><path class="cls-1" d="M241.34,22.33A12.71,12.71,0,0,0,223.2,32.59c-.22-.13-.44-.25-.67-.36a12.75,12.75,0,1,0,6.06,17,12.56,12.56,0,0,0,1.16-4.2c.22.12.43.25.66.36a12.75,12.75,0,1,0,10.93-23Z"/><circle class="cls-1" cx="236.46" cy="61.38" r="14.13"/><circle class="cls-1" cx="228.5" cy="46.26" r="12.68"/><circle class="cls-1" cx="253.81" cy="40.43" r="13.87"/><path class="cls-1" d="M243.21,74.2c.58,1.74,1.15,3.51,1.69,5.31A159.46,159.46,0,0,1,251.65,127"/><path class="cls-1" d="M255.36,55.1a99.78,99.78,0,0,0,1.41,14.62c1.14,6.65,2.71,11.74,5,19.09,1.71,5.54,2.57,8.32,4,11.87a106.61,106.61,0,0,0,11,20.77"/><circle class="cls-1" cx="97.4" cy="94.49" r="13.87"/><circle class="cls-1" cx="108.44" cy="129.17" r="14.13"/><circle class="cls-1" cx="119.93" cy="104.45" r="12.75" transform="translate(-38.96 97.6) rotate(-38.59)"/><path class="cls-1" d="M85.21,115.84a12.75,12.75,0,0,0-2,17.92,12.56,12.56,0,0,0,3.27,2.88c-.21.15-.42.29-.62.45a12.78,12.78,0,1,0,14.66-.87c.2-.15.41-.28.61-.44a12.75,12.75,0,0,0-15.9-19.94Z"/><path class="cls-1" d="M112.21,104.27A14.13,14.13,0,0,1,110,124.13a15.86,15.86,0,0,1-8.08,3,14.19,14.19,0,0,1-5.7-.83,13.67,13.67,0,0,1-6.08-4.42c-3.69-5-4.51-14.46,2.24-19.85A14.12,14.12,0,0,1,112.21,104.27Z"/><path class="cls-1" d="M106.58,143.78q3.72,3.53,7.38,7.24a295.93,295.93,0,0,1,52.23,72"/><path class="cls-1" d="M121.87,133.91a129.58,129.58,0,0,0,12.07,15.78c6.14,6.87,11.76,11.71,19.88,18.7,6.11,5.26,9.19,7.91,13.49,11.1a161.12,161.12,0,0,0,29,17"/><g id="Inner"><path class="cls-1" d="M370.28,466.18a10.41,10.41,0,0,0-1.1-.16c3.14-.42,5.59-2.12,6.07-4.57.67-3.41-2.74-6.95-7.62-7.91-4.45-.87-8.56.7-9.77,3.56l-.18-.12a11.07,11.07,0,0,1-8,1.22c-5.13-1-8.72-4.73-8-8.31,0-.15.08-.28.12-.42l-.1,0a.88.88,0,0,0,.12-.26c.45-2.29-7.78-5.84-18.39-7.93s-19.58-1.91-20,.39c-.11.59.35,1.26,1.27,2a67.51,67.51,0,0,0-7.17.59,4.52,4.52,0,0,1-.06.53c-.52,2.65-4,4.19-7.8,3.45a9.62,9.62,0,0,1-2.69-.95c-.17.08-.31.17-.47.26a13.56,13.56,0,0,0-4.56-1.72c-4.16-.82-7.84.12-8.23,2.08s2.67,4.22,6.83,5c.36.06.7.12,1.05.16a2,2,0,0,0-.06.23,6.25,6.25,0,0,0-.11,1.06c3.53,1,6,3.59,5.78,6.18-2.42-.31-4.47.31-4.7,1.5s1.72,2.8,4.43,3.33a9.22,9.22,0,0,0,2.52.16c1.08.76,2.26,1.52,3.53,2.26,1.17-3.74,6.32-5.86,11.9-4.76,5.85,1.15,9.94,5.39,9.14,9.48l-.06.21a3.91,3.91,0,0,0-2.08,2.57c-.62,3.12,3.74,6.6,9.73,7.77s11.35-.4,12-3.51a.41.41,0,0,1,0-.11c.77.06,1.54.13,2.29.17a0,0,0,0,1,0,0c.65-3.34,5.06-5.28,9.84-4.34a10.41,10.41,0,0,1,6.38,3.71l1.52-.28a2.45,2.45,0,0,0-.08.29c-.47,2.4,1.93,4.89,5.37,5.56s6.6-.72,7.07-3.12c.43-2.18-1.52-4.44-4.46-5.34a15.13,15.13,0,0,0,1.77-1.08,10.36,10.36,0,0,0,4.89,2.34c4.39.86,8.44-.93,9-4S374.67,467,370.28,466.18Zm-3.72-.1-.18,0s0,0,0,0Z"/><path class="cls-1" d="M219.85,297c.21-.28.39-.56.56-.84-1,2.68-.7,5.2.89,6.37,2.23,1.63,6.2,0,8.87-3.66,2.43-3.32,3-7.15,1.34-9.05l.16-.1a11,11,0,0,1,2.36-6.91c2.81-3.84,7-5.56,9.32-3.84a1.78,1.78,0,0,1,.26.22l.06-.06a.58.58,0,0,0,.14.17c1.5,1.1,7.42-4.44,13.23-12.37s9.3-15.26,7.8-16.36c-.38-.28-1.06-.12-1.95.4a64.11,64.11,0,0,0,2.46-6,1.93,1.93,0,0,1-.36-.22c-1.73-1.26-1.45-4.59.63-7.42a9.37,9.37,0,0,1,1.78-1.87V235a14.29,14.29,0,0,0,3.1-3.15c2.27-3.11,3.08-6.39,1.79-7.33s-4.16.82-6.44,3.92c-.19.27-.37.54-.54.8l-.14-.12a4.93,4.93,0,0,0-.74-.43c-2.16,2.54-5,3.69-6.86,2.71,1.21-1.86,1.58-3.71.8-4.29s-2.75.51-4.23,2.53a10.24,10.24,0,0,0-1.13,2c-1,.63-2,1.34-3.08,2.14,2.27,2.13,1.74,7-1.32,11.16-3.2,4.37-8,6.34-10.63,4.38,0,0-.08-.08-.13-.11a3,3,0,0,0-1-2.51c-2-1.49-6.34.93-9.62,5.41s-4.29,9.32-2.26,10.81l.08,0c-.36.61-.72,1.21-1.06,1.81h0c2.18,1.6,1.82,5.79-.79,9.36a10.38,10.38,0,0,1-5.3,4c-.15.45-.28.89-.41,1.32a1.3,1.3,0,0,0-.18-.15c-1.57-1.15-4.36,0-6.24,2.57s-2.13,5.58-.57,6.73,3.86.18,5.71-1.92a14.55,14.55,0,0,0,.07,1.78,10.66,10.66,0,0,0-3.68,3.22c-2.4,3.29-2.73,7.14-.72,8.61S217.45,300.29,219.85,297Zm1.58-3,.06-.15h0Z"/><path class="cls-1" d="M466,368.88c-.2.32-.38.65-.54,1,.74-3.08,0-6-2.08-7.3-2.94-1.85-7.47.06-10.12,4.27-2.41,3.83-2.42,8.24-.19,10.4l-.18.12a11.09,11.09,0,0,1-1.75,7.94c-2.79,4.43-7.55,6.44-10.64,4.5l-.35-.26-.06.07a1,1,0,0,0-.2-.2c-2-1.24-8.25,5.17-14,14.32s-8.82,17.58-6.84,18.83c.51.31,1.3.12,2.29-.48a69.58,69.58,0,0,0-2,6.91l.48.24c2.28,1.44,2.46,5.25.41,8.52a9.66,9.66,0,0,1-1.86,2.17c0,.18.05.35.08.53a13.59,13.59,0,0,0-3.24,3.64c-2.26,3.59-2.71,7.36-1,8.42s4.9-1,7.16-4.56c.19-.31.36-.61.53-.92.06,0,.12.1.19.14a6.5,6.5,0,0,0,.95.48c2.21-2.93,5.49-4.27,7.84-3.17-1.16,2.15-1.32,4.28-.28,4.93s3.23-.61,4.69-2.94a9,9,0,0,0,1.05-2.3c1.11-.73,2.24-1.56,3.39-2.48-3.08-2.43-3.2-8-.18-12.81,3.18-5.05,8.61-7.34,12.14-5.13l.17.13a4,4,0,0,0,1.65,2.87c2.69,1.69,7.51-1.13,10.75-6.29s3.71-10.73,1-12.42l-.1,0c.34-.7.68-1.39,1-2.08h0c-2.88-1.82-3.11-6.63-.52-10.75a10.5,10.5,0,0,1,5.76-4.63c.1-.51.2-1,.29-1.51a1.46,1.46,0,0,0,.24.17c2.07,1.31,5.25,0,7.12-3s1.69-6.42-.38-7.73c-1.88-1.18-4.68-.17-6.58,2.25a15.42,15.42,0,0,0-.37-2,10.35,10.35,0,0,0,3.93-3.72c2.39-3.79,2.17-8.22-.48-9.88S468.39,365.09,466,368.88Zm-1.43,3.44c0,.06,0,.12,0,.18h0Z"/><path class="cls-1" d="M434.62,254.53a9.93,9.93,0,0,0,.59.94c-2.36-2.11-5.25-2.86-7.41-1.63-3,1.71-3.49,6.61-1,10.93,2.23,3.94,6.1,6,9.06,5.1a1.49,1.49,0,0,1,0,.21A11.12,11.12,0,0,1,442,275.4c2.57,4.54,2.09,9.69-1.09,11.49l-.39.18a.36.36,0,0,0,0,.09,1.07,1.07,0,0,0-.27.08c-2,1.16.63,9.72,6,19.12s11.29,16.1,13.33,14.95c.52-.3.73-1.09.67-2.24a67.17,67.17,0,0,0,5.12,5.05,3.41,3.41,0,0,1,.44-.3c2.35-1.33,5.8.32,7.7,3.68a9.94,9.94,0,0,1,1,2.66c.16.07.33.12.49.18a13.9,13.9,0,0,0,1.68,4.58c2.08,3.69,5.19,5.88,6.93,4.89s1.46-4.77-.63-8.46c-.17-.31-.36-.61-.55-.9l.21-.1a6.65,6.65,0,0,0,.88-.62c-1.54-3.33-1.16-6.86.92-8.41,1.34,2.05,3.14,3.2,4.21,2.59s1-3.13-.36-5.53a9.24,9.24,0,0,0-1.53-2c-.12-1.32-.31-2.71-.58-4.15-3.6,1.55-8.56-1-11.36-5.93-2.94-5.19-2.38-11.06,1.24-13.11l.2-.09a4,4,0,0,0,3.31-.1c2.76-1.56,2.56-7.14-.45-12.45s-7.69-8.35-10.45-6.78l-.09.06c-.45-.62-.9-1.25-1.36-1.85h0c-3,1.68-7.3-.39-9.7-4.63a10.45,10.45,0,0,1-1.35-7.27c-.4-.33-.8-.66-1.2-1a2.21,2.21,0,0,0,.27-.12c2.13-1.21,2.46-4.66.73-7.7s-4.85-4.54-7-3.33c-1.94,1.09-2.38,4-1.15,6.86a15,15,0,0,0-2-.64,10.33,10.33,0,0,0-1.41-5.23c-2.21-3.9-6.21-5.81-8.93-4.27S432.41,250.64,434.62,254.53Zm2.35,2.89.13.13,0,0A.91.91,0,0,1,437,257.42Z"/><path class="cls-1" d="M209,351c.12.32.25.63.4.94-1.74-2.3-4-3.48-5.94-2.78-2.67,1-3.54,5.25-2,9.53,1.44,3.9,4.41,6.46,6.94,6.15v.19a11,11,0,0,1,4.53,5.82c1.66,4.51.74,9-2.06,10l-.34.1s0,.05,0,.08a.86.86,0,0,0-.23,0c-1.79.66-.47,8.75,3,18.06s7.67,16.32,9.46,15.66c.46-.17.71-.84.78-1.88a65.14,65.14,0,0,0,3.7,5.41,3.49,3.49,0,0,1,.39-.19c2.07-.76,4.74,1.32,6,4.64a9.8,9.8,0,0,1,.57,2.55l.39.25a14.47,14.47,0,0,0,.91,4.37c1.35,3.65,3.68,6.15,5.22,5.58s1.68-4,.34-7.63c-.12-.31-.24-.61-.37-.9l.19-.05a4.73,4.73,0,0,0,.78-.39c-.92-3.23-.26-6.3,1.62-7.3.89,2.05,2.26,3.4,3.2,3.05s1.14-2.6.26-5a9.92,9.92,0,0,0-1.05-2.06c0-1.19,0-2.46-.06-3.79-3.12.73-6.94-2.4-8.75-7.3-1.89-5.13-.83-10.25,2.36-11.42l.17,0a3.14,3.14,0,0,0,2.73.51c2.43-.9,2.84-5.89.9-11.14s-5.48-8.79-7.91-7.9l-.08,0-.93-1.89h0c-2.61,1-6-1.66-7.52-5.85a10.45,10.45,0,0,1-.37-6.69c-.29-.37-.59-.73-.88-1.08l.23-.07c1.88-.69,2.49-3.69,1.38-6.7s-3.53-4.9-5.4-4.21c-1.7.63-2.36,3.17-1.64,5.89a14.39,14.39,0,0,0-1.56-.92,10.29,10.29,0,0,0-.63-4.9c-1.42-3.86-4.51-6.27-6.91-5.38S207.55,347.16,209,351Zm1.64,3a1.13,1.13,0,0,0,.1.13l0,0C210.66,354.11,210.63,354.06,210.61,354Z"/><path class="cls-1" d="M402.52,223.05a10,10,0,0,0-1.1.06c3-1,5.07-3.16,5.07-5.65,0-3.48-4-6.3-9-6.3-4.53,0-8.26,2.34-8.9,5.38l-.2-.09a11.11,11.11,0,0,1-7.66,2.75c-5.23,0-9.46-3-9.46-6.62a3.22,3.22,0,0,1,0-.43h-.1a.9.9,0,0,0,.07-.27c0-2.34-8.77-4.24-19.58-4.24s-19.57,1.9-19.57,4.24c0,.6.58,1.17,1.62,1.69a63.74,63.74,0,0,0-6.93,2,3.07,3.07,0,0,1,.05.53c0,2.7-3.13,4.89-7,4.89a9.52,9.52,0,0,1-2.82-.42l-.4.34a13.83,13.83,0,0,0-4.81-.8c-4.24,0-7.67,1.62-7.67,3.62s3.43,3.63,7.67,3.63c.36,0,.71,0,1.06,0,0,.08,0,.16,0,.23a6.36,6.36,0,0,0,.1,1.07c3.66.31,6.54,2.37,6.86,5-2.44.16-4.32,1.16-4.32,2.38s2.23,2.41,5,2.41A9.23,9.23,0,0,0,323,238c1.21.54,2.51,1.06,3.9,1.54.42-3.89,5.07-7,10.76-7,6,0,10.79,3.37,10.79,7.54,0,.07,0,.14,0,.21a4,4,0,0,0-1.55,2.93c0,3.17,4.95,5.75,11.05,5.75S369,246.41,369,243.24c0,0,0-.07,0-.11.77-.09,1.54-.17,2.29-.27v0c0-3.4,3.94-6.16,8.81-6.16a10.47,10.47,0,0,1,7,2.41l1.43-.57c0,.1,0,.2,0,.3,0,2.45,2.84,4.43,6.34,4.43s6.33-2,6.33-4.43c0-2.22-2.34-4.06-5.4-4.38a14.88,14.88,0,0,0,1.53-1.4,10.32,10.32,0,0,0,5.24,1.35c4.48,0,8.11-2.54,8.11-5.66S407,223.05,402.52,223.05Zm-3.67.62a.85.85,0,0,0-.17.06l0,0Z"/><g id="Inner_molecules" data-name="Inner molecules"><circle class="cls-1" cx="241.18" cy="357.07" r="10.42"/><circle class="cls-1" cx="260.21" cy="297.24" r="10.42"/><circle class="cls-1" cx="300.4" cy="344.18" r="10.42"/><circle class="cls-1" cx="350.18" cy="318.25" r="7.51"/><circle class="cls-1" cx="395.19" cy="439.72" r="7.51"/><circle class="cls-1" cx="388.03" cy="383.2" r="7.51"/><circle class="cls-1" cx="367.18" cy="382.04" r="7.51"/><circle class="cls-1" cx="398.48" cy="413.53" r="7.51"/><circle class="cls-1" cx="480.64" cy="350.95" r="7.51"/><circle class="cls-1" cx="433.23" cy="378.6" r="7.51"/><circle class="cls-1" cx="399.17" cy="462.23" r="9.71"/><circle class="cls-1" cx="387.07" cy="340.05" r="7.51"/><circle class="cls-1" cx="370.44" cy="326.25" r="7.51"/><circle class="cls-1" cx="359.23" cy="345.3" r="7.51"/><circle class="cls-1" cx="286.43" cy="254.7" r="7.51"/><circle class="cls-1" cx="380.59" cy="360.78" r="10.42"/><circle class="cls-1" cx="307" cy="375.69" r="10.42"/><circle class="cls-1" cx="462.98" cy="346.66" r="10.42"/><circle class="cls-1" cx="377.85" cy="262.21" r="10.42"/><circle class="cls-1" cx="369.15" cy="403.11" r="10.42"/><circle class="cls-1" cx="285.27" cy="312.23" r="10.42"/><circle class="cls-1" cx="304.88" cy="411.51" r="10.42"/><circle class="cls-1" cx="409.59" cy="387.7" r="10.42"/><circle class="cls-1" cx="331.93" cy="259.33" r="10.42"/><circle class="cls-1" cx="268.87" cy="360.72" r="10.42"/><circle class="cls-1" cx="343.8" cy="370.23" r="10.42"/><circle class="cls-1" cx="408.35" cy="329.36" r="10.42"/><circle class="cls-1" cx="242.55" cy="325.01" r="10.42"/><circle class="cls-1" cx="376.66" cy="428.69" r="10.42"/><circle class="cls-1" cx="337.01" cy="290.58" r="10.42"/><circle class="cls-1" cx="429.67" cy="351.85" r="10.42"/><circle class="cls-1" cx="273.6" cy="398.75" r="10.42"/><circle class="cls-1" cx="285.57" cy="279.57" r="10.42"/><circle class="cls-1" cx="331.93" cy="337.27" r="10.42"/><circle class="cls-1" cx="329.13" cy="403.19" r="10.42"/><circle class="cls-1" cx="400.95" cy="302.51" r="10.42"/><circle class="cls-1" cx="205.79" cy="326.13" r="10.42"/><circle class="cls-1" cx="252.96" cy="448" r="10.42"/><circle class="cls-1" cx="292.59" cy="229.83" r="10.42"/><circle class="cls-1" cx="421.74" cy="241.55" r="7.51"/><circle class="cls-1" cx="355.51" cy="272.63" r="7.51"/><circle class="cls-1" cx="387.07" cy="317.84" r="7.51"/><circle class="cls-1" cx="370.29" cy="300.58" r="7.51"/><circle class="cls-1" cx="385.05" cy="282.47" r="7.51"/><circle class="cls-1" cx="402.06" cy="256.21" r="7.51"/><circle class="cls-1" cx="428.57" cy="300.58" r="7.51"/><circle class="cls-1" cx="408.34" cy="277.4" r="7.51"/><circle class="cls-1" cx="306.1" cy="245.34" r="7.51"/><circle class="cls-1" cx="312.39" cy="266.53" r="7.51"/><circle class="cls-1" cx="320.93" cy="315.17" r="7.51"/><circle class="cls-1" cx="286.43" cy="428.69" r="7.51"/><circle class="cls-1" cx="262.21" cy="423.31" r="9.71"/><circle class="cls-1" cx="320.93" cy="430.86" r="7.51"/><circle class="cls-1" cx="347.99" cy="390.71" r="7.51"/><circle class="cls-1" cx="321.78" cy="360.72" r="7.51"/><circle class="cls-1" cx="270.63" cy="336.7" r="7.51"/><circle class="cls-1" cx="284.02" cy="377.36" r="7.51"/><circle class="cls-1" cx="354.56" cy="440.61" r="7.51"/><circle class="cls-1" cx="403.28" cy="357.07" r="7.51"/><circle class="cls-1" cx="436.08" cy="323.79" r="7.51"/><circle class="cls-1" cx="343.8" cy="423.66" r="7.51"/><circle class="cls-1" cx="309.1" cy="292.24" r="7.51"/></g></g><polygon class="cls-2" points="519.19 255.16 514.9 259.57 508.93 260.88 501.98 259.64 497.71 264.54 492.16 266.45 486 265.29 480.17 270.82 475.95 264.47 478.39 260.4 481.13 256.09 481.86 249.1 489.32 248.7 490.11 240.57 495.99 238.66 500.75 235.29 506.3 233.23 510.34 228.53 514.63 223.95 520.81 223.21 527.54 224.45 532.32 220.55 538.38 221.54 544.13 215.53 549.74 221.07 550.49 228.05 545.15 231.83 542.2 237.03 538.71 241.96 530.87 241.5 530.21 250.41 523.6 251.15 519.19 255.16"/><polygon class="cls-3" points="519.19 255.16 514.9 259.57 508.93 260.88 501.98 259.64 497.71 264.54 492.16 266.45 486 265.29 480.17 270.82 475.95 264.47 478.39 260.4 481.13 256.09 481.86 249.1 489.32 248.7 490.11 240.57 495.99 238.66 500.75 235.29 506.3 233.23 510.34 228.53 514.63 223.95 520.81 223.21 527.54 224.45 532.32 220.55 538.38 221.54 544.13 215.53 549.74 221.07 550.49 228.05 545.15 231.83 542.2 237.03 538.71 241.96 530.87 241.5 530.21 250.41 523.6 251.15 519.19 255.16"/><g id="Visible"><path class="cls-4" d="M627.74,475.74q-4.62-2.48-9.26-5.16A307.6,307.6,0,0,1,547,413.31"/><path class="cls-4" d="M615.77,489.44a128.53,128.53,0,0,0-15.95-11.84c-7.79-4.92-14.53-8-24.25-12.51-7.33-3.38-11-5.08-16-7A161.76,161.76,0,0,0,527,449.78"/><circle class="cls-4" cx="625.36" cy="479.44" r="14.13"/><circle class="cls-4" cx="625.36" cy="479.44" r="14.13"/><circle class="cls-4" cx="639.48" cy="463.01" r="12.75" transform="translate(-119.95 678.84) rotate(-51.77)"/><path class="cls-4" d="M608.27,482a12.75,12.75,0,0,0,2.13,17.9,12.4,12.4,0,0,0,3.83,2.06c-.16.19-.33.37-.49.57a12.75,12.75,0,1,0,17.9-2.12,12.4,12.4,0,0,0-3.83-2.06c.16-.19.34-.37.49-.57a12.75,12.75,0,1,0-20-15.78Z"/><circle class="cls-4" cx="625.36" cy="479.44" r="14.13"/><circle class="cls-4" cx="634.58" cy="487.41" r="14.13"/><polygon class="cls-2" points="515.46 412.3 510.6 407.91 504.25 408.41 500.46 401.98 493.05 404.28 490.24 397 484.6 395.27 477.33 394 480.99 387.14 483.26 384.92 487.98 380.2 493.93 380.85 499.65 382.48 505.06 385.38 510.72 385.79 517.1 383.37 523.49 382.06 527.39 389.59 533.14 390.45 537.59 394.71 543.97 394.3 548.21 398.42 555.3 397.99 560.54 401.53 562.68 408.84 556.3 411.71 551.14 416.88 544.92 416.14 539.04 414.43 532.9 416.05 527.62 411.77 522.16 409.54 515.46 412.3"/><polygon class="cls-5" points="515.46 412.3 510.6 407.91 504.25 408.41 500.46 401.98 493.05 404.28 490.24 397 484.6 395.27 477.33 394 480.99 387.14 483.26 384.92 487.98 380.2 493.93 380.85 499.65 382.48 505.06 385.38 510.72 385.79 517.1 383.37 523.49 382.06 527.39 389.59 533.14 390.45 537.59 394.71 543.97 394.3 548.21 398.42 555.3 397.99 560.54 401.53 562.68 408.84 556.3 411.71 551.14 416.88 544.92 416.14 539.04 414.43 532.9 416.05 527.62 411.77 522.16 409.54 515.46 412.3"/><polygon class="cls-2" points="535.5 390.05 530.35 385.06 525.47 380.34 518.88 383.05 512.8 382.81 509.56 375.16 500.88 379.68 496.61 374.45 495.96 367.91 500.95 366.79 504.48 360.1 510.75 362.08 516.51 363.21 522.19 361.13 528.1 359.13 533.51 363.89 539.5 362.29 545.38 362.31 551.62 361.16 556.45 365.94 561.49 369.08 568.24 367.6 573.22 370.93 579.2 373.24 579.92 380 577.03 385.73 571.29 388.37 564.86 385.55 559.38 390.9 553.46 385.95 547.38 391.37 541.6 389.09 535.5 390.05"/><polygon class="cls-5" points="535.5 390.05 530.35 385.06 525.47 380.34 518.88 383.05 512.8 382.81 509.56 375.16 500.88 379.68 496.61 374.45 495.96 367.91 500.95 366.79 504.48 360.1 510.75 362.08 516.51 363.21 522.19 361.13 528.1 359.13 533.51 363.89 539.5 362.29 545.38 362.31 551.62 361.16 556.45 365.94 561.49 369.08 568.24 367.6 573.22 370.93 579.2 373.24 579.92 380 577.03 385.73 571.29 388.37 564.86 385.55 559.38 390.9 553.46 385.95 547.38 391.37 541.6 389.09 535.5 390.05"/><polygon class="cls-2" points="538.18 307.26 531.4 303.99 526.5 309.37 520.17 306.59 514.4 306.66 508.68 310.82 503.11 306 498.27 303.8 496.65 301.95 494.65 297.38 500.89 296.04 502.37 287.44 510.96 291.51 513.61 283.07 519.53 282.01 524.95 279.59 531.71 282.19 537.3 280.88 542.85 279.36 548.6 279.11 554.4 280.52 559.92 277.89 565.86 275.44 572.17 275.79 575.42 281.63 571.97 285.38 570.23 291.93 565.87 296.36 559.98 297.95 554.54 300.23 549.57 303.87 541.99 299.27 538.18 307.26"/><polygon class="cls-6" points="538.18 307.26 531.4 303.99 526.5 309.37 520.17 306.59 514.4 306.66 508.68 310.82 503.11 306 498.27 303.8 496.65 301.95 494.65 297.38 500.89 296.04 502.37 287.44 510.96 291.51 513.61 283.07 519.53 282.01 524.95 279.59 531.71 282.19 537.3 280.88 542.85 279.36 548.6 279.11 554.4 280.52 559.92 277.89 565.86 275.44 572.17 275.79 575.42 281.63 571.97 285.38 570.23 291.93 565.87 296.36 559.98 297.95 554.54 300.23 549.57 303.87 541.99 299.27 538.18 307.26"/><polygon class="cls-2" points="530.96 277.93 526.5 282.42 521.25 285.28 515.17 285.71 508.27 282.14 503.48 287.27 497.49 284.2 492.16 285.49 486.96 284.17 487.25 278.07 489.46 271.78 497.46 271.94 500.85 266.89 505.58 263.51 510.44 260.28 515.75 257.84 521.02 255.35 526.65 253.76 531.62 250.41 538.31 252.37 543.87 251.34 549.36 250.46 554.61 246.81 560.26 247.37 562.44 250.91 567.04 257.02 558.91 258.19 556.33 263.87 549.58 264.31 547.68 272.05 543.2 276.19 535.84 274.69 530.96 277.93"/><polygon class="cls-6" points="530.96 277.93 526.5 282.42 521.25 285.28 515.17 285.71 508.27 282.14 503.48 287.27 497.49 284.2 492.16 285.49 486.96 284.17 487.25 278.07 489.46 271.78 497.46 271.94 500.85 266.89 505.58 263.51 510.44 260.28 515.75 257.84 521.02 255.35 526.65 253.76 531.62 250.41 538.31 252.37 543.87 251.34 549.36 250.46 554.61 246.81 560.26 247.37 562.44 250.91 567.04 257.02 558.91 258.19 556.33 263.87 549.58 264.31 547.68 272.05 543.2 276.19 535.84 274.69 530.96 277.93"/><circle class="cls-4" cx="646.4" cy="178.43" r="13.87"/><circle class="cls-4" cx="665.17" cy="224.74" r="12.75" transform="translate(-35.68 266.79) rotate(-22.1)"/><path class="cls-4" d="M664.1,188.21a12.73,12.73,0,0,0-20.3-4.71c-.08-.23-.16-.47-.25-.71a12.79,12.79,0,1,0-3.33,14.3c.08.24.15.48.25.71a12.75,12.75,0,1,0,23.63-9.59Z"/><circle class="cls-4" cx="646.4" cy="208.4" r="14.13"/><circle class="cls-4" cx="665.17" cy="224.74" r="12.75" transform="translate(-35.68 266.79) rotate(-22.1)"/><path class="cls-4" d="M664.1,188.21a12.73,12.73,0,0,0-20.3-4.71c-.08-.23-.16-.47-.25-.71a12.79,12.79,0,1,0-3.33,14.3c.08.24.15.48.25.71a12.75,12.75,0,1,0,23.63-9.59Z"/><circle class="cls-4" cx="644.43" cy="208.4" r="14.13"/><circle class="cls-4" cx="665.04" cy="203.14" r="14.13"/><path class="cls-4" d="M631.3,203.12q-4,1.84-8.15,3.59a252.46,252.46,0,0,1-74,18.65"/><path class="cls-4" d="M636.34,219.35a106.47,106.47,0,0,0-16,4c-7.27,2.41-12.78,5.09-20.76,8.95-6,2.91-9,4.38-12.84,6.59a131.33,131.33,0,0,0-22.24,16.35"/><circle class="cls-4" cx="686.29" cy="322.68" r="12.68"/><circle class="cls-4" cx="668.7" cy="324.11" r="12.75" transform="matrix(0.01, -1, 1, 0.01, 338.5, 989.82)"/><path class="cls-4" d="M655.63,358.24a12.71,12.71,0,0,0,16.93,12.15c0,.25,0,.5,0,.75a12.8,12.8,0,1,0,8.57-11.91c0-.25,0-.5,0-.76a12.75,12.75,0,0,0-25.5-.23Z"/><circle class="cls-4" cx="687.74" cy="346.66" r="14.13"/><circle class="cls-4" cx="673.61" cy="339.17" r="12.68"/><path class="cls-4" d="M662,335.72q-5.09.51-10.3.87a296.12,296.12,0,0,1-88.61-7.36"/><path class="cls-4" d="M656.73,354.5a123.88,123.88,0,0,0-18.86-1.3c-8.75.07-15.71,1-25.75,2.43-7.57,1.05-11.38,1.58-16.33,2.64a151,151,0,0,0-30,10"/></g><g id="HiddenGap"><polygon class="cls-2" points="541.57 362.62 535.68 360.06 529.87 359.14 524.29 356.6 518.45 356.82 511.83 359.54 506.34 356.53 502.53 350.96 502.81 347.21 502.56 343.65 507.31 340.86 512.96 339.99 518.16 337.15 524.09 337.8 529.75 337.1 535.34 334.46 541.17 335.16 546.96 334.88 553 331.18 558.53 335.44 563.83 338.83 569.14 340.68 575.4 339.29 579.07 343.93 584.09 346.04 580.99 350.87 575.47 352.73 571.27 358.92 565.36 360.38 558.33 353.72 553.3 360.24 547.21 356.67 541.57 362.62"/><polygon class="cls-3" points="541.57 362.62 535.68 360.06 529.87 359.14 524.29 356.6 518.45 356.82 511.83 359.54 506.34 356.53 502.53 350.96 502.81 347.21 502.56 343.65 507.31 340.86 512.96 339.99 518.16 337.15 524.09 337.8 529.75 337.1 535.34 334.46 541.17 335.16 546.96 334.88 553 331.18 558.53 335.44 563.83 338.83 569.14 340.68 575.4 339.29 579.07 343.93 584.09 346.04 580.99 350.87 575.47 352.73 571.27 358.92 565.36 360.38 558.33 353.72 553.3 360.24 547.21 356.67 541.57 362.62"/><polygon class="cls-2" points="534.96 331.36 529.44 338.21 523.56 331 517.89 330.9 512.11 331.77 506.42 331.27 501.34 328.58 495.13 328.96 488.07 324.66 496.55 321.99 498.69 314.7 505.98 317.45 511.52 316.66 516.11 311.03 522.55 314.71 528.11 313.69 533.76 313.36 539.33 310.46 545.1 308.87 551.11 305.88 557.06 306.53 562.36 310.97 567.81 312.85 571.66 317.16 575.09 318.83 575.92 325.91 568.13 324.58 564.24 330.45 558.58 332.28 552.48 331.97 547.17 335.82 541.24 336.35 534.96 331.36"/><polygon class="cls-3" points="534.96 331.36 529.44 338.21 523.56 331 517.89 330.9 512.11 331.77 506.42 331.27 501.34 328.58 495.13 328.96 488.07 324.66 496.55 321.99 498.69 314.7 505.98 317.45 511.52 316.66 516.11 311.03 522.55 314.71 528.11 313.69 533.76 313.36 539.33 310.46 545.1 308.87 551.11 305.88 557.06 306.53 562.36 310.97 567.81 312.85 571.66 317.16 575.09 318.83 575.92 325.91 568.13 324.58 564.24 330.45 558.58 332.28 552.48 331.97 547.17 335.82 541.24 336.35 534.96 331.36"/></g><g id="Camera"><rect x="771.11" y="329.43" width="49.71" height="30.29" rx="5.25"/><polygon points="749.79 355.5 749.87 334.49 769.65 339.93 769.65 349.66 749.79 355.5"/><circle class="cls-7" cx="784.76" cy="318.29" r="7.29"/><circle class="cls-7" cx="807.3" cy="318.29" r="7.29"/></g></g></svg>