<svg xmlns="http://www.w3.org/2000/svg" viewBox="0 0 822.05 680.31"><defs><style>.cls-1,.cls-2,.cls-4,.cls-9{fill:#fff;}.cls-1,.cls-3{stroke:#878787;}.cls-1,.cls-3,.cls-4,.cls-5,.cls-6,.cls-8,.cls-9{stroke-miterlimit:10;}.cls-1,.cls-3,.cls-4,.cls-5,.cls-6,.cls-8{stroke-width:3px;}.cls-3,.cls-5,.cls-6,.cls-8{fill:none;}.cls-4{stroke:#84c1eb;}.cls-5{stroke:#7fb184;}.cls-6{stroke:#f3a540;}.cls-7{fill:#b91818;}.cls-8,.cls-9{stroke:#1d1d1b;}.cls-9{stroke-width:4px;}</style></defs><title>Visible Parts + Gap</title><g id="Visible_Parts_Gap_Artboard_Layer" data-name="Visible Parts + Gap Artboard/Layer"><path class="cls-1" d="M130.54,550.42q3.63-3.78,7.47-7.52a307.21,307.21,0,0,1,74.45-53.41"/><path class="cls-1" d="M117.47,538.29A133.25,133.25,0,0,0,134,525.63c7.18-6.43,12.22-12.31,19.51-20.8,5.49-6.4,8.25-9.61,11.58-14.11a168.09,168.09,0,0,0,17.65-30.26"/><circle class="cls-1" cx="129.94" cy="565.86" r="12.75" transform="translate(-371.39 273.03) rotate(-46.78)"/><path class="cls-1" d="M113.71,533.11a12.73,12.73,0,0,0-20.41,4.2c-.17-.18-.33-.37-.52-.54a12.77,12.77,0,1,0,3,14.38c.17.18.33.37.52.55a12.75,12.75,0,0,0,17.46-18.59Z"/><circle class="cls-1" cx="96.35" cy="571.12" r="14.13"/><circle class="cls-1" cx="119.06" cy="557.18" r="13.87"/><circle class="cls-1" cx="93.86" cy="555.24" r="12.68"/><circle class="cls-1" cx="119.06" cy="557.18" r="13.87"/><circle class="cls-1" cx="93.86" cy="555.24" r="12.68"/><path class="cls-1" d="M253,613q2.13-4.8,4.45-9.62a307.45,307.45,0,0,1,51.69-75.66"/><path class="cls-1" d="M236.54,606a134.74,134.74,0,0,0,11.16-17.53c4.54-8.51,7.27-15.75,11.22-26.23,3-7.89,4.47-11.85,6.05-17.22a168,168,0,0,0,6.24-34.46"/><circle class="cls-1" cx="212.69" cy="637.8" r="12.75" transform="translate(-429.89 835.59) rotate(-88.67)"/><path class="cls-1" d="M246.63,651.34A12.71,12.71,0,0,0,259,634.59l.75.06A12.81,12.81,0,1,0,248,625.91l-.75-.06a12.75,12.75,0,1,0-.6,25.49Z"/><circle class="cls-1" cx="235.14" cy="627.08" r="14.13"/><circle class="cls-1" cx="212.69" cy="637.8" r="12.75" transform="translate(-429.89 835.59) rotate(-88.67)"/><path class="cls-1" d="M246.63,651.34A12.71,12.71,0,0,0,259,634.59l.75.06A12.81,12.81,0,1,0,248,625.91l-.75-.06a12.75,12.75,0,1,0-.6,25.49Z"/><circle class="cls-1" cx="235.14" cy="627.08" r="14.13"/><circle class="cls-1" cx="225.41" cy="614.01" r="14.13"/><path class="cls-1" d="M408.35,641.24q-1.14-5.12-2.13-10.38a307.12,307.12,0,0,1-3.28-91.57"/><path class="cls-1" d="M391,645.4a140.85,140.85,0,0,0-1.34-21.46c-1.38-9.87-3.5-17.57-6.57-28.71-2.31-8.38-3.47-12.6-5.4-18A171.93,171.93,0,0,0,362,544.74"/><circle class="cls-1" cx="433.23" cy="642.31" r="12.75" transform="translate(-332.74 758.67) rotate(-64.64)"/><path class="cls-1" d="M407.74,616.12a12.73,12.73,0,0,0-18.14,10.26c-.22-.12-.43-.25-.66-.36a12.81,12.81,0,1,0,7.21,12.78c.22.12.44.25.67.36a12.75,12.75,0,0,0,10.92-23Z"/><circle class="cls-1" cx="402.87" cy="657.62" r="14.13"/><circle class="cls-1" cx="420.21" cy="637.38" r="13.87"/><circle class="cls-1" cx="395.63" cy="643.27" r="12.68"/><circle class="cls-1" cx="420.21" cy="637.38" r="13.87"/><circle class="cls-1" cx="395.63" cy="643.27" r="12.68"/><path class="cls-1" d="M52.36,440.61q4.48-2.72,9.17-5.32a307.23,307.23,0,0,1,85.79-32.18"/><path class="cls-1" d="M46.7,423.31A129.55,129.55,0,0,0,65,415.67c8.21-4.19,14.32-8.39,23.15-14.46,6.65-4.56,10-6.86,14.18-10.21a161.73,161.73,0,0,0,23.8-23.67"/><circle class="cls-1" cx="39.66" cy="435.11" r="14.13"/><circle class="cls-1" cx="28.24" cy="415.94" r="12.75" transform="translate(-62.59 9.06) rotate(-8.7)"/><path class="cls-1" d="M20.82,451.72A12.7,12.7,0,0,0,39.47,461c0,.25,0,.5.08.75a12.81,12.81,0,1,0,6.55-13.13c0-.25,0-.5-.08-.76a12.75,12.75,0,1,0-25.2,3.86Z"/><circle class="cls-1" cx="17.18" cy="437.25" r="14.13"/><path class="cls-1" d="M42.68,302.51c3.39.36,6.8.79,10.25,1.28a295.66,295.66,0,0,1,85.17,25.57"/><path class="cls-1" d="M48.85,285.39A129.19,129.19,0,0,0,68,290.62c9,1.74,16.45,2.18,27.14,2.82,8.06.48,12.11.72,17.46.65A161.94,161.94,0,0,0,146,290"/><circle class="cls-1" cx="21.29" cy="282.63" r="12.68"/><circle class="cls-1" cx="43.33" cy="282.43" r="12.68"/><circle class="cls-1" cx="45.77" cy="304.08" r="12.68"/><circle class="cls-1" cx="25.08" cy="297.24" r="12.68"/><circle class="cls-1" cx="31.62" cy="317.84" r="12.68"/><path class="cls-1" d="M536.15,578.64q-3.35-4-6.62-8.28A307.4,307.4,0,0,1,485,490.3"/><path class="cls-1" d="M519.89,586.8a128.88,128.88,0,0,0-10.28-17c-5.36-7.49-10.42-12.91-17.73-20.75-5.5-5.89-8.27-8.86-12.2-12.5a161.73,161.73,0,0,0-26.95-20"/><circle class="cls-1" cx="543.56" cy="596.03" r="14.13"/><circle class="cls-1" cx="515.34" cy="605.52" r="12.75" transform="translate(-279.54 625.55) rotate(-51.04)"/><path class="cls-1" d="M546.79,586.9a12.73,12.73,0,0,0-5.7-20c.16-.18.34-.36.5-.56a12.75,12.75,0,1,0-17.93,1.9,12.56,12.56,0,0,0,3.81,2.11c-.17.18-.35.36-.51.56a12.75,12.75,0,1,0,19.83,16Z"/><circle class="cls-1" cx="529.43" cy="581.9" r="14.13"/><circle class="cls-1" cx="510.57" cy="586.8" r="14.13"/><path class="cls-1" d="M529.17,103.23q-3.72,3.51-7.64,7a296.21,296.21,0,0,1-74.8,48.07"/><path class="cls-1" d="M539.27,116.94a132.37,132.37,0,0,0-16.7,11.5c-7.32,5.92-12.56,11.41-20.12,19.35-5.69,6-8.56,9-12,13.22a166.6,166.6,0,0,0-18.9,28.79"/><circle class="cls-1" cx="526.45" cy="82.14" r="12.75" transform="translate(80.1 373.12) rotate(-41.97)"/><path class="cls-1" d="M539.87,116.13a12.76,12.76,0,0,0,18,1,12.51,12.51,0,0,0,2.68-3.43c.16.2.31.4.48.59a12.8,12.8,0,1,0-1.73-14.58c-.16-.2-.31-.4-.48-.59a12.75,12.75,0,0,0-19,17.06Z"/><circle class="cls-1" cx="560.37" cy="79.71" r="14.13"/><circle class="cls-1" cx="536.56" cy="91.7" r="13.87"/><circle class="cls-1" cx="561.51" cy="95.74" r="12.68"/><circle class="cls-1" cx="536.56" cy="91.7" r="13.87"/><circle class="cls-1" cx="561.51" cy="95.74" r="12.68"/><path class="cls-1" d="M410.8,38.26c-.41,3.38-.87,6.79-1.4,10.23a296.17,296.17,0,0,1-26.57,84.87"/><path class="cls-1" d="M427.84,44.63a130.39,130.39,0,0,0-5.46,19.1c-1.84,9-2.37,16.43-3.13,27.12-.57,8-.86,12.09-.85,17.45a161.74,161.74,0,0,0,3.66,33.37"/><circle class="cls-1" cx="440.53" cy="44.38" r="12.75" transform="translate(103.43 331.43) rotate(-46.17)"/><path class="cls-1" d="M424.65,11.46a12.71,12.71,0,0,0-20.45,4c-.17-.19-.34-.38-.52-.55a12.75,12.75,0,1,0,.37,18,12.57,12.57,0,0,0,2.42-3.61c.17.18.34.37.52.55a12.75,12.75,0,0,0,17.66-18.4Z"/><circle class="cls-1" cx="429.67" cy="32.39" r="13.87"/><circle class="cls-1" cx="404.79" cy="36.84" r="12.68"/><circle class="cls-1" cx="429.67" cy="32.39" r="13.87"/><circle class="cls-1" cx="404.79" cy="36.84" r="12.68"/><polygon class="cls-2" points="327.48 156 328.78 161.82 326.71 167.66 329.21 173.66 327.92 179.5 321.99 184.37 322.21 190.16 318.18 194.01 316.62 196.1 312.95 195.69 307.73 192.05 307.34 185.91 307.57 179.91 305.06 174.6 300.38 169.43 300.5 163.46 300.63 157.55 302.47 151.65 301.09 145.83 301.83 140.02 303.27 134.33 301.06 128 303.45 122.37 309.19 118.67 311.88 113.66 313.67 119.49 319.07 122.34 325.5 126.27 326.45 132.31 325.35 138.6 321.7 145.01 322.7 150.59 327.48 156"/><polygon class="cls-3" points="327.48 156 328.78 161.82 326.71 167.66 329.21 173.66 327.92 179.5 321.99 184.37 322.21 190.16 318.18 194.01 316.62 196.1 312.95 195.69 307.73 192.05 307.34 185.91 307.57 179.91 305.06 174.6 300.38 169.43 300.5 163.46 300.63 157.55 302.47 151.65 301.09 145.83 301.83 140.02 303.27 134.33 301.06 128 303.45 122.37 309.19 118.67 311.88 113.66 313.67 119.49 319.07 122.34 325.5 126.27 326.45 132.31 325.35 138.6 321.7 145.01 322.7 150.59 327.48 156"/><polygon class="cls-2" points="297.86 159.01 297.2 164.88 296.56 170.65 301.55 176.27 295.79 181.9 300.1 187.98 296.75 193.23 297.37 199.59 291.75 199.49 286.31 201.13 281.69 196.77 282.89 189.69 275.8 186.05 279.93 178.72 276.95 173.54 275.41 167.94 273.8 162.3 274.75 156.35 275.83 150.53 273.21 144.87 274.2 139.11 276.17 133.59 278.25 128.43 275.97 121.81 280.1 114.25 286.97 119.64 289.17 125.49 294.58 129.55 296.82 135.18 291.66 142.78 300.45 146.61 293.94 153.83 297.86 159.01"/><polygon class="cls-3" points="297.86 159.01 297.2 164.88 296.56 170.65 301.55 176.27 295.79 181.9 300.1 187.98 296.75 193.23 297.37 199.59 291.75 199.49 286.31 201.13 281.69 196.77 282.89 189.69 275.8 186.05 279.93 178.72 276.95 173.54 275.41 167.94 273.8 162.3 274.75 156.35 275.83 150.53 273.21 144.87 274.2 139.11 276.17 133.59 278.25 128.43 275.97 121.81 280.1 114.25 286.97 119.64 289.17 125.49 294.58 129.55 296.82 135.18 291.66 142.78 300.45 146.61 293.94 153.83 297.86 159.01"/><polygon class="cls-2" points="269.31 164.99 269.48 170.81 275.13 175.56 273.24 181.71 275.82 187.25 274.85 193.07 271.48 198.41 277.22 205.7 269.97 207.02 265.9 205.96 264.66 200.09 256.96 198.28 257.79 191.39 255.54 186.18 254.4 180.55 251.63 175.46 244.31 171.44 246.84 164.8 247 158.9 243.45 153.56 246.52 147.46 240.62 141.82 246.31 136.29 248.09 131.38 248.86 125.2 256.61 125.47 259.27 131.66 259.47 138.36 263.88 142.53 265.91 147.96 269.66 152.79 266.45 159.88 269.31 164.99"/><polygon class="cls-3" points="269.31 164.99 269.48 170.81 275.13 175.56 273.24 181.71 275.82 187.25 274.85 193.07 271.48 198.41 277.22 205.7 269.97 207.02 265.9 205.96 264.66 200.09 256.96 198.28 257.79 191.39 255.54 186.18 254.4 180.55 251.63 175.46 244.31 171.44 246.84 164.8 247 158.9 243.45 153.56 246.52 147.46 240.62 141.82 246.31 136.29 248.09 131.38 248.86 125.2 256.61 125.47 259.27 131.66 259.47 138.36 263.88 142.53 265.91 147.96 269.66 152.79 266.45 159.88 269.31 164.99"/><polygon class="cls-2" points="246.88 172.75 244.38 180.04 246.45 185.33 248.77 190.56 252.96 195.42 254.85 201.04 255.06 206.97 255.8 213.21 249.88 215.41 244.21 218.25 240.05 213.57 239.13 206.76 233.72 203.65 229.54 199.39 226.97 194.13 223.19 189.47 219.66 184.58 223.77 176.62 220.01 171.93 217.55 166.68 216.87 160.93 216.88 155.19 214.81 149.8 214.69 144.24 215.88 137.17 223.43 138.57 228.67 142.21 232.73 146.76 234.76 152.63 238.27 157.35 238.71 163.77 244.79 167.22 246.88 172.75"/><polygon class="cls-3" points="246.88 172.75 244.38 180.04 246.45 185.33 248.77 190.56 252.96 195.42 254.85 201.04 255.06 206.97 255.8 213.21 249.88 215.41 244.21 218.25 240.05 213.57 239.13 206.76 233.72 203.65 229.54 199.39 226.97 194.13 223.19 189.47 219.66 184.58 223.77 176.62 220.01 171.93 217.55 166.68 216.87 160.93 216.88 155.19 214.81 149.8 214.69 144.24 215.88 137.17 223.43 138.57 228.67 142.21 232.73 146.76 234.76 152.63 238.27 157.35 238.71 163.77 244.79 167.22 246.88 172.75"/><polygon class="cls-2" points="217.89 187.55 223.53 190.47 225.89 195.93 230.03 200.15 231.51 206 234.01 211.14 236.62 216.23 236.09 221.85 238.36 228.64 231.66 226.78 225.43 226.47 219.72 224.21 218.3 216.58 211.8 215.22 206.71 212.03 202.54 207.84 198.43 203.59 195.98 198.02 195.87 190.97 189.88 188.04 185.11 184.02 181.81 178.95 182.13 172.37 180.12 166.68 183.83 162.46 188.69 159.62 194.5 161.59 196.82 168.59 201.81 171.34 207.06 174.06 210.2 179.05 213.59 183.7 217.89 187.55"/><polygon class="cls-3" points="217.89 187.55 223.53 190.47 225.89 195.93 230.03 200.15 231.51 206 234.01 211.14 236.62 216.23 236.09 221.85 238.36 228.64 231.66 226.78 225.43 226.47 219.72 224.21 218.3 216.58 211.8 215.22 206.71 212.03 202.54 207.84 198.43 203.59 195.98 198.02 195.87 190.97 189.88 188.04 185.11 184.02 181.81 178.95 182.13 172.37 180.12 166.68 183.83 162.46 188.69 159.62 194.5 161.59 196.82 168.59 201.81 171.34 207.06 174.06 210.2 179.05 213.59 183.7 217.89 187.55"/><polygon class="cls-2" points="194.12 207.54 197.92 211.87 206.18 211.58 206.06 219.79 214.24 220.35 212.91 228.68 220.44 230.72 223.86 236.25 220.1 242.38 215.25 241.02 208.51 245.29 203.87 240.84 199.07 237.52 195.6 232.23 187.9 233.34 185.18 227.22 178.57 226.15 176.7 219.44 172.25 215.81 166.67 213.16 165.21 206.78 161.64 202.42 157.84 198.19 154.89 193.37 156.71 189.42 160.21 187.91 166.44 186.35 172.17 188.16 174.99 195.26 180.23 197.51 187.54 197.04 191.97 200.95 194.12 207.54"/><polygon class="cls-3" points="194.12 207.54 197.92 211.87 206.18 211.58 206.06 219.79 214.24 220.35 212.91 228.68 220.44 230.72 223.86 236.25 220.1 242.38 215.25 241.02 208.51 245.29 203.87 240.84 199.07 237.52 195.6 232.23 187.9 233.34 185.18 227.22 178.57 226.15 176.7 219.44 172.25 215.81 166.67 213.16 165.21 206.78 161.64 202.42 157.84 198.19 154.89 193.37 156.71 189.42 160.21 187.91 166.44 186.35 172.17 188.16 174.99 195.26 180.23 197.51 187.54 197.04 191.97 200.95 194.12 207.54"/><polygon class="cls-2" points="183.76 230.54 187.38 235.74 194.45 235.6 199.65 238.54 201.97 245.01 205.44 249.69 210.44 252.87 211.74 258.56 216.53 264.63 209.26 267.94 203.31 265.14 198.05 262.5 192 262.58 186.73 260.11 180.6 259.51 174.51 258.45 169.68 254.92 164.72 251.69 162.5 244.5 156.9 242.44 153.69 237.31 148.71 234.36 146.14 229.19 143.24 224.99 143.26 222.33 145.28 217.78 151.36 216.78 156.68 220.06 163.26 218.77 166.77 225.81 173.92 224.02 178.38 228.2 183.76 230.54"/><polygon class="cls-3" points="183.76 230.54 187.38 235.74 194.45 235.6 199.65 238.54 201.97 245.01 205.44 249.69 210.44 252.87 211.74 258.56 216.53 264.63 209.26 267.94 203.31 265.14 198.05 262.5 192 262.58 186.73 260.11 180.6 259.51 174.51 258.45 169.68 254.92 164.72 251.69 162.5 244.5 156.9 242.44 153.69 237.31 148.71 234.36 146.14 229.19 143.24 224.99 143.26 222.33 145.28 217.78 151.36 216.78 156.68 220.06 163.26 218.77 166.77 225.81 173.92 224.02 178.38 228.2 183.76 230.54"/><polygon class="cls-2" points="176.08 254.03 179.15 260.96 186.06 260.49 191.08 263.62 195.67 267.38 198.34 273.4 201.76 277.93 209.79 279.34 206.12 285.63 202.46 286.02 197.25 288.99 190.96 291.28 185.74 287.6 180.4 285.21 176.13 280.17 168.65 283.27 163 281.44 157.2 279.77 152.74 275.59 148.88 270.67 142.22 269.97 138.03 265.57 134.35 260.74 133.4 254.32 128.34 248.51 135.45 245.17 141.49 247.23 146.57 251.23 152.61 250.05 158.5 250.51 164.98 249.8 168.97 255.53 176.08 254.03"/><polygon class="cls-3" points="176.08 254.03 179.15 260.96 186.06 260.49 191.08 263.62 195.67 267.38 198.34 273.4 201.76 277.93 209.79 279.34 206.12 285.63 202.46 286.02 197.25 288.99 190.96 291.28 185.74 287.6 180.4 285.21 176.13 280.17 168.65 283.27 163 281.44 157.2 279.77 152.74 275.59 148.88 270.67 142.22 269.97 138.03 265.57 134.35 260.74 133.4 254.32 128.34 248.51 135.45 245.17 141.49 247.23 146.57 251.23 152.61 250.05 158.5 250.51 164.98 249.8 168.97 255.53 176.08 254.03"/><polygon class="cls-2" points="157.7 278.04 162.86 282.35 168.07 285.43 172.83 289.45 180.06 285.94 183.89 291.78 191.73 289.41 192.36 298.01 194.19 300.22 193.15 304.73 187.51 305.93 181.87 307.27 176.06 306.93 170.41 304.23 164.76 303.95 158.68 306.52 152.59 307.62 147.58 302.87 141.42 303.79 135.21 304.1 131.16 297.88 124.32 299.23 118.56 297.15 116.25 290.39 117.16 286.91 117.58 283.56 123.05 283.38 127.87 275.71 133.96 275.57 139.98 275.57 145.24 283.89 150.96 283.64 157.7 278.04"/><polygon class="cls-3" points="157.7 278.04 162.86 282.35 168.07 285.43 172.83 289.45 180.06 285.94 183.89 291.78 191.73 289.41 192.36 298.01 194.19 300.22 193.15 304.73 187.51 305.93 181.87 307.27 176.06 306.93 170.41 304.23 164.76 303.95 158.68 306.52 152.59 307.62 147.58 302.87 141.42 303.79 135.21 304.1 131.16 297.88 124.32 299.23 118.56 297.15 116.25 290.39 117.16 286.91 117.58 283.56 123.05 283.38 127.87 275.71 133.96 275.57 139.98 275.57 145.24 283.89 150.96 283.64 157.7 278.04"/><polygon class="cls-2" points="147.66 310.57 153.48 312.53 159.21 313.86 164.86 315.23 170.02 318.76 176.93 314.08 182.33 316.75 188.82 317.91 190.75 324.92 184.75 326.13 182.69 334.02 175.43 330.04 170.17 331.85 165.06 336.18 159.46 338.96 153.39 334.73 147.66 334.11 141.74 340.08 135.8 339.9 129.82 339.7 125.24 331.43 119.82 330.33 113.01 333.06 105.95 332.73 107.4 324.92 110.05 322.95 112.41 315.21 119.23 317.24 125.07 317.47 130.64 316.52 136.17 314.53 141.78 310.93 147.66 310.57"/><polygon class="cls-3" points="147.66 310.57 153.48 312.53 159.21 313.86 164.86 315.23 170.02 318.76 176.93 314.08 182.33 316.75 188.82 317.91 190.75 324.92 184.75 326.13 182.69 334.02 175.43 330.04 170.17 331.85 165.06 336.18 159.46 338.96 153.39 334.73 147.66 334.11 141.74 340.08 135.8 339.9 129.82 339.7 125.24 331.43 119.82 330.33 113.01 333.06 105.95 332.73 107.4 324.92 110.05 322.95 112.41 315.21 119.23 317.24 125.07 317.47 130.64 316.52 136.17 314.53 141.78 310.93 147.66 310.57"/><polygon class="cls-2" points="148.88 346.74 154.5 344.76 160.29 339.66 165.84 346.37 171.73 344.35 177.55 344.45 183.58 344.53 187.41 349.86 194.79 352.21 190.93 359.43 183.36 358.44 179.43 364.26 172.9 362.72 167.37 364.32 162.14 368.32 156.38 369.95 150.5 370.86 144.56 370.97 138.66 368.25 132.67 370.71 126.65 370.69 121.36 366.07 116.53 362.13 109.62 363.74 105.17 358.22 111.31 355.19 116.4 353.88 119.69 346.86 126.1 348.11 131.35 345.22 137.63 347.95 143.2 346.85 148.88 346.74"/><polygon class="cls-3" points="148.88 346.74 154.5 344.76 160.29 339.66 165.84 346.37 171.73 344.35 177.55 344.45 183.58 344.53 187.41 349.86 194.79 352.21 190.93 359.43 183.36 358.44 179.43 364.26 172.9 362.72 167.37 364.32 162.14 368.32 156.38 369.95 150.5 370.86 144.56 370.97 138.66 368.25 132.67 370.71 126.65 370.69 121.36 366.07 116.53 362.13 109.62 363.74 105.17 358.22 111.31 355.19 116.4 353.88 119.69 346.86 126.1 348.11 131.35 345.22 137.63 347.95 143.2 346.85 148.88 346.74"/><polygon class="cls-2" points="153.68 368.91 159.53 367.85 165.88 374.88 171.49 373.5 177.22 371.83 183.43 368.19 188.52 373.35 194.01 374.66 200.28 378.04 195.28 383.13 191.38 387.84 185.46 389.08 181.07 394.25 174.09 391.35 168.06 390.61 163 394.47 157.23 394.92 152 400.59 145.7 394.65 140.03 395.41 134.23 397.62 128.46 396.94 122.08 398.72 118.79 391.1 117.41 389.37 113.44 382.1 122.41 384.53 127.51 382.71 131.06 375.87 137.82 378.39 142.46 373.13 148.68 374.71 153.68 368.91"/><polygon class="cls-3" points="153.68 368.91 159.53 367.85 165.88 374.88 171.49 373.5 177.22 371.83 183.43 368.19 188.52 373.35 194.01 374.66 200.28 378.04 195.28 383.13 191.38 387.84 185.46 389.08 181.07 394.25 174.09 391.35 168.06 390.61 163 394.47 157.23 394.92 152 400.59 145.7 394.65 140.03 395.41 134.23 397.62 128.46 396.94 122.08 398.72 118.79 391.1 117.41 389.37 113.44 382.1 122.41 384.53 127.51 382.71 131.06 375.87 137.82 378.39 142.46 373.13 148.68 374.71 153.68 368.91"/><polygon class="cls-2" points="161.34 398.84 166.56 394.72 172.46 393.79 178.43 393.4 184.53 397.26 190.13 400.63 195.89 398.6 202 398.14 206.35 402.61 204.7 408.96 197.44 409.04 194.62 415.59 188.15 415.36 183.68 419.91 178.61 423.43 172.96 425.25 165.97 420.87 161.32 427.52 155.56 429.25 149.08 423.32 143.46 424.93 137.74 425.1 132.49 422.18 124.95 427.34 124.71 419.76 121.51 412.36 126.97 408.44 135.59 411.81 139.77 407.42 146.05 408.04 150.13 402.07 156.32 402.8 161.34 398.84"/><polygon class="cls-3" points="161.34 398.84 166.56 394.72 172.46 393.79 178.43 393.4 184.53 397.26 190.13 400.63 195.89 398.6 202 398.14 206.35 402.61 204.7 408.96 197.44 409.04 194.62 415.59 188.15 415.36 183.68 419.91 178.61 423.43 172.96 425.25 165.97 420.87 161.32 427.52 155.56 429.25 149.08 423.32 143.46 424.93 137.74 425.1 132.49 422.18 124.95 427.34 124.71 419.76 121.51 412.36 126.97 408.44 135.59 411.81 139.77 407.42 146.05 408.04 150.13 402.07 156.32 402.8 161.34 398.84"/><polygon class="cls-2" points="168.93 429.92 173.99 427.2 178.92 423.83 184.57 422.73 189.26 416.68 195.24 415.74 201.41 420.47 207.96 416.23 214.32 421.58 210.86 428.25 207.35 433.12 200.48 433.7 195.83 436.82 192.06 441.73 186.73 444 181.39 446.2 176.52 449.61 171.62 453.3 166.03 455.18 159.44 453.12 154.53 458 148.05 453.7 142.58 457.23 136.28 458.55 131.43 453.51 135.37 449.02 139.47 445.76 139.97 437.14 146.93 436.94 150.41 431.2 156.7 430.58 163.54 431.73 168.93 429.92"/><polygon class="cls-3" points="168.93 429.92 173.99 427.2 178.92 423.83 184.57 422.73 189.26 416.68 195.24 415.74 201.41 420.47 207.96 416.23 214.32 421.58 210.86 428.25 207.35 433.12 200.48 433.7 195.83 436.82 192.06 441.73 186.73 444 181.39 446.2 176.52 449.61 171.62 453.3 166.03 455.18 159.44 453.12 154.53 458 148.05 453.7 142.58 457.23 136.28 458.55 131.43 453.51 135.37 449.02 139.47 445.76 139.97 437.14 146.93 436.94 150.41 431.2 156.7 430.58 163.54 431.73 168.93 429.92"/><polygon class="cls-2" points="181.43 452.25 186.13 448.81 190.97 445.56 195.64 441.82 202.74 443.5 207.66 440.55 213.36 440.46 218.48 435.95 224.06 438.55 222.99 444.22 221.86 450.33 216.59 453.6 214.66 459.91 209.52 463.05 202.74 463.89 201.52 472.01 196.52 475.23 188.13 472.81 183.56 476.26 180.69 483.37 173.44 481.45 169.18 486.49 164.03 490.58 157.54 487.11 155.11 483.83 149.96 479.04 153.13 473.44 160.39 471.77 160.78 463.99 168.8 464.15 171.49 458.34 175.06 453.3 181.43 452.25"/><polygon class="cls-3" points="181.43 452.25 186.13 448.81 190.97 445.56 195.64 441.82 202.74 443.5 207.66 440.55 213.36 440.46 218.48 435.95 224.06 438.55 222.99 444.22 221.86 450.33 216.59 453.6 214.66 459.91 209.52 463.05 202.74 463.89 201.52 472.01 196.52 475.23 188.13 472.81 183.56 476.26 180.69 483.37 173.44 481.45 169.18 486.49 164.03 490.58 157.54 487.11 155.11 483.83 149.96 479.04 153.13 473.44 160.39 471.77 160.78 463.99 168.8 464.15 171.49 458.34 175.06 453.3 181.43 452.25"/><polygon class="cls-2" points="248.73 512.89 251.44 507.72 252.04 501.67 257.52 497.87 260.19 492.86 260.97 486.58 263.62 481.18 266.85 475.22 273.51 479.11 280.85 480.33 279.04 486.94 277.79 492.72 279.11 498.76 272.64 503.4 277.49 510.49 276.02 516.22 270.69 520.61 269.06 526.16 265.85 531.05 264.9 536.98 264.27 543.31 259.08 547.01 255 551.13 251.72 556.04 245.44 558.93 243.38 552.46 245.08 546.79 244.11 541.25 241.16 535.06 245.48 529.96 244.54 523.78 245.82 518.07 248.73 512.89"/><polygon class="cls-3" points="248.73 512.89 251.44 507.72 252.04 501.67 257.52 497.87 260.19 492.86 260.97 486.58 263.62 481.18 266.85 475.22 273.51 479.11 280.85 480.33 279.04 486.94 277.79 492.72 279.11 498.76 272.64 503.4 277.49 510.49 276.02 516.22 270.69 520.61 269.06 526.16 265.85 531.05 264.9 536.98 264.27 543.31 259.08 547.01 255 551.13 251.72 556.04 245.44 558.93 243.38 552.46 245.08 546.79 244.11 541.25 241.16 535.06 245.48 529.96 244.54 523.78 245.82 518.07 248.73 512.89"/><polygon class="cls-2" points="228.18 498.08 230.31 492.53 235.09 488.98 238.47 484.35 242.17 479.98 247.43 477.38 250.61 472.37 255.78 470.58 260.68 468.79 265.69 473.99 259.29 479.11 261.6 485.8 260.92 491.98 257.92 497.16 249.62 499.2 246.87 504.16 244.02 509.1 244.63 516.7 242.08 522.23 235.53 524.35 232.65 529.69 225.37 530.28 224.08 538.11 218.77 542.02 212.87 537.52 209.06 533.53 211.53 527.97 211.1 521.73 214.55 516.8 218.73 512.43 218.17 505.48 222.41 501.18 228.18 498.08"/><polygon class="cls-3" points="228.18 498.08 230.31 492.53 235.09 488.98 238.47 484.35 242.17 479.98 247.43 477.38 250.61 472.37 255.78 470.58 260.68 468.79 265.69 473.99 259.29 479.11 261.6 485.8 260.92 491.98 257.92 497.16 249.62 499.2 246.87 504.16 244.02 509.1 244.63 516.7 242.08 522.23 235.53 524.35 232.65 529.69 225.37 530.28 224.08 538.11 218.77 542.02 212.87 537.52 209.06 533.53 211.53 527.97 211.1 521.73 214.55 516.8 218.73 512.43 218.17 505.48 222.41 501.18 228.18 498.08"/><polygon class="cls-2" points="195.98 474.96 203.06 474.47 207.04 470.09 210.76 465.06 217.61 465.16 221.22 459.32 227.93 460.25 233.19 456.47 239.91 458.76 240.17 465.61 239.18 471.94 232.48 474.62 231.52 481.23 226.69 484.79 223.4 489.77 219.56 494.3 215.33 498.45 208.74 499.55 205.41 504.89 199.93 507.25 192.86 506.57 189.58 512.73 184.15 514.98 178.26 515.53 171.71 514.95 172.02 508.3 172.26 501.72 175.82 496.76 183.6 495.48 183.11 487.27 189.06 484.87 191.59 478.96 195.98 474.96"/><polygon class="cls-3" points="195.98 474.96 203.06 474.47 207.04 470.09 210.76 465.06 217.61 465.16 221.22 459.32 227.93 460.25 233.19 456.47 239.91 458.76 240.17 465.61 239.18 471.94 232.48 474.62 231.52 481.23 226.69 484.79 223.4 489.77 219.56 494.3 215.33 498.45 208.74 499.55 205.41 504.89 199.93 507.25 192.86 506.57 189.58 512.73 184.15 514.98 178.26 515.53 171.71 514.95 172.02 508.3 172.26 501.72 175.82 496.76 183.6 495.48 183.11 487.27 189.06 484.87 191.59 478.96 195.98 474.96"/><polygon class="cls-2" points="272.43 526.47 275.3 521.07 274.8 514.94 276.91 509.41 281.99 505.01 279.87 497.82 286.76 494.82 286.2 486.81 293.73 486.67 298.15 490.57 295.82 497.04 301.8 501.93 297.72 507.89 296.99 513.51 296.55 519.14 299.03 525.18 302.31 531.63 300.38 537.31 298.57 542.97 292.13 547.2 293.49 553.74 294.15 560.49 284.81 562.18 286.94 571.24 279.2 570.74 275.02 567.06 273.14 561.53 272.35 555.74 268.42 549.97 268.62 543.95 274.01 538.43 270.62 532.17 272.43 526.47"/><polygon class="cls-3" points="272.43 526.47 275.3 521.07 274.8 514.94 276.91 509.41 281.99 505.01 279.87 497.82 286.76 494.82 286.2 486.81 293.73 486.67 298.15 490.57 295.82 497.04 301.8 501.93 297.72 507.89 296.99 513.51 296.55 519.14 299.03 525.18 302.31 531.63 300.38 537.31 298.57 542.97 292.13 547.2 293.49 553.74 294.15 560.49 284.81 562.18 286.94 571.24 279.2 570.74 275.02 567.06 273.14 561.53 272.35 555.74 268.42 549.97 268.62 543.95 274.01 538.43 270.62 532.17 272.43 526.47"/><polygon class="cls-2" points="303.03 526.54 308.14 521.82 308.79 516.02 307.54 509.44 308.79 503.52 313.75 499.29 315.96 493.71 323.49 492.92 326.88 484.68 329.17 492.45 331.33 497.75 328.25 503.65 328.84 509.21 329.42 514.92 328.85 520.61 326.77 526.05 331.23 532.88 330.46 538.79 328.75 544.48 320.58 547.85 320.86 554.06 322.91 561.58 318.94 566.45 310.95 567.31 307.65 570.29 306.52 565.94 299.84 561.87 305.5 555.61 300.03 549.88 300.1 543.96 299.77 537.96 303.36 532.59 303.03 526.54"/><polygon class="cls-3" points="303.03 526.54 308.14 521.82 308.79 516.02 307.54 509.44 308.79 503.52 313.75 499.29 315.96 493.71 323.49 492.92 326.88 484.68 329.17 492.45 331.33 497.75 328.25 503.65 328.84 509.21 329.42 514.92 328.85 520.61 326.77 526.05 331.23 532.88 330.46 538.79 328.75 544.48 320.58 547.85 320.86 554.06 322.91 561.58 318.94 566.45 310.95 567.31 307.65 570.29 306.52 565.94 299.84 561.87 305.5 555.61 300.03 549.88 300.1 543.96 299.77 537.96 303.36 532.59 303.03 526.54"/><polygon class="cls-2" points="333.59 531.72 336.58 526.2 333.85 519.92 334.68 514.05 335.05 507.99 340.2 503.39 343.07 498.35 344.86 492.59 350.23 491.73 352.49 495.16 358.36 498.82 354.19 505.6 359.08 510.65 360.48 516.4 360.86 522.26 356.06 527.92 358.26 533.81 359.08 539.74 357.18 545.34 357.35 551.3 351.65 555.81 350.32 561.22 352.43 568.3 345.7 570.64 343.01 576.82 340.5 570.78 333.88 567.21 337.38 560.39 333.05 555.15 334.32 549.2 330.86 543.39 335.87 537.67 333.59 531.72"/><polygon class="cls-3" points="333.59 531.72 336.58 526.2 333.85 519.92 334.68 514.05 335.05 507.99 340.2 503.39 343.07 498.35 344.86 492.59 350.23 491.73 352.49 495.16 358.36 498.82 354.19 505.6 359.08 510.65 360.48 516.4 360.86 522.26 356.06 527.92 358.26 533.81 359.08 539.74 357.18 545.34 357.35 551.3 351.65 555.81 350.32 561.22 352.43 568.3 345.7 570.64 343.01 576.82 340.5 570.78 333.88 567.21 337.38 560.39 333.05 555.15 334.32 549.2 330.86 543.39 335.87 537.67 333.59 531.72"/><polygon class="cls-2" points="365.81 533.64 363.39 527.9 362.61 522 362.18 516.03 362.21 510 364.43 504.23 368.93 499.27 374.2 495.93 374.91 489.01 378.36 494.31 385.07 497.05 386.83 502.87 383.14 509.95 388.81 514.55 391.72 520.03 391.77 525.99 387.25 532.2 388.95 537.85 391.89 543.64 391.97 549.53 388.71 555.1 390.44 561.27 386.47 566.3 386.74 572.91 380.42 571.21 378.38 570.51 372.76 567.62 370.22 562.34 371.46 556 370.69 550.37 367.99 545.04 366.79 539.37 365.81 533.64"/><polygon class="cls-3" points="365.81 533.64 363.39 527.9 362.61 522 362.18 516.03 362.21 510 364.43 504.23 368.93 499.27 374.2 495.93 374.91 489.01 378.36 494.31 385.07 497.05 386.83 502.87 383.14 509.95 388.81 514.55 391.72 520.03 391.77 525.99 387.25 532.2 388.95 537.85 391.89 543.64 391.97 549.53 388.71 555.1 390.44 561.27 386.47 566.3 386.74 572.91 380.42 571.21 378.38 570.51 372.76 567.62 370.22 562.34 371.46 556 370.69 550.37 367.99 545.04 366.79 539.37 365.81 533.64"/><polygon class="cls-2" points="395.49 531.05 394.26 525.26 397.51 518.51 391.45 513.78 392.7 507.67 392.97 501.82 389.9 495.84 391.68 489.7 398.05 489.01 401.09 489.4 407.43 491.06 412.52 494.88 412.76 501.56 414.09 507.34 417.48 512.17 418.73 517.89 423.93 522.35 425.09 528.16 422.68 534.73 427.89 539.65 429.1 545.5 428.97 551.53 422.82 557.15 428.65 564.14 421.9 566.97 418.55 563.48 413.82 560.78 406.51 558.67 406.2 552.01 403.65 546.78 401.95 541.19 401.71 535.13 395.49 531.05"/><polygon class="cls-3" points="395.49 531.05 394.26 525.26 397.51 518.51 391.45 513.78 392.7 507.67 392.97 501.82 389.9 495.84 391.68 489.7 398.05 489.01 401.09 489.4 407.43 491.06 412.52 494.88 412.76 501.56 414.09 507.34 417.48 512.17 418.73 517.89 423.93 522.35 425.09 528.16 422.68 534.73 427.89 539.65 429.1 545.5 428.97 551.53 422.82 557.15 428.65 564.14 421.9 566.97 418.55 563.48 413.82 560.78 406.51 558.67 406.2 552.01 403.65 546.78 401.95 541.19 401.71 535.13 395.49 531.05"/><polygon class="cls-2" points="424.53 518.11 418.46 514.75 421.76 506.59 415.15 503.21 417.38 496.17 414.98 491.04 408.5 486.44 412.46 480.28 414.16 475.93 420.6 472.74 425.12 477.49 429.57 481.49 431.69 487.46 437.62 490.18 439.42 496.1 442.07 501.3 446.31 505.53 450.69 509.82 452.87 515.33 456.01 520.42 458.84 525.74 455.41 532.97 460.95 537.76 459.93 544.03 455.98 548.36 452.19 545.47 446.36 544.81 440.28 542.79 436.07 538.59 435.96 531.23 430.85 527.84 429.89 521.59 424.53 518.11"/><polygon class="cls-3" points="424.53 518.11 418.46 514.75 421.76 506.59 415.15 503.21 417.38 496.17 414.98 491.04 408.5 486.44 412.46 480.28 414.16 475.93 420.6 472.74 425.12 477.49 429.57 481.49 431.69 487.46 437.62 490.18 439.42 496.1 442.07 501.3 446.31 505.53 450.69 509.82 452.87 515.33 456.01 520.42 458.84 525.74 455.41 532.97 460.95 537.76 459.93 544.03 455.98 548.36 452.19 545.47 446.36 544.81 440.28 542.79 436.07 538.59 435.96 531.23 430.85 527.84 429.89 521.59 424.53 518.11"/><polygon class="cls-2" points="444.26 500.02 443.39 493.16 438.56 489.6 435.55 484.64 429.34 481.59 428.75 475.15 429.46 468.66 426.76 463.81 426.89 458.42 432.55 457.84 436.72 462.29 444.58 460.53 446.24 468.13 452.39 469.76 457.89 472.47 458.9 479.64 462.1 484.46 469.2 486.06 469.8 492.92 474.37 496.73 475.82 502.57 482.11 505.73 480.69 512.59 481.32 517.7 484.31 524.26 476.88 525.79 471.95 521.55 468.77 515.85 460.53 517.26 458.55 510.48 452.44 508.49 450.03 502.67 444.26 500.02"/><polygon class="cls-3" points="444.26 500.02 443.39 493.16 438.56 489.6 435.55 484.64 429.34 481.59 428.75 475.15 429.46 468.66 426.76 463.81 426.89 458.42 432.55 457.84 436.72 462.29 444.58 460.53 446.24 468.13 452.39 469.76 457.89 472.47 458.9 479.64 462.1 484.46 469.2 486.06 469.8 492.92 474.37 496.73 475.82 502.57 482.11 505.73 480.69 512.59 481.32 517.7 484.31 524.26 476.88 525.79 471.95 521.55 468.77 515.85 460.53 517.26 458.55 510.48 452.44 508.49 450.03 502.67 444.26 500.02"/><polygon class="cls-2" points="470.06 483.73 464.75 480.95 459.29 478.15 458.65 470.64 453.89 467.18 447.55 464.62 444 459.59 446.12 452.27 447.57 449.22 450.43 446.08 456.43 445.97 462.67 446.59 465.99 452.93 470.91 455.86 477.37 456.67 479.94 462.95 484.52 466.43 492.13 466.57 493.16 473.99 498 477.31 502.68 480.95 506.6 485.35 508.29 491.18 508.25 497 512.44 503.43 504.89 505.98 500.08 500.25 494.47 499.06 490.47 494.48 484.87 492.78 480.99 488.36 474 488.12 470.06 483.73"/><polygon class="cls-3" points="470.06 483.73 464.75 480.95 459.29 478.15 458.65 470.64 453.89 467.18 447.55 464.62 444 459.59 446.12 452.27 447.57 449.22 450.43 446.08 456.43 445.97 462.67 446.59 465.99 452.93 470.91 455.86 477.37 456.67 479.94 462.95 484.52 466.43 492.13 466.57 493.16 473.99 498 477.31 502.68 480.95 506.6 485.35 508.29 491.18 508.25 497 512.44 503.43 504.89 505.98 500.08 500.25 494.47 499.06 490.47 494.48 484.87 492.78 480.99 488.36 474 488.12 470.06 483.73"/><polygon class="cls-2" points="495.68 461.26 490.47 458.48 486.08 454.57 480.37 452.15 477.87 446.22 475.22 440.81 472.03 436.14 466.32 432.51 466.62 425.28 473.31 424.93 479.47 423.36 484.33 427.5 488.62 431.97 494.17 433.48 500.21 434.44 506.83 434.85 510.08 440.56 513.86 445.19 519.06 447.91 523.84 451.26 528.48 454.85 530.56 460.78 534.65 464.76 540.57 468.48 537.03 474.25 532.84 478.46 527.04 476.42 520.98 476.04 515.17 474.51 510.35 470.92 504.28 469.69 502.34 461.68 495.68 461.26"/><polygon class="cls-3" points="495.68 461.26 490.47 458.48 486.08 454.57 480.37 452.15 477.87 446.22 475.22 440.81 472.03 436.14 466.32 432.51 466.62 425.28 473.31 424.93 479.47 423.36 484.33 427.5 488.62 431.97 494.17 433.48 500.21 434.44 506.83 434.85 510.08 440.56 513.86 445.19 519.06 447.91 523.84 451.26 528.48 454.85 530.56 460.78 534.65 464.76 540.57 468.48 537.03 474.25 532.84 478.46 527.04 476.42 520.98 476.04 515.17 474.51 510.35 470.92 504.28 469.69 502.34 461.68 495.68 461.26"/><polygon class="cls-2" points="510.65 437.87 507.12 430.83 500.17 432.56 493.67 432.5 490.03 426.82 484.38 424.83 478.2 422.92 476.77 415.87 478.81 412.03 479.64 407.8 485.26 406.45 491.23 404.74 496.96 406.59 502.21 410.02 508.32 409.34 514.5 409.08 519.77 411.91 525.52 413.32 530.94 415.65 536.25 418.24 539.4 424.63 545.35 425.92 551.71 427.39 554.25 433.39 553.32 438.23 550.21 439.71 545.13 441.13 539.24 444.78 534.08 439.3 528.17 439.98 522.38 439.38 516.79 437.86 510.65 437.87"/><polygon class="cls-3" points="510.65 437.87 507.12 430.83 500.17 432.56 493.67 432.5 490.03 426.82 484.38 424.83 478.2 422.92 476.77 415.87 478.81 412.03 479.64 407.8 485.26 406.45 491.23 404.74 496.96 406.59 502.21 410.02 508.32 409.34 514.5 409.08 519.77 411.91 525.52 413.32 530.94 415.65 536.25 418.24 539.4 424.63 545.35 425.92 551.71 427.39 554.25 433.39 553.32 438.23 550.21 439.71 545.13 441.13 539.24 444.78 534.08 439.3 528.17 439.98 522.38 439.38 516.79 437.86 510.65 437.87"/><polygon class="cls-2" points="503 231.63 498.13 234.9 491.72 235.92 486.42 238.2 481.99 241.81 478.16 246.94 473.54 251.6 466.65 246.6 461.7 248.23 458.98 242.21 462.09 236.77 464.47 231.13 472.05 229.69 473.93 223.69 477.36 218.89 482.59 215.97 484.57 209.27 490.27 206.95 494.21 202.35 499.86 200.15 505.72 198.57 511.95 198.21 515.82 192.32 522.12 194.37 525.07 196.02 527.28 199.56 527.46 206.11 522.31 209.85 519.19 214.79 515.93 219.73 511.31 223.39 504.87 224.94 503 231.63"/><polygon class="cls-3" points="503 231.63 498.13 234.9 491.72 235.92 486.42 238.2 481.99 241.81 478.16 246.94 473.54 251.6 466.65 246.6 461.7 248.23 458.98 242.21 462.09 236.77 464.47 231.13 472.05 229.69 473.93 223.69 477.36 218.89 482.59 215.97 484.57 209.27 490.27 206.95 494.21 202.35 499.86 200.15 505.72 198.57 511.95 198.21 515.82 192.32 522.12 194.37 525.07 196.02 527.28 199.56 527.46 206.11 522.31 209.85 519.19 214.79 515.93 219.73 511.31 223.39 504.87 224.94 503 231.63"/><polygon class="cls-2" points="483.98 212.25 479.21 215.88 475.09 220.05 470.9 224.18 465.11 226.37 460.89 230.4 456.16 233.84 449.91 233.12 446.04 233.68 446.27 229.79 443.39 223.35 449.23 219.55 449.44 213.16 453.65 208.94 456.36 203.78 460.7 199.82 465.8 196.6 465.9 188.92 472.12 186.84 474.89 181.31 480.76 179.25 483.79 173.56 490.46 173.36 495.62 172 501.65 169.06 504.44 175.94 499.49 180.92 499.18 187.06 496.89 192.51 495.07 198.36 489.78 201.86 486.48 206.69 483.98 212.25"/><polygon class="cls-3" points="483.98 212.25 479.21 215.88 475.09 220.05 470.9 224.18 465.11 226.37 460.89 230.4 456.16 233.84 449.91 233.12 446.04 233.68 446.27 229.79 443.39 223.35 449.23 219.55 449.44 213.16 453.65 208.94 456.36 203.78 460.7 199.82 465.8 196.6 465.9 188.92 472.12 186.84 474.89 181.31 480.76 179.25 483.79 173.56 490.46 173.36 495.62 172 501.65 169.06 504.44 175.94 499.49 180.92 499.18 187.06 496.89 192.51 495.07 198.36 489.78 201.86 486.48 206.69 483.98 212.25"/><polygon class="cls-2" points="456.56 188.22 458.92 196.42 450.3 197.66 452.63 206.51 443.75 206.81 443.53 214.41 436.59 215.32 433.32 220.53 426.3 223.11 428.24 215.45 424.28 209.74 426.37 204.15 425.49 197.66 431.62 193.74 435.86 189.38 438.11 184.15 435.86 176.27 438.96 171.23 447.52 169.94 449.78 164.57 451.43 158.51 454.76 153.62 459.16 149.65 464.83 147.6 470.56 146.45 470.65 152.15 472.12 157.71 470.13 163.14 466.21 167.82 464.71 173.27 467.27 180.77 463.22 185.32 456.56 188.22"/><polygon class="cls-3" points="456.56 188.22 458.92 196.42 450.3 197.66 452.63 206.51 443.75 206.81 443.53 214.41 436.59 215.32 433.32 220.53 426.3 223.11 428.24 215.45 424.28 209.74 426.37 204.15 425.49 197.66 431.62 193.74 435.86 189.38 438.11 184.15 435.86 176.27 438.96 171.23 447.52 169.94 449.78 164.57 451.43 158.51 454.76 153.62 459.16 149.65 464.83 147.6 470.56 146.45 470.65 152.15 472.12 157.71 470.13 163.14 466.21 167.82 464.71 173.27 467.27 180.77 463.22 185.32 456.56 188.22"/><polygon class="cls-2" points="434.68 174.85 436.45 182.26 431.37 186.18 425.7 189.47 426.08 196.75 418.98 198.54 415.71 203.09 414.18 211.17 407.81 206.73 400.39 204.55 406.01 198.32 404.34 192.35 402.3 185.77 406.87 180.95 409.53 175.71 412.36 170.6 410.99 163.54 419.21 161.15 418.64 154.24 422.25 149.6 423.69 143.45 426.72 138.15 434.06 136.9 438.22 133.04 442.72 133.58 446.19 136.71 447.79 142.57 444.67 148.02 447.64 154.74 439.09 158.23 443.4 165.9 439.94 170.86 434.68 174.85"/><polygon class="cls-3" points="434.68 174.85 436.45 182.26 431.37 186.18 425.7 189.47 426.08 196.75 418.98 198.54 415.71 203.09 414.18 211.17 407.81 206.73 400.39 204.55 406.01 198.32 404.34 192.35 402.3 185.77 406.87 180.95 409.53 175.71 412.36 170.6 410.99 163.54 419.21 161.15 418.64 154.24 422.25 149.6 423.69 143.45 426.72 138.15 434.06 136.9 438.22 133.04 442.72 133.58 446.19 136.71 447.79 142.57 444.67 148.02 447.64 154.74 439.09 158.23 443.4 165.9 439.94 170.86 434.68 174.85"/><polygon class="cls-2" points="379.13 152.45 384.39 159.39 380.47 164.53 377.42 169.72 372.97 174.23 375.2 181.35 371.39 186.01 366.35 189.16 362.5 193.73 361.5 187.61 354.61 183.89 359.3 177.41 355.87 171.89 359.35 166.23 360.11 160.63 353.8 154.09 361.38 149.38 362.68 143.86 359.97 137.34 362.03 131.88 360.56 125.16 365.37 120.7 371.83 117.74 372.82 111.91 377.74 105.52 384.16 111.34 386.81 117.49 386.97 123.75 385.31 129.81 381.12 135.5 382.09 141.29 382.43 147.14 379.13 152.45"/><polygon class="cls-3" points="379.13 152.45 384.39 159.39 380.47 164.53 377.42 169.72 372.97 174.23 375.2 181.35 371.39 186.01 366.35 189.16 362.5 193.73 361.5 187.61 354.61 183.89 359.3 177.41 355.87 171.89 359.35 166.23 360.11 160.63 353.8 154.09 361.38 149.38 362.68 143.86 359.97 137.34 362.03 131.88 360.56 125.16 365.37 120.7 371.83 117.74 372.82 111.91 377.74 105.52 384.16 111.34 386.81 117.49 386.97 123.75 385.31 129.81 381.12 135.5 382.09 141.29 382.43 147.14 379.13 152.45"/><polygon class="cls-2" points="408.63 158.43 404.94 163.62 408.62 170.49 401.6 174.59 402.54 181 401.65 187.04 398.95 192.48 391.68 194.17 387.88 200.53 386.31 193.31 383.57 188.54 379.01 183.23 384.85 177.16 380.97 171.37 385.09 165.89 385.07 160.16 383.41 154.07 385.92 148.67 384.12 142.27 389.45 137.74 391.42 132.4 394.15 127.45 394.82 121.47 397.45 116.22 402.14 117.94 403.09 119.81 405.23 124.25 411.13 129.19 408.94 135.14 413.57 141.12 405.88 146.44 409.32 152.62 408.63 158.43"/><polygon class="cls-3" points="408.63 158.43 404.94 163.62 408.62 170.49 401.6 174.59 402.54 181 401.65 187.04 398.95 192.48 391.68 194.17 387.88 200.53 386.31 193.31 383.57 188.54 379.01 183.23 384.85 177.16 380.97 171.37 385.09 165.89 385.07 160.16 383.41 154.07 385.92 148.67 384.12 142.27 389.45 137.74 391.42 132.4 394.15 127.45 394.82 121.47 397.45 116.22 402.14 117.94 403.09 119.81 405.23 124.25 411.13 129.19 408.94 135.14 413.57 141.12 405.88 146.44 409.32 152.62 408.63 158.43"/><polygon class="cls-2" points="350.63 152.93 356.33 158.81 358.28 164.87 355.31 170.54 353.85 176.28 354.17 182.46 346.1 185.9 348.2 193.28 342.34 198.75 339.34 191.27 333.46 187.88 331.4 182.22 333.38 175.81 330.63 170.39 332.12 164.42 333.58 158.61 326.62 152.93 334.16 147.28 327.7 141.1 329.51 135.34 333.68 130.11 335.93 124.83 335.91 118.94 339.15 114.45 342.34 109.41 348.11 112.66 348.83 118.92 348.37 124.93 351.05 130.1 354.13 135.47 351.55 141.53 357.37 147.01 350.63 152.93"/><polygon class="cls-3" points="350.63 152.93 356.33 158.81 358.28 164.87 355.31 170.54 353.85 176.28 354.17 182.46 346.1 185.9 348.2 193.28 342.34 198.75 339.34 191.27 333.46 187.88 331.4 182.22 333.38 175.81 330.63 170.39 332.12 164.42 333.58 158.61 326.62 152.93 334.16 147.28 327.7 141.1 329.51 135.34 333.68 130.11 335.93 124.83 335.91 118.94 339.15 114.45 342.34 109.41 348.11 112.66 348.83 118.92 348.37 124.93 351.05 130.1 354.13 135.47 351.55 141.53 357.37 147.01 350.63 152.93"/><circle class="cls-1" cx="266.82" cy="48.52" r="12.75" transform="translate(108.69 268.85) rotate(-64.64)"/><path class="cls-1" d="M241.34,22.33A12.71,12.71,0,0,0,223.2,32.59c-.22-.13-.44-.25-.67-.36a12.75,12.75,0,1,0,6.06,17,12.56,12.56,0,0,0,1.16-4.2c.22.12.43.25.66.36a12.75,12.75,0,1,0,10.93-23Z"/><circle class="cls-1" cx="236.46" cy="61.38" r="14.13"/><circle class="cls-1" cx="228.5" cy="46.26" r="12.68"/><circle class="cls-1" cx="253.81" cy="40.43" r="13.87"/><path class="cls-1" d="M243.21,74.2c.58,1.74,1.15,3.51,1.69,5.31A159.46,159.46,0,0,1,251.65,127"/><path class="cls-1" d="M255.36,55.1a99.78,99.78,0,0,0,1.41,14.62c1.14,6.65,2.71,11.74,5,19.09,1.71,5.54,2.57,8.32,4,11.87a106.61,106.61,0,0,0,11,20.77"/><circle class="cls-1" cx="97.4" cy="94.49" r="13.87"/><circle class="cls-1" cx="108.44" cy="129.17" r="14.13"/><circle class="cls-1" cx="119.93" cy="104.45" r="12.75" transform="translate(-38.96 97.6) rotate(-38.59)"/><path class="cls-1" d="M85.21,115.84a12.75,12.75,0,0,0-2,17.92,12.56,12.56,0,0,0,3.27,2.88c-.21.15-.42.29-.62.45a12.78,12.78,0,1,0,14.66-.87c.2-.15.41-.28.61-.44a12.75,12.75,0,0,0-15.9-19.94Z"/><path class="cls-1" d="M112.21,104.27A14.13,14.13,0,0,1,110,124.13a15.86,15.86,0,0,1-8.08,3,14.19,14.19,0,0,1-5.7-.83,13.67,13.67,0,0,1-6.08-4.42c-3.69-5-4.51-14.46,2.24-19.85A14.12,14.12,0,0,1,112.21,104.27Z"/><path class="cls-1" d="M106.58,143.78q3.72,3.53,7.38,7.24a295.93,295.93,0,0,1,52.23,72"/><path class="cls-1" d="M121.87,133.91a129.58,129.58,0,0,0,12.07,15.78c6.14,6.87,11.76,11.71,19.88,18.7,6.11,5.26,9.19,7.91,13.49,11.1a161.12,161.12,0,0,0,29,17"/><g id="Inner"><path class="cls-1" d="M370.28,466.18a10.41,10.41,0,0,0-1.1-.16c3.14-.42,5.59-2.12,6.07-4.57.67-3.41-2.74-6.95-7.62-7.91-4.45-.87-8.56.7-9.77,3.56l-.18-.12a11.07,11.07,0,0,1-8,1.22c-5.13-1-8.72-4.73-8-8.31,0-.15.08-.28.12-.42l-.1,0a.88.88,0,0,0,.12-.26c.45-2.29-7.78-5.84-18.39-7.93s-19.58-1.91-20,.39c-.11.59.35,1.26,1.27,2a67.51,67.51,0,0,0-7.17.59,4.52,4.52,0,0,1-.06.53c-.52,2.65-4,4.19-7.8,3.45a9.62,9.62,0,0,1-2.69-.95c-.17.08-.31.17-.47.26a13.56,13.56,0,0,0-4.56-1.72c-4.16-.82-7.84.12-8.23,2.08s2.67,4.22,6.83,5c.36.06.7.12,1.05.16a2,2,0,0,0-.06.23,6.25,6.25,0,0,0-.11,1.06c3.53,1,6,3.59,5.78,6.18-2.42-.31-4.47.31-4.7,1.5s1.72,2.8,4.43,3.33a9.22,9.22,0,0,0,2.52.16c1.08.76,2.26,1.52,3.53,2.26,1.17-3.74,6.32-5.86,11.9-4.76,5.85,1.15,9.94,5.39,9.14,9.48l-.06.21a3.91,3.91,0,0,0-2.08,2.57c-.62,3.12,3.74,6.6,9.73,7.77s11.35-.4,12-3.51a.41.41,0,0,1,0-.11c.77.06,1.54.13,2.29.17a0,0,0,0,1,0,0c.65-3.34,5.06-5.28,9.84-4.34a10.41,10.41,0,0,1,6.38,3.71l1.52-.28a2.45,2.45,0,0,0-.08.29c-.47,2.4,1.93,4.89,5.37,5.56s6.6-.72,7.07-3.12c.43-2.18-1.52-4.44-4.46-5.34a15.13,15.13,0,0,0,1.77-1.08,10.36,10.36,0,0,0,4.89,2.34c4.39.86,8.44-.93,9-4S374.67,467,370.28,466.18Zm-3.72-.1-.18,0s0,0,0,0Z"/><path class="cls-1" d="M219.85,297c.21-.28.39-.56.56-.84-1,2.68-.7,5.2.89,6.37,2.23,1.63,6.2,0,8.87-3.66,2.43-3.32,3-7.15,1.34-9.05l.16-.1a11,11,0,0,1,2.36-6.91c2.81-3.84,7-5.56,9.32-3.84a1.78,1.78,0,0,1,.26.22l.06-.06a.58.58,0,0,0,.14.17c1.5,1.1,7.42-4.44,13.23-12.37s9.3-15.26,7.8-16.36c-.38-.28-1.06-.12-1.95.4a64.11,64.11,0,0,0,2.46-6,1.93,1.93,0,0,1-.36-.22c-1.73-1.26-1.45-4.59.63-7.42a9.37,9.37,0,0,1,1.78-1.87V235a14.29,14.29,0,0,0,3.1-3.15c2.27-3.11,3.08-6.39,1.79-7.33s-4.16.82-6.44,3.92c-.19.27-.37.54-.54.8l-.14-.12a4.93,4.93,0,0,0-.74-.43c-2.16,2.54-5,3.69-6.86,2.71,1.21-1.86,1.58-3.71.8-4.29s-2.75.51-4.23,2.53a10.24,10.24,0,0,0-1.13,2c-1,.63-2,1.34-3.08,2.14,2.27,2.13,1.74,7-1.32,11.16-3.2,4.37-8,6.34-10.63,4.38,0,0-.08-.08-.13-.11a3,3,0,0,0-1-2.51c-2-1.49-6.34.93-9.62,5.41s-4.29,9.32-2.26,10.81l.08,0c-.36.61-.72,1.21-1.06,1.81h0c2.18,1.6,1.82,5.79-.79,9.36a10.38,10.38,0,0,1-5.3,4c-.15.45-.28.89-.41,1.32a1.3,1.3,0,0,0-.18-.15c-1.57-1.15-4.36,0-6.24,2.57s-2.13,5.58-.57,6.73,3.86.18,5.71-1.92a14.55,14.55,0,0,0,.07,1.78,10.66,10.66,0,0,0-3.68,3.22c-2.4,3.29-2.73,7.14-.72,8.61S217.45,300.29,219.85,297Zm1.58-3,.06-.15h0Z"/><path class="cls-1" d="M466,368.88c-.2.32-.38.65-.54,1,.74-3.08,0-6-2.08-7.3-2.94-1.85-7.47.06-10.12,4.27-2.41,3.83-2.42,8.24-.19,10.4l-.18.12a11.09,11.09,0,0,1-1.75,7.94c-2.79,4.43-7.55,6.44-10.64,4.5l-.35-.26-.06.07a1,1,0,0,0-.2-.2c-2-1.24-8.25,5.17-14,14.32s-8.82,17.58-6.84,18.83c.51.31,1.3.12,2.29-.48a69.58,69.58,0,0,0-2,6.91l.48.24c2.28,1.44,2.46,5.25.41,8.52a9.66,9.66,0,0,1-1.86,2.17c0,.18.05.35.08.53a13.59,13.59,0,0,0-3.24,3.64c-2.26,3.59-2.71,7.36-1,8.42s4.9-1,7.16-4.56c.19-.31.36-.61.53-.92.06,0,.12.1.19.14a6.5,6.5,0,0,0,.95.48c2.21-2.93,5.49-4.27,7.84-3.17-1.16,2.15-1.32,4.28-.28,4.93s3.23-.61,4.69-2.94a9,9,0,0,0,1.05-2.3c1.11-.73,2.24-1.56,3.39-2.48-3.08-2.43-3.2-8-.18-12.81,3.18-5.05,8.61-7.34,12.14-5.13l.17.13a4,4,0,0,0,1.65,2.87c2.69,1.69,7.51-1.13,10.75-6.29s3.71-10.73,1-12.42l-.1,0c.34-.7.68-1.39,1-2.08h0c-2.88-1.82-3.11-6.63-.52-10.75a10.5,10.5,0,0,1,5.76-4.63c.1-.51.2-1,.29-1.51a1.46,1.46,0,0,0,.24.17c2.07,1.31,5.25,0,7.12-3s1.69-6.42-.38-7.73c-1.88-1.18-4.68-.17-6.58,2.25a15.42,15.42,0,0,0-.37-2,10.35,10.35,0,0,0,3.93-3.72c2.39-3.79,2.17-8.22-.48-9.88S468.39,365.09,466,368.88Zm-1.43,3.44c0,.06,0,.12,0,.18h0Z"/><path class="cls-1" d="M434.62,254.53a9.93,9.93,0,0,0,.59.94c-2.36-2.11-5.25-2.86-7.41-1.63-3,1.71-3.49,6.61-1,10.93,2.23,3.94,6.1,6,9.06,5.1a1.49,1.49,0,0,1,0,.21A11.12,11.12,0,0,1,442,275.4c2.57,4.54,2.09,9.69-1.09,11.49l-.39.18a.36.36,0,0,0,0,.09,1.07,1.07,0,0,0-.27.08c-2,1.16.63,9.72,6,19.12s11.29,16.1,13.33,14.95c.52-.3.73-1.09.67-2.24a67.17,67.17,0,0,0,5.12,5.05,3.41,3.41,0,0,1,.44-.3c2.35-1.33,5.8.32,7.7,3.68a9.94,9.94,0,0,1,1,2.66c.16.07.33.12.49.18a13.9,13.9,0,0,0,1.68,4.58c2.08,3.69,5.19,5.88,6.93,4.89s1.46-4.77-.63-8.46c-.17-.31-.36-.61-.55-.9l.21-.1a6.65,6.65,0,0,0,.88-.62c-1.54-3.33-1.16-6.86.92-8.41,1.34,2.05,3.14,3.2,4.21,2.59s1-3.13-.36-5.53a9.24,9.24,0,0,0-1.53-2c-.12-1.32-.31-2.71-.58-4.15-3.6,1.55-8.56-1-11.36-5.93-2.94-5.19-2.38-11.06,1.24-13.11l.2-.09a4,4,0,0,0,3.31-.1c2.76-1.56,2.56-7.14-.45-12.45s-7.69-8.35-10.45-6.78l-.09.06c-.45-.62-.9-1.25-1.36-1.85h0c-3,1.68-7.3-.39-9.7-4.63a10.45,10.45,0,0,1-1.35-7.27c-.4-.33-.8-.66-1.2-1a2.21,2.21,0,0,0,.27-.12c2.13-1.21,2.46-4.66.73-7.7s-4.85-4.54-7-3.33c-1.94,1.09-2.38,4-1.15,6.86a15,15,0,0,0-2-.64,10.33,10.33,0,0,0-1.41-5.23c-2.21-3.9-6.21-5.81-8.93-4.27S432.41,250.64,434.62,254.53Zm2.35,2.89.13.13,0,0A.91.91,0,0,1,437,257.42Z"/><path class="cls-1" d="M209,351c.12.32.25.63.4.94-1.74-2.3-4-3.48-5.94-2.78-2.67,1-3.54,5.25-2,9.53,1.44,3.9,4.41,6.46,6.94,6.15v.19a11,11,0,0,1,4.53,5.82c1.66,4.51.74,9-2.06,10l-.34.1s0,.05,0,.08a.86.86,0,0,0-.23,0c-1.79.66-.47,8.75,3,18.06s7.67,16.32,9.46,15.66c.46-.17.71-.84.78-1.88a65.14,65.14,0,0,0,3.7,5.41,3.49,3.49,0,0,1,.39-.19c2.07-.76,4.74,1.32,6,4.64a9.8,9.8,0,0,1,.57,2.55l.39.25a14.47,14.47,0,0,0,.91,4.37c1.35,3.65,3.68,6.15,5.22,5.58s1.68-4,.34-7.63c-.12-.31-.24-.61-.37-.9l.19-.05a4.73,4.73,0,0,0,.78-.39c-.92-3.23-.26-6.3,1.62-7.3.89,2.05,2.26,3.4,3.2,3.05s1.14-2.6.26-5a9.92,9.92,0,0,0-1.05-2.06c0-1.19,0-2.46-.06-3.79-3.12.73-6.94-2.4-8.75-7.3-1.89-5.13-.83-10.25,2.36-11.42l.17,0a3.14,3.14,0,0,0,2.73.51c2.43-.9,2.84-5.89.9-11.14s-5.48-8.79-7.91-7.9l-.08,0-.93-1.89h0c-2.61,1-6-1.66-7.52-5.85a10.45,10.45,0,0,1-.37-6.69c-.29-.37-.59-.73-.88-1.08l.23-.07c1.88-.69,2.49-3.69,1.38-6.7s-3.53-4.9-5.4-4.21c-1.7.63-2.36,3.17-1.64,5.89a14.39,14.39,0,0,0-1.56-.92,10.29,10.29,0,0,0-.63-4.9c-1.42-3.86-4.51-6.27-6.91-5.38S207.55,347.16,209,351Zm1.64,3a1.13,1.13,0,0,0,.1.13l0,0C210.66,354.11,210.63,354.06,210.61,354Z"/><path class="cls-1" d="M402.52,223.05a10,10,0,0,0-1.1.06c3-1,5.07-3.16,5.07-5.65,0-3.48-4-6.3-9-6.3-4.53,0-8.26,2.34-8.9,5.38l-.2-.09a11.11,11.11,0,0,1-7.66,2.75c-5.23,0-9.46-3-9.46-6.62a3.22,3.22,0,0,1,0-.43h-.1a.9.9,0,0,0,.07-.27c0-2.34-8.77-4.24-19.58-4.24s-19.57,1.9-19.57,4.24c0,.6.58,1.17,1.62,1.69a63.74,63.74,0,0,0-6.93,2,3.07,3.07,0,0,1,.05.53c0,2.7-3.13,4.89-7,4.89a9.52,9.52,0,0,1-2.82-.42l-.4.34a13.83,13.83,0,0,0-4.81-.8c-4.24,0-7.67,1.62-7.67,3.62s3.43,3.63,7.67,3.63c.36,0,.71,0,1.06,0,0,.08,0,.16,0,.23a6.36,6.36,0,0,0,.1,1.07c3.66.31,6.54,2.37,6.86,5-2.44.16-4.32,1.16-4.32,2.38s2.23,2.41,5,2.41A9.23,9.23,0,0,0,323,238c1.21.54,2.51,1.06,3.9,1.54.42-3.89,5.07-7,10.76-7,6,0,10.79,3.37,10.79,7.54,0,.07,0,.14,0,.21a4,4,0,0,0-1.55,2.93c0,3.17,4.95,5.75,11.05,5.75S369,246.41,369,243.24c0,0,0-.07,0-.11.77-.09,1.54-.17,2.29-.27v0c0-3.4,3.94-6.16,8.81-6.16a10.47,10.47,0,0,1,7,2.41l1.43-.57c0,.1,0,.2,0,.3,0,2.45,2.84,4.43,6.34,4.43s6.33-2,6.33-4.43c0-2.22-2.34-4.06-5.4-4.38a14.88,14.88,0,0,0,1.53-1.4,10.32,10.32,0,0,0,5.24,1.35c4.48,0,8.11-2.54,8.11-5.66S407,223.05,402.52,223.05Zm-3.67.62a.85.85,0,0,0-.17.06l0,0Z"/><g id="Inner_molecules" data-name="Inner molecules"><circle class="cls-1" cx="241.18" cy="357.07" r="10.42"/><circle class="cls-1" cx="260.21" cy="297.24" r="10.42"/><circle class="cls-1" cx="300.4" cy="344.18" r="10.42"/><circle class="cls-1" cx="350.18" cy="318.25" r="7.51"/><circle class="cls-1" cx="395.19" cy="439.72" r="7.51"/><circle class="cls-1" cx="388.03" cy="383.2" r="7.51"/><circle class="cls-1" cx="367.18" cy="382.04" r="7.51"/><circle class="cls-1" cx="398.48" cy="413.53" r="7.51"/><circle class="cls-1" cx="480.64" cy="350.95" r="7.51"/><circle class="cls-1" cx="433.23" cy="378.6" r="7.51"/><circle class="cls-1" cx="399.17" cy="462.23" r="9.71"/><circle class="cls-1" cx="387.07" cy="340.05" r="7.51"/><circle class="cls-1" cx="370.44" cy="326.25" r="7.51"/><circle class="cls-1" cx="359.23" cy="345.3" r="7.51"/><circle class="cls-1" cx="286.43" cy="254.7" r="7.51"/><circle class="cls-1" cx="380.59" cy="360.78" r="10.42"/><circle class="cls-1" cx="307" cy="375.69" r="10.42"/><circle class="cls-1" cx="462.98" cy="346.66" r="10.42"/><circle class="cls-1" cx="377.85" cy="262.21" r="10.42"/><circle class="cls-1" cx="369.15" cy="403.11" r="10.42"/><circle class="cls-1" cx="285.27" cy="312.23" r="10.42"/><circle class="cls-1" cx="304.88" cy="411.51" r="10.42"/><circle class="cls-1" cx="409.59" cy="387.7" r="10.42"/><circle class="cls-1" cx="331.93" cy="259.33" r="10.42"/><circle class="cls-1" cx="268.87" cy="360.72" r="10.42"/><circle class="cls-1" cx="343.8" cy="370.23" r="10.42"/><circle class="cls-1" cx="408.35" cy="329.36" r="10.42"/><circle class="cls-1" cx="242.55" cy="325.01" r="10.42"/><circle class="cls-1" cx="376.66" cy="428.69" r="10.42"/><circle class="cls-1" cx="337.01" cy="290.58" r="10.42"/><circle class="cls-1" cx="429.67" cy="351.85" r="10.42"/><circle class="cls-1" cx="273.6" cy="398.75" r="10.42"/><circle class="cls-1" cx="285.57" cy="279.57" r="10.42"/><circle class="cls-1" cx="331.93" cy="337.27" r="10.42"/><circle class="cls-1" cx="329.13" cy="403.19" r="10.42"/><circle class="cls-1" cx="400.95" cy="302.51" r="10.42"/><circle class="cls-1" cx="205.79" cy="326.13" r="10.42"/><circle class="cls-1" cx="252.96" cy="448" r="10.42"/><circle class="cls-1" cx="292.59" cy="229.83" r="10.42"/><circle class="cls-1" cx="421.74" cy="241.55" r="7.51"/><circle class="cls-1" cx="355.51" cy="272.63" r="7.51"/><circle class="cls-1" cx="387.07" cy="317.84" r="7.51"/><circle class="cls-1" cx="370.29" cy="300.58" r="7.51"/><circle class="cls-1" cx="385.05" cy="282.47" r="7.51"/><circle class="cls-1" cx="402.06" cy="256.21" r="7.51"/><circle class="cls-1" cx="428.57" cy="300.58" r="7.51"/><circle class="cls-1" cx="408.34" cy="277.4" r="7.51"/><circle class="cls-1" cx="306.1" cy="245.34" r="7.51"/><circle class="cls-1" cx="312.39" cy="266.53" r="7.51"/><circle class="cls-1" cx="320.93" cy="315.17" r="7.51"/><circle class="cls-1" cx="286.43" cy="428.69" r="7.51"/><circle class="cls-1" cx="262.21" cy="423.31" r="9.71"/><circle class="cls-1" cx="320.93" cy="430.86" r="7.51"/><circle class="cls-1" cx="347.99" cy="390.71" r="7.51"/><circle class="cls-1" cx="321.78" cy="360.72" r="7.51"/><circle class="cls-1" cx="270.63" cy="336.7" r="7.51"/><circle class="cls-1" cx="284.02" cy="377.36" r="7.51"/><circle class="cls-1" cx="354.56" cy="440.61" r="7.51"/><circle class="cls-1" cx="403.28" cy="357.07" r="7.51"/><circle class="cls-1" cx="436.08" cy="323.79" r="7.51"/><circle class="cls-1" cx="343.8" cy="423.66" r="7.51"/><circle class="cls-1" cx="309.1" cy="292.24" r="7.51"/></g></g><polygon class="cls-2" points="517.06 251.53 511.87 253.93 509.58 262.23 502.6 261.07 497.55 264.07 492.89 269.03 486.22 266.67 480.44 267.44 475.96 264.47 475.9 259.26 481.15 256.11 483.11 250.34 486.1 245 492.06 243.08 496.78 239.78 501.65 236.7 506.57 233.69 511.18 230.11 517.16 229.17 522.52 227.21 526.95 222.84 531.62 218.09 538.58 222.8 543.54 222.9 551.6 219.98 551.62 228.57 547.78 233.92 544.11 238.93 536.49 239.4 534.43 246.1 529.16 248.92 524.93 253.22 517.06 251.53"/><polygon class="cls-3" points="517.06 251.53 511.87 253.93 509.58 262.23 502.6 261.07 497.55 264.07 492.89 269.03 486.22 266.67 480.44 267.44 475.96 264.47 475.9 259.26 481.15 256.11 483.11 250.34 486.1 245 492.06 243.08 496.78 239.78 501.65 236.7 506.57 233.69 511.18 230.11 517.16 229.17 522.52 227.21 526.95 222.84 531.62 218.09 538.58 222.8 543.54 222.9 551.6 219.98 551.62 228.57 547.78 233.92 544.11 238.93 536.49 239.4 534.43 246.1 529.16 248.92 524.93 253.22 517.06 251.53"/><g id="Visible"><path class="cls-4" d="M627.74,475.74q-4.62-2.48-9.26-5.16A307.6,307.6,0,0,1,547,413.31"/><path class="cls-4" d="M615.77,489.44a128.53,128.53,0,0,0-15.95-11.84c-7.79-4.92-14.53-8-24.25-12.51-7.33-3.38-11-5.08-16-7A161.76,161.76,0,0,0,527,449.78"/><circle class="cls-4" cx="625.36" cy="479.44" r="14.13"/><circle class="cls-4" cx="625.36" cy="479.44" r="14.13"/><circle class="cls-4" cx="639.48" cy="463.01" r="12.75" transform="translate(-119.95 678.84) rotate(-51.77)"/><path class="cls-4" d="M608.27,482a12.75,12.75,0,0,0,2.13,17.9,12.4,12.4,0,0,0,3.83,2.06c-.16.19-.33.37-.49.57a12.75,12.75,0,1,0,17.9-2.12,12.4,12.4,0,0,0-3.83-2.06c.16-.19.34-.37.49-.57a12.75,12.75,0,1,0-20-15.78Z"/><circle class="cls-4" cx="625.36" cy="479.44" r="14.13"/><circle class="cls-4" cx="634.58" cy="487.41" r="14.13"/><polygon class="cls-2" points="515.82 410.95 511.35 405.46 504.37 408.06 499.71 403.81 493.66 403.01 488.43 400.2 482.05 398.78 477.68 393.71 475.7 385.73 481.12 379.08 488.29 382.97 493.94 378.19 499.52 384.05 505.41 382.73 511.88 379.38 517.25 382.7 523.35 382.6 527.61 388.9 532.59 391.99 539.24 390.67 545.2 391.68 549.42 396.29 556.79 395.94 556.64 404.81 562.71 408.85 556.62 412.58 550.52 411.32 544.92 417.33 539.09 413.83 533.23 413.61 528.33 407.81 522.29 408.94 515.82 410.95"/><polygon class="cls-5" points="515.82 410.95 511.35 405.46 504.37 408.06 499.71 403.81 493.66 403.01 488.43 400.2 482.05 398.78 477.68 393.71 475.7 385.73 481.12 379.08 488.29 382.97 493.94 378.19 499.52 384.05 505.41 382.73 511.88 379.38 517.25 382.7 523.35 382.6 527.61 388.9 532.59 391.99 539.24 390.67 545.2 391.68 549.42 396.29 556.79 395.94 556.64 404.81 562.71 408.85 556.62 412.58 550.52 411.32 544.92 417.33 539.09 413.83 533.23 413.61 528.33 407.81 522.29 408.94 515.82 410.95"/><polygon class="cls-2" points="536.16 385.49 530.97 381.7 524.48 384.74 519.99 379.04 514.36 378.18 508.36 378 501.15 379.19 497.09 373.94 497.42 368.12 497.65 360.26 505.11 362.82 510.69 361.6 516.33 358.69 522.25 357.88 528.19 357.67 533.81 360.99 539.32 363.49 544.89 364.98 550.89 364.34 556.53 365.68 561.48 369.1 568.5 366.99 573.67 370.14 579.48 372.94 580.24 380.05 577.32 386.3 570.24 383.79 565.19 388.42 559.18 385.88 553.4 389.44 547.74 385.45 541.84 386.83 536.16 385.49"/><polygon class="cls-5" points="536.16 385.49 530.97 381.7 524.48 384.74 519.99 379.04 514.36 378.18 508.36 378 501.15 379.19 497.09 373.94 497.42 368.12 497.65 360.26 505.11 362.82 510.69 361.6 516.33 358.69 522.25 357.88 528.19 357.67 533.81 360.99 539.32 363.49 544.89 364.98 550.89 364.34 556.53 365.68 561.48 369.1 568.5 366.99 573.67 370.14 579.48 372.94 580.24 380.05 577.32 386.3 570.24 383.79 565.19 388.42 559.18 385.88 553.4 389.44 547.74 385.45 541.84 386.83 536.16 385.49"/><polygon class="cls-2" points="537.46 304.44 531.15 302.86 526.07 306.87 520.6 309.99 514.3 305.22 508.67 311.2 502.77 308.9 497.22 306.62 489.3 303.85 497.72 300 500.94 296.11 504.47 291.21 510.31 290.13 513.22 282.1 519.38 281.6 525.24 280.56 530.54 277.62 536.47 277.03 542.88 279.57 548.84 281.01 554.3 279.08 559.92 278.18 565.27 280.46 570.08 281.37 577.19 281.17 574.58 287.62 569.5 290.91 565.14 295.05 558.31 294.37 555 301.39 549.7 304.24 544.13 306.42 537.46 304.44"/><polygon class="cls-6" points="537.46 304.44 531.15 302.86 526.07 306.87 520.6 309.99 514.3 305.22 508.67 311.2 502.77 308.9 497.22 306.62 489.3 303.85 497.72 300 500.94 296.11 504.47 291.21 510.31 290.13 513.22 282.1 519.38 281.6 525.24 280.56 530.54 277.62 536.47 277.03 542.88 279.57 548.84 281.01 554.3 279.08 559.92 278.18 565.27 280.46 570.08 281.37 577.19 281.17 574.58 287.62 569.5 290.91 565.14 295.05 558.31 294.37 555 301.39 549.7 304.24 544.13 306.42 537.46 304.44"/><polygon class="cls-2" points="530.88 277.74 525.92 280.95 519.96 281.55 514.66 283.99 509.36 286.76 503.23 285.69 497.79 290.86 492.01 286.24 490.55 282.59 487.23 278.06 491.18 273.51 495.52 269.5 499.45 264.84 506.14 264.44 512.35 263.8 517.49 261.41 522.18 257.99 527.26 255.31 531.75 250.79 537.08 248.23 543.06 247.93 549.03 248.38 554.53 245.14 560.1 248.19 563.26 250.55 563.31 254.76 562.25 261.54 558.22 266.25 553.3 269.78 544.54 266.83 542.54 274.97 536.7 276.46 530.88 277.74"/><polygon class="cls-6" points="530.88 277.74 525.92 280.95 519.96 281.55 514.66 283.99 509.36 286.76 503.23 285.69 497.79 290.86 492.01 286.24 490.55 282.59 487.23 278.06 491.18 273.51 495.52 269.5 499.45 264.84 506.14 264.44 512.35 263.8 517.49 261.41 522.18 257.99 527.26 255.31 531.75 250.79 537.08 248.23 543.06 247.93 549.03 248.38 554.53 245.14 560.1 248.19 563.26 250.55 563.31 254.76 562.25 261.54 558.22 266.25 553.3 269.78 544.54 266.83 542.54 274.97 536.7 276.46 530.88 277.74"/><circle class="cls-4" cx="646.4" cy="178.43" r="13.87"/><circle class="cls-4" cx="665.17" cy="224.74" r="12.75" transform="translate(-35.68 266.79) rotate(-22.1)"/><path class="cls-4" d="M664.1,188.21a12.73,12.73,0,0,0-20.3-4.71c-.08-.23-.16-.47-.25-.71a12.79,12.79,0,1,0-3.33,14.3c.08.24.15.48.25.71a12.75,12.75,0,1,0,23.63-9.59Z"/><circle class="cls-4" cx="646.4" cy="208.4" r="14.13"/><circle class="cls-4" cx="665.17" cy="224.74" r="12.75" transform="translate(-35.68 266.79) rotate(-22.1)"/><path class="cls-4" d="M664.1,188.21a12.73,12.73,0,0,0-20.3-4.71c-.08-.23-.16-.47-.25-.71a12.79,12.79,0,1,0-3.33,14.3c.08.24.15.48.25.71a12.75,12.75,0,1,0,23.63-9.59Z"/><circle class="cls-4" cx="644.43" cy="208.4" r="14.13"/><circle class="cls-4" cx="665.04" cy="203.14" r="14.13"/><path class="cls-4" d="M631.3,203.12q-4,1.84-8.15,3.59a252.46,252.46,0,0,1-74,18.65"/><path class="cls-4" d="M636.34,219.35a106.47,106.47,0,0,0-16,4c-7.27,2.41-12.78,5.09-20.76,8.95-6,2.91-9,4.38-12.84,6.59a131.33,131.33,0,0,0-22.24,16.35"/><circle class="cls-4" cx="686.29" cy="322.68" r="12.68"/><circle class="cls-4" cx="668.7" cy="324.11" r="12.75" transform="translate(338.5 989.82) rotate(-89.48)"/><path class="cls-4" d="M655.63,358.24a12.71,12.71,0,0,0,16.93,12.15c0,.25,0,.5,0,.75a12.8,12.8,0,1,0,8.57-11.91c0-.25,0-.5,0-.76a12.75,12.75,0,0,0-25.5-.23Z"/><circle class="cls-4" cx="687.74" cy="346.66" r="14.13"/><circle class="cls-4" cx="673.61" cy="339.17" r="12.68"/><path class="cls-4" d="M662,335.72q-5.09.51-10.3.87a296.12,296.12,0,0,1-88.61-7.36"/><path class="cls-4" d="M656.73,354.5a123.88,123.88,0,0,0-18.86-1.3c-8.75.07-15.71,1-25.75,2.43-7.57,1.05-11.38,1.58-16.33,2.64a151,151,0,0,0-30,10"/></g><g id="HiddenGap"><polygon class="cls-7" points="541.57 362.99 535.74 357.62 529.7 361.63 523.93 359.71 518.69 355.4 512.58 356.49 507.85 352.47 501.7 352.18 495.36 347.32 503.18 344.52 506.19 338.08 511.47 334.61 518.38 338.24 524.09 337.84 529.54 334.92 535.29 333.42 541.15 333.47 547.01 332.59 552.77 334.74 558.5 335.73 564.4 335.48 570.75 334.14 575.09 340.14 581.49 340.36 585.19 346.02 581.3 351.3 574.47 350.24 569.75 353.46 564.77 357.41 558.45 354.57 552.97 356.73 547.29 358.01 541.57 362.99"/><polygon class="cls-8" points="541.57 362.99 535.74 357.62 529.7 361.63 523.93 359.71 518.69 355.4 512.58 356.49 507.85 352.47 501.7 352.18 495.36 347.32 503.18 344.52 506.19 338.08 511.47 334.61 518.38 338.24 524.09 337.84 529.54 334.92 535.29 333.42 541.15 333.47 547.01 332.59 552.77 334.74 558.5 335.73 564.4 335.48 570.75 334.14 575.09 340.14 581.49 340.36 585.19 346.02 581.3 351.3 574.47 350.24 569.75 353.46 564.77 357.41 558.45 354.57 552.97 356.73 547.29 358.01 541.57 362.99"/><polygon class="cls-7" points="535.09 333.18 529.4 336.79 523.57 330.12 517.48 337.66 511.63 335.89 506.47 331.02 501.17 329.12 496.74 326.3 489.2 324.59 491.96 316.29 499.01 315.38 504.74 313.76 510.6 313.02 516.71 314.11 521.5 307.66 527.86 311.32 533.62 311.38 539.24 307.15 545.04 313.3 550.82 310.61 556.74 309.31 562.85 308.44 567.61 313.48 573.75 313.72 579.81 318.51 571.71 320.69 569.65 327.85 562.65 325.71 557.58 328.39 551.99 329.47 546.71 332.71 540.95 333.57 535.09 333.18"/><polygon class="cls-8" points="535.09 333.18 529.4 336.79 523.57 330.12 517.48 337.66 511.63 335.89 506.47 331.02 501.17 329.12 496.74 326.3 489.2 324.59 491.96 316.29 499.01 315.38 504.74 313.76 510.6 313.02 516.71 314.11 521.5 307.66 527.86 311.32 533.62 311.38 539.24 307.15 545.04 313.3 550.82 310.61 556.74 309.31 562.85 308.44 567.61 313.48 573.75 313.72 579.81 318.51 571.71 320.69 569.65 327.85 562.65 325.71 557.58 328.39 551.99 329.47 546.71 332.71 540.95 333.57 535.09 333.18"/></g><g id="Camera"><rect x="771.11" y="329.43" width="49.71" height="30.29" rx="5.25"/><polygon points="749.79 355.5 749.87 334.49 769.65 339.93 769.65 349.66 749.79 355.5"/><circle class="cls-9" cx="784.76" cy="318.29" r="7.29"/><circle class="cls-9" cx="807.3" cy="318.29" r="7.29"/></g></g></svg>