<svg xmlns="http://www.w3.org/2000/svg" viewBox="0 0 822.05 680.31"><defs><style>.cls-1,.cls-2,.cls-4,.cls-6{fill:#fff;}.cls-1,.cls-3{stroke:#878787;}.cls-1,.cls-3,.cls-4,.cls-5,.cls-6{stroke-miterlimit:10;}.cls-1,.cls-3,.cls-4,.cls-5{stroke-width:3px;}.cls-3,.cls-5{fill:none;}.cls-4,.cls-5{stroke:#84c1eb;}.cls-6{stroke:#1d1d1b;stroke-width:4px;}</style></defs><title>Visible</title><g id="Visible_Artboard_Layer" data-name="Visible Artboard/Layer"><path class="cls-1" d="M130.54,550.42q3.63-3.78,7.47-7.52a307.21,307.21,0,0,1,74.45-53.41"/><path class="cls-1" d="M117.47,538.29A133.25,133.25,0,0,0,134,525.63c7.18-6.43,12.22-12.31,19.51-20.8,5.49-6.4,8.25-9.61,11.58-14.11a168.09,168.09,0,0,0,17.65-30.26"/><circle class="cls-1" cx="129.94" cy="565.86" r="12.75" transform="translate(-371.39 273.03) rotate(-46.78)"/><path class="cls-1" d="M113.71,533.11a12.73,12.73,0,0,0-20.41,4.2c-.17-.18-.33-.37-.52-.54a12.77,12.77,0,1,0,3,14.38c.17.18.33.37.52.55a12.75,12.75,0,0,0,17.46-18.59Z"/><circle class="cls-1" cx="96.35" cy="571.12" r="14.13"/><circle class="cls-1" cx="119.06" cy="557.18" r="13.87"/><circle class="cls-1" cx="93.86" cy="555.24" r="12.68"/><circle class="cls-1" cx="119.06" cy="557.18" r="13.87"/><circle class="cls-1" cx="93.86" cy="555.24" r="12.68"/><path class="cls-1" d="M253,613q2.13-4.8,4.45-9.62a307.45,307.45,0,0,1,51.69-75.66"/><path class="cls-1" d="M236.54,606a134.74,134.74,0,0,0,11.16-17.53c4.54-8.51,7.27-15.75,11.22-26.23,3-7.89,4.47-11.85,6.05-17.22a168,168,0,0,0,6.24-34.46"/><circle class="cls-1" cx="212.69" cy="637.8" r="12.75" transform="translate(-429.89 835.59) rotate(-88.67)"/><path class="cls-1" d="M246.63,651.34A12.71,12.71,0,0,0,259,634.59l.75.06A12.81,12.81,0,1,0,248,625.91l-.75-.06a12.75,12.75,0,1,0-.6,25.49Z"/><circle class="cls-1" cx="235.14" cy="627.08" r="14.13"/><circle class="cls-1" cx="212.69" cy="637.8" r="12.75" transform="translate(-429.89 835.59) rotate(-88.67)"/><path class="cls-1" d="M246.63,651.34A12.71,12.71,0,0,0,259,634.59l.75.06A12.81,12.81,0,1,0,248,625.91l-.75-.06a12.75,12.75,0,1,0-.6,25.49Z"/><circle class="cls-1" cx="235.14" cy="627.08" r="14.13"/><circle class="cls-1" cx="225.41" cy="614.01" r="14.13"/><path class="cls-1" d="M408.35,641.24q-1.14-5.12-2.13-10.38a307.12,307.12,0,0,1-3.28-91.57"/><path class="cls-1" d="M391,645.4a140.85,140.85,0,0,0-1.34-21.46c-1.38-9.87-3.5-17.57-6.57-28.71-2.31-8.38-3.47-12.6-5.4-18A171.93,171.93,0,0,0,362,544.74"/><circle class="cls-1" cx="433.23" cy="642.31" r="12.75" transform="translate(-332.74 758.67) rotate(-64.64)"/><path class="cls-1" d="M407.74,616.12a12.73,12.73,0,0,0-18.14,10.26c-.22-.12-.43-.25-.66-.36a12.81,12.81,0,1,0,7.21,12.78c.22.12.44.25.67.36a12.75,12.75,0,0,0,10.92-23Z"/><circle class="cls-1" cx="402.87" cy="657.62" r="14.13"/><circle class="cls-1" cx="420.21" cy="637.38" r="13.87"/><circle class="cls-1" cx="395.63" cy="643.27" r="12.68"/><circle class="cls-1" cx="420.21" cy="637.38" r="13.87"/><circle class="cls-1" cx="395.63" cy="643.27" r="12.68"/><path class="cls-1" d="M52.36,440.61q4.48-2.72,9.17-5.32a307.23,307.23,0,0,1,85.79-32.18"/><path class="cls-1" d="M46.7,423.31A129.55,129.55,0,0,0,65,415.67c8.21-4.19,14.32-8.39,23.15-14.46,6.65-4.56,10-6.86,14.18-10.21a161.73,161.73,0,0,0,23.8-23.67"/><circle class="cls-1" cx="39.66" cy="435.11" r="14.13"/><circle class="cls-1" cx="28.24" cy="415.94" r="12.75" transform="translate(-62.59 9.06) rotate(-8.7)"/><path class="cls-1" d="M20.82,451.72A12.7,12.7,0,0,0,39.47,461c0,.25,0,.5.08.75a12.81,12.81,0,1,0,6.55-13.13c0-.25,0-.5-.08-.76a12.75,12.75,0,1,0-25.2,3.86Z"/><circle class="cls-1" cx="17.18" cy="437.25" r="14.13"/><path class="cls-1" d="M42.68,302.51c3.39.36,6.8.79,10.25,1.28a295.66,295.66,0,0,1,85.17,25.57"/><path class="cls-1" d="M48.85,285.39A129.19,129.19,0,0,0,68,290.62c9,1.74,16.45,2.18,27.14,2.82,8.06.48,12.11.72,17.46.65A161.94,161.94,0,0,0,146,290"/><circle class="cls-1" cx="21.29" cy="282.63" r="12.68"/><circle class="cls-1" cx="43.33" cy="282.43" r="12.68"/><circle class="cls-1" cx="45.77" cy="304.08" r="12.68"/><circle class="cls-1" cx="25.08" cy="297.24" r="12.68"/><circle class="cls-1" cx="31.62" cy="317.84" r="12.68"/><path class="cls-1" d="M536.15,578.64q-3.35-4-6.62-8.28A307.4,307.4,0,0,1,485,490.3"/><path class="cls-1" d="M519.89,586.8a128.88,128.88,0,0,0-10.28-17c-5.36-7.49-10.42-12.91-17.73-20.75-5.5-5.89-8.27-8.86-12.2-12.5a161.73,161.73,0,0,0-26.95-20"/><circle class="cls-1" cx="543.56" cy="596.03" r="14.13"/><circle class="cls-1" cx="515.34" cy="605.52" r="12.75" transform="translate(-279.54 625.55) rotate(-51.04)"/><path class="cls-1" d="M546.79,586.9a12.73,12.73,0,0,0-5.7-20c.16-.18.34-.36.5-.56a12.75,12.75,0,1,0-17.93,1.9,12.56,12.56,0,0,0,3.81,2.11c-.17.18-.35.36-.51.56a12.75,12.75,0,1,0,19.83,16Z"/><circle class="cls-1" cx="529.43" cy="581.9" r="14.13"/><circle class="cls-1" cx="510.57" cy="586.8" r="14.13"/><path class="cls-1" d="M529.17,103.23q-3.72,3.51-7.64,7a296.21,296.21,0,0,1-74.8,48.07"/><path class="cls-1" d="M539.27,116.94a132.37,132.37,0,0,0-16.7,11.5c-7.32,5.92-12.56,11.41-20.12,19.35-5.69,6-8.56,9-12,13.22a166.6,166.6,0,0,0-18.9,28.79"/><circle class="cls-1" cx="526.45" cy="82.14" r="12.75" transform="translate(80.1 373.12) rotate(-41.97)"/><path class="cls-1" d="M539.87,116.13a12.76,12.76,0,0,0,18,1,12.51,12.51,0,0,0,2.68-3.43c.16.2.31.4.48.59a12.8,12.8,0,1,0-1.73-14.58c-.16-.2-.31-.4-.48-.59a12.75,12.75,0,0,0-19,17.06Z"/><circle class="cls-1" cx="560.37" cy="79.71" r="14.13"/><circle class="cls-1" cx="536.56" cy="91.7" r="13.87"/><circle class="cls-1" cx="561.51" cy="95.74" r="12.68"/><circle class="cls-1" cx="536.56" cy="91.7" r="13.87"/><circle class="cls-1" cx="561.51" cy="95.74" r="12.68"/><path class="cls-1" d="M410.8,38.26c-.41,3.38-.87,6.79-1.4,10.23a296.17,296.17,0,0,1-26.57,84.87"/><path class="cls-1" d="M427.84,44.63a130.39,130.39,0,0,0-5.46,19.1c-1.84,9-2.37,16.43-3.13,27.12-.57,8-.86,12.09-.85,17.45a161.74,161.74,0,0,0,3.66,33.37"/><circle class="cls-1" cx="440.53" cy="44.38" r="12.75" transform="translate(103.43 331.43) rotate(-46.17)"/><path class="cls-1" d="M424.65,11.46a12.71,12.71,0,0,0-20.45,4c-.17-.19-.34-.38-.52-.55a12.75,12.75,0,1,0,.37,18,12.57,12.57,0,0,0,2.42-3.61c.17.18.34.37.52.55a12.75,12.75,0,0,0,17.66-18.4Z"/><circle class="cls-1" cx="429.67" cy="32.39" r="13.87"/><circle class="cls-1" cx="404.79" cy="36.84" r="12.68"/><circle class="cls-1" cx="429.67" cy="32.39" r="13.87"/><circle class="cls-1" cx="404.79" cy="36.84" r="12.68"/><polygon class="cls-2" points="322.64 156.28 329.97 161.8 322.55 167.57 330.32 173.74 322.15 178.77 326.82 185.34 320.98 189.76 321.44 196.03 316.98 202.4 314.7 194.31 307.77 192.03 306.56 186.16 301.88 181.3 305.44 174.53 306.87 168.53 305.84 162.94 298.84 157.65 298.67 151.72 306 145.94 304.76 140.23 302.46 134.23 302.46 128.29 303.96 122.53 307.75 117.78 311.88 113.58 314.87 118.54 319.34 122.22 320.54 127.88 319.53 134.01 321.33 139.36 328.32 144.09 327.21 150.16 322.64 156.28"/><polygon class="cls-3" points="322.64 156.28 329.97 161.8 322.55 167.57 330.32 173.74 322.15 178.77 326.82 185.34 320.98 189.76 321.44 196.03 316.98 202.4 314.7 194.31 307.77 192.03 306.56 186.16 301.88 181.3 305.44 174.53 306.87 168.53 305.84 162.94 298.84 157.65 298.67 151.72 306 145.94 304.76 140.23 302.46 134.23 302.46 128.29 303.96 122.53 307.75 117.78 311.88 113.58 314.87 118.54 319.34 122.22 320.54 127.88 319.53 134.01 321.33 139.36 328.32 144.09 327.21 150.16 322.64 156.28"/><polygon class="cls-2" points="296.71 159.17 302.69 164.35 300.37 170.44 297.16 176.31 301.87 182.19 296.52 187.54 296.35 193.13 299.95 200.92 291.87 200.35 284.26 203.03 285.94 194.42 281.07 190.45 275.46 186.17 276.88 179.54 276.3 173.68 275.93 167.85 270.54 162.75 276.65 156.17 272.04 150.74 272.57 144.87 270.2 138.92 269.75 132.81 275.58 127.79 276.89 122.28 280.94 120.41 285.54 120.96 290.19 124.92 290.39 131.28 296.94 135.14 291.09 142.93 299.48 146.83 299.19 152.91 296.71 159.17"/><polygon class="cls-3" points="296.71 159.17 302.69 164.35 300.37 170.44 297.16 176.31 301.87 182.19 296.52 187.54 296.35 193.13 299.95 200.92 291.87 200.35 284.26 203.03 285.94 194.42 281.07 190.45 275.46 186.17 276.88 179.54 276.3 173.68 275.93 167.85 270.54 162.75 276.65 156.17 272.04 150.74 272.57 144.87 270.2 138.92 269.75 132.81 275.58 127.79 276.89 122.28 280.94 120.41 285.54 120.96 290.19 124.92 290.39 131.28 296.94 135.14 291.09 142.93 299.48 146.83 299.19 152.91 296.71 159.17"/><polygon class="cls-2" points="268.88 165.1 276.43 169.3 275 175.59 274.38 181.56 272.22 187.5 277.1 193.08 275.56 198.89 272.3 203.85 270.63 209.57 267.18 204.46 259.43 203.84 260.97 196.05 255.62 192.4 256.42 185.83 254.8 180.41 246.47 177.01 251.33 169.63 250.25 164.06 245.16 159.21 244.78 153.39 240.74 147.87 243.25 141.83 247.85 136.47 246.41 130.75 248.28 122.95 256.49 125.61 261.41 130.13 264.14 135.75 265.13 141.94 263.72 148.84 266.96 153.72 269.66 158.92 268.88 165.1"/><polygon class="cls-3" points="268.88 165.1 276.43 169.3 275 175.59 274.38 181.56 272.22 187.5 277.1 193.08 275.56 198.89 272.3 203.85 270.63 209.57 267.18 204.46 259.43 203.84 260.97 196.05 255.62 192.4 256.42 185.83 254.8 180.41 246.47 177.01 251.33 169.63 250.25 164.06 245.16 159.21 244.78 153.39 240.74 147.87 243.25 141.83 247.85 136.47 246.41 130.75 248.28 122.95 256.49 125.61 261.41 130.13 264.14 135.75 265.13 141.94 263.72 148.84 266.96 153.72 269.66 158.92 268.88 165.1"/><polygon class="cls-2" points="245.93 173.16 245.85 179.47 252.38 183.3 249.1 190.46 253.23 195.36 255.71 200.9 256.43 206.92 251.59 212.35 251.69 219.58 246.41 214.67 241.53 212.11 234.98 210.02 236.22 201.96 230.01 199.12 230.24 192.38 227.11 187.58 222.53 183.33 221.57 177.47 216.75 173.04 218.48 166.41 217.19 160.86 216.71 155.22 214.12 149.82 213.5 144 218.25 142.63 220.3 143.67 224.54 146.29 231.94 147.39 233.5 153.48 240.4 156.09 237.29 164.53 243.33 167.93 245.93 173.16"/><polygon class="cls-3" points="245.93 173.16 245.85 179.47 252.38 183.3 249.1 190.46 253.23 195.36 255.71 200.9 256.43 206.92 251.59 212.35 251.69 219.58 246.41 214.67 241.53 212.11 234.98 210.02 236.22 201.96 230.01 199.12 230.24 192.38 227.11 187.58 222.53 183.33 221.57 177.47 216.75 173.04 218.48 166.41 217.19 160.86 216.71 155.22 214.12 149.82 213.5 144 218.25 142.63 220.3 143.67 224.54 146.29 231.94 147.39 233.5 153.48 240.4 156.09 237.29 164.53 243.33 167.93 245.93 173.16"/><polygon class="cls-2" points="216.94 188.34 224.14 190 229.09 193.7 230.8 199.67 233.41 204.95 237.26 209.64 234.51 216.93 239.78 221.56 238.63 228.97 231.87 226.01 225.46 226.42 220.34 223.34 217.37 217.68 212.06 214.95 209.1 209.71 206.25 204.53 198.35 203.65 199.36 195.45 191.59 193.95 189.12 188.51 188.42 182.18 186.59 176.74 183.16 172.03 182.62 166.48 182.36 160.68 188.68 159.66 193.38 163.6 197.13 168.16 202.33 170.72 207.81 173.25 210.14 179.1 217.29 180.4 216.94 188.34"/><polygon class="cls-3" points="216.94 188.34 224.14 190 229.09 193.7 230.8 199.67 233.41 204.95 237.26 209.64 234.51 216.93 239.78 221.56 238.63 228.97 231.87 226.01 225.46 226.42 220.34 223.34 217.37 217.68 212.06 214.95 209.1 209.71 206.25 204.53 198.35 203.65 199.36 195.45 191.59 193.95 189.12 188.51 188.42 182.18 186.59 176.74 183.16 172.03 182.62 166.48 182.36 160.68 188.68 159.66 193.38 163.6 197.13 168.16 202.33 170.72 207.81 173.25 210.14 179.1 217.29 180.4 216.94 188.34"/><polygon class="cls-2" points="194.03 207.65 198.07 211.71 206.23 211.53 207.76 218.22 212.22 222.02 218.19 224.92 218.51 231.78 221.14 236.98 219.93 242.24 214.99 244.01 210.17 240.38 204.15 240.26 198.2 239.07 194.28 234.3 189.57 230.97 185.02 227.43 180.53 223.81 175.65 220.6 172.63 215.42 168.94 211.05 163.51 208.19 157.71 205.21 159.29 197.39 157.65 192.63 152.77 186.13 160.6 183.34 166.86 185.12 172.75 186.92 175.97 193.52 182.77 193.53 187.24 197.47 192.63 200.09 194.03 207.65"/><polygon class="cls-3" points="194.03 207.65 198.07 211.71 206.23 211.53 207.76 218.22 212.22 222.02 218.19 224.92 218.51 231.78 221.14 236.98 219.93 242.24 214.99 244.01 210.17 240.38 204.15 240.26 198.2 239.07 194.28 234.3 189.57 230.97 185.02 227.43 180.53 223.81 175.65 220.6 172.63 215.42 168.94 211.05 163.51 208.19 157.71 205.21 159.29 197.39 157.65 192.63 152.77 186.13 160.6 183.34 166.86 185.12 172.75 186.92 175.97 193.52 182.77 193.53 187.24 197.47 192.63 200.09 194.03 207.65"/><polygon class="cls-2" points="182.04 233.51 188.98 233.21 193.54 236.91 197.89 240.84 202.4 244.51 204.66 250.48 209.68 253.48 215.1 257 213.12 262.66 209 264.94 203.15 266.15 198.46 260.99 192.1 262.3 187.8 257.56 182.52 255.47 175.53 256.51 171.98 250.94 167.43 247.39 160.11 247.97 156.73 242.66 149.74 241.93 148.97 234.09 143.13 231.62 143.7 224.77 138.76 219.73 145.45 219.76 150.85 220.06 157.04 218.72 162.06 222.15 167.82 223.29 171.62 228.87 178.43 228.1 182.04 233.51"/><polygon class="cls-3" points="182.04 233.51 188.98 233.21 193.54 236.91 197.89 240.84 202.4 244.51 204.66 250.48 209.68 253.48 215.1 257 213.12 262.66 209 264.94 203.15 266.15 198.46 260.99 192.1 262.3 187.8 257.56 182.52 255.47 175.53 256.51 171.98 250.94 167.43 247.39 160.11 247.97 156.73 242.66 149.74 241.93 148.97 234.09 143.13 231.62 143.7 224.77 138.76 219.73 145.45 219.76 150.85 220.06 157.04 218.72 162.06 222.15 167.82 223.29 171.62 228.87 178.43 228.1 182.04 233.51"/><polygon class="cls-2" points="175.05 256.19 181.49 256.5 184.48 263.21 190.57 264.4 195.41 267.74 201.51 269.66 201.46 278.21 204.56 282.3 204.52 284.86 203.45 291.94 197.01 292.11 191.78 287 186.77 283.74 179.97 286.51 174.21 285.21 168.01 284.76 163.94 279.47 160.55 273.41 155.1 271.52 150.72 267.82 141.84 270.49 141.28 261.74 135.37 259.77 129.09 256.76 133.08 250.77 135.97 248.29 141.75 243.88 147.97 243.91 152.57 250.18 157.5 253.53 164.32 251.54 169.68 253.87 175.05 256.19"/><polygon class="cls-3" points="175.05 256.19 181.49 256.5 184.48 263.21 190.57 264.4 195.41 267.74 201.51 269.66 201.46 278.21 204.56 282.3 204.52 284.86 203.45 291.94 197.01 292.11 191.78 287 186.77 283.74 179.97 286.51 174.21 285.21 168.01 284.76 163.94 279.47 160.55 273.41 155.1 271.52 150.72 267.82 141.84 270.49 141.28 261.74 135.37 259.77 129.09 256.76 133.08 250.77 135.97 248.29 141.75 243.88 147.97 243.91 152.57 250.18 157.5 253.53 164.32 251.54 169.68 253.87 175.05 256.19"/><polygon class="cls-2" points="157.16 281.21 163.24 280.56 168.31 284.47 173.02 288.81 178.21 290.95 186.47 286.12 189.98 292.34 196.58 293.77 194.6 300.29 194.61 307.84 187.04 303.57 181.72 305.48 176.07 307.17 170.25 307.94 164.65 305.07 159.26 302.19 152.97 305.41 147.71 302.29 141.21 304.6 135.08 304.54 130.22 300.42 126.53 294.38 121.4 292.42 112.52 294.14 110.21 285.71 118.68 285.9 122.2 279.17 128.25 280.19 133.97 276.68 139.91 277.11 145.27 283.55 151.8 277.37 157.16 281.21"/><polygon class="cls-3" points="157.16 281.21 163.24 280.56 168.31 284.47 173.02 288.81 178.21 290.95 186.47 286.12 189.98 292.34 196.58 293.77 194.6 300.29 194.61 307.84 187.04 303.57 181.72 305.48 176.07 307.17 170.25 307.94 164.65 305.07 159.26 302.19 152.97 305.41 147.71 302.29 141.21 304.6 135.08 304.54 130.22 300.42 126.53 294.38 121.4 292.42 112.52 294.14 110.21 285.71 118.68 285.9 122.2 279.17 128.25 280.19 133.97 276.68 139.91 277.11 145.27 283.55 151.8 277.37 157.16 281.21"/><polygon class="cls-2" points="147.66 314.77 153.33 316.38 159.24 313.46 165.02 313.94 170.86 314.25 176.09 317.28 180.79 320.75 188.27 318.68 186.43 324.92 189.37 332.72 181.95 332.1 177.09 336.39 171.37 338.36 164.91 335.03 159.05 333.94 153.54 338.64 147.66 339.37 141.96 334.32 136.24 334.5 130.42 335.04 124.13 337.47 118.9 333.86 113.67 331.34 106.71 331.64 103.76 324.92 107.73 319.63 114.02 319.37 117.85 311.97 124.5 314.4 130.12 312.44 136.3 316.13 141.94 315.11 147.66 314.77"/><polygon class="cls-3" points="147.66 314.77 153.33 316.38 159.24 313.46 165.02 313.94 170.86 314.25 176.09 317.28 180.79 320.75 188.27 318.68 186.43 324.92 189.37 332.72 181.95 332.1 177.09 336.39 171.37 338.36 164.91 335.03 159.05 333.94 153.54 338.64 147.66 339.37 141.96 334.32 136.24 334.5 130.42 335.04 124.13 337.47 118.9 333.86 113.67 331.34 106.71 331.64 103.76 324.92 107.73 319.63 114.02 319.37 117.85 311.97 124.5 314.4 130.12 312.44 136.3 316.13 141.94 315.11 147.66 314.77"/><polygon class="cls-2" points="148.57 342.09 154.48 344.15 160.29 339.08 165.86 346.08 171.39 347.29 177.05 347.04 184.45 341.74 190.47 344.8 188.78 352.61 189.94 358.21 184.16 360.16 177.62 358.85 172.73 362.06 167.17 363.33 162.4 370.05 156.46 370.66 150.25 367.13 144.49 368.37 138.67 367.21 132.83 368.02 127.18 366.18 121.4 365.85 114.44 368.8 108.66 365.33 102.85 358.37 109.31 352.72 116.33 353.72 121.26 351.53 124.7 342.64 131.32 345.04 136.68 341.54 142.8 343.09 148.57 342.09"/><polygon class="cls-3" points="148.57 342.09 154.48 344.15 160.29 339.08 165.86 346.08 171.39 347.29 177.05 347.04 184.45 341.74 190.47 344.8 188.78 352.61 189.94 358.21 184.16 360.16 177.62 358.85 172.73 362.06 167.17 363.33 162.4 370.05 156.46 370.66 150.25 367.13 144.49 368.37 138.67 367.21 132.83 368.02 127.18 366.18 121.4 365.85 114.44 368.8 108.66 365.33 102.85 358.37 109.31 352.72 116.33 353.72 121.26 351.53 124.7 342.64 131.32 345.04 136.68 341.54 142.8 343.09 148.57 342.09"/><polygon class="cls-2" points="153.76 369.51 160.16 374.34 165.47 367.55 171.44 367.92 177.18 372.74 182.83 373.15 188.18 374.8 194.28 374.14 197.19 378.46 197.93 386 190.55 386.33 186.76 392.22 180.12 391.38 173.94 390.78 168.44 392.36 163.43 396.88 156.94 392.8 151.57 396.22 145.86 397.42 140.08 401.28 134.34 395.46 128.01 400.65 121.79 399.95 116.11 396.29 112.64 390.02 114.43 383.17 119.02 378.4 125.11 376.9 131.2 376.3 138.1 379.42 143.23 376.62 147.96 370.61 153.76 369.51"/><polygon class="cls-3" points="153.76 369.51 160.16 374.34 165.47 367.55 171.44 367.92 177.18 372.74 182.83 373.15 188.18 374.8 194.28 374.14 197.19 378.46 197.93 386 190.55 386.33 186.76 392.22 180.12 391.38 173.94 390.78 168.44 392.36 163.43 396.88 156.94 392.8 151.57 396.22 145.86 397.42 140.08 401.28 134.34 395.46 128.01 400.65 121.79 399.95 116.11 396.29 112.64 390.02 114.43 383.17 119.02 378.4 125.11 376.9 131.2 376.3 138.1 379.42 143.23 376.62 147.96 370.61 153.76 369.51"/><polygon class="cls-2" points="161.63 400.2 167.32 399.19 173.37 400.95 178.45 393.63 184.44 393.52 190.22 398.91 196.73 393.49 201.83 398.55 203.89 403.13 200.55 405.07 198.19 410.19 194.33 415.02 188.57 416.39 182.16 415.55 178.89 424.35 172.99 425.39 166.6 423.86 161.48 428.5 154.93 424.29 149.36 426.84 143.41 422.79 137.63 427.35 131.88 425.89 127.58 421.19 120.63 420.62 125.93 416.51 128.84 411.32 133.54 407.71 138.48 404.29 144.74 404.26 150.26 402.5 155.12 398 161.63 400.2"/><polygon class="cls-3" points="161.63 400.2 167.32 399.19 173.37 400.95 178.45 393.63 184.44 393.52 190.22 398.91 196.73 393.49 201.83 398.55 203.89 403.13 200.55 405.07 198.19 410.19 194.33 415.02 188.57 416.39 182.16 415.55 178.89 424.35 172.99 425.39 166.6 423.86 161.48 428.5 154.93 424.29 149.36 426.84 143.41 422.79 137.63 427.35 131.88 425.89 127.58 421.19 120.63 420.62 125.93 416.51 128.84 411.32 133.54 407.71 138.48 404.29 144.74 404.26 150.26 402.5 155.12 398 161.63 400.2"/><polygon class="cls-2" points="167.63 426.55 173.49 425.73 177.65 419.54 184.75 423.47 189.99 420.56 195.67 419.56 201.41 417.08 206.55 421.91 211.97 422.49 209.69 427.47 207.43 433.21 204.37 439.11 198.25 440.77 191.57 440.83 185.35 441.13 182.02 447.67 175.38 446.65 171.75 453.66 165.55 453.54 159.06 451.58 154.02 455.27 147.95 452.87 142.57 460.56 136.89 456.08 129.54 454.24 134.37 448.34 139.54 445.84 141.04 438.63 145.99 435.4 153.19 436.35 158.24 433.79 161.39 426.73 167.63 426.55"/><polygon class="cls-3" points="167.63 426.55 173.49 425.73 177.65 419.54 184.75 423.47 189.99 420.56 195.67 419.56 201.41 417.08 206.55 421.91 211.97 422.49 209.69 427.47 207.43 433.21 204.37 439.11 198.25 440.77 191.57 440.83 185.35 441.13 182.02 447.67 175.38 446.65 171.75 453.66 165.55 453.54 159.06 451.58 154.02 455.27 147.95 452.87 142.57 460.56 136.89 456.08 129.54 454.24 134.37 448.34 139.54 445.84 141.04 438.63 145.99 435.4 153.19 436.35 158.24 433.79 161.39 426.73 167.63 426.55"/><polygon class="cls-2" points="181.55 452.43 186.59 449.57 191.58 446.68 197.55 445.74 202.03 441.8 208.15 442.02 211.96 433.94 218.47 436.19 222.69 439.45 225.81 445.34 222.08 450.48 216.94 453.92 210.48 455.55 207.83 461.07 204.35 465.96 200.59 470.71 195.12 473.1 190.76 477.17 184.15 477.34 179.97 481.89 175.28 485.84 168.62 484.81 163.62 488.67 157.53 487.65 155 483.89 150.67 479.32 154.83 474.65 158.51 470.07 162.81 466.12 165.56 460.38 171.08 457.81 176.35 455.11 181.55 452.43"/><polygon class="cls-3" points="181.55 452.43 186.59 449.57 191.58 446.68 197.55 445.74 202.03 441.8 208.15 442.02 211.96 433.94 218.47 436.19 222.69 439.45 225.81 445.34 222.08 450.48 216.94 453.92 210.48 455.55 207.83 461.07 204.35 465.96 200.59 470.71 195.12 473.1 190.76 477.17 184.15 477.34 179.97 481.89 175.28 485.84 168.62 484.81 163.62 488.67 157.53 487.65 155 483.89 150.67 479.32 154.83 474.65 158.51 470.07 162.81 466.12 165.56 460.38 171.08 457.81 176.35 455.11 181.55 452.43"/><polygon class="cls-2" points="251.94 514.01 251.87 507.89 254.84 502.91 254.73 496.46 261.03 493.34 258 484.58 264.85 482.23 266.93 475.33 273.92 477.93 277.22 481.34 278.37 486.96 274.26 492.43 279.81 498.87 274.15 503.72 278.12 510.65 273.63 515.48 268.32 519.77 272.98 527.72 267.61 531.84 266.87 537.97 263.89 543.09 261.01 548.32 255.5 551.56 253.2 558.1 245.5 558.77 243.8 552.34 241.44 546.9 242.32 541.1 243.55 535.44 244.17 529.67 242.62 523.28 249.12 519.09 251.94 514.01"/><polygon class="cls-3" points="251.94 514.01 251.87 507.89 254.84 502.91 254.73 496.46 261.03 493.34 258 484.58 264.85 482.23 266.93 475.33 273.92 477.93 277.22 481.34 278.37 486.96 274.26 492.43 279.81 498.87 274.15 503.72 278.12 510.65 273.63 515.48 268.32 519.77 272.98 527.72 267.61 531.84 266.87 537.97 263.89 543.09 261.01 548.32 255.5 551.56 253.2 558.1 245.5 558.77 243.8 552.34 241.44 546.9 242.32 541.1 243.55 535.44 244.17 529.67 242.62 523.28 249.12 519.09 251.94 514.01"/><polygon class="cls-2" points="225.47 496.2 231.29 493.26 231.61 486.12 239.47 485.26 239.3 477.09 243.12 472.33 251.62 473.87 255.16 468.88 260.73 468.71 262.93 474 261.65 479.68 263.32 486.43 257.83 490.58 257.67 497.04 252.37 500.8 252.12 507.51 243.5 508.74 244.3 516.45 240.32 520.78 236.77 525.48 231.17 528.2 225.06 529.9 220.72 533.14 217.15 537.6 211.55 539.42 210.93 533.53 212.28 528.15 215.62 523.38 216.3 517.6 217.8 511.94 220.01 506.55 220.89 500.21 225.47 496.2"/><polygon class="cls-3" points="225.47 496.2 231.29 493.26 231.61 486.12 239.47 485.26 239.3 477.09 243.12 472.33 251.62 473.87 255.16 468.88 260.73 468.71 262.93 474 261.65 479.68 263.32 486.43 257.83 490.58 257.67 497.04 252.37 500.8 252.12 507.51 243.5 508.74 244.3 516.45 240.32 520.78 236.77 525.48 231.17 528.2 225.06 529.9 220.72 533.14 217.15 537.6 211.55 539.42 210.93 533.53 212.28 528.15 215.62 523.38 216.3 517.6 217.8 511.94 220.01 506.55 220.89 500.21 225.47 496.2"/><polygon class="cls-2" points="196.8 475.95 203.17 474.61 208.78 472.59 212.18 467.32 215.93 462.13 222.12 461.26 226.97 457.36 233.34 458.38 237.51 460.74 240.74 465.77 239.18 471.94 232.97 474.97 229.81 479.79 228.6 486.59 224.09 490.48 216.24 490.57 213.2 495.86 210.39 501.72 206.12 505.91 198.49 504.97 193.26 507.3 189.93 513.47 183.4 512.72 178.31 516.14 170.44 516 173.91 508.82 173.9 502.64 178.03 498.35 179.08 491.68 187.72 491.6 188.36 484.14 193.07 480.62 196.8 475.95"/><polygon class="cls-3" points="196.8 475.95 203.17 474.61 208.78 472.59 212.18 467.32 215.93 462.13 222.12 461.26 226.97 457.36 233.34 458.38 237.51 460.74 240.74 465.77 239.18 471.94 232.97 474.97 229.81 479.79 228.6 486.59 224.09 490.48 216.24 490.57 213.2 495.86 210.39 501.72 206.12 505.91 198.49 504.97 193.26 507.3 189.93 513.47 183.4 512.72 178.31 516.14 170.44 516 173.91 508.82 173.9 502.64 178.03 498.35 179.08 491.68 187.72 491.6 188.36 484.14 193.07 480.62 196.8 475.95"/><polygon class="cls-2" points="274.03 526.75 276.83 521.39 274.32 514.81 279.26 510.13 282.81 505.31 278.81 497.33 282.45 492.23 290.32 490.91 293.61 487.33 301.21 489.13 300.58 496.08 301.77 501.93 303.66 507.82 296.22 513.48 303.82 519.8 297.33 524.96 299.43 531.14 294.97 536.16 293.98 541.79 294.62 547.96 288.66 551.96 288.76 558.04 286.53 563.21 283.96 568.28 279.31 570.11 272.74 568.14 276.19 560.91 272.56 555.73 274.19 549.9 274.01 544.19 271.71 538.22 272.58 532.43 274.03 526.75"/><polygon class="cls-3" points="274.03 526.75 276.83 521.39 274.32 514.81 279.26 510.13 282.81 505.31 278.81 497.33 282.45 492.23 290.32 490.91 293.61 487.33 301.21 489.13 300.58 496.08 301.77 501.93 303.66 507.82 296.22 513.48 303.82 519.8 297.33 524.96 299.43 531.14 294.97 536.16 293.98 541.79 294.62 547.96 288.66 551.96 288.76 558.04 286.53 563.21 283.96 568.28 279.31 570.11 272.74 568.14 276.19 560.91 272.56 555.73 274.19 549.9 274.01 544.19 271.71 538.22 272.58 532.43 274.03 526.75"/><polygon class="cls-2" points="305.93 527.19 309.85 522.27 310 516.4 307.08 509.28 309.5 503.83 315.69 500.29 316.81 494.28 323.68 493.12 325.68 490.04 329.08 492.49 329.37 498.05 335.88 503.39 335.69 509.47 329.09 514.89 331.33 520.96 330.16 526.67 327.54 532.05 323.97 537.06 321.79 542.31 322.89 548.68 318.45 553.03 322.12 561.17 316.28 564.66 313.8 570.44 306.64 574.77 306.93 565.77 305.6 561.01 302.19 555.72 298.01 549.8 304.54 544.38 301.71 538.23 307.68 533.38 305.93 527.19"/><polygon class="cls-3" points="305.93 527.19 309.85 522.27 310 516.4 307.08 509.28 309.5 503.83 315.69 500.29 316.81 494.28 323.68 493.12 325.68 490.04 329.08 492.49 329.37 498.05 335.88 503.39 335.69 509.47 329.09 514.89 331.33 520.96 330.16 526.67 327.54 532.05 323.97 537.06 321.79 542.31 322.89 548.68 318.45 553.03 322.12 561.17 316.28 564.66 313.8 570.44 306.64 574.77 306.93 565.77 305.6 561.01 302.19 555.72 298.01 549.8 304.54 544.38 301.71 538.23 307.68 533.38 305.93 527.19"/><polygon class="cls-2" points="337.77 532.07 333.77 525.85 337.17 520.47 338.06 514.78 337.25 508.6 340.9 503.64 343.26 498.44 347.27 494.6 350.22 491.79 354.61 493.94 360.35 498.24 360.76 504.46 360.84 510.48 360.32 516.41 361.95 522.27 356.47 527.94 361.4 534.08 362.45 540.16 356.65 545.25 353.15 550.39 353.34 556.27 353.12 562.22 348.37 566.32 346.04 570.92 342.78 579.48 339.88 571.14 338.58 565.83 339.06 560.1 334.36 555.02 335.82 549.14 336.72 543.41 338.14 537.78 337.77 532.07"/><polygon class="cls-3" points="337.77 532.07 333.77 525.85 337.17 520.47 338.06 514.78 337.25 508.6 340.9 503.64 343.26 498.44 347.27 494.6 350.22 491.79 354.61 493.94 360.35 498.24 360.76 504.46 360.84 510.48 360.32 516.41 361.95 522.27 356.47 527.94 361.4 534.08 362.45 540.16 356.65 545.25 353.15 550.39 353.34 556.27 353.12 562.22 348.37 566.32 346.04 570.92 342.78 579.48 339.88 571.14 338.58 565.83 339.06 560.1 334.36 555.02 335.82 549.14 336.72 543.41 338.14 537.78 337.77 532.07"/><polygon class="cls-2" points="369.36 533.4 364.35 527.88 362.48 522 368.56 516.42 365.94 510.44 363.55 504.07 372.35 500.34 372.49 494.9 374.88 488.51 376.61 495.72 382.82 498.1 383.14 504.11 383.54 509.84 383.89 515.51 392.08 519.98 388.76 526.31 389.95 532.02 392.3 537.76 388.15 543.59 390.67 549.46 389.84 555.23 391.31 561.44 390.39 567.52 387.24 573.21 380.65 574.6 377.37 571.32 375.19 566.49 369.26 562.66 368.91 556.65 371.79 550.15 362.99 545.78 362.73 539.8 369.36 533.4"/><polygon class="cls-3" points="369.36 533.4 364.35 527.88 362.48 522 368.56 516.42 365.94 510.44 363.55 504.07 372.35 500.34 372.49 494.9 374.88 488.51 376.61 495.72 382.82 498.1 383.14 504.11 383.54 509.84 383.89 515.51 392.08 519.98 388.76 526.31 389.95 532.02 392.3 537.76 388.15 543.59 390.67 549.46 389.84 555.23 391.31 561.44 390.39 567.52 387.24 573.21 380.65 574.6 377.37 571.32 375.19 566.49 369.26 562.66 368.91 556.65 371.79 550.15 362.99 545.78 362.73 539.8 369.36 533.4"/><polygon class="cls-2" points="395.04 531.18 395.17 525.02 391.37 519.87 391.74 513.74 396.14 507.27 395.01 501.74 394.98 496.21 393.86 490.41 396.3 483.3 404.96 484.44 406.42 491.85 406.42 498.65 409.36 503.33 411.72 508.4 415.41 513 419.76 517.53 420.56 523.38 422.04 528.96 428.12 533.53 422.16 540.63 426.31 545.82 425.65 551.66 425.67 557.36 424.74 562.87 421.89 566.93 415.59 567.28 415.27 559.64 411.41 555.64 407.49 551.35 403.36 546.91 399.61 542.12 396.65 536.9 395.04 531.18"/><polygon class="cls-3" points="395.04 531.18 395.17 525.02 391.37 519.87 391.74 513.74 396.14 507.27 395.01 501.74 394.98 496.21 393.86 490.41 396.3 483.3 404.96 484.44 406.42 491.85 406.42 498.65 409.36 503.33 411.72 508.4 415.41 513 419.76 517.53 420.56 523.38 422.04 528.96 428.12 533.53 422.16 540.63 426.31 545.82 425.65 551.66 425.67 557.36 424.74 562.87 421.89 566.93 415.59 567.28 415.27 559.64 411.41 555.64 407.49 551.35 403.36 546.91 399.61 542.12 396.65 536.9 395.04 531.18"/><polygon class="cls-2" points="423.74 518.57 420 513.93 418.02 508.36 417.39 502.28 417.58 496.1 412.9 491.61 408.08 486.5 412.3 480.26 413.44 474.68 420.05 473.91 422 481.37 426.73 484.3 430.82 488.2 433.08 493.64 438.63 496.64 444.94 499.49 448.37 504.35 447.39 511.56 452.79 515.37 454.37 521.11 458.59 525.83 457.25 532.46 459.11 538.04 461.96 544.21 457.06 550.23 449.56 551.09 444.59 547.01 444.19 538.92 438.49 536.52 431.36 534.73 430.01 528.42 428.66 522.36 423.74 518.57"/><polygon class="cls-3" points="423.74 518.57 420 513.93 418.02 508.36 417.39 502.28 417.58 496.1 412.9 491.61 408.08 486.5 412.3 480.26 413.44 474.68 420.05 473.91 422 481.37 426.73 484.3 430.82 488.2 433.08 493.64 438.63 496.64 444.94 499.49 448.37 504.35 447.39 511.56 452.79 515.37 454.37 521.11 458.59 525.83 457.25 532.46 459.11 538.04 461.96 544.21 457.06 550.23 449.56 551.09 444.59 547.01 444.19 538.92 438.49 536.52 431.36 534.73 430.01 528.42 428.66 522.36 423.74 518.57"/><polygon class="cls-2" points="444.44 499.86 443.54 493.04 438.28 489.81 433.78 485.82 429.73 481.36 427.84 475.6 427.56 469.35 426.25 463.87 428.48 460.25 433.1 455.61 439.41 457.17 442.75 463.22 446.97 467.2 450.24 472.18 454.03 476.44 461.53 477.16 465.83 481.21 466.56 488.19 470.7 492.25 475.46 496 477.22 501.75 479.31 507.12 483.05 511.74 483.52 517.47 481.99 521.6 477.97 521.38 471.39 522.61 468.89 515.67 461.56 515.96 456.32 512.99 453.51 507.39 449.87 502.82 444.44 499.86"/><polygon class="cls-3" points="444.44 499.86 443.54 493.04 438.28 489.81 433.78 485.82 429.73 481.36 427.84 475.6 427.56 469.35 426.25 463.87 428.48 460.25 433.1 455.61 439.41 457.17 442.75 463.22 446.97 467.2 450.24 472.18 454.03 476.44 461.53 477.16 465.83 481.21 466.56 488.19 470.7 492.25 475.46 496 477.22 501.75 479.31 507.12 483.05 511.74 483.52 517.47 481.99 521.6 477.97 521.38 471.39 522.61 468.89 515.67 461.56 515.96 456.32 512.99 453.51 507.39 449.87 502.82 444.44 499.86"/><polygon class="cls-2" points="471.06 482.52 465.06 480.61 459.49 477.95 459.45 469.9 455.74 465.65 448.73 463.79 445.13 458.97 447.26 451.97 446.32 448.17 450.29 447.66 456.74 445.05 460.35 451.52 465.05 454.58 470.7 456.19 474.61 460.57 481.37 461.11 484.71 466.19 492.2 466.49 492.74 474.41 500.65 474.86 501.03 482.31 505.76 485.95 507.82 491.44 512.27 495.91 510.99 502.21 505.19 502.48 500.35 499.45 493.51 501.1 488.7 497.62 482.41 496.63 477.52 493.26 473.55 488.71 471.06 482.52"/><polygon class="cls-3" points="471.06 482.52 465.06 480.61 459.49 477.95 459.45 469.9 455.74 465.65 448.73 463.79 445.13 458.97 447.26 451.97 446.32 448.17 450.29 447.66 456.74 445.05 460.35 451.52 465.05 454.58 470.7 456.19 474.61 460.57 481.37 461.11 484.71 466.19 492.2 466.49 492.74 474.41 500.65 474.86 501.03 482.31 505.76 485.95 507.82 491.44 512.27 495.91 510.99 502.21 505.19 502.48 500.35 499.45 493.51 501.1 488.7 497.62 482.41 496.63 477.52 493.26 473.55 488.71 471.06 482.52"/><polygon class="cls-2" points="496.81 459.63 490.09 458.99 486.29 454.33 484.37 447.73 476.37 447.71 471.85 443.68 470.5 437.17 464.97 433 465.42 424.44 473.3 421.23 479.19 424.5 485.43 424.53 490.52 427.75 494.06 433.69 499.98 434.82 506.02 436.12 511.71 438.21 516.1 442.23 518.62 448.45 522.48 452.76 525.77 457.52 534.08 457.77 535.01 464.52 540.99 468.33 538.38 475.19 532.84 476.75 526.8 477.42 522.67 471.43 514.81 475.3 511.25 469.19 507.17 464.71 500.94 463.88 496.81 459.63"/><polygon class="cls-3" points="496.81 459.63 490.09 458.99 486.29 454.33 484.37 447.73 476.37 447.71 471.85 443.68 470.5 437.17 464.97 433 465.42 424.44 473.3 421.23 479.19 424.5 485.43 424.53 490.52 427.75 494.06 433.69 499.98 434.82 506.02 436.12 511.71 438.21 516.1 442.23 518.62 448.45 522.48 452.76 525.77 457.52 534.08 457.77 535.01 464.52 540.99 468.33 538.38 475.19 532.84 476.75 526.8 477.42 522.67 471.43 514.81 475.3 511.25 469.19 507.17 464.71 500.94 463.88 496.81 459.63"/><polygon class="cls-2" points="510.61 437.98 504.5 437.43 501.04 430.59 496.44 426.99 489.73 427.35 483.94 425.48 481.68 418.86 475.82 416.55 473.41 410.14 479.54 407.43 485.35 409.4 491.37 403.04 497.16 405.31 502.25 409.85 507.9 410.94 514.07 410.5 519.78 411.89 523.86 417.53 530.38 416.91 535.06 420.59 538.53 426.14 547.05 423.4 549.02 430.53 551.67 435.25 554.76 438.74 551.51 444.35 545.3 446.62 539.35 443.41 533.22 444.84 528.02 440.68 521.64 442.19 517.42 435.81 510.61 437.98"/><polygon class="cls-3" points="510.61 437.98 504.5 437.43 501.04 430.59 496.44 426.99 489.73 427.35 483.94 425.48 481.68 418.86 475.82 416.55 473.41 410.14 479.54 407.43 485.35 409.4 491.37 403.04 497.16 405.31 502.25 409.85 507.9 410.94 514.07 410.5 519.78 411.89 523.86 417.53 530.38 416.91 535.06 420.59 538.53 426.14 547.05 423.4 549.02 430.53 551.67 435.25 554.76 438.74 551.51 444.35 545.3 446.62 539.35 443.41 533.22 444.84 528.02 440.68 521.64 442.19 517.42 435.81 510.61 437.98"/><polygon class="cls-2" points="502.28 230.77 497.06 233.5 491.64 235.8 486.4 238.17 482.55 242.82 477.17 244.8 472.98 249.91 466.97 250.6 462.01 247.97 460.36 242.6 460.74 236.01 467.6 233.4 469.77 227.78 476.16 225.78 479.48 221.07 480.96 214.14 488.72 214.31 489.41 205.82 496.62 205.79 502.21 203.89 506.31 199.62 510.64 195.37 516.05 193.02 522.02 193.12 529.16 192.65 530.05 200.33 528.43 206.66 521.38 209.17 516.3 212.36 516.91 220.65 511.69 223.78 505.57 225.72 502.28 230.77"/><polygon class="cls-3" points="502.28 230.77 497.06 233.5 491.64 235.8 486.4 238.17 482.55 242.82 477.17 244.8 472.98 249.91 466.97 250.6 462.01 247.97 460.36 242.6 460.74 236.01 467.6 233.4 469.77 227.78 476.16 225.78 479.48 221.07 480.96 214.14 488.72 214.31 489.41 205.82 496.62 205.79 502.21 203.89 506.31 199.62 510.64 195.37 516.05 193.02 522.02 193.12 529.16 192.65 530.05 200.33 528.43 206.66 521.38 209.17 516.3 212.36 516.91 220.65 511.69 223.78 505.57 225.72 502.28 230.77"/><polygon class="cls-2" points="480.79 209.5 479.75 216.38 472.17 217.1 468.11 221.08 464.14 225.16 459.85 228.88 456.6 234.67 450.71 236.24 445.65 234.14 445.1 229.67 447.74 224.89 449.04 219.46 451.31 214.25 453.76 209.02 456.95 204.22 458.78 198.3 462.33 193.62 469.45 192.22 471 185.71 476.35 182.93 481.72 180.44 486.26 177.15 490.59 173.61 494.41 167.25 502.52 168.04 502.35 175.74 501.31 181.56 500.66 187.78 494.31 191.01 492.28 196.52 490 202.02 484.2 204.88 480.79 209.5"/><polygon class="cls-3" points="480.79 209.5 479.75 216.38 472.17 217.1 468.11 221.08 464.14 225.16 459.85 228.88 456.6 234.67 450.71 236.24 445.65 234.14 445.1 229.67 447.74 224.89 449.04 219.46 451.31 214.25 453.76 209.02 456.95 204.22 458.78 198.3 462.33 193.62 469.45 192.22 471 185.71 476.35 182.93 481.72 180.44 486.26 177.15 490.59 173.61 494.41 167.25 502.52 168.04 502.35 175.74 501.31 181.56 500.66 187.78 494.31 191.01 492.28 196.52 490 202.02 484.2 204.88 480.79 209.5"/><polygon class="cls-2" points="461.75 191.22 455.28 194.12 454.11 200.29 448.52 203.39 444.06 207.08 442.19 213.08 437.72 216.72 432.54 218.86 428.76 218.85 423.38 215.88 427.57 210.25 426.65 204.23 425.12 197.52 433.3 194.44 432.48 187.78 433.03 181.48 441.39 179.46 438.59 170.99 446.91 169.52 446.28 161.9 452.49 159.41 457.62 156.44 462.1 153.3 464.19 146.24 469.17 148.86 469.26 152.27 470.21 157.41 470.29 163.18 467.69 168.34 467.63 174.49 466.8 180.54 462.54 184.96 461.75 191.22"/><polygon class="cls-3" points="461.75 191.22 455.28 194.12 454.11 200.29 448.52 203.39 444.06 207.08 442.19 213.08 437.72 216.72 432.54 218.86 428.76 218.85 423.38 215.88 427.57 210.25 426.65 204.23 425.12 197.52 433.3 194.44 432.48 187.78 433.03 181.48 441.39 179.46 438.59 170.99 446.91 169.52 446.28 161.9 452.49 159.41 457.62 156.44 462.1 153.3 464.19 146.24 469.17 148.86 469.26 152.27 470.21 157.41 470.29 163.18 467.69 168.34 467.63 174.49 466.8 180.54 462.54 184.96 461.75 191.22"/><polygon class="cls-2" points="436.94 175.92 430.43 179.09 433.99 187.7 430.56 192.6 427.47 197.76 419.95 199.35 419.55 207.16 411.66 206.71 408.19 205.94 403.06 204.11 400.89 197.93 403.18 192.13 404.08 186.25 404.54 180.18 409.02 175.52 408.8 169.07 413.79 164.88 419.13 161.11 421.02 155.62 422.04 149.46 422.81 142.8 431.15 141.89 434.98 137.87 436.26 129.59 443.57 131.79 448.07 136.4 449.39 142.69 445.36 148.15 444.68 153.94 442.11 159.23 439.3 164.33 440.63 171.15 436.94 175.92"/><polygon class="cls-3" points="436.94 175.92 430.43 179.09 433.99 187.7 430.56 192.6 427.47 197.76 419.95 199.35 419.55 207.16 411.66 206.71 408.19 205.94 403.06 204.11 400.89 197.93 403.18 192.13 404.08 186.25 404.54 180.18 409.02 175.52 408.8 169.07 413.79 164.88 419.13 161.11 421.02 155.62 422.04 149.46 422.81 142.8 431.15 141.89 434.98 137.87 436.26 129.59 443.57 131.79 448.07 136.4 449.39 142.69 445.36 148.15 444.68 153.94 442.11 159.23 439.3 164.33 440.63 171.15 436.94 175.92"/><polygon class="cls-2" points="380.12 152.62 381.46 158.77 383.56 165.33 374.32 168.76 376.52 175.54 370.66 179.29 373.33 187.18 367.43 190.24 362.62 193 356.85 189.8 360.28 182.75 354.75 177.8 355.96 171.88 358.58 166.2 357.7 160.41 357.96 154.65 359.41 149.04 358.03 142.87 363.51 138.25 362.5 132.02 361.04 125.33 364.19 120.17 371.78 117.72 369.2 108.31 376.69 111.6 379.75 113.42 381.66 118.53 381.85 124.18 384.67 129.81 380.27 135.47 384.12 141.47 383.23 147.24 380.12 152.62"/><polygon class="cls-3" points="380.12 152.62 381.46 158.77 383.56 165.33 374.32 168.76 376.52 175.54 370.66 179.29 373.33 187.18 367.43 190.24 362.62 193 356.85 189.8 360.28 182.75 354.75 177.8 355.96 171.88 358.58 166.2 357.7 160.41 357.96 154.65 359.41 149.04 358.03 142.87 363.51 138.25 362.5 132.02 361.04 125.33 364.19 120.17 371.78 117.72 369.2 108.31 376.69 111.6 379.75 113.42 381.66 118.53 381.85 124.18 384.67 129.81 380.27 135.47 384.12 141.47 383.23 147.24 380.12 152.62"/><polygon class="cls-2" points="403.5 157.54 408.4 164.36 402.69 168.97 400.42 174.22 402 180.8 401.02 186.75 395.89 190.64 392.95 195.44 388.45 197.22 386.53 193.21 381.95 188.87 378.41 183.28 385.51 177.15 384.95 171.54 378.06 165.25 379.15 159.37 381.4 153.72 384.61 148.39 387.83 143.22 387.41 137.11 388.29 131.25 389.55 125.35 397.72 123.21 394.89 113.68 403.36 110.91 409 117.03 404.67 124.37 409.93 129.29 411.93 135.11 407.9 140.87 406.22 146.47 407.94 152.44 403.5 157.54"/><polygon class="cls-3" points="403.5 157.54 408.4 164.36 402.69 168.97 400.42 174.22 402 180.8 401.02 186.75 395.89 190.64 392.95 195.44 388.45 197.22 386.53 193.21 381.95 188.87 378.41 183.28 385.51 177.15 384.95 171.54 378.06 165.25 379.15 159.37 381.4 153.72 384.61 148.39 387.83 143.22 387.41 137.11 388.29 131.25 389.55 125.35 397.72 123.21 394.89 113.68 403.36 110.91 409 117.03 404.67 124.37 409.93 129.29 411.93 135.11 407.9 140.87 406.22 146.47 407.94 152.44 403.5 157.54"/><polygon class="cls-2" points="353.13 152.93 355.43 158.78 356.23 164.71 350.26 169.9 352.62 176.05 355.25 182.74 348.68 186.89 343.85 190.23 342.34 191.47 338.18 192.09 333.45 187.88 334.09 181.52 335.5 175.42 330.17 170.45 328.6 164.7 333.02 158.63 328.28 152.93 332.2 147.2 333.88 141.6 330.31 135.44 336.19 130.58 335.64 124.75 333.62 118.05 339.79 114.9 342.34 107.77 346.36 113.89 353.33 117.18 351.91 124.01 351.77 129.97 355.2 135.34 355.95 141.18 350.98 147.26 353.13 152.93"/><polygon class="cls-3" points="353.13 152.93 355.43 158.78 356.23 164.71 350.26 169.9 352.62 176.05 355.25 182.74 348.68 186.89 343.85 190.23 342.34 191.47 338.18 192.09 333.45 187.88 334.09 181.52 335.5 175.42 330.17 170.45 328.6 164.7 333.02 158.63 328.28 152.93 332.2 147.2 333.88 141.6 330.31 135.44 336.19 130.58 335.64 124.75 333.62 118.05 339.79 114.9 342.34 107.77 346.36 113.89 353.33 117.18 351.91 124.01 351.77 129.97 355.2 135.34 355.95 141.18 350.98 147.26 353.13 152.93"/><circle class="cls-1" cx="266.82" cy="48.52" r="12.75" transform="translate(108.69 268.85) rotate(-64.64)"/><path class="cls-1" d="M241.34,22.33A12.71,12.71,0,0,0,223.2,32.59c-.22-.13-.44-.25-.67-.36a12.75,12.75,0,1,0,6.06,17,12.56,12.56,0,0,0,1.16-4.2c.22.12.43.25.66.36a12.75,12.75,0,1,0,10.93-23Z"/><circle class="cls-1" cx="236.46" cy="61.38" r="14.13"/><circle class="cls-1" cx="228.5" cy="46.26" r="12.68"/><circle class="cls-1" cx="253.81" cy="40.43" r="13.87"/><path class="cls-1" d="M243.21,74.2c.58,1.74,1.15,3.51,1.69,5.31A159.46,159.46,0,0,1,251.65,127"/><path class="cls-1" d="M255.36,55.1a99.78,99.78,0,0,0,1.41,14.62c1.14,6.65,2.71,11.74,5,19.09,1.71,5.54,2.57,8.32,4,11.87a106.61,106.61,0,0,0,11,20.77"/><circle class="cls-1" cx="97.4" cy="94.49" r="13.87"/><circle class="cls-1" cx="108.44" cy="129.17" r="14.13"/><circle class="cls-1" cx="119.93" cy="104.45" r="12.75" transform="matrix(0.78, -0.62, 0.62, 0.78, -38.96, 97.6)"/><path class="cls-1" d="M85.21,115.84a12.75,12.75,0,0,0-2,17.92,12.56,12.56,0,0,0,3.27,2.88c-.21.15-.42.29-.62.45a12.78,12.78,0,1,0,14.66-.87c.2-.15.41-.28.61-.44a12.75,12.75,0,0,0-15.9-19.94Z"/><path class="cls-1" d="M112.21,104.27A14.13,14.13,0,0,1,110,124.13a15.86,15.86,0,0,1-8.08,3,14.19,14.19,0,0,1-5.7-.83,13.67,13.67,0,0,1-6.08-4.42c-3.69-5-4.51-14.46,2.24-19.85A14.12,14.12,0,0,1,112.21,104.27Z"/><path class="cls-1" d="M106.58,143.78q3.72,3.53,7.38,7.24a295.93,295.93,0,0,1,52.23,72"/><path class="cls-1" d="M121.87,133.91a129.58,129.58,0,0,0,12.07,15.78c6.14,6.87,11.76,11.71,19.88,18.7,6.11,5.26,9.19,7.91,13.49,11.1a161.12,161.12,0,0,0,29,17"/><g id="Inner"><path class="cls-1" d="M370.28,466.18a10.41,10.41,0,0,0-1.1-.16c3.14-.42,5.59-2.12,6.07-4.57.67-3.41-2.74-6.95-7.62-7.91-4.45-.87-8.56.7-9.77,3.56l-.18-.12a11.07,11.07,0,0,1-8,1.22c-5.13-1-8.72-4.73-8-8.31,0-.15.08-.28.12-.42l-.1,0a.88.88,0,0,0,.12-.26c.45-2.29-7.78-5.84-18.39-7.93s-19.58-1.91-20,.39c-.11.59.35,1.26,1.27,2a67.51,67.51,0,0,0-7.17.59,4.52,4.52,0,0,1-.06.53c-.52,2.65-4,4.19-7.8,3.45a9.62,9.62,0,0,1-2.69-.95c-.17.08-.31.17-.47.26a13.56,13.56,0,0,0-4.56-1.72c-4.16-.82-7.84.12-8.23,2.08s2.67,4.22,6.83,5c.36.06.7.12,1.05.16a2,2,0,0,0-.06.23,6.25,6.25,0,0,0-.11,1.06c3.53,1,6,3.59,5.78,6.18-2.42-.31-4.47.31-4.7,1.5s1.72,2.8,4.43,3.33a9.22,9.22,0,0,0,2.52.16c1.08.76,2.26,1.52,3.53,2.26,1.17-3.74,6.32-5.86,11.9-4.76,5.85,1.15,9.94,5.39,9.14,9.48l-.06.21a3.91,3.91,0,0,0-2.08,2.57c-.62,3.12,3.74,6.6,9.73,7.77s11.35-.4,12-3.51a.41.41,0,0,1,0-.11c.77.06,1.54.13,2.29.17a0,0,0,0,1,0,0c.65-3.34,5.06-5.28,9.84-4.34a10.41,10.41,0,0,1,6.38,3.71l1.52-.28a2.45,2.45,0,0,0-.08.29c-.47,2.4,1.93,4.89,5.37,5.56s6.6-.72,7.07-3.12c.43-2.18-1.52-4.44-4.46-5.34a15.13,15.13,0,0,0,1.77-1.08,10.36,10.36,0,0,0,4.89,2.34c4.39.86,8.44-.93,9-4S374.67,467,370.28,466.18Zm-3.72-.1-.18,0s0,0,0,0Z"/><path class="cls-1" d="M219.85,297c.21-.28.39-.56.56-.84-1,2.68-.7,5.2.89,6.37,2.23,1.63,6.2,0,8.87-3.66,2.43-3.32,3-7.15,1.34-9.05l.16-.1a11,11,0,0,1,2.36-6.91c2.81-3.84,7-5.56,9.32-3.84a1.78,1.78,0,0,1,.26.22l.06-.06a.58.58,0,0,0,.14.17c1.5,1.1,7.42-4.44,13.23-12.37s9.3-15.26,7.8-16.36c-.38-.28-1.06-.12-1.95.4a64.11,64.11,0,0,0,2.46-6,1.93,1.93,0,0,1-.36-.22c-1.73-1.26-1.45-4.59.63-7.42a9.37,9.37,0,0,1,1.78-1.87V235a14.29,14.29,0,0,0,3.1-3.15c2.27-3.11,3.08-6.39,1.79-7.33s-4.16.82-6.44,3.92c-.19.27-.37.54-.54.8l-.14-.12a4.93,4.93,0,0,0-.74-.43c-2.16,2.54-5,3.69-6.86,2.71,1.21-1.86,1.58-3.71.8-4.29s-2.75.51-4.23,2.53a10.24,10.24,0,0,0-1.13,2c-1,.63-2,1.34-3.08,2.14,2.27,2.13,1.74,7-1.32,11.16-3.2,4.37-8,6.34-10.63,4.38,0,0-.08-.08-.13-.11a3,3,0,0,0-1-2.51c-2-1.49-6.34.93-9.62,5.41s-4.29,9.32-2.26,10.81l.08,0c-.36.61-.72,1.21-1.06,1.81h0c2.18,1.6,1.82,5.79-.79,9.36a10.38,10.38,0,0,1-5.3,4c-.15.45-.28.89-.41,1.32a1.3,1.3,0,0,0-.18-.15c-1.57-1.15-4.36,0-6.24,2.57s-2.13,5.58-.57,6.73,3.86.18,5.71-1.92a14.55,14.55,0,0,0,.07,1.78,10.66,10.66,0,0,0-3.68,3.22c-2.4,3.29-2.73,7.14-.72,8.61S217.45,300.29,219.85,297Zm1.58-3,.06-.15h0Z"/><path class="cls-1" d="M466,368.88c-.2.32-.38.65-.54,1,.74-3.08,0-6-2.08-7.3-2.94-1.85-7.47.06-10.12,4.27-2.41,3.83-2.42,8.24-.19,10.4l-.18.12a11.09,11.09,0,0,1-1.75,7.94c-2.79,4.43-7.55,6.44-10.64,4.5l-.35-.26-.06.07a1,1,0,0,0-.2-.2c-2-1.24-8.25,5.17-14,14.32s-8.82,17.58-6.84,18.83c.51.31,1.3.12,2.29-.48a69.58,69.58,0,0,0-2,6.91l.48.24c2.28,1.44,2.46,5.25.41,8.52a9.66,9.66,0,0,1-1.86,2.17c0,.18.05.35.08.53a13.59,13.59,0,0,0-3.24,3.64c-2.26,3.59-2.71,7.36-1,8.42s4.9-1,7.16-4.56c.19-.31.36-.61.53-.92.06,0,.12.1.19.14a6.5,6.5,0,0,0,.95.48c2.21-2.93,5.49-4.27,7.84-3.17-1.16,2.15-1.32,4.28-.28,4.93s3.23-.61,4.69-2.94a9,9,0,0,0,1.05-2.3c1.11-.73,2.24-1.56,3.39-2.48-3.08-2.43-3.2-8-.18-12.81,3.18-5.05,8.61-7.34,12.14-5.13l.17.13a4,4,0,0,0,1.65,2.87c2.69,1.69,7.51-1.13,10.75-6.29s3.71-10.73,1-12.42l-.1,0c.34-.7.68-1.39,1-2.08h0c-2.88-1.82-3.11-6.63-.52-10.75a10.5,10.5,0,0,1,5.76-4.63c.1-.51.2-1,.29-1.51a1.46,1.46,0,0,0,.24.17c2.07,1.31,5.25,0,7.12-3s1.69-6.42-.38-7.73c-1.88-1.18-4.68-.17-6.58,2.25a15.42,15.42,0,0,0-.37-2,10.35,10.35,0,0,0,3.93-3.72c2.39-3.79,2.17-8.22-.48-9.88S468.39,365.09,466,368.88Zm-1.43,3.44c0,.06,0,.12,0,.18h0Z"/><path class="cls-1" d="M434.62,254.53a9.93,9.93,0,0,0,.59.94c-2.36-2.11-5.25-2.86-7.41-1.63-3,1.71-3.49,6.61-1,10.93,2.23,3.94,6.1,6,9.06,5.1a1.49,1.49,0,0,1,0,.21A11.12,11.12,0,0,1,442,275.4c2.57,4.54,2.09,9.69-1.09,11.49l-.39.18a.36.36,0,0,0,0,.09,1.07,1.07,0,0,0-.27.08c-2,1.16.63,9.72,6,19.12s11.29,16.1,13.33,14.95c.52-.3.73-1.09.67-2.24a67.17,67.17,0,0,0,5.12,5.05,3.41,3.41,0,0,1,.44-.3c2.35-1.33,5.8.32,7.7,3.68a9.94,9.94,0,0,1,1,2.66c.16.07.33.12.49.18a13.9,13.9,0,0,0,1.68,4.58c2.08,3.69,5.19,5.88,6.93,4.89s1.46-4.77-.63-8.46c-.17-.31-.36-.61-.55-.9l.21-.1a6.65,6.65,0,0,0,.88-.62c-1.54-3.33-1.16-6.86.92-8.41,1.34,2.05,3.14,3.2,4.21,2.59s1-3.13-.36-5.53a9.24,9.24,0,0,0-1.53-2c-.12-1.32-.31-2.71-.58-4.15-3.6,1.55-8.56-1-11.36-5.93-2.94-5.19-2.38-11.06,1.24-13.11l.2-.09a4,4,0,0,0,3.31-.1c2.76-1.56,2.56-7.14-.45-12.45s-7.69-8.35-10.45-6.78l-.09.06c-.45-.62-.9-1.25-1.36-1.85h0c-3,1.68-7.3-.39-9.7-4.63a10.45,10.45,0,0,1-1.35-7.27c-.4-.33-.8-.66-1.2-1a2.21,2.21,0,0,0,.27-.12c2.13-1.21,2.46-4.66.73-7.7s-4.85-4.54-7-3.33c-1.94,1.09-2.38,4-1.15,6.86a15,15,0,0,0-2-.64,10.33,10.33,0,0,0-1.41-5.23c-2.21-3.9-6.21-5.81-8.93-4.27S432.41,250.64,434.62,254.53Zm2.35,2.89.13.13,0,0A.91.91,0,0,1,437,257.42Z"/><path class="cls-1" d="M209,351c.12.32.25.63.4.94-1.74-2.3-4-3.48-5.94-2.78-2.67,1-3.54,5.25-2,9.53,1.44,3.9,4.41,6.46,6.94,6.15v.19a11,11,0,0,1,4.53,5.82c1.66,4.51.74,9-2.06,10l-.34.1s0,.05,0,.08a.86.86,0,0,0-.23,0c-1.79.66-.47,8.75,3,18.06s7.67,16.32,9.46,15.66c.46-.17.71-.84.78-1.88a65.14,65.14,0,0,0,3.7,5.41,3.49,3.49,0,0,1,.39-.19c2.07-.76,4.74,1.32,6,4.64a9.8,9.8,0,0,1,.57,2.55l.39.25a14.47,14.47,0,0,0,.91,4.37c1.35,3.65,3.68,6.15,5.22,5.58s1.68-4,.34-7.63c-.12-.31-.24-.61-.37-.9l.19-.05a4.73,4.73,0,0,0,.78-.39c-.92-3.23-.26-6.3,1.62-7.3.89,2.05,2.26,3.4,3.2,3.05s1.14-2.6.26-5a9.92,9.92,0,0,0-1.05-2.06c0-1.19,0-2.46-.06-3.79-3.12.73-6.94-2.4-8.75-7.3-1.89-5.13-.83-10.25,2.36-11.42l.17,0a3.14,3.14,0,0,0,2.73.51c2.43-.9,2.84-5.89.9-11.14s-5.48-8.79-7.91-7.9l-.08,0-.93-1.89h0c-2.61,1-6-1.66-7.52-5.85a10.45,10.45,0,0,1-.37-6.69c-.29-.37-.59-.73-.88-1.08l.23-.07c1.88-.69,2.49-3.69,1.38-6.7s-3.53-4.9-5.4-4.21c-1.7.63-2.36,3.17-1.64,5.89a14.39,14.39,0,0,0-1.56-.92,10.29,10.29,0,0,0-.63-4.9c-1.42-3.86-4.51-6.27-6.91-5.38S207.55,347.16,209,351Zm1.64,3a1.13,1.13,0,0,0,.1.13l0,0C210.66,354.11,210.63,354.06,210.61,354Z"/><path class="cls-1" d="M402.52,223.05a10,10,0,0,0-1.1.06c3-1,5.07-3.16,5.07-5.65,0-3.48-4-6.3-9-6.3-4.53,0-8.26,2.34-8.9,5.38l-.2-.09a11.11,11.11,0,0,1-7.66,2.75c-5.23,0-9.46-3-9.46-6.62a3.22,3.22,0,0,1,0-.43h-.1a.9.9,0,0,0,.07-.27c0-2.34-8.77-4.24-19.58-4.24s-19.57,1.9-19.57,4.24c0,.6.58,1.17,1.62,1.69a63.74,63.74,0,0,0-6.93,2,3.07,3.07,0,0,1,.05.53c0,2.7-3.13,4.89-7,4.89a9.52,9.52,0,0,1-2.82-.42l-.4.34a13.83,13.83,0,0,0-4.81-.8c-4.24,0-7.67,1.62-7.67,3.62s3.43,3.63,7.67,3.63c.36,0,.71,0,1.06,0,0,.08,0,.16,0,.23a6.36,6.36,0,0,0,.1,1.07c3.66.31,6.54,2.37,6.86,5-2.44.16-4.32,1.16-4.32,2.38s2.23,2.41,5,2.41A9.23,9.23,0,0,0,323,238c1.21.54,2.51,1.06,3.9,1.54.42-3.89,5.07-7,10.76-7,6,0,10.79,3.37,10.79,7.54,0,.07,0,.14,0,.21a4,4,0,0,0-1.55,2.93c0,3.17,4.95,5.75,11.05,5.75S369,246.41,369,243.24c0,0,0-.07,0-.11.77-.09,1.54-.17,2.29-.27v0c0-3.4,3.94-6.16,8.81-6.16a10.47,10.47,0,0,1,7,2.41l1.43-.57c0,.1,0,.2,0,.3,0,2.45,2.84,4.43,6.34,4.43s6.33-2,6.33-4.43c0-2.22-2.34-4.06-5.4-4.38a14.88,14.88,0,0,0,1.53-1.4,10.32,10.32,0,0,0,5.24,1.35c4.48,0,8.11-2.54,8.11-5.66S407,223.05,402.52,223.05Zm-3.67.62a.85.85,0,0,0-.17.06l0,0Z"/><g id="Inner_molecules" data-name="Inner molecules"><circle class="cls-1" cx="241.18" cy="357.07" r="10.42"/><circle class="cls-1" cx="260.21" cy="297.24" r="10.42"/><circle class="cls-1" cx="300.4" cy="344.18" r="10.42"/><circle class="cls-1" cx="350.18" cy="318.25" r="7.51"/><circle class="cls-1" cx="395.19" cy="439.72" r="7.51"/><circle class="cls-1" cx="388.03" cy="383.2" r="7.51"/><circle class="cls-1" cx="367.18" cy="382.04" r="7.51"/><circle class="cls-1" cx="398.48" cy="413.53" r="7.51"/><circle class="cls-1" cx="480.64" cy="350.95" r="7.51"/><circle class="cls-1" cx="433.23" cy="378.6" r="7.51"/><circle class="cls-1" cx="399.17" cy="462.23" r="9.71"/><circle class="cls-1" cx="387.07" cy="340.05" r="7.51"/><circle class="cls-1" cx="370.44" cy="326.25" r="7.51"/><circle class="cls-1" cx="359.23" cy="345.3" r="7.51"/><circle class="cls-1" cx="286.43" cy="254.7" r="7.51"/><circle class="cls-1" cx="380.59" cy="360.78" r="10.42"/><circle class="cls-1" cx="307" cy="375.69" r="10.42"/><circle class="cls-1" cx="462.98" cy="346.66" r="10.42"/><circle class="cls-1" cx="377.85" cy="262.21" r="10.42"/><circle class="cls-1" cx="369.15" cy="403.11" r="10.42"/><circle class="cls-1" cx="285.27" cy="312.23" r="10.42"/><circle class="cls-1" cx="304.88" cy="411.51" r="10.42"/><circle class="cls-1" cx="409.59" cy="387.7" r="10.42"/><circle class="cls-1" cx="331.93" cy="259.33" r="10.42"/><circle class="cls-1" cx="268.87" cy="360.72" r="10.42"/><circle class="cls-1" cx="343.8" cy="370.23" r="10.42"/><circle class="cls-1" cx="408.35" cy="329.36" r="10.42"/><circle class="cls-1" cx="242.55" cy="325.01" r="10.42"/><circle class="cls-1" cx="376.66" cy="428.69" r="10.42"/><circle class="cls-1" cx="337.01" cy="290.58" r="10.42"/><circle class="cls-1" cx="429.67" cy="351.85" r="10.42"/><circle class="cls-1" cx="273.6" cy="398.75" r="10.42"/><circle class="cls-1" cx="285.57" cy="279.57" r="10.42"/><circle class="cls-1" cx="331.93" cy="337.27" r="10.42"/><circle class="cls-1" cx="329.13" cy="403.19" r="10.42"/><circle class="cls-1" cx="400.95" cy="302.51" r="10.42"/><circle class="cls-1" cx="205.79" cy="326.13" r="10.42"/><circle class="cls-1" cx="252.96" cy="448" r="10.42"/><circle class="cls-1" cx="292.59" cy="229.83" r="10.42"/><circle class="cls-1" cx="421.74" cy="241.55" r="7.51"/><circle class="cls-1" cx="355.51" cy="272.63" r="7.51"/><circle class="cls-1" cx="387.07" cy="317.84" r="7.51"/><circle class="cls-1" cx="370.29" cy="300.58" r="7.51"/><circle class="cls-1" cx="385.05" cy="282.47" r="7.51"/><circle class="cls-1" cx="402.06" cy="256.21" r="7.51"/><circle class="cls-1" cx="428.57" cy="300.58" r="7.51"/><circle class="cls-1" cx="408.34" cy="277.4" r="7.51"/><circle class="cls-1" cx="306.1" cy="245.34" r="7.51"/><circle class="cls-1" cx="312.39" cy="266.53" r="7.51"/><circle class="cls-1" cx="320.93" cy="315.17" r="7.51"/><circle class="cls-1" cx="286.43" cy="428.69" r="7.51"/><circle class="cls-1" cx="262.21" cy="423.31" r="9.71"/><circle class="cls-1" cx="320.93" cy="430.86" r="7.51"/><circle class="cls-1" cx="347.99" cy="390.71" r="7.51"/><circle class="cls-1" cx="321.78" cy="360.72" r="7.51"/><circle class="cls-1" cx="270.63" cy="336.7" r="7.51"/><circle class="cls-1" cx="284.02" cy="377.36" r="7.51"/><circle class="cls-1" cx="354.56" cy="440.61" r="7.51"/><circle class="cls-1" cx="403.28" cy="357.07" r="7.51"/><circle class="cls-1" cx="436.08" cy="323.79" r="7.51"/><circle class="cls-1" cx="343.8" cy="423.66" r="7.51"/><circle class="cls-1" cx="309.1" cy="292.24" r="7.51"/></g></g><polygon class="cls-2" points="517.22 251.81 513.63 257.22 508.03 259.04 503.18 262.43 498.57 266.89 491.85 265.36 486.47 268.18 480.67 264.51 477.68 263.45 478.37 260.39 478.74 254.19 481.58 248.82 487.8 246.95 491.53 242.4 498.08 241.63 499.63 233.55 506.14 232.96 510.42 228.69 515.74 226.23 520.07 221.48 526.86 222.58 531.84 218.88 537.66 217.15 544.12 215.57 548.28 221.93 550.12 227.88 547.56 233.75 539.07 233.91 537.97 241.1 533.25 244.57 526.42 245.02 522.02 248.69 517.22 251.81"/><polygon class="cls-3" points="517.22 251.81 513.63 257.22 508.03 259.04 503.18 262.43 498.57 266.89 491.85 265.36 486.47 268.18 480.67 264.51 477.68 263.45 478.37 260.39 478.74 254.19 481.58 248.82 487.8 246.95 491.53 242.4 498.08 241.63 499.63 233.55 506.14 232.96 510.42 228.69 515.74 226.23 520.07 221.48 526.86 222.58 531.84 218.88 537.66 217.15 544.12 215.57 548.28 221.93 550.12 227.88 547.56 233.75 539.07 233.91 537.97 241.1 533.25 244.57 526.42 245.02 522.02 248.69 517.22 251.81"/><g id="Visible"><path class="cls-4" d="M627.74,475.74q-4.62-2.48-9.26-5.16A307.6,307.6,0,0,1,547,413.31"/><path class="cls-4" d="M615.77,489.44a128.53,128.53,0,0,0-15.95-11.84c-7.79-4.92-14.53-8-24.25-12.51-7.33-3.38-11-5.08-16-7A161.76,161.76,0,0,0,527,449.78"/><circle class="cls-4" cx="625.36" cy="479.44" r="14.13"/><circle class="cls-4" cx="625.36" cy="479.44" r="14.13"/><circle class="cls-4" cx="639.48" cy="463.01" r="12.75" transform="translate(-119.95 678.84) rotate(-51.77)"/><path class="cls-4" d="M608.27,482a12.75,12.75,0,0,0,2.13,17.9,12.4,12.4,0,0,0,3.83,2.06c-.16.19-.33.37-.49.57a12.75,12.75,0,1,0,17.9-2.12,12.4,12.4,0,0,0-3.83-2.06c.16-.19.34-.37.49-.57a12.75,12.75,0,1,0-20-15.78Z"/><circle class="cls-4" cx="625.36" cy="479.44" r="14.13"/><circle class="cls-4" cx="634.58" cy="487.41" r="14.13"/><polygon class="cls-2" points="515.35 412.72 509.69 410.87 505.04 406.19 498.41 407 495.76 398.56 487.31 402.16 485.43 394.14 480.43 391.39 475.19 385.6 481.91 381.23 488.08 381.13 493.93 380.1 500.01 377.75 505.33 383.31 511.54 381.29 516.95 384.05 523.21 383.12 528.2 386.98 533.16 390.37 538.44 392.63 545.46 391.14 550.73 393.98 555.97 397.08 558.45 403.29 558.52 407.74 555.1 408.44 550.86 414.4 544.94 410.05 539.43 409.32 533.8 409.28 528.3 408.01 521.62 411.96 515.35 412.72"/><polygon class="cls-5" points="515.35 412.72 509.69 410.87 505.04 406.19 498.41 407 495.76 398.56 487.31 402.16 485.43 394.14 480.43 391.39 475.19 385.6 481.91 381.23 488.08 381.13 493.93 380.1 500.01 377.75 505.33 383.31 511.54 381.29 516.95 384.05 523.21 383.12 528.2 386.98 533.16 390.37 538.44 392.63 545.46 391.14 550.73 393.98 555.97 397.08 558.45 403.29 558.52 407.74 555.1 408.44 550.86 414.4 544.94 410.05 539.43 409.32 533.8 409.28 528.3 408.01 521.62 411.96 515.35 412.72"/><polygon class="cls-2" points="535.54 389.76 531.04 381.31 524 386.82 520.01 378.95 512.72 383.04 507.75 379.45 501.22 379.06 496.07 375.02 495.27 367.81 499.92 364.75 505.32 363.72 510.94 363.8 516.31 358.31 522.14 364.62 528.12 358.78 534.08 358.44 540.12 357.96 544.72 365.91 551.05 363.65 556.4 366.14 561.8 368.13 566.26 372.28 573.49 370.45 578.12 374.39 575.96 379.43 574.47 380.66 571.41 388.91 565.19 388.46 559.21 386.6 553.38 390.96 547.8 384.59 542.16 383.71 535.54 389.76"/><polygon class="cls-5" points="535.54 389.76 531.04 381.31 524 386.82 520.01 378.95 512.72 383.04 507.75 379.45 501.22 379.06 496.07 375.02 495.27 367.81 499.92 364.75 505.32 363.72 510.94 363.8 516.31 358.31 522.14 364.62 528.12 358.78 534.08 358.44 540.12 357.96 544.72 365.91 551.05 363.65 556.4 366.14 561.8 368.13 566.26 372.28 573.49 370.45 578.12 374.39 575.96 379.43 574.47 380.66 571.41 388.91 565.19 388.46 559.21 386.6 553.38 390.96 547.8 384.59 542.16 383.71 535.54 389.76"/><polygon class="cls-2" points="537.41 304.26 532.17 307.54 525.93 306.07 520.38 308.25 514.25 304.51 508.68 309.49 503.31 304.25 496.38 308.86 494.42 302.53 494.64 297.37 496.97 290.57 505.05 292.24 510.62 290.77 513.33 282.36 520.46 284.69 525.35 280.95 531.51 281.38 537.37 281.21 543.12 280.91 548.1 275.14 553.88 272.94 559.92 277.33 565.35 279.83 571.79 276.81 572.21 282.46 574.79 287.8 568.79 289.91 562.66 290.6 557.53 292.69 553.38 297.33 548.68 301.28 543.89 305.62 537.41 304.26"/><polygon class="cls-5" points="537.41 304.26 532.17 307.54 525.93 306.07 520.38 308.25 514.25 304.51 508.68 309.49 503.31 304.25 496.38 308.86 494.42 302.53 494.64 297.37 496.97 290.57 505.05 292.24 510.62 290.77 513.33 282.36 520.46 284.69 525.35 280.95 531.51 281.38 537.37 281.21 543.12 280.91 548.1 275.14 553.88 272.94 559.92 277.33 565.35 279.83 571.79 276.81 572.21 282.46 574.79 287.8 568.79 289.91 562.66 290.6 557.53 292.69 553.38 297.33 548.68 301.28 543.89 305.62 537.41 304.26"/><polygon class="cls-2" points="529.87 275.44 527 283.69 520.65 283.56 514.95 284.95 508.26 282.09 503.11 284.96 497.51 284.73 491.68 287.9 487.41 283.97 488.63 278.91 493.49 275.82 498.27 272.95 501.95 268.51 506.01 264.23 510.35 260.1 517.21 260.83 520.25 253.61 527.72 256.46 531.69 250.61 538.49 252.98 543.06 247.91 548.43 244.61 554.62 247.11 560.2 247.66 564.77 249.88 560.79 253.23 560.18 259.47 556.13 263.61 551.49 267.11 545.19 267.92 541.64 273.31 534.97 272.92 529.87 275.44"/><polygon class="cls-5" points="529.87 275.44 527 283.69 520.65 283.56 514.95 284.95 508.26 282.09 503.11 284.96 497.51 284.73 491.68 287.9 487.41 283.97 488.63 278.91 493.49 275.82 498.27 272.95 501.95 268.51 506.01 264.23 510.35 260.1 517.21 260.83 520.25 253.61 527.72 256.46 531.69 250.61 538.49 252.98 543.06 247.91 548.43 244.61 554.62 247.11 560.2 247.66 564.77 249.88 560.79 253.23 560.18 259.47 556.13 263.61 551.49 267.11 545.19 267.92 541.64 273.31 534.97 272.92 529.87 275.44"/><circle class="cls-4" cx="646.4" cy="178.43" r="13.87"/><circle class="cls-4" cx="665.17" cy="224.74" r="12.75" transform="translate(-35.68 266.79) rotate(-22.1)"/><path class="cls-4" d="M664.1,188.21a12.73,12.73,0,0,0-20.3-4.71c-.08-.23-.16-.47-.25-.71a12.79,12.79,0,1,0-3.33,14.3c.08.24.15.48.25.71a12.75,12.75,0,1,0,23.63-9.59Z"/><circle class="cls-4" cx="646.4" cy="208.4" r="14.13"/><circle class="cls-4" cx="665.17" cy="224.74" r="12.75" transform="translate(-35.68 266.79) rotate(-22.1)"/><path class="cls-4" d="M664.1,188.21a12.73,12.73,0,0,0-20.3-4.71c-.08-.23-.16-.47-.25-.71a12.79,12.79,0,1,0-3.33,14.3c.08.24.15.48.25.71a12.75,12.75,0,1,0,23.63-9.59Z"/><circle class="cls-4" cx="644.43" cy="208.4" r="14.13"/><circle class="cls-4" cx="665.04" cy="203.14" r="14.13"/><path class="cls-4" d="M631.3,203.12q-4,1.84-8.15,3.59a252.46,252.46,0,0,1-74,18.65"/><path class="cls-4" d="M636.34,219.35a106.47,106.47,0,0,0-16,4c-7.27,2.41-12.78,5.09-20.76,8.95-6,2.91-9,4.38-12.84,6.59a131.33,131.33,0,0,0-22.24,16.35"/><circle class="cls-4" cx="686.29" cy="322.68" r="12.68"/><circle class="cls-4" cx="668.7" cy="324.11" r="12.75" transform="translate(338.5 989.82) rotate(-89.48)"/><path class="cls-4" d="M655.63,358.24a12.71,12.71,0,0,0,16.93,12.15c0,.25,0,.5,0,.75a12.8,12.8,0,1,0,8.57-11.91c0-.25,0-.5,0-.76a12.75,12.75,0,0,0-25.5-.23Z"/><circle class="cls-4" cx="687.74" cy="346.66" r="14.13"/><circle class="cls-4" cx="673.61" cy="339.17" r="12.68"/><path class="cls-4" d="M662,335.72q-5.09.51-10.3.87a296.12,296.12,0,0,1-88.61-7.36"/><path class="cls-4" d="M656.73,354.5a123.88,123.88,0,0,0-18.86-1.3c-8.75.07-15.71,1-25.75,2.43-7.57,1.05-11.38,1.58-16.33,2.64a151,151,0,0,0-30,10"/></g><g id="HiddenGap"><polygon class="cls-2" points="541.53 359.75 535.66 360.69 529.81 360 523.71 361.72 518.27 357.86 513.03 354.68 507.76 352.7 500.7 353.65 496.59 347.3 502.24 343.22 506.13 337.93 512.67 338.92 518.83 340.53 524.16 338.32 529.57 335.19 535.16 331.06 541.16 334.37 546.93 336.23 552.74 335.2 558.58 335.03 564.46 335.12 569.5 339.2 575.18 339.89 582.5 338.89 582.45 346.06 581.92 352.16 575.86 353.69 570.78 357.18 565.18 359.49 559.11 359.17 553.48 362.06 547.15 355.55 541.53 359.75"/><polygon class="cls-3" points="541.53 359.75 535.66 360.69 529.81 360 523.71 361.72 518.27 357.86 513.03 354.68 507.76 352.7 500.7 353.65 496.59 347.3 502.24 343.22 506.13 337.93 512.67 338.92 518.83 340.53 524.16 338.32 529.57 335.19 535.16 331.06 541.16 334.37 546.93 336.23 552.74 335.2 558.58 335.03 564.46 335.12 569.5 339.2 575.18 339.89 582.5 338.89 582.45 346.06 581.92 352.16 575.86 353.69 570.78 357.18 565.18 359.49 559.11 359.17 553.48 362.06 547.15 355.55 541.53 359.75"/><polygon class="cls-2" points="535.24 335.43 529.21 330.07 523.51 334.63 517.51 337.27 511.93 333.31 505.94 333.78 499.47 334.57 495.44 328.45 496 324.13 494.9 319.94 499.51 316.46 504.3 312.44 510.32 311.94 516.52 313.15 521.85 310.01 527.42 307.24 533.38 307.81 539.23 306.8 545.13 306.81 551.03 307.11 556.43 311.95 562.42 310.69 568.88 309.4 573.55 314.04 574.48 318.87 572.24 321.34 568.17 324.67 564.26 330.52 557.3 327.27 552.16 330.33 546.61 332.09 540.88 332.9 535.24 335.43"/><polygon class="cls-3" points="535.24 335.43 529.21 330.07 523.51 334.63 517.51 337.27 511.93 333.31 505.94 333.78 499.47 334.57 495.44 328.45 496 324.13 494.9 319.94 499.51 316.46 504.3 312.44 510.32 311.94 516.52 313.15 521.85 310.01 527.42 307.24 533.38 307.81 539.23 306.8 545.13 306.81 551.03 307.11 556.43 311.95 562.42 310.69 568.88 309.4 573.55 314.04 574.48 318.87 572.24 321.34 568.17 324.67 564.26 330.52 557.3 327.27 552.16 330.33 546.61 332.09 540.88 332.9 535.24 335.43"/></g><g id="Camera"><rect x="771.11" y="329.43" width="49.71" height="30.29" rx="5.25"/><polygon points="749.79 355.5 749.87 334.49 769.65 339.93 769.65 349.66 749.79 355.5"/><circle class="cls-6" cx="784.76" cy="318.29" r="7.29"/><circle class="cls-6" cx="807.3" cy="318.29" r="7.29"/></g></g></svg>